%TF.GenerationSoftware,KiCad,Pcbnew,(5.1.9)-1*%
%TF.CreationDate,2021-03-04T22:01:39+01:00*%
%TF.ProjectId,Solaranlage,536f6c61-7261-46e6-9c61-67652e6b6963,rev?*%
%TF.SameCoordinates,Original*%
%TF.FileFunction,Soldermask,Bot*%
%TF.FilePolarity,Negative*%
%FSLAX46Y46*%
G04 Gerber Fmt 4.6, Leading zero omitted, Abs format (unit mm)*
G04 Created by KiCad (PCBNEW (5.1.9)-1) date 2021-03-04 22:01:39*
%MOMM*%
%LPD*%
G01*
G04 APERTURE LIST*
%ADD10C,1.700000*%
%ADD11C,3.900000*%
%ADD12C,1.600000*%
%ADD13C,5.700000*%
%ADD14O,1.500000X1.500000*%
%ADD15C,1.500000*%
%ADD16C,1.900000*%
%ADD17C,3.100000*%
%ADD18C,2.100000*%
%ADD19O,1.700000X1.700000*%
%ADD20O,2.700000X2.700000*%
%ADD21C,2.600000*%
%ADD22C,4.100000*%
%ADD23O,2.100000X2.100000*%
%ADD24O,1.800000X1.800000*%
%ADD25O,1.624000X2.624000*%
%ADD26C,0.900000*%
%ADD27C,6.500000*%
%ADD28C,1.540000*%
%ADD29O,2.500000X1.700000*%
%ADD30C,1.850000*%
%ADD31C,2.000000*%
%ADD32C,3.600000*%
G04 APERTURE END LIST*
D10*
%TO.C,C20*%
X218106000Y-59055000D03*
X213106000Y-59055000D03*
%TD*%
%TO.C,C15*%
X202057000Y-100631000D03*
X202057000Y-95631000D03*
%TD*%
%TO.C,C9*%
X159084000Y-113538000D03*
X164084000Y-113538000D03*
%TD*%
%TO.C,C8*%
X173148000Y-121000000D03*
X168148000Y-121000000D03*
%TD*%
%TO.C,C6*%
X173148000Y-124810000D03*
X168148000Y-124810000D03*
%TD*%
%TO.C,C5*%
X167974000Y-58928000D03*
X172974000Y-58928000D03*
%TD*%
%TO.C,C1*%
X215392000Y-112094000D03*
X215392000Y-117094000D03*
%TD*%
D11*
%TO.C,H6*%
X125008000Y-123413000D03*
%TD*%
D10*
%TO.C,C22*%
X98044000Y-117522000D03*
X98044000Y-112522000D03*
%TD*%
%TO.C,C21*%
X204517000Y-80518000D03*
X199517000Y-80518000D03*
%TD*%
%TO.C,C19*%
X201977000Y-74168000D03*
X196977000Y-74168000D03*
%TD*%
%TO.C,C17*%
X187405000Y-59182000D03*
X192405000Y-59182000D03*
%TD*%
%TO.C,C14*%
X169625000Y-85948000D03*
X174625000Y-85948000D03*
%TD*%
%TO.C,C10*%
X200072000Y-59182000D03*
X195072000Y-59182000D03*
%TD*%
%TO.C,C7*%
X90471000Y-59690000D03*
X85471000Y-59690000D03*
%TD*%
%TO.C,C4*%
X226060000Y-95330000D03*
X226060000Y-100330000D03*
%TD*%
%TO.C,C3*%
X227250000Y-68072000D03*
X222250000Y-68072000D03*
%TD*%
%TO.C,C2*%
X201596000Y-91059000D03*
X196596000Y-91059000D03*
%TD*%
%TO.C,Q1*%
G36*
G01*
X218148000Y-95746000D02*
X218148000Y-94246000D01*
G75*
G02*
X218198000Y-94196000I50000J0D01*
G01*
X219698000Y-94196000D01*
G75*
G02*
X219748000Y-94246000I0J-50000D01*
G01*
X219748000Y-95746000D01*
G75*
G02*
X219698000Y-95796000I-50000J0D01*
G01*
X218198000Y-95796000D01*
G75*
G02*
X218148000Y-95746000I0J50000D01*
G01*
G37*
D12*
X218948000Y-100076000D03*
X221488000Y-97536000D03*
%TD*%
%TO.C,Q2*%
G36*
G01*
X94907000Y-96405000D02*
X94907000Y-97905000D01*
G75*
G02*
X94857000Y-97955000I-50000J0D01*
G01*
X93357000Y-97955000D01*
G75*
G02*
X93307000Y-97905000I0J50000D01*
G01*
X93307000Y-96405000D01*
G75*
G02*
X93357000Y-96355000I50000J0D01*
G01*
X94857000Y-96355000D01*
G75*
G02*
X94907000Y-96405000I0J-50000D01*
G01*
G37*
X89027000Y-97155000D03*
X91567000Y-99695000D03*
%TD*%
D13*
%TO.C,H5*%
X153008000Y-123413000D03*
%TD*%
D14*
%TO.C,GND2*%
X96266000Y-64770000D03*
D15*
X88646000Y-64770000D03*
%TD*%
D14*
%TO.C,GND1*%
X213741000Y-137033000D03*
D15*
X213741000Y-129413000D03*
%TD*%
D14*
%TO.C,R32*%
X103124000Y-78232000D03*
D15*
X103124000Y-70612000D03*
%TD*%
D14*
%TO.C,R31*%
X100457000Y-99314000D03*
D15*
X108077000Y-99314000D03*
%TD*%
D14*
%TO.C,R28*%
X102362000Y-102489000D03*
D15*
X109982000Y-102489000D03*
%TD*%
D14*
%TO.C,R27*%
X110236000Y-83439000D03*
D15*
X110236000Y-75819000D03*
%TD*%
D14*
%TO.C,R26*%
X112776000Y-81534000D03*
D15*
X112776000Y-89154000D03*
%TD*%
D16*
%TO.C,D13*%
X101981000Y-65532000D03*
G36*
G01*
X105471000Y-64632000D02*
X105471000Y-66432000D01*
G75*
G02*
X105421000Y-66482000I-50000J0D01*
G01*
X103621000Y-66482000D01*
G75*
G02*
X103571000Y-66432000I0J50000D01*
G01*
X103571000Y-64632000D01*
G75*
G02*
X103621000Y-64582000I50000J0D01*
G01*
X105421000Y-64582000D01*
G75*
G02*
X105471000Y-64632000I0J-50000D01*
G01*
G37*
%TD*%
%TO.C,D12*%
X101981000Y-92202000D03*
G36*
G01*
X105471000Y-91302000D02*
X105471000Y-93102000D01*
G75*
G02*
X105421000Y-93152000I-50000J0D01*
G01*
X103621000Y-93152000D01*
G75*
G02*
X103571000Y-93102000I0J50000D01*
G01*
X103571000Y-91302000D01*
G75*
G02*
X103621000Y-91252000I50000J0D01*
G01*
X105421000Y-91252000D01*
G75*
G02*
X105471000Y-91302000I0J-50000D01*
G01*
G37*
%TD*%
%TO.C,D7*%
X115443000Y-102489000D03*
G36*
G01*
X111953000Y-103389000D02*
X111953000Y-101589000D01*
G75*
G02*
X112003000Y-101539000I50000J0D01*
G01*
X113803000Y-101539000D01*
G75*
G02*
X113853000Y-101589000I0J-50000D01*
G01*
X113853000Y-103389000D01*
G75*
G02*
X113803000Y-103439000I-50000J0D01*
G01*
X112003000Y-103439000D01*
G75*
G02*
X111953000Y-103389000I0J50000D01*
G01*
G37*
%TD*%
%TO.C,D6*%
X115443000Y-75819000D03*
G36*
G01*
X111953000Y-76719000D02*
X111953000Y-74919000D01*
G75*
G02*
X112003000Y-74869000I50000J0D01*
G01*
X113803000Y-74869000D01*
G75*
G02*
X113853000Y-74919000I0J-50000D01*
G01*
X113853000Y-76719000D01*
G75*
G02*
X113803000Y-76769000I-50000J0D01*
G01*
X112003000Y-76769000D01*
G75*
G02*
X111953000Y-76719000I0J50000D01*
G01*
G37*
%TD*%
%TO.C,D5*%
X115443000Y-92202000D03*
G36*
G01*
X111953000Y-93102000D02*
X111953000Y-91302000D01*
G75*
G02*
X112003000Y-91252000I50000J0D01*
G01*
X113803000Y-91252000D01*
G75*
G02*
X113853000Y-91302000I0J-50000D01*
G01*
X113853000Y-93102000D01*
G75*
G02*
X113803000Y-93152000I-50000J0D01*
G01*
X112003000Y-93152000D01*
G75*
G02*
X111953000Y-93102000I0J50000D01*
G01*
G37*
%TD*%
D10*
%TO.C,C23*%
X84161000Y-70231000D03*
G36*
G01*
X80811000Y-71031000D02*
X80811000Y-69431000D01*
G75*
G02*
X80861000Y-69381000I50000J0D01*
G01*
X82461000Y-69381000D01*
G75*
G02*
X82511000Y-69431000I0J-50000D01*
G01*
X82511000Y-71031000D01*
G75*
G02*
X82461000Y-71081000I-50000J0D01*
G01*
X80861000Y-71081000D01*
G75*
G02*
X80811000Y-71031000I0J50000D01*
G01*
G37*
%TD*%
D17*
%TO.C,F1*%
X72517000Y-70869000D03*
X72517000Y-93469000D03*
%TD*%
D14*
%TO.C,R35*%
X84963000Y-76962000D03*
D15*
X84963000Y-84582000D03*
%TD*%
D18*
%TO.C,BZ1*%
X85070000Y-101600000D03*
G36*
G01*
X76420000Y-102600000D02*
X76420000Y-100600000D01*
G75*
G02*
X76470000Y-100550000I50000J0D01*
G01*
X78470000Y-100550000D01*
G75*
G02*
X78520000Y-100600000I0J-50000D01*
G01*
X78520000Y-102600000D01*
G75*
G02*
X78470000Y-102650000I-50000J0D01*
G01*
X76470000Y-102650000D01*
G75*
G02*
X76420000Y-102600000I0J50000D01*
G01*
G37*
%TD*%
D19*
%TO.C,U11*%
X179578000Y-123444000D03*
X194818000Y-131064000D03*
X182118000Y-123444000D03*
X192278000Y-131064000D03*
X184658000Y-123444000D03*
X189738000Y-131064000D03*
X187198000Y-123444000D03*
X187198000Y-131064000D03*
X189738000Y-123444000D03*
X184658000Y-131064000D03*
X192278000Y-123444000D03*
X182118000Y-131064000D03*
X194818000Y-123444000D03*
G36*
G01*
X180378000Y-131914000D02*
X178778000Y-131914000D01*
G75*
G02*
X178728000Y-131864000I0J50000D01*
G01*
X178728000Y-130264000D01*
G75*
G02*
X178778000Y-130214000I50000J0D01*
G01*
X180378000Y-130214000D01*
G75*
G02*
X180428000Y-130264000I0J-50000D01*
G01*
X180428000Y-131864000D01*
G75*
G02*
X180378000Y-131914000I-50000J0D01*
G01*
G37*
%TD*%
D14*
%TO.C,R34*%
X177038000Y-137033000D03*
D15*
X184658000Y-137033000D03*
%TD*%
D14*
%TO.C,R33*%
X104521000Y-127127000D03*
D15*
X96901000Y-127127000D03*
%TD*%
D20*
%TO.C,D14*%
X89408000Y-124714000D03*
G36*
G01*
X90708000Y-129874000D02*
X88108000Y-129874000D01*
G75*
G02*
X88058000Y-129824000I0J50000D01*
G01*
X88058000Y-127224000D01*
G75*
G02*
X88108000Y-127174000I50000J0D01*
G01*
X90708000Y-127174000D01*
G75*
G02*
X90758000Y-127224000I0J-50000D01*
G01*
X90758000Y-129824000D01*
G75*
G02*
X90708000Y-129874000I-50000J0D01*
G01*
G37*
%TD*%
%TO.C,J7*%
G36*
G01*
X86965000Y-136886000D02*
X86965000Y-134386000D01*
G75*
G02*
X87015000Y-134336000I50000J0D01*
G01*
X89515000Y-134336000D01*
G75*
G02*
X89565000Y-134386000I0J-50000D01*
G01*
X89565000Y-136886000D01*
G75*
G02*
X89515000Y-136936000I-50000J0D01*
G01*
X87015000Y-136936000D01*
G75*
G02*
X86965000Y-136886000I0J50000D01*
G01*
G37*
D21*
X95765000Y-135636000D03*
X103265000Y-135636000D03*
%TD*%
D22*
%TO.C,J4*%
X59158000Y-125273000D03*
X59158000Y-113273000D03*
D10*
X62018000Y-120523000D03*
X62018000Y-118023000D03*
X64018000Y-118023000D03*
G36*
G01*
X63218000Y-119673000D02*
X64818000Y-119673000D01*
G75*
G02*
X64868000Y-119723000I0J-50000D01*
G01*
X64868000Y-121323000D01*
G75*
G02*
X64818000Y-121373000I-50000J0D01*
G01*
X63218000Y-121373000D01*
G75*
G02*
X63168000Y-121323000I0J50000D01*
G01*
X63168000Y-119723000D01*
G75*
G02*
X63218000Y-119673000I50000J0D01*
G01*
G37*
%TD*%
D23*
%TO.C,L3*%
X78867000Y-66040000D03*
D18*
X73787000Y-66040000D03*
%TD*%
D19*
%TO.C,U12*%
X88646000Y-89154000D03*
X96266000Y-71374000D03*
X88646000Y-86614000D03*
X96266000Y-73914000D03*
X88646000Y-84074000D03*
X96266000Y-76454000D03*
X88646000Y-81534000D03*
X96266000Y-78994000D03*
X88646000Y-78994000D03*
X96266000Y-81534000D03*
X88646000Y-76454000D03*
X96266000Y-84074000D03*
X88646000Y-73914000D03*
X96266000Y-86614000D03*
X88646000Y-71374000D03*
G36*
G01*
X97116000Y-88354000D02*
X97116000Y-89954000D01*
G75*
G02*
X97066000Y-90004000I-50000J0D01*
G01*
X95466000Y-90004000D01*
G75*
G02*
X95416000Y-89954000I0J50000D01*
G01*
X95416000Y-88354000D01*
G75*
G02*
X95466000Y-88304000I50000J0D01*
G01*
X97066000Y-88304000D01*
G75*
G02*
X97116000Y-88354000I0J-50000D01*
G01*
G37*
%TD*%
D20*
%TO.C,D11*%
X171831000Y-131826000D03*
G36*
G01*
X173131000Y-136986000D02*
X170531000Y-136986000D01*
G75*
G02*
X170481000Y-136936000I0J50000D01*
G01*
X170481000Y-134336000D01*
G75*
G02*
X170531000Y-134286000I50000J0D01*
G01*
X173131000Y-134286000D01*
G75*
G02*
X173181000Y-134336000I0J-50000D01*
G01*
X173181000Y-136936000D01*
G75*
G02*
X173131000Y-136986000I-50000J0D01*
G01*
G37*
%TD*%
%TO.C,D10*%
X68961000Y-101219000D03*
G36*
G01*
X67661000Y-96059000D02*
X70261000Y-96059000D01*
G75*
G02*
X70311000Y-96109000I0J-50000D01*
G01*
X70311000Y-98709000D01*
G75*
G02*
X70261000Y-98759000I-50000J0D01*
G01*
X67661000Y-98759000D01*
G75*
G02*
X67611000Y-98709000I0J50000D01*
G01*
X67611000Y-96109000D01*
G75*
G02*
X67661000Y-96059000I50000J0D01*
G01*
G37*
%TD*%
%TO.C,D9*%
X214503000Y-105029000D03*
G36*
G01*
X215803000Y-110189000D02*
X213203000Y-110189000D01*
G75*
G02*
X213153000Y-110139000I0J50000D01*
G01*
X213153000Y-107539000D01*
G75*
G02*
X213203000Y-107489000I50000J0D01*
G01*
X215803000Y-107489000D01*
G75*
G02*
X215853000Y-107539000I0J-50000D01*
G01*
X215853000Y-110139000D01*
G75*
G02*
X215803000Y-110189000I-50000J0D01*
G01*
G37*
%TD*%
%TO.C,D8*%
X212090000Y-77978000D03*
G36*
G01*
X217250000Y-76678000D02*
X217250000Y-79278000D01*
G75*
G02*
X217200000Y-79328000I-50000J0D01*
G01*
X214600000Y-79328000D01*
G75*
G02*
X214550000Y-79278000I0J50000D01*
G01*
X214550000Y-76678000D01*
G75*
G02*
X214600000Y-76628000I50000J0D01*
G01*
X217200000Y-76628000D01*
G75*
G02*
X217250000Y-76678000I0J-50000D01*
G01*
G37*
%TD*%
D14*
%TO.C,R21*%
X194818000Y-120396000D03*
D15*
X187198000Y-120396000D03*
%TD*%
D14*
%TO.C,R19*%
X198247000Y-131191000D03*
D15*
X198247000Y-123571000D03*
%TD*%
D14*
%TO.C,R13*%
X199898000Y-133985000D03*
D15*
X192278000Y-133985000D03*
%TD*%
D14*
%TO.C,R12*%
X177038000Y-133985000D03*
D15*
X184658000Y-133985000D03*
%TD*%
D10*
%TO.C,C18*%
X78780000Y-59690000D03*
G36*
G01*
X82130000Y-58890000D02*
X82130000Y-60490000D01*
G75*
G02*
X82080000Y-60540000I-50000J0D01*
G01*
X80480000Y-60540000D01*
G75*
G02*
X80430000Y-60490000I0J50000D01*
G01*
X80430000Y-58890000D01*
G75*
G02*
X80480000Y-58840000I50000J0D01*
G01*
X82080000Y-58840000D01*
G75*
G02*
X82130000Y-58890000I0J-50000D01*
G01*
G37*
%TD*%
%TO.C,C11*%
X208748000Y-89281000D03*
G36*
G01*
X205398000Y-90081000D02*
X205398000Y-88481000D01*
G75*
G02*
X205448000Y-88431000I50000J0D01*
G01*
X207048000Y-88431000D01*
G75*
G02*
X207098000Y-88481000I0J-50000D01*
G01*
X207098000Y-90081000D01*
G75*
G02*
X207048000Y-90131000I-50000J0D01*
G01*
X205448000Y-90131000D01*
G75*
G02*
X205398000Y-90081000I0J50000D01*
G01*
G37*
%TD*%
D23*
%TO.C,L2*%
X205486000Y-83439000D03*
D18*
X210566000Y-83439000D03*
%TD*%
D23*
%TO.C,L1*%
X196596000Y-86741000D03*
D18*
X201676000Y-86741000D03*
%TD*%
D21*
%TO.C,J1*%
X223266000Y-77971000D03*
G36*
G01*
X224516000Y-86771000D02*
X222016000Y-86771000D01*
G75*
G02*
X221966000Y-86721000I0J50000D01*
G01*
X221966000Y-84221000D01*
G75*
G02*
X222016000Y-84171000I50000J0D01*
G01*
X224516000Y-84171000D01*
G75*
G02*
X224566000Y-84221000I0J-50000D01*
G01*
X224566000Y-86721000D01*
G75*
G02*
X224516000Y-86771000I-50000J0D01*
G01*
G37*
%TD*%
%TO.C,J2*%
X223266000Y-109690000D03*
G36*
G01*
X224516000Y-118490000D02*
X222016000Y-118490000D01*
G75*
G02*
X221966000Y-118440000I0J50000D01*
G01*
X221966000Y-115940000D01*
G75*
G02*
X222016000Y-115890000I50000J0D01*
G01*
X224516000Y-115890000D01*
G75*
G02*
X224566000Y-115940000I0J-50000D01*
G01*
X224566000Y-118440000D01*
G75*
G02*
X224516000Y-118490000I-50000J0D01*
G01*
G37*
%TD*%
D24*
%TO.C,J3*%
X59538000Y-82423000D03*
X62078000Y-82423000D03*
X59538000Y-79883000D03*
X62078000Y-79883000D03*
X59538000Y-77343000D03*
X62078000Y-77343000D03*
X59538000Y-74803000D03*
X62078000Y-74803000D03*
X59538000Y-72263000D03*
G36*
G01*
X61178000Y-73113000D02*
X61178000Y-71413000D01*
G75*
G02*
X61228000Y-71363000I50000J0D01*
G01*
X62928000Y-71363000D01*
G75*
G02*
X62978000Y-71413000I0J-50000D01*
G01*
X62978000Y-73113000D01*
G75*
G02*
X62928000Y-73163000I-50000J0D01*
G01*
X61228000Y-73163000D01*
G75*
G02*
X61178000Y-73113000I0J50000D01*
G01*
G37*
%TD*%
D14*
%TO.C,R1*%
X216408000Y-82296000D03*
D15*
X216408000Y-89916000D03*
%TD*%
D14*
%TO.C,R2*%
X226060000Y-103505000D03*
D15*
X218440000Y-103505000D03*
%TD*%
D14*
%TO.C,R3*%
X166243000Y-63088000D03*
D15*
X173863000Y-63088000D03*
%TD*%
D14*
%TO.C,R4*%
X166243000Y-68168000D03*
D15*
X173863000Y-68168000D03*
%TD*%
D14*
%TO.C,R5*%
X166243000Y-73248000D03*
D15*
X173863000Y-73248000D03*
%TD*%
D14*
%TO.C,R6*%
X166243000Y-78328000D03*
D15*
X173863000Y-78328000D03*
%TD*%
D14*
%TO.C,R7*%
X166243000Y-65628000D03*
D15*
X173863000Y-65628000D03*
%TD*%
D14*
%TO.C,R8*%
X166243000Y-70708000D03*
D15*
X173863000Y-70708000D03*
%TD*%
D14*
%TO.C,R9*%
X166243000Y-75788000D03*
D15*
X173863000Y-75788000D03*
%TD*%
D14*
%TO.C,R10*%
X166243000Y-80868000D03*
D15*
X173863000Y-80868000D03*
%TD*%
D14*
%TO.C,R11*%
X183388000Y-58928000D03*
D15*
X175768000Y-58928000D03*
%TD*%
D14*
%TO.C,R14*%
X168148000Y-128620000D03*
D15*
X175768000Y-128620000D03*
%TD*%
D14*
%TO.C,R15*%
X168148000Y-117602000D03*
D15*
X175768000Y-117602000D03*
%TD*%
%TO.C,U1*%
G36*
G01*
X119711000Y-79590000D02*
X119711000Y-77066000D01*
G75*
G02*
X119761000Y-77016000I50000J0D01*
G01*
X121285000Y-77016000D01*
G75*
G02*
X121335000Y-77066000I0J-50000D01*
G01*
X121335000Y-79590000D01*
G75*
G02*
X121285000Y-79640000I-50000J0D01*
G01*
X119761000Y-79640000D01*
G75*
G02*
X119711000Y-79590000I0J50000D01*
G01*
G37*
D25*
X123063000Y-78328000D03*
X125603000Y-78328000D03*
X128143000Y-78328000D03*
X130683000Y-78328000D03*
X130683000Y-63088000D03*
X128143000Y-63088000D03*
X125603000Y-63088000D03*
X123063000Y-63088000D03*
X120523000Y-63088000D03*
%TD*%
%TO.C,U2*%
G36*
G01*
X119711000Y-106260000D02*
X119711000Y-103736000D01*
G75*
G02*
X119761000Y-103686000I50000J0D01*
G01*
X121285000Y-103686000D01*
G75*
G02*
X121335000Y-103736000I0J-50000D01*
G01*
X121335000Y-106260000D01*
G75*
G02*
X121285000Y-106310000I-50000J0D01*
G01*
X119761000Y-106310000D01*
G75*
G02*
X119711000Y-106260000I0J50000D01*
G01*
G37*
X123063000Y-104998000D03*
X125603000Y-104998000D03*
X128143000Y-104998000D03*
X130683000Y-104998000D03*
X130683000Y-89758000D03*
X128143000Y-89758000D03*
X125603000Y-89758000D03*
X123063000Y-89758000D03*
X120523000Y-89758000D03*
%TD*%
%TO.C,U3*%
G36*
G01*
X133116000Y-79590000D02*
X133116000Y-77066000D01*
G75*
G02*
X133166000Y-77016000I50000J0D01*
G01*
X134690000Y-77016000D01*
G75*
G02*
X134740000Y-77066000I0J-50000D01*
G01*
X134740000Y-79590000D01*
G75*
G02*
X134690000Y-79640000I-50000J0D01*
G01*
X133166000Y-79640000D01*
G75*
G02*
X133116000Y-79590000I0J50000D01*
G01*
G37*
X136468000Y-78328000D03*
X139008000Y-78328000D03*
X141548000Y-78328000D03*
X144088000Y-78328000D03*
X144088000Y-63088000D03*
X141548000Y-63088000D03*
X139008000Y-63088000D03*
X136468000Y-63088000D03*
X133928000Y-63088000D03*
%TD*%
%TO.C,U4*%
G36*
G01*
X133116000Y-106260000D02*
X133116000Y-103736000D01*
G75*
G02*
X133166000Y-103686000I50000J0D01*
G01*
X134690000Y-103686000D01*
G75*
G02*
X134740000Y-103736000I0J-50000D01*
G01*
X134740000Y-106260000D01*
G75*
G02*
X134690000Y-106310000I-50000J0D01*
G01*
X133166000Y-106310000D01*
G75*
G02*
X133116000Y-106260000I0J50000D01*
G01*
G37*
X136468000Y-104998000D03*
X139008000Y-104998000D03*
X141548000Y-104998000D03*
X144088000Y-104998000D03*
X144088000Y-89758000D03*
X141548000Y-89758000D03*
X139008000Y-89758000D03*
X136468000Y-89758000D03*
X133928000Y-89758000D03*
%TD*%
%TO.C,U5*%
G36*
G01*
X146381000Y-79590000D02*
X146381000Y-77066000D01*
G75*
G02*
X146431000Y-77016000I50000J0D01*
G01*
X147955000Y-77016000D01*
G75*
G02*
X148005000Y-77066000I0J-50000D01*
G01*
X148005000Y-79590000D01*
G75*
G02*
X147955000Y-79640000I-50000J0D01*
G01*
X146431000Y-79640000D01*
G75*
G02*
X146381000Y-79590000I0J50000D01*
G01*
G37*
X149733000Y-78328000D03*
X152273000Y-78328000D03*
X154813000Y-78328000D03*
X157353000Y-78328000D03*
X157353000Y-63088000D03*
X154813000Y-63088000D03*
X152273000Y-63088000D03*
X149733000Y-63088000D03*
X147193000Y-63088000D03*
%TD*%
%TO.C,U6*%
G36*
G01*
X146381000Y-106260000D02*
X146381000Y-103736000D01*
G75*
G02*
X146431000Y-103686000I50000J0D01*
G01*
X147955000Y-103686000D01*
G75*
G02*
X148005000Y-103736000I0J-50000D01*
G01*
X148005000Y-106260000D01*
G75*
G02*
X147955000Y-106310000I-50000J0D01*
G01*
X146431000Y-106310000D01*
G75*
G02*
X146381000Y-106260000I0J50000D01*
G01*
G37*
X149733000Y-104998000D03*
X152273000Y-104998000D03*
X154813000Y-104998000D03*
X157353000Y-104998000D03*
X157353000Y-89758000D03*
X154813000Y-89758000D03*
X152273000Y-89758000D03*
X149733000Y-89758000D03*
X147193000Y-89758000D03*
%TD*%
D26*
%TO.C,H1*%
X56975056Y-132010944D03*
X55278000Y-131308000D03*
X53580944Y-132010944D03*
X52878000Y-133708000D03*
X53580944Y-135405056D03*
X55278000Y-136108000D03*
X56975056Y-135405056D03*
X57678000Y-133708000D03*
D27*
X55278000Y-133708000D03*
%TD*%
D26*
%TO.C,H2*%
X224285056Y-60010944D03*
X222588000Y-59308000D03*
X220890944Y-60010944D03*
X220188000Y-61708000D03*
X220890944Y-63405056D03*
X222588000Y-64108000D03*
X224285056Y-63405056D03*
X224988000Y-61708000D03*
D27*
X222588000Y-61708000D03*
%TD*%
D26*
%TO.C,H3*%
X56975056Y-60010944D03*
X55278000Y-59308000D03*
X53580944Y-60010944D03*
X52878000Y-61708000D03*
X53580944Y-63405056D03*
X55278000Y-64108000D03*
X56975056Y-63405056D03*
X57678000Y-61708000D03*
D27*
X55278000Y-61708000D03*
%TD*%
D26*
%TO.C,H4*%
X224285056Y-132010944D03*
X222588000Y-131308000D03*
X220890944Y-132010944D03*
X220188000Y-133708000D03*
X220890944Y-135405056D03*
X222588000Y-136108000D03*
X224285056Y-135405056D03*
X224988000Y-133708000D03*
D27*
X222588000Y-133708000D03*
%TD*%
D14*
%TO.C,R16*%
X156718000Y-117190000D03*
D15*
X164338000Y-117190000D03*
%TD*%
D21*
%TO.C,J6*%
X162948000Y-135636000D03*
G36*
G01*
X154148000Y-136886000D02*
X154148000Y-134386000D01*
G75*
G02*
X154198000Y-134336000I50000J0D01*
G01*
X156698000Y-134336000D01*
G75*
G02*
X156748000Y-134386000I0J-50000D01*
G01*
X156748000Y-136886000D01*
G75*
G02*
X156698000Y-136936000I-50000J0D01*
G01*
X154198000Y-136936000D01*
G75*
G02*
X154148000Y-136886000I0J50000D01*
G01*
G37*
%TD*%
D16*
%TO.C,D2*%
X115570000Y-130429000D03*
G36*
G01*
X112080000Y-131329000D02*
X112080000Y-129529000D01*
G75*
G02*
X112130000Y-129479000I50000J0D01*
G01*
X113930000Y-129479000D01*
G75*
G02*
X113980000Y-129529000I0J-50000D01*
G01*
X113980000Y-131329000D01*
G75*
G02*
X113930000Y-131379000I-50000J0D01*
G01*
X112130000Y-131379000D01*
G75*
G02*
X112080000Y-131329000I0J50000D01*
G01*
G37*
%TD*%
D14*
%TO.C,R18*%
X119634000Y-130302000D03*
D15*
X119634000Y-122682000D03*
%TD*%
D16*
%TO.C,D1*%
X78750000Y-130429000D03*
G36*
G01*
X75260000Y-131329000D02*
X75260000Y-129529000D01*
G75*
G02*
X75310000Y-129479000I50000J0D01*
G01*
X77110000Y-129479000D01*
G75*
G02*
X77160000Y-129529000I0J-50000D01*
G01*
X77160000Y-131329000D01*
G75*
G02*
X77110000Y-131379000I-50000J0D01*
G01*
X75310000Y-131379000D01*
G75*
G02*
X75260000Y-131329000I0J50000D01*
G01*
G37*
%TD*%
D14*
%TO.C,R17*%
X78750000Y-124333000D03*
D15*
X71130000Y-124333000D03*
%TD*%
D22*
%TO.C,J5*%
X59158000Y-102128000D03*
X59158000Y-90128000D03*
D10*
X62018000Y-97378000D03*
X62018000Y-94878000D03*
X64018000Y-94878000D03*
G36*
G01*
X63218000Y-96528000D02*
X64818000Y-96528000D01*
G75*
G02*
X64868000Y-96578000I0J-50000D01*
G01*
X64868000Y-98178000D01*
G75*
G02*
X64818000Y-98228000I-50000J0D01*
G01*
X63218000Y-98228000D01*
G75*
G02*
X63168000Y-98178000I0J50000D01*
G01*
X63168000Y-96578000D01*
G75*
G02*
X63218000Y-96528000I50000J0D01*
G01*
G37*
%TD*%
D16*
%TO.C,D3*%
X205994000Y-130429000D03*
G36*
G01*
X202504000Y-131329000D02*
X202504000Y-129529000D01*
G75*
G02*
X202554000Y-129479000I50000J0D01*
G01*
X204354000Y-129479000D01*
G75*
G02*
X204404000Y-129529000I0J-50000D01*
G01*
X204404000Y-131329000D01*
G75*
G02*
X204354000Y-131379000I-50000J0D01*
G01*
X202554000Y-131379000D01*
G75*
G02*
X202504000Y-131329000I0J50000D01*
G01*
G37*
%TD*%
D14*
%TO.C,R20*%
X208788000Y-123952000D03*
D15*
X201168000Y-123952000D03*
%TD*%
D10*
%TO.C,C12*%
X167433000Y-88646000D03*
X162433000Y-88646000D03*
%TD*%
%TO.C,C13*%
X162433000Y-97663000D03*
X167433000Y-97663000D03*
%TD*%
D12*
%TO.C,Y1*%
X167841000Y-93218000D03*
X162941000Y-93218000D03*
%TD*%
D14*
%TO.C,R22*%
X205486000Y-94214000D03*
D15*
X205486000Y-101834000D03*
%TD*%
D14*
%TO.C,R23*%
X208280000Y-94214000D03*
D15*
X208280000Y-101834000D03*
%TD*%
D10*
%TO.C,C16*%
X196636000Y-116586000D03*
G36*
G01*
X199986000Y-115786000D02*
X199986000Y-117386000D01*
G75*
G02*
X199936000Y-117436000I-50000J0D01*
G01*
X198336000Y-117436000D01*
G75*
G02*
X198286000Y-117386000I0J50000D01*
G01*
X198286000Y-115786000D01*
G75*
G02*
X198336000Y-115736000I50000J0D01*
G01*
X199936000Y-115736000D01*
G75*
G02*
X199986000Y-115786000I0J-50000D01*
G01*
G37*
%TD*%
D14*
%TO.C,R24*%
X208788000Y-120650000D03*
D15*
X201168000Y-120650000D03*
%TD*%
D19*
%TO.C,U10*%
X210439000Y-107188000D03*
X202819000Y-114808000D03*
X210439000Y-109728000D03*
X202819000Y-112268000D03*
X210439000Y-112268000D03*
X202819000Y-109728000D03*
X210439000Y-114808000D03*
G36*
G01*
X201969000Y-107988000D02*
X201969000Y-106388000D01*
G75*
G02*
X202019000Y-106338000I50000J0D01*
G01*
X203619000Y-106338000D01*
G75*
G02*
X203669000Y-106388000I0J-50000D01*
G01*
X203669000Y-107988000D01*
G75*
G02*
X203619000Y-108038000I-50000J0D01*
G01*
X202019000Y-108038000D01*
G75*
G02*
X201969000Y-107988000I0J50000D01*
G01*
G37*
%TD*%
%TO.C,U7*%
G36*
G01*
X176315000Y-63893600D02*
X176315000Y-62293600D01*
G75*
G02*
X176365000Y-62243600I50000J0D01*
G01*
X177965000Y-62243600D01*
G75*
G02*
X178015000Y-62293600I0J-50000D01*
G01*
X178015000Y-63893600D01*
G75*
G02*
X177965000Y-63943600I-50000J0D01*
G01*
X176365000Y-63943600D01*
G75*
G02*
X176315000Y-63893600I0J50000D01*
G01*
G37*
X192405000Y-111353600D03*
X177165000Y-65633600D03*
X192405000Y-108813600D03*
X177165000Y-68173600D03*
X192405000Y-106273600D03*
X177165000Y-70713600D03*
X192405000Y-103733600D03*
X177165000Y-73253600D03*
X192405000Y-101193600D03*
X177165000Y-75793600D03*
X192405000Y-98653600D03*
X177165000Y-78333600D03*
X192405000Y-96113600D03*
X177165000Y-80873600D03*
X192405000Y-93573600D03*
X177165000Y-83413600D03*
X192405000Y-91033600D03*
X177165000Y-85953600D03*
X192405000Y-88493600D03*
X177165000Y-88493600D03*
X192405000Y-85953600D03*
X177165000Y-91033600D03*
X192405000Y-83413600D03*
X177165000Y-93573600D03*
X192405000Y-80873600D03*
X177165000Y-96113600D03*
X192405000Y-78333600D03*
X177165000Y-98653600D03*
X192405000Y-75793600D03*
X177165000Y-101193600D03*
X192405000Y-73253600D03*
X177165000Y-103733600D03*
X192405000Y-70713600D03*
X177165000Y-106273600D03*
X192405000Y-68173600D03*
X177165000Y-108813600D03*
X192405000Y-65633600D03*
X177165000Y-111353600D03*
X192405000Y-63093600D03*
%TD*%
D28*
%TO.C,RV1*%
X198755000Y-69596000D03*
X198755000Y-67056000D03*
X198755000Y-64516000D03*
%TD*%
%TO.C,RV2*%
X217170000Y-69596000D03*
X217170000Y-67056000D03*
X217170000Y-64516000D03*
%TD*%
D29*
%TO.C,U9*%
X210820000Y-62611000D03*
X203200000Y-70231000D03*
X210820000Y-65151000D03*
X203200000Y-67691000D03*
X210820000Y-67691000D03*
X203200000Y-65151000D03*
X210820000Y-70231000D03*
G36*
G01*
X201950000Y-63411000D02*
X201950000Y-61811000D01*
G75*
G02*
X202000000Y-61761000I50000J0D01*
G01*
X204400000Y-61761000D01*
G75*
G02*
X204450000Y-61811000I0J-50000D01*
G01*
X204450000Y-63411000D01*
G75*
G02*
X204400000Y-63461000I-50000J0D01*
G01*
X202000000Y-63461000D01*
G75*
G02*
X201950000Y-63411000I0J50000D01*
G01*
G37*
%TD*%
%TO.C,JP1*%
G36*
G01*
X211825000Y-100926000D02*
X211825000Y-99226000D01*
G75*
G02*
X211875000Y-99176000I50000J0D01*
G01*
X213575000Y-99176000D01*
G75*
G02*
X213625000Y-99226000I0J-50000D01*
G01*
X213625000Y-100926000D01*
G75*
G02*
X213575000Y-100976000I-50000J0D01*
G01*
X211875000Y-100976000D01*
G75*
G02*
X211825000Y-100926000I0J50000D01*
G01*
G37*
D24*
X212725000Y-97536000D03*
X212725000Y-94996000D03*
%TD*%
D16*
%TO.C,D4*%
X115443000Y-65532000D03*
G36*
G01*
X111953000Y-66432000D02*
X111953000Y-64632000D01*
G75*
G02*
X112003000Y-64582000I50000J0D01*
G01*
X113803000Y-64582000D01*
G75*
G02*
X113853000Y-64632000I0J-50000D01*
G01*
X113853000Y-66432000D01*
G75*
G02*
X113803000Y-66482000I-50000J0D01*
G01*
X112003000Y-66482000D01*
G75*
G02*
X111953000Y-66432000I0J50000D01*
G01*
G37*
%TD*%
D14*
%TO.C,R25*%
X107188000Y-57404000D03*
D15*
X107188000Y-65024000D03*
%TD*%
D14*
%TO.C,R29*%
X210566000Y-59182000D03*
D15*
X202946000Y-59182000D03*
%TD*%
D14*
%TO.C,R30*%
X207137000Y-77343000D03*
D15*
X199517000Y-77343000D03*
%TD*%
D17*
%TO.C,SW2*%
X63382000Y-59690000D03*
X68082000Y-59690000D03*
X72782000Y-59690000D03*
%TD*%
D30*
%TO.C,SW1*%
X148008000Y-118413000D03*
X148008000Y-120913000D03*
X148008000Y-123413000D03*
X148008000Y-128413000D03*
X148008000Y-125913000D03*
D31*
X139008000Y-123413000D03*
D32*
X131508000Y-131713000D03*
X131508000Y-115113000D03*
X146508000Y-131713000D03*
X146508000Y-115113000D03*
%TD*%
M02*
