%TF.GenerationSoftware,KiCad,Pcbnew,(5.1.9)-1*%
%TF.CreationDate,2021-03-04T22:01:39+01:00*%
%TF.ProjectId,Solaranlage,536f6c61-7261-46e6-9c61-67652e6b6963,rev?*%
%TF.SameCoordinates,Original*%
%TF.FileFunction,Legend,Bot*%
%TF.FilePolarity,Positive*%
%FSLAX46Y46*%
G04 Gerber Fmt 4.6, Leading zero omitted, Abs format (unit mm)*
G04 Created by KiCad (PCBNEW (5.1.9)-1) date 2021-03-04 22:01:39*
%MOMM*%
%LPD*%
G01*
G04 APERTURE LIST*
%ADD10C,0.300000*%
%ADD11C,0.150000*%
%ADD12C,0.120000*%
G04 APERTURE END LIST*
D10*
X160222285Y-58646142D02*
X160008000Y-58717571D01*
X159650857Y-58717571D01*
X159508000Y-58646142D01*
X159436571Y-58574714D01*
X159365142Y-58431857D01*
X159365142Y-58289000D01*
X159436571Y-58146142D01*
X159508000Y-58074714D01*
X159650857Y-58003285D01*
X159936571Y-57931857D01*
X160079428Y-57860428D01*
X160150857Y-57789000D01*
X160222285Y-57646142D01*
X160222285Y-57503285D01*
X160150857Y-57360428D01*
X160079428Y-57289000D01*
X159936571Y-57217571D01*
X159579428Y-57217571D01*
X159365142Y-57289000D01*
X158936571Y-57717571D02*
X158365142Y-57717571D01*
X158722285Y-57217571D02*
X158722285Y-58503285D01*
X158650857Y-58646142D01*
X158508000Y-58717571D01*
X158365142Y-58717571D01*
X157293714Y-58646142D02*
X157436571Y-58717571D01*
X157722285Y-58717571D01*
X157865142Y-58646142D01*
X157936571Y-58503285D01*
X157936571Y-57931857D01*
X157865142Y-57789000D01*
X157722285Y-57717571D01*
X157436571Y-57717571D01*
X157293714Y-57789000D01*
X157222285Y-57931857D01*
X157222285Y-58074714D01*
X157936571Y-58217571D01*
X155936571Y-57717571D02*
X155936571Y-58717571D01*
X156579428Y-57717571D02*
X156579428Y-58503285D01*
X156508000Y-58646142D01*
X156365142Y-58717571D01*
X156150857Y-58717571D01*
X156008000Y-58646142D01*
X155936571Y-58574714D01*
X154650857Y-58646142D02*
X154793714Y-58717571D01*
X155079428Y-58717571D01*
X155222285Y-58646142D01*
X155293714Y-58503285D01*
X155293714Y-57931857D01*
X155222285Y-57789000D01*
X155079428Y-57717571D01*
X154793714Y-57717571D01*
X154650857Y-57789000D01*
X154579428Y-57931857D01*
X154579428Y-58074714D01*
X155293714Y-58217571D01*
X153936571Y-58717571D02*
X153936571Y-57717571D01*
X153936571Y-58003285D02*
X153865142Y-57860428D01*
X153793714Y-57789000D01*
X153650857Y-57717571D01*
X153508000Y-57717571D01*
X152365142Y-57717571D02*
X152365142Y-58717571D01*
X153008000Y-57717571D02*
X153008000Y-58503285D01*
X152936571Y-58646142D01*
X152793714Y-58717571D01*
X152579428Y-58717571D01*
X152436571Y-58646142D01*
X152365142Y-58574714D01*
X151650857Y-57717571D02*
X151650857Y-58717571D01*
X151650857Y-57860428D02*
X151579428Y-57789000D01*
X151436571Y-57717571D01*
X151222285Y-57717571D01*
X151079428Y-57789000D01*
X151008000Y-57931857D01*
X151008000Y-58717571D01*
X149650857Y-57717571D02*
X149650857Y-58931857D01*
X149722285Y-59074714D01*
X149793714Y-59146142D01*
X149936571Y-59217571D01*
X150150857Y-59217571D01*
X150293714Y-59146142D01*
X149650857Y-58646142D02*
X149793714Y-58717571D01*
X150079428Y-58717571D01*
X150222285Y-58646142D01*
X150293714Y-58574714D01*
X150365142Y-58431857D01*
X150365142Y-58003285D01*
X150293714Y-57860428D01*
X150222285Y-57789000D01*
X150079428Y-57717571D01*
X149793714Y-57717571D01*
X149650857Y-57789000D01*
X147865142Y-58646142D02*
X147650857Y-58717571D01*
X147293714Y-58717571D01*
X147150857Y-58646142D01*
X147079428Y-58574714D01*
X147008000Y-58431857D01*
X147008000Y-58289000D01*
X147079428Y-58146142D01*
X147150857Y-58074714D01*
X147293714Y-58003285D01*
X147579428Y-57931857D01*
X147722285Y-57860428D01*
X147793714Y-57789000D01*
X147865142Y-57646142D01*
X147865142Y-57503285D01*
X147793714Y-57360428D01*
X147722285Y-57289000D01*
X147579428Y-57217571D01*
X147222285Y-57217571D01*
X147008000Y-57289000D01*
X146150857Y-58717571D02*
X146293714Y-58646142D01*
X146365142Y-58574714D01*
X146436571Y-58431857D01*
X146436571Y-58003285D01*
X146365142Y-57860428D01*
X146293714Y-57789000D01*
X146150857Y-57717571D01*
X145936571Y-57717571D01*
X145793714Y-57789000D01*
X145722285Y-57860428D01*
X145650857Y-58003285D01*
X145650857Y-58431857D01*
X145722285Y-58574714D01*
X145793714Y-58646142D01*
X145936571Y-58717571D01*
X146150857Y-58717571D01*
X144793714Y-58717571D02*
X144936571Y-58646142D01*
X145008000Y-58503285D01*
X145008000Y-57217571D01*
X143579428Y-58717571D02*
X143579428Y-57931857D01*
X143650857Y-57789000D01*
X143793714Y-57717571D01*
X144079428Y-57717571D01*
X144222285Y-57789000D01*
X143579428Y-58646142D02*
X143722285Y-58717571D01*
X144079428Y-58717571D01*
X144222285Y-58646142D01*
X144293714Y-58503285D01*
X144293714Y-58360428D01*
X144222285Y-58217571D01*
X144079428Y-58146142D01*
X143722285Y-58146142D01*
X143579428Y-58074714D01*
X142865142Y-58717571D02*
X142865142Y-57717571D01*
X142865142Y-58003285D02*
X142793714Y-57860428D01*
X142722285Y-57789000D01*
X142579428Y-57717571D01*
X142436571Y-57717571D01*
X141293714Y-58717571D02*
X141293714Y-57931857D01*
X141365142Y-57789000D01*
X141508000Y-57717571D01*
X141793714Y-57717571D01*
X141936571Y-57789000D01*
X141293714Y-58646142D02*
X141436571Y-58717571D01*
X141793714Y-58717571D01*
X141936571Y-58646142D01*
X142008000Y-58503285D01*
X142008000Y-58360428D01*
X141936571Y-58217571D01*
X141793714Y-58146142D01*
X141436571Y-58146142D01*
X141293714Y-58074714D01*
X140579428Y-57717571D02*
X140579428Y-58717571D01*
X140579428Y-57860428D02*
X140508000Y-57789000D01*
X140365142Y-57717571D01*
X140150857Y-57717571D01*
X140008000Y-57789000D01*
X139936571Y-57931857D01*
X139936571Y-58717571D01*
X139008000Y-58717571D02*
X139150857Y-58646142D01*
X139222285Y-58503285D01*
X139222285Y-57217571D01*
X137793714Y-58717571D02*
X137793714Y-57931857D01*
X137865142Y-57789000D01*
X138008000Y-57717571D01*
X138293714Y-57717571D01*
X138436571Y-57789000D01*
X137793714Y-58646142D02*
X137936571Y-58717571D01*
X138293714Y-58717571D01*
X138436571Y-58646142D01*
X138508000Y-58503285D01*
X138508000Y-58360428D01*
X138436571Y-58217571D01*
X138293714Y-58146142D01*
X137936571Y-58146142D01*
X137793714Y-58074714D01*
X136436571Y-57717571D02*
X136436571Y-58931857D01*
X136508000Y-59074714D01*
X136579428Y-59146142D01*
X136722285Y-59217571D01*
X136936571Y-59217571D01*
X137079428Y-59146142D01*
X136436571Y-58646142D02*
X136579428Y-58717571D01*
X136865142Y-58717571D01*
X137008000Y-58646142D01*
X137079428Y-58574714D01*
X137150857Y-58431857D01*
X137150857Y-58003285D01*
X137079428Y-57860428D01*
X137008000Y-57789000D01*
X136865142Y-57717571D01*
X136579428Y-57717571D01*
X136436571Y-57789000D01*
X135150857Y-58646142D02*
X135293714Y-58717571D01*
X135579428Y-58717571D01*
X135722285Y-58646142D01*
X135793714Y-58503285D01*
X135793714Y-57931857D01*
X135722285Y-57789000D01*
X135579428Y-57717571D01*
X135293714Y-57717571D01*
X135150857Y-57789000D01*
X135079428Y-57931857D01*
X135079428Y-58074714D01*
X135793714Y-58217571D01*
X132436571Y-58717571D02*
X132936571Y-58003285D01*
X133293714Y-58717571D02*
X133293714Y-57217571D01*
X132722285Y-57217571D01*
X132579428Y-57289000D01*
X132508000Y-57360428D01*
X132436571Y-57503285D01*
X132436571Y-57717571D01*
X132508000Y-57860428D01*
X132579428Y-57931857D01*
X132722285Y-58003285D01*
X133293714Y-58003285D01*
X131222285Y-58646142D02*
X131365142Y-58717571D01*
X131650857Y-58717571D01*
X131793714Y-58646142D01*
X131865142Y-58503285D01*
X131865142Y-57931857D01*
X131793714Y-57789000D01*
X131650857Y-57717571D01*
X131365142Y-57717571D01*
X131222285Y-57789000D01*
X131150857Y-57931857D01*
X131150857Y-58074714D01*
X131865142Y-58217571D01*
X130650857Y-57717571D02*
X130293714Y-58717571D01*
X129936571Y-57717571D01*
X129365142Y-58574714D02*
X129293714Y-58646142D01*
X129365142Y-58717571D01*
X129436571Y-58646142D01*
X129365142Y-58574714D01*
X129365142Y-58717571D01*
X127008000Y-57931857D02*
X126793714Y-58003285D01*
X126722285Y-58074714D01*
X126650857Y-58217571D01*
X126650857Y-58431857D01*
X126722285Y-58574714D01*
X126793714Y-58646142D01*
X126936571Y-58717571D01*
X127508000Y-58717571D01*
X127508000Y-57217571D01*
X127008000Y-57217571D01*
X126865142Y-57289000D01*
X126793714Y-57360428D01*
X126722285Y-57503285D01*
X126722285Y-57646142D01*
X126793714Y-57789000D01*
X126865142Y-57860428D01*
X127008000Y-57931857D01*
X127508000Y-57931857D01*
X124436571Y-59289000D02*
X124508000Y-59217571D01*
X124650857Y-59003285D01*
X124722285Y-58860428D01*
X124793714Y-58646142D01*
X124865142Y-58289000D01*
X124865142Y-58003285D01*
X124793714Y-57646142D01*
X124722285Y-57431857D01*
X124650857Y-57289000D01*
X124508000Y-57074714D01*
X124436571Y-57003285D01*
X123936571Y-57360428D02*
X123865142Y-57289000D01*
X123722285Y-57217571D01*
X123365142Y-57217571D01*
X123222285Y-57289000D01*
X123150857Y-57360428D01*
X123079428Y-57503285D01*
X123079428Y-57646142D01*
X123150857Y-57860428D01*
X124008000Y-58717571D01*
X123079428Y-58717571D01*
X122150857Y-57217571D02*
X122008000Y-57217571D01*
X121865142Y-57289000D01*
X121793714Y-57360428D01*
X121722285Y-57503285D01*
X121650857Y-57789000D01*
X121650857Y-58146142D01*
X121722285Y-58431857D01*
X121793714Y-58574714D01*
X121865142Y-58646142D01*
X122008000Y-58717571D01*
X122150857Y-58717571D01*
X122293714Y-58646142D01*
X122365142Y-58574714D01*
X122436571Y-58431857D01*
X122508000Y-58146142D01*
X122508000Y-57789000D01*
X122436571Y-57503285D01*
X122365142Y-57360428D01*
X122293714Y-57289000D01*
X122150857Y-57217571D01*
X121079428Y-57360428D02*
X121008000Y-57289000D01*
X120865142Y-57217571D01*
X120508000Y-57217571D01*
X120365142Y-57289000D01*
X120293714Y-57360428D01*
X120222285Y-57503285D01*
X120222285Y-57646142D01*
X120293714Y-57860428D01*
X121150857Y-58717571D01*
X120222285Y-58717571D01*
X118793714Y-58717571D02*
X119650857Y-58717571D01*
X119222285Y-58717571D02*
X119222285Y-57217571D01*
X119365142Y-57431857D01*
X119508000Y-57574714D01*
X119650857Y-57646142D01*
X118293714Y-59289000D02*
X118222285Y-59217571D01*
X118079428Y-59003285D01*
X118008000Y-58860428D01*
X117936571Y-58646142D01*
X117865142Y-58289000D01*
X117865142Y-58003285D01*
X117936571Y-57646142D01*
X118008000Y-57431857D01*
X118079428Y-57289000D01*
X118222285Y-57074714D01*
X118293714Y-57003285D01*
X78553571Y-78883285D02*
X78553571Y-78169000D01*
X79267857Y-78097571D01*
X79196428Y-78169000D01*
X79125000Y-78311857D01*
X79125000Y-78669000D01*
X79196428Y-78811857D01*
X79267857Y-78883285D01*
X79410714Y-78954714D01*
X79767857Y-78954714D01*
X79910714Y-78883285D01*
X79982142Y-78811857D01*
X80053571Y-78669000D01*
X80053571Y-78311857D01*
X79982142Y-78169000D01*
X79910714Y-78097571D01*
X78553571Y-79883285D02*
X78553571Y-80026142D01*
X78625000Y-80169000D01*
X78696428Y-80240428D01*
X78839285Y-80311857D01*
X79125000Y-80383285D01*
X79482142Y-80383285D01*
X79767857Y-80311857D01*
X79910714Y-80240428D01*
X79982142Y-80169000D01*
X80053571Y-80026142D01*
X80053571Y-79883285D01*
X79982142Y-79740428D01*
X79910714Y-79669000D01*
X79767857Y-79597571D01*
X79482142Y-79526142D01*
X79125000Y-79526142D01*
X78839285Y-79597571D01*
X78696428Y-79669000D01*
X78625000Y-79740428D01*
X78553571Y-79883285D01*
X78553571Y-81311857D02*
X78553571Y-81454714D01*
X78625000Y-81597571D01*
X78696428Y-81669000D01*
X78839285Y-81740428D01*
X79125000Y-81811857D01*
X79482142Y-81811857D01*
X79767857Y-81740428D01*
X79910714Y-81669000D01*
X79982142Y-81597571D01*
X80053571Y-81454714D01*
X80053571Y-81311857D01*
X79982142Y-81169000D01*
X79910714Y-81097571D01*
X79767857Y-81026142D01*
X79482142Y-80954714D01*
X79125000Y-80954714D01*
X78839285Y-81026142D01*
X78696428Y-81097571D01*
X78625000Y-81169000D01*
X78553571Y-81311857D01*
X80053571Y-83597571D02*
X79053571Y-83597571D01*
X79196428Y-83597571D02*
X79125000Y-83669000D01*
X79053571Y-83811857D01*
X79053571Y-84026142D01*
X79125000Y-84169000D01*
X79267857Y-84240428D01*
X80053571Y-84240428D01*
X79267857Y-84240428D02*
X79125000Y-84311857D01*
X79053571Y-84454714D01*
X79053571Y-84669000D01*
X79125000Y-84811857D01*
X79267857Y-84883285D01*
X80053571Y-84883285D01*
X79625000Y-85526142D02*
X79625000Y-86240428D01*
X80053571Y-85383285D02*
X78553571Y-85883285D01*
X80053571Y-86383285D01*
X148589857Y-134766000D02*
X148732714Y-134694571D01*
X148947000Y-134694571D01*
X149161285Y-134766000D01*
X149304142Y-134908857D01*
X149375571Y-135051714D01*
X149447000Y-135337428D01*
X149447000Y-135551714D01*
X149375571Y-135837428D01*
X149304142Y-135980285D01*
X149161285Y-136123142D01*
X148947000Y-136194571D01*
X148804142Y-136194571D01*
X148589857Y-136123142D01*
X148518428Y-136051714D01*
X148518428Y-135551714D01*
X148804142Y-135551714D01*
X147875571Y-136194571D02*
X147875571Y-134694571D01*
X147018428Y-136194571D01*
X147018428Y-134694571D01*
X146304142Y-136194571D02*
X146304142Y-134694571D01*
X145947000Y-134694571D01*
X145732714Y-134766000D01*
X145589857Y-134908857D01*
X145518428Y-135051714D01*
X145447000Y-135337428D01*
X145447000Y-135551714D01*
X145518428Y-135837428D01*
X145589857Y-135980285D01*
X145732714Y-136123142D01*
X145947000Y-136194571D01*
X146304142Y-136194571D01*
X81470428Y-135362142D02*
X80327571Y-135362142D01*
X110426428Y-135362142D02*
X109283571Y-135362142D01*
X109855000Y-135933571D02*
X109855000Y-134790714D01*
X98586428Y-129456571D02*
X99443571Y-129456571D01*
X99015000Y-129456571D02*
X99015000Y-127956571D01*
X99157857Y-128170857D01*
X99300714Y-128313714D01*
X99443571Y-128385142D01*
X97943571Y-128885142D02*
X96800714Y-128885142D01*
X96229285Y-127956571D02*
X95872142Y-129456571D01*
X95586428Y-128385142D01*
X95300714Y-129456571D01*
X94943571Y-127956571D01*
X94372142Y-129456571D02*
X94372142Y-128456571D01*
X94372142Y-127956571D02*
X94443571Y-128028000D01*
X94372142Y-128099428D01*
X94300714Y-128028000D01*
X94372142Y-127956571D01*
X94372142Y-128099428D01*
X93657857Y-129456571D02*
X93657857Y-128456571D01*
X93657857Y-128742285D02*
X93586428Y-128599428D01*
X93515000Y-128528000D01*
X93372142Y-128456571D01*
X93229285Y-128456571D01*
X92157857Y-129385142D02*
X92300714Y-129456571D01*
X92586428Y-129456571D01*
X92729285Y-129385142D01*
X92800714Y-129242285D01*
X92800714Y-128670857D01*
X92729285Y-128528000D01*
X92586428Y-128456571D01*
X92300714Y-128456571D01*
X92157857Y-128528000D01*
X92086428Y-128670857D01*
X92086428Y-128813714D01*
X92800714Y-128956571D01*
D11*
X216788856Y-101297072D02*
X216931713Y-101225643D01*
X217003142Y-101154215D01*
X217074571Y-101011358D01*
X217074571Y-100582786D01*
X217003142Y-100439929D01*
X216931713Y-100368501D01*
X216788856Y-100297072D01*
X216574571Y-100297072D01*
X216431713Y-100368501D01*
X216360285Y-100439929D01*
X216288856Y-100582786D01*
X216288856Y-101011358D01*
X216360285Y-101154215D01*
X216431713Y-101225643D01*
X216574571Y-101297072D01*
X216788856Y-101297072D01*
X215860285Y-100297072D02*
X215288856Y-100297072D01*
X215645999Y-101297072D02*
X215645999Y-100011358D01*
X215574571Y-99868501D01*
X215431713Y-99797072D01*
X215288856Y-99797072D01*
X215003142Y-100297072D02*
X214431713Y-100297072D01*
X214788856Y-101297072D02*
X214788856Y-100011358D01*
X214717428Y-99868501D01*
X214574571Y-99797072D01*
X214431713Y-99797072D01*
X216431714Y-94997070D02*
X216574571Y-94925641D01*
X216646000Y-94854213D01*
X216717428Y-94711356D01*
X216717428Y-94282784D01*
X216646000Y-94139927D01*
X216574571Y-94068499D01*
X216431714Y-93997070D01*
X216217428Y-93997070D01*
X216074571Y-94068499D01*
X216003142Y-94139927D01*
X215931714Y-94282784D01*
X215931714Y-94711356D01*
X216003142Y-94854213D01*
X216074571Y-94925641D01*
X216217428Y-94997070D01*
X216431714Y-94997070D01*
X215288857Y-93997070D02*
X215288857Y-94997070D01*
X215288857Y-94139927D02*
X215217428Y-94068499D01*
X215074571Y-93997070D01*
X214860285Y-93997070D01*
X214717428Y-94068499D01*
X214646000Y-94211356D01*
X214646000Y-94997070D01*
X210466142Y-96647071D02*
X210109000Y-98147071D01*
X209823285Y-97075642D01*
X209537571Y-98147071D01*
X209180428Y-96647071D01*
X207966142Y-98147071D02*
X207966142Y-97361357D01*
X208037571Y-97218500D01*
X208180428Y-97147071D01*
X208466142Y-97147071D01*
X208609000Y-97218500D01*
X207966142Y-98075642D02*
X208109000Y-98147071D01*
X208466142Y-98147071D01*
X208609000Y-98075642D01*
X208680428Y-97932785D01*
X208680428Y-97789928D01*
X208609000Y-97647071D01*
X208466142Y-97575642D01*
X208109000Y-97575642D01*
X207966142Y-97504214D01*
X207466142Y-97147071D02*
X206894714Y-97147071D01*
X207251857Y-96647071D02*
X207251857Y-97932785D01*
X207180428Y-98075642D01*
X207037571Y-98147071D01*
X206894714Y-98147071D01*
X205751857Y-98075642D02*
X205894714Y-98147071D01*
X206180428Y-98147071D01*
X206323285Y-98075642D01*
X206394714Y-98004214D01*
X206466142Y-97861357D01*
X206466142Y-97432785D01*
X206394714Y-97289928D01*
X206323285Y-97218500D01*
X206180428Y-97147071D01*
X205894714Y-97147071D01*
X205751857Y-97218500D01*
X205109000Y-98147071D02*
X205109000Y-96647071D01*
X204466142Y-98147071D02*
X204466142Y-97361357D01*
X204537571Y-97218500D01*
X204680428Y-97147071D01*
X204894714Y-97147071D01*
X205037571Y-97218500D01*
X205109000Y-97289928D01*
X203109000Y-98147071D02*
X203109000Y-96647071D01*
X203109000Y-98075642D02*
X203251857Y-98147071D01*
X203537571Y-98147071D01*
X203680428Y-98075642D01*
X203751857Y-98004214D01*
X203823285Y-97861357D01*
X203823285Y-97432785D01*
X203751857Y-97289928D01*
X203680428Y-97218500D01*
X203537571Y-97147071D01*
X203251857Y-97147071D01*
X203109000Y-97218500D01*
X202180428Y-98147071D02*
X202323285Y-98075642D01*
X202394714Y-98004214D01*
X202466142Y-97861357D01*
X202466142Y-97432785D01*
X202394714Y-97289928D01*
X202323285Y-97218500D01*
X202180428Y-97147071D01*
X201966142Y-97147071D01*
X201823285Y-97218500D01*
X201751857Y-97289928D01*
X201680428Y-97432785D01*
X201680428Y-97861357D01*
X201751857Y-98004214D01*
X201823285Y-98075642D01*
X201966142Y-98147071D01*
X202180428Y-98147071D01*
X200394714Y-97147071D02*
X200394714Y-98361357D01*
X200466142Y-98504214D01*
X200537571Y-98575642D01*
X200680428Y-98647071D01*
X200894714Y-98647071D01*
X201037571Y-98575642D01*
X200394714Y-98075642D02*
X200537571Y-98147071D01*
X200823285Y-98147071D01*
X200966142Y-98075642D01*
X201037571Y-98004214D01*
X201109000Y-97861357D01*
X201109000Y-97432785D01*
X201037571Y-97289928D01*
X200966142Y-97218500D01*
X200823285Y-97147071D01*
X200537571Y-97147071D01*
X200394714Y-97218500D01*
X219003095Y-72683714D02*
X219003095Y-73493238D01*
X219050714Y-73588476D01*
X219098333Y-73636095D01*
X219193571Y-73683714D01*
X219336428Y-73683714D01*
X219431666Y-73636095D01*
X219003095Y-73302761D02*
X219098333Y-73350380D01*
X219288809Y-73350380D01*
X219384047Y-73302761D01*
X219431666Y-73255142D01*
X219479285Y-73159904D01*
X219479285Y-72874190D01*
X219431666Y-72778952D01*
X219384047Y-72731333D01*
X219288809Y-72683714D01*
X219098333Y-72683714D01*
X219003095Y-72731333D01*
X218098333Y-73350380D02*
X218098333Y-72826571D01*
X218145952Y-72731333D01*
X218241190Y-72683714D01*
X218431666Y-72683714D01*
X218526904Y-72731333D01*
X218098333Y-73302761D02*
X218193571Y-73350380D01*
X218431666Y-73350380D01*
X218526904Y-73302761D01*
X218574523Y-73207523D01*
X218574523Y-73112285D01*
X218526904Y-73017047D01*
X218431666Y-72969428D01*
X218193571Y-72969428D01*
X218098333Y-72921809D01*
X217622142Y-73350380D02*
X217622142Y-72683714D01*
X217622142Y-72350380D02*
X217669761Y-72398000D01*
X217622142Y-72445619D01*
X217574523Y-72398000D01*
X217622142Y-72350380D01*
X217622142Y-72445619D01*
X217145952Y-72683714D02*
X217145952Y-73350380D01*
X217145952Y-72778952D02*
X217098333Y-72731333D01*
X217003095Y-72683714D01*
X216860238Y-72683714D01*
X216765000Y-72731333D01*
X216717380Y-72826571D01*
X216717380Y-73350380D01*
X215479285Y-73350380D02*
X215479285Y-72350380D01*
X214907857Y-73350380D02*
X215336428Y-72778952D01*
X214907857Y-72350380D02*
X215479285Y-72921809D01*
X214098333Y-73302761D02*
X214193571Y-73350380D01*
X214384047Y-73350380D01*
X214479285Y-73302761D01*
X214526904Y-73207523D01*
X214526904Y-72826571D01*
X214479285Y-72731333D01*
X214384047Y-72683714D01*
X214193571Y-72683714D01*
X214098333Y-72731333D01*
X214050714Y-72826571D01*
X214050714Y-72921809D01*
X214526904Y-73017047D01*
X213669761Y-73302761D02*
X213574523Y-73350380D01*
X213384047Y-73350380D01*
X213288809Y-73302761D01*
X213241190Y-73207523D01*
X213241190Y-73159904D01*
X213288809Y-73064666D01*
X213384047Y-73017047D01*
X213526904Y-73017047D01*
X213622142Y-72969428D01*
X213669761Y-72874190D01*
X213669761Y-72826571D01*
X213622142Y-72731333D01*
X213526904Y-72683714D01*
X213384047Y-72683714D01*
X213288809Y-72731333D01*
X212860238Y-73302761D02*
X212765000Y-73350380D01*
X212574523Y-73350380D01*
X212479285Y-73302761D01*
X212431666Y-73207523D01*
X212431666Y-73159904D01*
X212479285Y-73064666D01*
X212574523Y-73017047D01*
X212717380Y-73017047D01*
X212812619Y-72969428D01*
X212860238Y-72874190D01*
X212860238Y-72826571D01*
X212812619Y-72731333D01*
X212717380Y-72683714D01*
X212574523Y-72683714D01*
X212479285Y-72731333D01*
X211622142Y-73302761D02*
X211717380Y-73350380D01*
X211907857Y-73350380D01*
X212003095Y-73302761D01*
X212050714Y-73207523D01*
X212050714Y-72826571D01*
X212003095Y-72731333D01*
X211907857Y-72683714D01*
X211717380Y-72683714D01*
X211622142Y-72731333D01*
X211574523Y-72826571D01*
X211574523Y-72921809D01*
X212050714Y-73017047D01*
X211003095Y-73350380D02*
X211098333Y-73302761D01*
X211145952Y-73207523D01*
X211145952Y-72350380D01*
X200754857Y-60745714D02*
X200754857Y-61555238D01*
X200802476Y-61650476D01*
X200850095Y-61698095D01*
X200945333Y-61745714D01*
X201088190Y-61745714D01*
X201183428Y-61698095D01*
X200754857Y-61364761D02*
X200850095Y-61412380D01*
X201040571Y-61412380D01*
X201135809Y-61364761D01*
X201183428Y-61317142D01*
X201231047Y-61221904D01*
X201231047Y-60936190D01*
X201183428Y-60840952D01*
X201135809Y-60793333D01*
X201040571Y-60745714D01*
X200850095Y-60745714D01*
X200754857Y-60793333D01*
X199850095Y-61412380D02*
X199850095Y-60888571D01*
X199897714Y-60793333D01*
X199992952Y-60745714D01*
X200183428Y-60745714D01*
X200278666Y-60793333D01*
X199850095Y-61364761D02*
X199945333Y-61412380D01*
X200183428Y-61412380D01*
X200278666Y-61364761D01*
X200326285Y-61269523D01*
X200326285Y-61174285D01*
X200278666Y-61079047D01*
X200183428Y-61031428D01*
X199945333Y-61031428D01*
X199850095Y-60983809D01*
X199373904Y-61412380D02*
X199373904Y-60745714D01*
X199373904Y-60412380D02*
X199421523Y-60460000D01*
X199373904Y-60507619D01*
X199326285Y-60460000D01*
X199373904Y-60412380D01*
X199373904Y-60507619D01*
X198897714Y-60745714D02*
X198897714Y-61412380D01*
X198897714Y-60840952D02*
X198850095Y-60793333D01*
X198754857Y-60745714D01*
X198612000Y-60745714D01*
X198516761Y-60793333D01*
X198469142Y-60888571D01*
X198469142Y-61412380D01*
X197231047Y-61412380D02*
X197231047Y-60412380D01*
X196992952Y-60412380D01*
X196850095Y-60460000D01*
X196754857Y-60555238D01*
X196707238Y-60650476D01*
X196659619Y-60840952D01*
X196659619Y-60983809D01*
X196707238Y-61174285D01*
X196754857Y-61269523D01*
X196850095Y-61364761D01*
X196992952Y-61412380D01*
X197231047Y-61412380D01*
X195802476Y-61412380D02*
X195802476Y-60888571D01*
X195850095Y-60793333D01*
X195945333Y-60745714D01*
X196135809Y-60745714D01*
X196231047Y-60793333D01*
X195802476Y-61364761D02*
X195897714Y-61412380D01*
X196135809Y-61412380D01*
X196231047Y-61364761D01*
X196278666Y-61269523D01*
X196278666Y-61174285D01*
X196231047Y-61079047D01*
X196135809Y-61031428D01*
X195897714Y-61031428D01*
X195802476Y-60983809D01*
X194897714Y-61364761D02*
X194992952Y-61412380D01*
X195183428Y-61412380D01*
X195278666Y-61364761D01*
X195326285Y-61317142D01*
X195373904Y-61221904D01*
X195373904Y-60936190D01*
X195326285Y-60840952D01*
X195278666Y-60793333D01*
X195183428Y-60745714D01*
X194992952Y-60745714D01*
X194897714Y-60793333D01*
X194469142Y-61412380D02*
X194469142Y-60412380D01*
X194040571Y-61412380D02*
X194040571Y-60888571D01*
X194088190Y-60793333D01*
X194183428Y-60745714D01*
X194326285Y-60745714D01*
X194421523Y-60793333D01*
X194469142Y-60840952D01*
D10*
X226551714Y-124376571D02*
X226551714Y-122876571D01*
X225694571Y-124376571D02*
X226337428Y-123519428D01*
X225694571Y-122876571D02*
X226551714Y-123733714D01*
X224480285Y-124305142D02*
X224623142Y-124376571D01*
X224908857Y-124376571D01*
X225051714Y-124305142D01*
X225123142Y-124162285D01*
X225123142Y-123590857D01*
X225051714Y-123448000D01*
X224908857Y-123376571D01*
X224623142Y-123376571D01*
X224480285Y-123448000D01*
X224408857Y-123590857D01*
X224408857Y-123733714D01*
X225123142Y-123876571D01*
X223837428Y-124305142D02*
X223694571Y-124376571D01*
X223408857Y-124376571D01*
X223266000Y-124305142D01*
X223194571Y-124162285D01*
X223194571Y-124090857D01*
X223266000Y-123948000D01*
X223408857Y-123876571D01*
X223623142Y-123876571D01*
X223766000Y-123805142D01*
X223837428Y-123662285D01*
X223837428Y-123590857D01*
X223766000Y-123448000D01*
X223623142Y-123376571D01*
X223408857Y-123376571D01*
X223266000Y-123448000D01*
X222623142Y-124305142D02*
X222480285Y-124376571D01*
X222194571Y-124376571D01*
X222051714Y-124305142D01*
X221980285Y-124162285D01*
X221980285Y-124090857D01*
X222051714Y-123948000D01*
X222194571Y-123876571D01*
X222408857Y-123876571D01*
X222551714Y-123805142D01*
X222623142Y-123662285D01*
X222623142Y-123590857D01*
X222551714Y-123448000D01*
X222408857Y-123376571D01*
X222194571Y-123376571D01*
X222051714Y-123448000D01*
X220766000Y-124305142D02*
X220908857Y-124376571D01*
X221194571Y-124376571D01*
X221337428Y-124305142D01*
X221408857Y-124162285D01*
X221408857Y-123590857D01*
X221337428Y-123448000D01*
X221194571Y-123376571D01*
X220908857Y-123376571D01*
X220766000Y-123448000D01*
X220694571Y-123590857D01*
X220694571Y-123733714D01*
X221408857Y-123876571D01*
X219837428Y-124376571D02*
X219980285Y-124305142D01*
X220051714Y-124162285D01*
X220051714Y-122876571D01*
X225658857Y-91864571D02*
X225658857Y-90364571D01*
X225301714Y-90364571D01*
X225087428Y-90436000D01*
X224944571Y-90578857D01*
X224873142Y-90721714D01*
X224801714Y-91007428D01*
X224801714Y-91221714D01*
X224873142Y-91507428D01*
X224944571Y-91650285D01*
X225087428Y-91793142D01*
X225301714Y-91864571D01*
X225658857Y-91864571D01*
X223516000Y-91864571D02*
X223516000Y-91078857D01*
X223587428Y-90936000D01*
X223730285Y-90864571D01*
X224016000Y-90864571D01*
X224158857Y-90936000D01*
X223516000Y-91793142D02*
X223658857Y-91864571D01*
X224016000Y-91864571D01*
X224158857Y-91793142D01*
X224230285Y-91650285D01*
X224230285Y-91507428D01*
X224158857Y-91364571D01*
X224016000Y-91293142D01*
X223658857Y-91293142D01*
X223516000Y-91221714D01*
X222158857Y-91793142D02*
X222301714Y-91864571D01*
X222587428Y-91864571D01*
X222730285Y-91793142D01*
X222801714Y-91721714D01*
X222873142Y-91578857D01*
X222873142Y-91150285D01*
X222801714Y-91007428D01*
X222730285Y-90936000D01*
X222587428Y-90864571D01*
X222301714Y-90864571D01*
X222158857Y-90936000D01*
X221516000Y-91864571D02*
X221516000Y-90364571D01*
X220873142Y-91864571D02*
X220873142Y-91078857D01*
X220944571Y-90936000D01*
X221087428Y-90864571D01*
X221301714Y-90864571D01*
X221444571Y-90936000D01*
X221516000Y-91007428D01*
X165626571Y-129456571D02*
X165626571Y-127956571D01*
X165055142Y-127956571D01*
X164912285Y-128028000D01*
X164840857Y-128099428D01*
X164769428Y-128242285D01*
X164769428Y-128456571D01*
X164840857Y-128599428D01*
X164912285Y-128670857D01*
X165055142Y-128742285D01*
X165626571Y-128742285D01*
X163483714Y-128456571D02*
X163483714Y-129456571D01*
X164126571Y-128456571D02*
X164126571Y-129242285D01*
X164055142Y-129385142D01*
X163912285Y-129456571D01*
X163698000Y-129456571D01*
X163555142Y-129385142D01*
X163483714Y-129313714D01*
X162769428Y-129456571D02*
X162769428Y-128456571D01*
X162769428Y-128599428D02*
X162698000Y-128528000D01*
X162555142Y-128456571D01*
X162340857Y-128456571D01*
X162198000Y-128528000D01*
X162126571Y-128670857D01*
X162126571Y-129456571D01*
X162126571Y-128670857D02*
X162055142Y-128528000D01*
X161912285Y-128456571D01*
X161698000Y-128456571D01*
X161555142Y-128528000D01*
X161483714Y-128670857D01*
X161483714Y-129456571D01*
X160769428Y-128456571D02*
X160769428Y-129956571D01*
X160769428Y-128528000D02*
X160626571Y-128456571D01*
X160340857Y-128456571D01*
X160198000Y-128528000D01*
X160126571Y-128599428D01*
X160055142Y-128742285D01*
X160055142Y-129170857D01*
X160126571Y-129313714D01*
X160198000Y-129385142D01*
X160340857Y-129456571D01*
X160626571Y-129456571D01*
X160769428Y-129385142D01*
X158840857Y-129385142D02*
X158983714Y-129456571D01*
X159269428Y-129456571D01*
X159412285Y-129385142D01*
X159483714Y-129242285D01*
X159483714Y-128670857D01*
X159412285Y-128528000D01*
X159269428Y-128456571D01*
X158983714Y-128456571D01*
X158840857Y-128528000D01*
X158769428Y-128670857D01*
X158769428Y-128813714D01*
X159483714Y-128956571D01*
X156983714Y-129456571D02*
X156983714Y-127956571D01*
X156412285Y-127956571D01*
X156269428Y-128028000D01*
X156198000Y-128099428D01*
X156126571Y-128242285D01*
X156126571Y-128456571D01*
X156198000Y-128599428D01*
X156269428Y-128670857D01*
X156412285Y-128742285D01*
X156983714Y-128742285D01*
X155626571Y-127956571D02*
X155269428Y-129456571D01*
X154983714Y-128385142D01*
X154698000Y-129456571D01*
X154340857Y-127956571D01*
X153769428Y-129456571D02*
X153769428Y-127956571D01*
X153269428Y-129028000D01*
X152769428Y-127956571D01*
X152769428Y-129456571D01*
D12*
%TO.C,C7*%
X84251000Y-61060000D02*
X91691000Y-61060000D01*
X84251000Y-58320000D02*
X91691000Y-58320000D01*
X84251000Y-61060000D02*
X84251000Y-58320000D01*
X91691000Y-61060000D02*
X91691000Y-58320000D01*
%TO.C,C23*%
X86181000Y-70231000D02*
G75*
G03*
X86181000Y-70231000I-3270000J0D01*
G01*
X82911000Y-73461000D02*
X82911000Y-67001000D01*
X82951000Y-73461000D02*
X82951000Y-67001000D01*
X82991000Y-73461000D02*
X82991000Y-67001000D01*
X83031000Y-73459000D02*
X83031000Y-67003000D01*
X83071000Y-73458000D02*
X83071000Y-67004000D01*
X83111000Y-73455000D02*
X83111000Y-67007000D01*
X83151000Y-73453000D02*
X83151000Y-71271000D01*
X83151000Y-69191000D02*
X83151000Y-67009000D01*
X83191000Y-73449000D02*
X83191000Y-71271000D01*
X83191000Y-69191000D02*
X83191000Y-67013000D01*
X83231000Y-73446000D02*
X83231000Y-71271000D01*
X83231000Y-69191000D02*
X83231000Y-67016000D01*
X83271000Y-73442000D02*
X83271000Y-71271000D01*
X83271000Y-69191000D02*
X83271000Y-67020000D01*
X83311000Y-73437000D02*
X83311000Y-71271000D01*
X83311000Y-69191000D02*
X83311000Y-67025000D01*
X83351000Y-73432000D02*
X83351000Y-71271000D01*
X83351000Y-69191000D02*
X83351000Y-67030000D01*
X83391000Y-73426000D02*
X83391000Y-71271000D01*
X83391000Y-69191000D02*
X83391000Y-67036000D01*
X83431000Y-73420000D02*
X83431000Y-71271000D01*
X83431000Y-69191000D02*
X83431000Y-67042000D01*
X83471000Y-73413000D02*
X83471000Y-71271000D01*
X83471000Y-69191000D02*
X83471000Y-67049000D01*
X83511000Y-73406000D02*
X83511000Y-71271000D01*
X83511000Y-69191000D02*
X83511000Y-67056000D01*
X83551000Y-73398000D02*
X83551000Y-71271000D01*
X83551000Y-69191000D02*
X83551000Y-67064000D01*
X83591000Y-73390000D02*
X83591000Y-71271000D01*
X83591000Y-69191000D02*
X83591000Y-67072000D01*
X83632000Y-73381000D02*
X83632000Y-71271000D01*
X83632000Y-69191000D02*
X83632000Y-67081000D01*
X83672000Y-73372000D02*
X83672000Y-71271000D01*
X83672000Y-69191000D02*
X83672000Y-67090000D01*
X83712000Y-73362000D02*
X83712000Y-71271000D01*
X83712000Y-69191000D02*
X83712000Y-67100000D01*
X83752000Y-73352000D02*
X83752000Y-71271000D01*
X83752000Y-69191000D02*
X83752000Y-67110000D01*
X83792000Y-73341000D02*
X83792000Y-71271000D01*
X83792000Y-69191000D02*
X83792000Y-67121000D01*
X83832000Y-73329000D02*
X83832000Y-71271000D01*
X83832000Y-69191000D02*
X83832000Y-67133000D01*
X83872000Y-73317000D02*
X83872000Y-71271000D01*
X83872000Y-69191000D02*
X83872000Y-67145000D01*
X83912000Y-73305000D02*
X83912000Y-71271000D01*
X83912000Y-69191000D02*
X83912000Y-67157000D01*
X83952000Y-73292000D02*
X83952000Y-71271000D01*
X83952000Y-69191000D02*
X83952000Y-67170000D01*
X83992000Y-73278000D02*
X83992000Y-71271000D01*
X83992000Y-69191000D02*
X83992000Y-67184000D01*
X84032000Y-73264000D02*
X84032000Y-71271000D01*
X84032000Y-69191000D02*
X84032000Y-67198000D01*
X84072000Y-73249000D02*
X84072000Y-71271000D01*
X84072000Y-69191000D02*
X84072000Y-67213000D01*
X84112000Y-73233000D02*
X84112000Y-71271000D01*
X84112000Y-69191000D02*
X84112000Y-67229000D01*
X84152000Y-73217000D02*
X84152000Y-71271000D01*
X84152000Y-69191000D02*
X84152000Y-67245000D01*
X84192000Y-73201000D02*
X84192000Y-71271000D01*
X84192000Y-69191000D02*
X84192000Y-67261000D01*
X84232000Y-73183000D02*
X84232000Y-71271000D01*
X84232000Y-69191000D02*
X84232000Y-67279000D01*
X84272000Y-73165000D02*
X84272000Y-71271000D01*
X84272000Y-69191000D02*
X84272000Y-67297000D01*
X84312000Y-73147000D02*
X84312000Y-71271000D01*
X84312000Y-69191000D02*
X84312000Y-67315000D01*
X84352000Y-73127000D02*
X84352000Y-71271000D01*
X84352000Y-69191000D02*
X84352000Y-67335000D01*
X84392000Y-73107000D02*
X84392000Y-71271000D01*
X84392000Y-69191000D02*
X84392000Y-67355000D01*
X84432000Y-73087000D02*
X84432000Y-71271000D01*
X84432000Y-69191000D02*
X84432000Y-67375000D01*
X84472000Y-73065000D02*
X84472000Y-71271000D01*
X84472000Y-69191000D02*
X84472000Y-67397000D01*
X84512000Y-73043000D02*
X84512000Y-71271000D01*
X84512000Y-69191000D02*
X84512000Y-67419000D01*
X84552000Y-73021000D02*
X84552000Y-71271000D01*
X84552000Y-69191000D02*
X84552000Y-67441000D01*
X84592000Y-72997000D02*
X84592000Y-71271000D01*
X84592000Y-69191000D02*
X84592000Y-67465000D01*
X84632000Y-72973000D02*
X84632000Y-71271000D01*
X84632000Y-69191000D02*
X84632000Y-67489000D01*
X84672000Y-72947000D02*
X84672000Y-71271000D01*
X84672000Y-69191000D02*
X84672000Y-67515000D01*
X84712000Y-72921000D02*
X84712000Y-71271000D01*
X84712000Y-69191000D02*
X84712000Y-67541000D01*
X84752000Y-72895000D02*
X84752000Y-71271000D01*
X84752000Y-69191000D02*
X84752000Y-67567000D01*
X84792000Y-72867000D02*
X84792000Y-71271000D01*
X84792000Y-69191000D02*
X84792000Y-67595000D01*
X84832000Y-72838000D02*
X84832000Y-71271000D01*
X84832000Y-69191000D02*
X84832000Y-67624000D01*
X84872000Y-72809000D02*
X84872000Y-71271000D01*
X84872000Y-69191000D02*
X84872000Y-67653000D01*
X84912000Y-72779000D02*
X84912000Y-71271000D01*
X84912000Y-69191000D02*
X84912000Y-67683000D01*
X84952000Y-72747000D02*
X84952000Y-71271000D01*
X84952000Y-69191000D02*
X84952000Y-67715000D01*
X84992000Y-72715000D02*
X84992000Y-71271000D01*
X84992000Y-69191000D02*
X84992000Y-67747000D01*
X85032000Y-72681000D02*
X85032000Y-71271000D01*
X85032000Y-69191000D02*
X85032000Y-67781000D01*
X85072000Y-72647000D02*
X85072000Y-71271000D01*
X85072000Y-69191000D02*
X85072000Y-67815000D01*
X85112000Y-72611000D02*
X85112000Y-71271000D01*
X85112000Y-69191000D02*
X85112000Y-67851000D01*
X85152000Y-72574000D02*
X85152000Y-71271000D01*
X85152000Y-69191000D02*
X85152000Y-67888000D01*
X85192000Y-72536000D02*
X85192000Y-71271000D01*
X85192000Y-69191000D02*
X85192000Y-67926000D01*
X85232000Y-72496000D02*
X85232000Y-67966000D01*
X85272000Y-72455000D02*
X85272000Y-68007000D01*
X85312000Y-72413000D02*
X85312000Y-68049000D01*
X85352000Y-72368000D02*
X85352000Y-68094000D01*
X85392000Y-72323000D02*
X85392000Y-68139000D01*
X85432000Y-72275000D02*
X85432000Y-68187000D01*
X85472000Y-72226000D02*
X85472000Y-68236000D01*
X85512000Y-72175000D02*
X85512000Y-68287000D01*
X85552000Y-72121000D02*
X85552000Y-68341000D01*
X85592000Y-72065000D02*
X85592000Y-68397000D01*
X85632000Y-72007000D02*
X85632000Y-68455000D01*
X85672000Y-71945000D02*
X85672000Y-68517000D01*
X85712000Y-71881000D02*
X85712000Y-68581000D01*
X85752000Y-71812000D02*
X85752000Y-68650000D01*
X85792000Y-71740000D02*
X85792000Y-68722000D01*
X85832000Y-71663000D02*
X85832000Y-68799000D01*
X85872000Y-71581000D02*
X85872000Y-68881000D01*
X85912000Y-71493000D02*
X85912000Y-68969000D01*
X85952000Y-71396000D02*
X85952000Y-69066000D01*
X85992000Y-71290000D02*
X85992000Y-69172000D01*
X86032000Y-71171000D02*
X86032000Y-69291000D01*
X86072000Y-71033000D02*
X86072000Y-69429000D01*
X86112000Y-70864000D02*
X86112000Y-69598000D01*
X86152000Y-70633000D02*
X86152000Y-69829000D01*
X79410759Y-72070000D02*
X80040759Y-72070000D01*
X79725759Y-72385000D02*
X79725759Y-71755000D01*
%TO.C,F1*%
X68017000Y-71169000D02*
X77017000Y-71169000D01*
X77017000Y-71169000D02*
X77017000Y-93169000D01*
X77017000Y-93169000D02*
X68017000Y-93169000D01*
X68017000Y-93169000D02*
X68017000Y-71169000D01*
%TO.C,BZ1*%
X87370000Y-101600000D02*
G75*
G03*
X87370000Y-101600000I-6100000J0D01*
G01*
%TO.C,D14*%
X88017818Y-127023420D02*
G75*
G02*
X90708000Y-127075361I1390182J2309420D01*
G01*
%TO.C,J7*%
X84215000Y-130836000D02*
X86215000Y-130836000D01*
X84215000Y-133076000D02*
X84215000Y-130836000D01*
X102085000Y-134660000D02*
X101991000Y-134567000D01*
X104335000Y-136911000D02*
X104276000Y-136852000D01*
X102255000Y-134420000D02*
X102196000Y-134362000D01*
X104540000Y-136705000D02*
X104446000Y-136612000D01*
X94585000Y-134660000D02*
X94491000Y-134567000D01*
X96835000Y-136911000D02*
X96776000Y-136852000D01*
X94755000Y-134420000D02*
X94696000Y-134362000D01*
X97040000Y-136705000D02*
X96946000Y-136612000D01*
X107076000Y-140196000D02*
X107076000Y-131076000D01*
X84455000Y-140196000D02*
X84455000Y-131076000D01*
X84455000Y-131076000D02*
X107076000Y-131076000D01*
X84455000Y-140196000D02*
X107076000Y-140196000D01*
X84455000Y-138136000D02*
X107076000Y-138136000D01*
X84455000Y-133136000D02*
X107076000Y-133136000D01*
X104945000Y-135636000D02*
G75*
G03*
X104945000Y-135636000I-1680000J0D01*
G01*
X97445000Y-135636000D02*
G75*
G03*
X97445000Y-135636000I-1680000J0D01*
G01*
X89053712Y-134152648D02*
G75*
G03*
X88265000Y-133956000I-788712J-1483352D01*
G01*
X89748953Y-136425088D02*
G75*
G03*
X89749000Y-134847000I-1483953J789088D01*
G01*
X87475912Y-137119953D02*
G75*
G03*
X89054000Y-137120000I789088J1483953D01*
G01*
X86781047Y-134846912D02*
G75*
G03*
X86781000Y-136425000I1483953J-789088D01*
G01*
X88294383Y-133955550D02*
G75*
G03*
X87476000Y-134152000I-29383J-1680450D01*
G01*
%TO.C,L3*%
X75907000Y-66040000D02*
G75*
G03*
X75907000Y-66040000I-2120000J0D01*
G01*
X75907000Y-66040000D02*
X77567000Y-66040000D01*
%TO.C,D11*%
X170440818Y-134135420D02*
G75*
G02*
X173131000Y-134187361I1390182J2309420D01*
G01*
%TO.C,D10*%
X70351182Y-98909580D02*
G75*
G02*
X67661000Y-98857639I-1390182J-2309420D01*
G01*
%TO.C,D9*%
X213112818Y-107338420D02*
G75*
G02*
X215803000Y-107390361I1390182J2309420D01*
G01*
%TO.C,D8*%
X214399420Y-79368182D02*
G75*
G02*
X214451361Y-76678000I-2309420J1390182D01*
G01*
%TO.C,C18*%
X83215241Y-57536000D02*
X83215241Y-58166000D01*
X83530241Y-57851000D02*
X82900241Y-57851000D01*
X76789000Y-59288000D02*
X76789000Y-60092000D01*
X76829000Y-59057000D02*
X76829000Y-60323000D01*
X76869000Y-58888000D02*
X76869000Y-60492000D01*
X76909000Y-58750000D02*
X76909000Y-60630000D01*
X76949000Y-58631000D02*
X76949000Y-60749000D01*
X76989000Y-58525000D02*
X76989000Y-60855000D01*
X77029000Y-58428000D02*
X77029000Y-60952000D01*
X77069000Y-58340000D02*
X77069000Y-61040000D01*
X77109000Y-58258000D02*
X77109000Y-61122000D01*
X77149000Y-58181000D02*
X77149000Y-61199000D01*
X77189000Y-58109000D02*
X77189000Y-61271000D01*
X77229000Y-58040000D02*
X77229000Y-61340000D01*
X77269000Y-57976000D02*
X77269000Y-61404000D01*
X77309000Y-57914000D02*
X77309000Y-61466000D01*
X77349000Y-57856000D02*
X77349000Y-61524000D01*
X77389000Y-57800000D02*
X77389000Y-61580000D01*
X77429000Y-57746000D02*
X77429000Y-61634000D01*
X77469000Y-57695000D02*
X77469000Y-61685000D01*
X77509000Y-57646000D02*
X77509000Y-61734000D01*
X77549000Y-57598000D02*
X77549000Y-61782000D01*
X77589000Y-57553000D02*
X77589000Y-61827000D01*
X77629000Y-57508000D02*
X77629000Y-61872000D01*
X77669000Y-57466000D02*
X77669000Y-61914000D01*
X77709000Y-57425000D02*
X77709000Y-61955000D01*
X77749000Y-60730000D02*
X77749000Y-61995000D01*
X77749000Y-57385000D02*
X77749000Y-58650000D01*
X77789000Y-60730000D02*
X77789000Y-62033000D01*
X77789000Y-57347000D02*
X77789000Y-58650000D01*
X77829000Y-60730000D02*
X77829000Y-62070000D01*
X77829000Y-57310000D02*
X77829000Y-58650000D01*
X77869000Y-60730000D02*
X77869000Y-62106000D01*
X77869000Y-57274000D02*
X77869000Y-58650000D01*
X77909000Y-60730000D02*
X77909000Y-62140000D01*
X77909000Y-57240000D02*
X77909000Y-58650000D01*
X77949000Y-60730000D02*
X77949000Y-62174000D01*
X77949000Y-57206000D02*
X77949000Y-58650000D01*
X77989000Y-60730000D02*
X77989000Y-62206000D01*
X77989000Y-57174000D02*
X77989000Y-58650000D01*
X78029000Y-60730000D02*
X78029000Y-62238000D01*
X78029000Y-57142000D02*
X78029000Y-58650000D01*
X78069000Y-60730000D02*
X78069000Y-62268000D01*
X78069000Y-57112000D02*
X78069000Y-58650000D01*
X78109000Y-60730000D02*
X78109000Y-62297000D01*
X78109000Y-57083000D02*
X78109000Y-58650000D01*
X78149000Y-60730000D02*
X78149000Y-62326000D01*
X78149000Y-57054000D02*
X78149000Y-58650000D01*
X78189000Y-60730000D02*
X78189000Y-62354000D01*
X78189000Y-57026000D02*
X78189000Y-58650000D01*
X78229000Y-60730000D02*
X78229000Y-62380000D01*
X78229000Y-57000000D02*
X78229000Y-58650000D01*
X78269000Y-60730000D02*
X78269000Y-62406000D01*
X78269000Y-56974000D02*
X78269000Y-58650000D01*
X78309000Y-60730000D02*
X78309000Y-62432000D01*
X78309000Y-56948000D02*
X78309000Y-58650000D01*
X78349000Y-60730000D02*
X78349000Y-62456000D01*
X78349000Y-56924000D02*
X78349000Y-58650000D01*
X78389000Y-60730000D02*
X78389000Y-62480000D01*
X78389000Y-56900000D02*
X78389000Y-58650000D01*
X78429000Y-60730000D02*
X78429000Y-62502000D01*
X78429000Y-56878000D02*
X78429000Y-58650000D01*
X78469000Y-60730000D02*
X78469000Y-62524000D01*
X78469000Y-56856000D02*
X78469000Y-58650000D01*
X78509000Y-60730000D02*
X78509000Y-62546000D01*
X78509000Y-56834000D02*
X78509000Y-58650000D01*
X78549000Y-60730000D02*
X78549000Y-62566000D01*
X78549000Y-56814000D02*
X78549000Y-58650000D01*
X78589000Y-60730000D02*
X78589000Y-62586000D01*
X78589000Y-56794000D02*
X78589000Y-58650000D01*
X78629000Y-60730000D02*
X78629000Y-62606000D01*
X78629000Y-56774000D02*
X78629000Y-58650000D01*
X78669000Y-60730000D02*
X78669000Y-62624000D01*
X78669000Y-56756000D02*
X78669000Y-58650000D01*
X78709000Y-60730000D02*
X78709000Y-62642000D01*
X78709000Y-56738000D02*
X78709000Y-58650000D01*
X78749000Y-60730000D02*
X78749000Y-62660000D01*
X78749000Y-56720000D02*
X78749000Y-58650000D01*
X78789000Y-60730000D02*
X78789000Y-62676000D01*
X78789000Y-56704000D02*
X78789000Y-58650000D01*
X78829000Y-60730000D02*
X78829000Y-62692000D01*
X78829000Y-56688000D02*
X78829000Y-58650000D01*
X78869000Y-60730000D02*
X78869000Y-62708000D01*
X78869000Y-56672000D02*
X78869000Y-58650000D01*
X78909000Y-60730000D02*
X78909000Y-62723000D01*
X78909000Y-56657000D02*
X78909000Y-58650000D01*
X78949000Y-60730000D02*
X78949000Y-62737000D01*
X78949000Y-56643000D02*
X78949000Y-58650000D01*
X78989000Y-60730000D02*
X78989000Y-62751000D01*
X78989000Y-56629000D02*
X78989000Y-58650000D01*
X79029000Y-60730000D02*
X79029000Y-62764000D01*
X79029000Y-56616000D02*
X79029000Y-58650000D01*
X79069000Y-60730000D02*
X79069000Y-62776000D01*
X79069000Y-56604000D02*
X79069000Y-58650000D01*
X79109000Y-60730000D02*
X79109000Y-62788000D01*
X79109000Y-56592000D02*
X79109000Y-58650000D01*
X79149000Y-60730000D02*
X79149000Y-62800000D01*
X79149000Y-56580000D02*
X79149000Y-58650000D01*
X79189000Y-60730000D02*
X79189000Y-62811000D01*
X79189000Y-56569000D02*
X79189000Y-58650000D01*
X79229000Y-60730000D02*
X79229000Y-62821000D01*
X79229000Y-56559000D02*
X79229000Y-58650000D01*
X79269000Y-60730000D02*
X79269000Y-62831000D01*
X79269000Y-56549000D02*
X79269000Y-58650000D01*
X79309000Y-60730000D02*
X79309000Y-62840000D01*
X79309000Y-56540000D02*
X79309000Y-58650000D01*
X79350000Y-60730000D02*
X79350000Y-62849000D01*
X79350000Y-56531000D02*
X79350000Y-58650000D01*
X79390000Y-60730000D02*
X79390000Y-62857000D01*
X79390000Y-56523000D02*
X79390000Y-58650000D01*
X79430000Y-60730000D02*
X79430000Y-62865000D01*
X79430000Y-56515000D02*
X79430000Y-58650000D01*
X79470000Y-60730000D02*
X79470000Y-62872000D01*
X79470000Y-56508000D02*
X79470000Y-58650000D01*
X79510000Y-60730000D02*
X79510000Y-62879000D01*
X79510000Y-56501000D02*
X79510000Y-58650000D01*
X79550000Y-60730000D02*
X79550000Y-62885000D01*
X79550000Y-56495000D02*
X79550000Y-58650000D01*
X79590000Y-60730000D02*
X79590000Y-62891000D01*
X79590000Y-56489000D02*
X79590000Y-58650000D01*
X79630000Y-60730000D02*
X79630000Y-62896000D01*
X79630000Y-56484000D02*
X79630000Y-58650000D01*
X79670000Y-60730000D02*
X79670000Y-62901000D01*
X79670000Y-56479000D02*
X79670000Y-58650000D01*
X79710000Y-60730000D02*
X79710000Y-62905000D01*
X79710000Y-56475000D02*
X79710000Y-58650000D01*
X79750000Y-60730000D02*
X79750000Y-62908000D01*
X79750000Y-56472000D02*
X79750000Y-58650000D01*
X79790000Y-60730000D02*
X79790000Y-62912000D01*
X79790000Y-56468000D02*
X79790000Y-58650000D01*
X79830000Y-56466000D02*
X79830000Y-62914000D01*
X79870000Y-56463000D02*
X79870000Y-62917000D01*
X79910000Y-56462000D02*
X79910000Y-62918000D01*
X79950000Y-56460000D02*
X79950000Y-62920000D01*
X79990000Y-56460000D02*
X79990000Y-62920000D01*
X80030000Y-56460000D02*
X80030000Y-62920000D01*
X83300000Y-59690000D02*
G75*
G03*
X83300000Y-59690000I-3270000J0D01*
G01*
%TO.C,C11*%
X204312759Y-91435000D02*
X204312759Y-90805000D01*
X203997759Y-91120000D02*
X204627759Y-91120000D01*
X210739000Y-89683000D02*
X210739000Y-88879000D01*
X210699000Y-89914000D02*
X210699000Y-88648000D01*
X210659000Y-90083000D02*
X210659000Y-88479000D01*
X210619000Y-90221000D02*
X210619000Y-88341000D01*
X210579000Y-90340000D02*
X210579000Y-88222000D01*
X210539000Y-90446000D02*
X210539000Y-88116000D01*
X210499000Y-90543000D02*
X210499000Y-88019000D01*
X210459000Y-90631000D02*
X210459000Y-87931000D01*
X210419000Y-90713000D02*
X210419000Y-87849000D01*
X210379000Y-90790000D02*
X210379000Y-87772000D01*
X210339000Y-90862000D02*
X210339000Y-87700000D01*
X210299000Y-90931000D02*
X210299000Y-87631000D01*
X210259000Y-90995000D02*
X210259000Y-87567000D01*
X210219000Y-91057000D02*
X210219000Y-87505000D01*
X210179000Y-91115000D02*
X210179000Y-87447000D01*
X210139000Y-91171000D02*
X210139000Y-87391000D01*
X210099000Y-91225000D02*
X210099000Y-87337000D01*
X210059000Y-91276000D02*
X210059000Y-87286000D01*
X210019000Y-91325000D02*
X210019000Y-87237000D01*
X209979000Y-91373000D02*
X209979000Y-87189000D01*
X209939000Y-91418000D02*
X209939000Y-87144000D01*
X209899000Y-91463000D02*
X209899000Y-87099000D01*
X209859000Y-91505000D02*
X209859000Y-87057000D01*
X209819000Y-91546000D02*
X209819000Y-87016000D01*
X209779000Y-88241000D02*
X209779000Y-86976000D01*
X209779000Y-91586000D02*
X209779000Y-90321000D01*
X209739000Y-88241000D02*
X209739000Y-86938000D01*
X209739000Y-91624000D02*
X209739000Y-90321000D01*
X209699000Y-88241000D02*
X209699000Y-86901000D01*
X209699000Y-91661000D02*
X209699000Y-90321000D01*
X209659000Y-88241000D02*
X209659000Y-86865000D01*
X209659000Y-91697000D02*
X209659000Y-90321000D01*
X209619000Y-88241000D02*
X209619000Y-86831000D01*
X209619000Y-91731000D02*
X209619000Y-90321000D01*
X209579000Y-88241000D02*
X209579000Y-86797000D01*
X209579000Y-91765000D02*
X209579000Y-90321000D01*
X209539000Y-88241000D02*
X209539000Y-86765000D01*
X209539000Y-91797000D02*
X209539000Y-90321000D01*
X209499000Y-88241000D02*
X209499000Y-86733000D01*
X209499000Y-91829000D02*
X209499000Y-90321000D01*
X209459000Y-88241000D02*
X209459000Y-86703000D01*
X209459000Y-91859000D02*
X209459000Y-90321000D01*
X209419000Y-88241000D02*
X209419000Y-86674000D01*
X209419000Y-91888000D02*
X209419000Y-90321000D01*
X209379000Y-88241000D02*
X209379000Y-86645000D01*
X209379000Y-91917000D02*
X209379000Y-90321000D01*
X209339000Y-88241000D02*
X209339000Y-86617000D01*
X209339000Y-91945000D02*
X209339000Y-90321000D01*
X209299000Y-88241000D02*
X209299000Y-86591000D01*
X209299000Y-91971000D02*
X209299000Y-90321000D01*
X209259000Y-88241000D02*
X209259000Y-86565000D01*
X209259000Y-91997000D02*
X209259000Y-90321000D01*
X209219000Y-88241000D02*
X209219000Y-86539000D01*
X209219000Y-92023000D02*
X209219000Y-90321000D01*
X209179000Y-88241000D02*
X209179000Y-86515000D01*
X209179000Y-92047000D02*
X209179000Y-90321000D01*
X209139000Y-88241000D02*
X209139000Y-86491000D01*
X209139000Y-92071000D02*
X209139000Y-90321000D01*
X209099000Y-88241000D02*
X209099000Y-86469000D01*
X209099000Y-92093000D02*
X209099000Y-90321000D01*
X209059000Y-88241000D02*
X209059000Y-86447000D01*
X209059000Y-92115000D02*
X209059000Y-90321000D01*
X209019000Y-88241000D02*
X209019000Y-86425000D01*
X209019000Y-92137000D02*
X209019000Y-90321000D01*
X208979000Y-88241000D02*
X208979000Y-86405000D01*
X208979000Y-92157000D02*
X208979000Y-90321000D01*
X208939000Y-88241000D02*
X208939000Y-86385000D01*
X208939000Y-92177000D02*
X208939000Y-90321000D01*
X208899000Y-88241000D02*
X208899000Y-86365000D01*
X208899000Y-92197000D02*
X208899000Y-90321000D01*
X208859000Y-88241000D02*
X208859000Y-86347000D01*
X208859000Y-92215000D02*
X208859000Y-90321000D01*
X208819000Y-88241000D02*
X208819000Y-86329000D01*
X208819000Y-92233000D02*
X208819000Y-90321000D01*
X208779000Y-88241000D02*
X208779000Y-86311000D01*
X208779000Y-92251000D02*
X208779000Y-90321000D01*
X208739000Y-88241000D02*
X208739000Y-86295000D01*
X208739000Y-92267000D02*
X208739000Y-90321000D01*
X208699000Y-88241000D02*
X208699000Y-86279000D01*
X208699000Y-92283000D02*
X208699000Y-90321000D01*
X208659000Y-88241000D02*
X208659000Y-86263000D01*
X208659000Y-92299000D02*
X208659000Y-90321000D01*
X208619000Y-88241000D02*
X208619000Y-86248000D01*
X208619000Y-92314000D02*
X208619000Y-90321000D01*
X208579000Y-88241000D02*
X208579000Y-86234000D01*
X208579000Y-92328000D02*
X208579000Y-90321000D01*
X208539000Y-88241000D02*
X208539000Y-86220000D01*
X208539000Y-92342000D02*
X208539000Y-90321000D01*
X208499000Y-88241000D02*
X208499000Y-86207000D01*
X208499000Y-92355000D02*
X208499000Y-90321000D01*
X208459000Y-88241000D02*
X208459000Y-86195000D01*
X208459000Y-92367000D02*
X208459000Y-90321000D01*
X208419000Y-88241000D02*
X208419000Y-86183000D01*
X208419000Y-92379000D02*
X208419000Y-90321000D01*
X208379000Y-88241000D02*
X208379000Y-86171000D01*
X208379000Y-92391000D02*
X208379000Y-90321000D01*
X208339000Y-88241000D02*
X208339000Y-86160000D01*
X208339000Y-92402000D02*
X208339000Y-90321000D01*
X208299000Y-88241000D02*
X208299000Y-86150000D01*
X208299000Y-92412000D02*
X208299000Y-90321000D01*
X208259000Y-88241000D02*
X208259000Y-86140000D01*
X208259000Y-92422000D02*
X208259000Y-90321000D01*
X208219000Y-88241000D02*
X208219000Y-86131000D01*
X208219000Y-92431000D02*
X208219000Y-90321000D01*
X208178000Y-88241000D02*
X208178000Y-86122000D01*
X208178000Y-92440000D02*
X208178000Y-90321000D01*
X208138000Y-88241000D02*
X208138000Y-86114000D01*
X208138000Y-92448000D02*
X208138000Y-90321000D01*
X208098000Y-88241000D02*
X208098000Y-86106000D01*
X208098000Y-92456000D02*
X208098000Y-90321000D01*
X208058000Y-88241000D02*
X208058000Y-86099000D01*
X208058000Y-92463000D02*
X208058000Y-90321000D01*
X208018000Y-88241000D02*
X208018000Y-86092000D01*
X208018000Y-92470000D02*
X208018000Y-90321000D01*
X207978000Y-88241000D02*
X207978000Y-86086000D01*
X207978000Y-92476000D02*
X207978000Y-90321000D01*
X207938000Y-88241000D02*
X207938000Y-86080000D01*
X207938000Y-92482000D02*
X207938000Y-90321000D01*
X207898000Y-88241000D02*
X207898000Y-86075000D01*
X207898000Y-92487000D02*
X207898000Y-90321000D01*
X207858000Y-88241000D02*
X207858000Y-86070000D01*
X207858000Y-92492000D02*
X207858000Y-90321000D01*
X207818000Y-88241000D02*
X207818000Y-86066000D01*
X207818000Y-92496000D02*
X207818000Y-90321000D01*
X207778000Y-88241000D02*
X207778000Y-86063000D01*
X207778000Y-92499000D02*
X207778000Y-90321000D01*
X207738000Y-88241000D02*
X207738000Y-86059000D01*
X207738000Y-92503000D02*
X207738000Y-90321000D01*
X207698000Y-92505000D02*
X207698000Y-86057000D01*
X207658000Y-92508000D02*
X207658000Y-86054000D01*
X207618000Y-92509000D02*
X207618000Y-86053000D01*
X207578000Y-92511000D02*
X207578000Y-86051000D01*
X207538000Y-92511000D02*
X207538000Y-86051000D01*
X207498000Y-92511000D02*
X207498000Y-86051000D01*
X210768000Y-89281000D02*
G75*
G03*
X210768000Y-89281000I-3270000J0D01*
G01*
%TO.C,L2*%
X208446000Y-83439000D02*
X206786000Y-83439000D01*
X212686000Y-83439000D02*
G75*
G03*
X212686000Y-83439000I-2120000J0D01*
G01*
%TO.C,L1*%
X199556000Y-86741000D02*
X197896000Y-86741000D01*
X203796000Y-86741000D02*
G75*
G03*
X203796000Y-86741000I-2120000J0D01*
G01*
%TO.C,J1*%
X218466000Y-89521000D02*
X218466000Y-87521000D01*
X220706000Y-89521000D02*
X218466000Y-89521000D01*
X222290000Y-79151000D02*
X222197000Y-79245000D01*
X224541000Y-76901000D02*
X224482000Y-76960000D01*
X222050000Y-78981000D02*
X221992000Y-79040000D01*
X224335000Y-76696000D02*
X224242000Y-76790000D01*
X227826000Y-74161000D02*
X218706000Y-74161000D01*
X227826000Y-89281000D02*
X218706000Y-89281000D01*
X218706000Y-89281000D02*
X218706000Y-74161000D01*
X227826000Y-89281000D02*
X227826000Y-74161000D01*
X225766000Y-89281000D02*
X225766000Y-74161000D01*
X220766000Y-89281000D02*
X220766000Y-74161000D01*
X224946000Y-77971000D02*
G75*
G03*
X224946000Y-77971000I-1680000J0D01*
G01*
X221585550Y-85441617D02*
G75*
G03*
X221782000Y-86260000I1680450J-29383D01*
G01*
X222476912Y-86954953D02*
G75*
G03*
X224055000Y-86955000I789088J1483953D01*
G01*
X224749953Y-86260088D02*
G75*
G03*
X224750000Y-84682000I-1483953J789088D01*
G01*
X224055088Y-83987047D02*
G75*
G03*
X222477000Y-83987000I-789088J-1483953D01*
G01*
X221782648Y-84682288D02*
G75*
G03*
X221586000Y-85471000I1483352J-788712D01*
G01*
%TO.C,J2*%
X218466000Y-121240000D02*
X218466000Y-119240000D01*
X220706000Y-121240000D02*
X218466000Y-121240000D01*
X222290000Y-110870000D02*
X222197000Y-110964000D01*
X224541000Y-108620000D02*
X224482000Y-108679000D01*
X222050000Y-110700000D02*
X221992000Y-110759000D01*
X224335000Y-108415000D02*
X224242000Y-108509000D01*
X227826000Y-105880000D02*
X218706000Y-105880000D01*
X227826000Y-121000000D02*
X218706000Y-121000000D01*
X218706000Y-121000000D02*
X218706000Y-105880000D01*
X227826000Y-121000000D02*
X227826000Y-105880000D01*
X225766000Y-121000000D02*
X225766000Y-105880000D01*
X220766000Y-121000000D02*
X220766000Y-105880000D01*
X224946000Y-109690000D02*
G75*
G03*
X224946000Y-109690000I-1680000J0D01*
G01*
X221585550Y-117160617D02*
G75*
G03*
X221782000Y-117979000I1680450J-29383D01*
G01*
X222476912Y-118673953D02*
G75*
G03*
X224055000Y-118674000I789088J1483953D01*
G01*
X224749953Y-117979088D02*
G75*
G03*
X224750000Y-116401000I-1483953J789088D01*
G01*
X224055088Y-115706047D02*
G75*
G03*
X222477000Y-115706000I-789088J-1483953D01*
G01*
X221782648Y-116401288D02*
G75*
G03*
X221586000Y-117190000I1483352J-788712D01*
G01*
%TO.C,J6*%
X151398000Y-130836000D02*
X153398000Y-130836000D01*
X151398000Y-133076000D02*
X151398000Y-130836000D01*
X161768000Y-134660000D02*
X161674000Y-134567000D01*
X164018000Y-136911000D02*
X163959000Y-136852000D01*
X161938000Y-134420000D02*
X161879000Y-134362000D01*
X164223000Y-136705000D02*
X164129000Y-136612000D01*
X166758000Y-140196000D02*
X166758000Y-131076000D01*
X151638000Y-140196000D02*
X151638000Y-131076000D01*
X151638000Y-131076000D02*
X166758000Y-131076000D01*
X151638000Y-140196000D02*
X166758000Y-140196000D01*
X151638000Y-138136000D02*
X166758000Y-138136000D01*
X151638000Y-133136000D02*
X166758000Y-133136000D01*
X164628000Y-135636000D02*
G75*
G03*
X164628000Y-135636000I-1680000J0D01*
G01*
X155477383Y-133955550D02*
G75*
G03*
X154659000Y-134152000I-29383J-1680450D01*
G01*
X153964047Y-134846912D02*
G75*
G03*
X153964000Y-136425000I1483953J-789088D01*
G01*
X154658912Y-137119953D02*
G75*
G03*
X156237000Y-137120000I789088J1483953D01*
G01*
X156931953Y-136425088D02*
G75*
G03*
X156932000Y-134847000I-1483953J789088D01*
G01*
X156236712Y-134152648D02*
G75*
G03*
X155448000Y-133956000I-788712J-1483352D01*
G01*
%TO.C,Y1*%
X162266000Y-90693000D02*
X168516000Y-90693000D01*
X162266000Y-95743000D02*
X168516000Y-95743000D01*
X168516000Y-90693000D02*
G75*
G02*
X168516000Y-95743000I0J-2525000D01*
G01*
X162266000Y-90693000D02*
G75*
G03*
X162266000Y-95743000I0J-2525000D01*
G01*
%TO.C,RV1*%
X200785000Y-62171000D02*
X194445000Y-62171000D01*
X200785000Y-71941000D02*
X194445000Y-71941000D01*
X194445000Y-71941000D02*
X194445000Y-62171000D01*
X200785000Y-71941000D02*
X200785000Y-62171000D01*
%TO.C,RV2*%
X219200000Y-62171000D02*
X212860000Y-62171000D01*
X219200000Y-71941000D02*
X212860000Y-71941000D01*
X212860000Y-71941000D02*
X212860000Y-62171000D01*
X219200000Y-71941000D02*
X219200000Y-62171000D01*
%TO.C,JP1*%
X211395000Y-101406000D02*
X212725000Y-101406000D01*
X211395000Y-100076000D02*
X211395000Y-101406000D01*
X211395000Y-98806000D02*
X214055000Y-98806000D01*
X214055000Y-98806000D02*
X214055000Y-93666000D01*
X211395000Y-98806000D02*
X211395000Y-93666000D01*
X211395000Y-93666000D02*
X214055000Y-93666000D01*
%TO.C,C7*%
D11*
X88137666Y-62547142D02*
X88185285Y-62594761D01*
X88328142Y-62642380D01*
X88423380Y-62642380D01*
X88566238Y-62594761D01*
X88661476Y-62499523D01*
X88709095Y-62404285D01*
X88756714Y-62213809D01*
X88756714Y-62070952D01*
X88709095Y-61880476D01*
X88661476Y-61785238D01*
X88566238Y-61690000D01*
X88423380Y-61642380D01*
X88328142Y-61642380D01*
X88185285Y-61690000D01*
X88137666Y-61737619D01*
X87804333Y-61642380D02*
X87137666Y-61642380D01*
X87566238Y-62642380D01*
%TO.C,C23*%
X83553857Y-74988142D02*
X83601476Y-75035761D01*
X83744333Y-75083380D01*
X83839571Y-75083380D01*
X83982428Y-75035761D01*
X84077666Y-74940523D01*
X84125285Y-74845285D01*
X84172904Y-74654809D01*
X84172904Y-74511952D01*
X84125285Y-74321476D01*
X84077666Y-74226238D01*
X83982428Y-74131000D01*
X83839571Y-74083380D01*
X83744333Y-74083380D01*
X83601476Y-74131000D01*
X83553857Y-74178619D01*
X83172904Y-74178619D02*
X83125285Y-74131000D01*
X83030047Y-74083380D01*
X82791952Y-74083380D01*
X82696714Y-74131000D01*
X82649095Y-74178619D01*
X82601476Y-74273857D01*
X82601476Y-74369095D01*
X82649095Y-74511952D01*
X83220523Y-75083380D01*
X82601476Y-75083380D01*
X82268142Y-74083380D02*
X81649095Y-74083380D01*
X81982428Y-74464333D01*
X81839571Y-74464333D01*
X81744333Y-74511952D01*
X81696714Y-74559571D01*
X81649095Y-74654809D01*
X81649095Y-74892904D01*
X81696714Y-74988142D01*
X81744333Y-75035761D01*
X81839571Y-75083380D01*
X82125285Y-75083380D01*
X82220523Y-75035761D01*
X82268142Y-74988142D01*
%TO.C,F1*%
X72318571Y-81581666D02*
X72318571Y-81248333D01*
X72842380Y-81248333D02*
X71842380Y-81248333D01*
X71842380Y-81724523D01*
X72842380Y-82629285D02*
X72842380Y-82057857D01*
X72842380Y-82343571D02*
X71842380Y-82343571D01*
X71985238Y-82248333D01*
X72080476Y-82153095D01*
X72128095Y-82057857D01*
%TO.C,BZ1*%
X82150952Y-108728571D02*
X82008095Y-108776190D01*
X81960476Y-108823809D01*
X81912857Y-108919047D01*
X81912857Y-109061904D01*
X81960476Y-109157142D01*
X82008095Y-109204761D01*
X82103333Y-109252380D01*
X82484285Y-109252380D01*
X82484285Y-108252380D01*
X82150952Y-108252380D01*
X82055714Y-108300000D01*
X82008095Y-108347619D01*
X81960476Y-108442857D01*
X81960476Y-108538095D01*
X82008095Y-108633333D01*
X82055714Y-108680952D01*
X82150952Y-108728571D01*
X82484285Y-108728571D01*
X81579523Y-108252380D02*
X80912857Y-108252380D01*
X81579523Y-109252380D01*
X80912857Y-109252380D01*
X80008095Y-109252380D02*
X80579523Y-109252380D01*
X80293809Y-109252380D02*
X80293809Y-108252380D01*
X80389047Y-108395238D01*
X80484285Y-108490476D01*
X80579523Y-108538095D01*
X77840952Y-104211428D02*
X77079047Y-104211428D01*
X77460000Y-104592380D02*
X77460000Y-103830476D01*
%TO.C,D14*%
X86304285Y-123134380D02*
X86304285Y-122134380D01*
X86066190Y-122134380D01*
X85923333Y-122182000D01*
X85828095Y-122277238D01*
X85780476Y-122372476D01*
X85732857Y-122562952D01*
X85732857Y-122705809D01*
X85780476Y-122896285D01*
X85828095Y-122991523D01*
X85923333Y-123086761D01*
X86066190Y-123134380D01*
X86304285Y-123134380D01*
X84780476Y-123134380D02*
X85351904Y-123134380D01*
X85066190Y-123134380D02*
X85066190Y-122134380D01*
X85161428Y-122277238D01*
X85256666Y-122372476D01*
X85351904Y-122420095D01*
X83923333Y-122467714D02*
X83923333Y-123134380D01*
X84161428Y-122086761D02*
X84399523Y-122801047D01*
X83780476Y-122801047D01*
X87129904Y-129230380D02*
X87129904Y-128230380D01*
X86558476Y-129230380D02*
X86987047Y-128658952D01*
X86558476Y-128230380D02*
X87129904Y-128801809D01*
%TO.C,J7*%
X92154333Y-135088380D02*
X92154333Y-135802666D01*
X92201952Y-135945523D01*
X92297190Y-136040761D01*
X92440047Y-136088380D01*
X92535285Y-136088380D01*
X91773380Y-135088380D02*
X91106714Y-135088380D01*
X91535285Y-136088380D01*
%TO.C,L3*%
X76493666Y-69612380D02*
X76969857Y-69612380D01*
X76969857Y-68612380D01*
X76255571Y-68612380D02*
X75636523Y-68612380D01*
X75969857Y-68993333D01*
X75827000Y-68993333D01*
X75731761Y-69040952D01*
X75684142Y-69088571D01*
X75636523Y-69183809D01*
X75636523Y-69421904D01*
X75684142Y-69517142D01*
X75731761Y-69564761D01*
X75827000Y-69612380D01*
X76112714Y-69612380D01*
X76207952Y-69564761D01*
X76255571Y-69517142D01*
%TO.C,D11*%
X172918285Y-128468380D02*
X172918285Y-127468380D01*
X172680190Y-127468380D01*
X172537333Y-127516000D01*
X172442095Y-127611238D01*
X172394476Y-127706476D01*
X172346857Y-127896952D01*
X172346857Y-128039809D01*
X172394476Y-128230285D01*
X172442095Y-128325523D01*
X172537333Y-128420761D01*
X172680190Y-128468380D01*
X172918285Y-128468380D01*
X171394476Y-128468380D02*
X171965904Y-128468380D01*
X171680190Y-128468380D02*
X171680190Y-127468380D01*
X171775428Y-127611238D01*
X171870666Y-127706476D01*
X171965904Y-127754095D01*
X170442095Y-128468380D02*
X171013523Y-128468380D01*
X170727809Y-128468380D02*
X170727809Y-127468380D01*
X170823047Y-127611238D01*
X170918285Y-127706476D01*
X171013523Y-127754095D01*
X169171904Y-134818380D02*
X169171904Y-133818380D01*
X168600476Y-134818380D02*
X169029047Y-134246952D01*
X168600476Y-133818380D02*
X169171904Y-134389809D01*
%TO.C,D10*%
X70175285Y-105608380D02*
X70175285Y-104608380D01*
X69937190Y-104608380D01*
X69794333Y-104656000D01*
X69699095Y-104751238D01*
X69651476Y-104846476D01*
X69603857Y-105036952D01*
X69603857Y-105179809D01*
X69651476Y-105370285D01*
X69699095Y-105465523D01*
X69794333Y-105560761D01*
X69937190Y-105608380D01*
X70175285Y-105608380D01*
X68651476Y-105608380D02*
X69222904Y-105608380D01*
X68937190Y-105608380D02*
X68937190Y-104608380D01*
X69032428Y-104751238D01*
X69127666Y-104846476D01*
X69222904Y-104894095D01*
X68032428Y-104608380D02*
X67937190Y-104608380D01*
X67841952Y-104656000D01*
X67794333Y-104703619D01*
X67746714Y-104798857D01*
X67699095Y-104989333D01*
X67699095Y-105227428D01*
X67746714Y-105417904D01*
X67794333Y-105513142D01*
X67841952Y-105560761D01*
X67937190Y-105608380D01*
X68032428Y-105608380D01*
X68127666Y-105560761D01*
X68175285Y-105513142D01*
X68222904Y-105417904D01*
X68270523Y-105227428D01*
X68270523Y-104989333D01*
X68222904Y-104798857D01*
X68175285Y-104703619D01*
X68127666Y-104656000D01*
X68032428Y-104608380D01*
X71889904Y-99131380D02*
X71889904Y-98131380D01*
X71318476Y-99131380D02*
X71747047Y-98559952D01*
X71318476Y-98131380D02*
X71889904Y-98702809D01*
%TO.C,D9*%
X211304095Y-103957380D02*
X211304095Y-102957380D01*
X211066000Y-102957380D01*
X210923142Y-103005000D01*
X210827904Y-103100238D01*
X210780285Y-103195476D01*
X210732666Y-103385952D01*
X210732666Y-103528809D01*
X210780285Y-103719285D01*
X210827904Y-103814523D01*
X210923142Y-103909761D01*
X211066000Y-103957380D01*
X211304095Y-103957380D01*
X210256476Y-103957380D02*
X210066000Y-103957380D01*
X209970761Y-103909761D01*
X209923142Y-103862142D01*
X209827904Y-103719285D01*
X209780285Y-103528809D01*
X209780285Y-103147857D01*
X209827904Y-103052619D01*
X209875523Y-103005000D01*
X209970761Y-102957380D01*
X210161238Y-102957380D01*
X210256476Y-103005000D01*
X210304095Y-103052619D01*
X210351714Y-103147857D01*
X210351714Y-103385952D01*
X210304095Y-103481190D01*
X210256476Y-103528809D01*
X210161238Y-103576428D01*
X209970761Y-103576428D01*
X209875523Y-103528809D01*
X209827904Y-103481190D01*
X209780285Y-103385952D01*
X217050904Y-109291380D02*
X217050904Y-108291380D01*
X216479476Y-109291380D02*
X216908047Y-108719952D01*
X216479476Y-108291380D02*
X217050904Y-108862809D01*
%TO.C,D8*%
X209780095Y-75890380D02*
X209780095Y-74890380D01*
X209542000Y-74890380D01*
X209399142Y-74938000D01*
X209303904Y-75033238D01*
X209256285Y-75128476D01*
X209208666Y-75318952D01*
X209208666Y-75461809D01*
X209256285Y-75652285D01*
X209303904Y-75747523D01*
X209399142Y-75842761D01*
X209542000Y-75890380D01*
X209780095Y-75890380D01*
X208637238Y-75318952D02*
X208732476Y-75271333D01*
X208780095Y-75223714D01*
X208827714Y-75128476D01*
X208827714Y-75080857D01*
X208780095Y-74985619D01*
X208732476Y-74938000D01*
X208637238Y-74890380D01*
X208446761Y-74890380D01*
X208351523Y-74938000D01*
X208303904Y-74985619D01*
X208256285Y-75080857D01*
X208256285Y-75128476D01*
X208303904Y-75223714D01*
X208351523Y-75271333D01*
X208446761Y-75318952D01*
X208637238Y-75318952D01*
X208732476Y-75366571D01*
X208780095Y-75414190D01*
X208827714Y-75509428D01*
X208827714Y-75699904D01*
X208780095Y-75795142D01*
X208732476Y-75842761D01*
X208637238Y-75890380D01*
X208446761Y-75890380D01*
X208351523Y-75842761D01*
X208303904Y-75795142D01*
X208256285Y-75699904D01*
X208256285Y-75509428D01*
X208303904Y-75414190D01*
X208351523Y-75366571D01*
X208446761Y-75318952D01*
X214256904Y-81478380D02*
X214256904Y-80478380D01*
X213685476Y-81478380D02*
X214114047Y-80906952D01*
X213685476Y-80478380D02*
X214256904Y-81049809D01*
%TO.C,C18*%
X77096857Y-56872142D02*
X77144476Y-56919761D01*
X77287333Y-56967380D01*
X77382571Y-56967380D01*
X77525428Y-56919761D01*
X77620666Y-56824523D01*
X77668285Y-56729285D01*
X77715904Y-56538809D01*
X77715904Y-56395952D01*
X77668285Y-56205476D01*
X77620666Y-56110238D01*
X77525428Y-56015000D01*
X77382571Y-55967380D01*
X77287333Y-55967380D01*
X77144476Y-56015000D01*
X77096857Y-56062619D01*
X76144476Y-56967380D02*
X76715904Y-56967380D01*
X76430190Y-56967380D02*
X76430190Y-55967380D01*
X76525428Y-56110238D01*
X76620666Y-56205476D01*
X76715904Y-56253095D01*
X75573047Y-56395952D02*
X75668285Y-56348333D01*
X75715904Y-56300714D01*
X75763523Y-56205476D01*
X75763523Y-56157857D01*
X75715904Y-56062619D01*
X75668285Y-56015000D01*
X75573047Y-55967380D01*
X75382571Y-55967380D01*
X75287333Y-56015000D01*
X75239714Y-56062619D01*
X75192095Y-56157857D01*
X75192095Y-56205476D01*
X75239714Y-56300714D01*
X75287333Y-56348333D01*
X75382571Y-56395952D01*
X75573047Y-56395952D01*
X75668285Y-56443571D01*
X75715904Y-56491190D01*
X75763523Y-56586428D01*
X75763523Y-56776904D01*
X75715904Y-56872142D01*
X75668285Y-56919761D01*
X75573047Y-56967380D01*
X75382571Y-56967380D01*
X75287333Y-56919761D01*
X75239714Y-56872142D01*
X75192095Y-56776904D01*
X75192095Y-56586428D01*
X75239714Y-56491190D01*
X75287333Y-56443571D01*
X75382571Y-56395952D01*
%TO.C,C11*%
X212986857Y-88241142D02*
X213034476Y-88288761D01*
X213177333Y-88336380D01*
X213272571Y-88336380D01*
X213415428Y-88288761D01*
X213510666Y-88193523D01*
X213558285Y-88098285D01*
X213605904Y-87907809D01*
X213605904Y-87764952D01*
X213558285Y-87574476D01*
X213510666Y-87479238D01*
X213415428Y-87384000D01*
X213272571Y-87336380D01*
X213177333Y-87336380D01*
X213034476Y-87384000D01*
X212986857Y-87431619D01*
X212034476Y-88336380D02*
X212605904Y-88336380D01*
X212320190Y-88336380D02*
X212320190Y-87336380D01*
X212415428Y-87479238D01*
X212510666Y-87574476D01*
X212605904Y-87622095D01*
X211082095Y-88336380D02*
X211653523Y-88336380D01*
X211367809Y-88336380D02*
X211367809Y-87336380D01*
X211463047Y-87479238D01*
X211558285Y-87574476D01*
X211653523Y-87622095D01*
%TO.C,L2*%
X208192666Y-80771380D02*
X208668857Y-80771380D01*
X208668857Y-79771380D01*
X207906952Y-79866619D02*
X207859333Y-79819000D01*
X207764095Y-79771380D01*
X207526000Y-79771380D01*
X207430761Y-79819000D01*
X207383142Y-79866619D01*
X207335523Y-79961857D01*
X207335523Y-80057095D01*
X207383142Y-80199952D01*
X207954571Y-80771380D01*
X207335523Y-80771380D01*
%TO.C,L1*%
X199302666Y-84073380D02*
X199778857Y-84073380D01*
X199778857Y-83073380D01*
X198445523Y-84073380D02*
X199016952Y-84073380D01*
X198731238Y-84073380D02*
X198731238Y-83073380D01*
X198826476Y-83216238D01*
X198921714Y-83311476D01*
X199016952Y-83359095D01*
%TO.C,J1*%
X223472333Y-80859380D02*
X223472333Y-81573666D01*
X223519952Y-81716523D01*
X223615190Y-81811761D01*
X223758047Y-81859380D01*
X223853285Y-81859380D01*
X222472333Y-81859380D02*
X223043761Y-81859380D01*
X222758047Y-81859380D02*
X222758047Y-80859380D01*
X222853285Y-81002238D01*
X222948523Y-81097476D01*
X223043761Y-81145095D01*
%TO.C,J2*%
X223726333Y-112736380D02*
X223726333Y-113450666D01*
X223773952Y-113593523D01*
X223869190Y-113688761D01*
X224012047Y-113736380D01*
X224107285Y-113736380D01*
X223297761Y-112831619D02*
X223250142Y-112784000D01*
X223154904Y-112736380D01*
X222916809Y-112736380D01*
X222821571Y-112784000D01*
X222773952Y-112831619D01*
X222726333Y-112926857D01*
X222726333Y-113022095D01*
X222773952Y-113164952D01*
X223345380Y-113736380D01*
X222726333Y-113736380D01*
%TO.C,J6*%
X159845333Y-135088380D02*
X159845333Y-135802666D01*
X159892952Y-135945523D01*
X159988190Y-136040761D01*
X160131047Y-136088380D01*
X160226285Y-136088380D01*
X158940571Y-135088380D02*
X159131047Y-135088380D01*
X159226285Y-135136000D01*
X159273904Y-135183619D01*
X159369142Y-135326476D01*
X159416761Y-135516952D01*
X159416761Y-135897904D01*
X159369142Y-135993142D01*
X159321523Y-136040761D01*
X159226285Y-136088380D01*
X159035809Y-136088380D01*
X158940571Y-136040761D01*
X158892952Y-135993142D01*
X158845333Y-135897904D01*
X158845333Y-135659809D01*
X158892952Y-135564571D01*
X158940571Y-135516952D01*
X159035809Y-135469333D01*
X159226285Y-135469333D01*
X159321523Y-135516952D01*
X159369142Y-135564571D01*
X159416761Y-135659809D01*
%TO.C,Y1*%
X166084190Y-93194190D02*
X166084190Y-93670380D01*
X166417523Y-92670380D02*
X166084190Y-93194190D01*
X165750857Y-92670380D01*
X164893714Y-93670380D02*
X165465142Y-93670380D01*
X165179428Y-93670380D02*
X165179428Y-92670380D01*
X165274666Y-92813238D01*
X165369904Y-92908476D01*
X165465142Y-92956095D01*
%TO.C,RV1*%
X197048380Y-66333761D02*
X196572190Y-66000428D01*
X197048380Y-65762333D02*
X196048380Y-65762333D01*
X196048380Y-66143285D01*
X196096000Y-66238523D01*
X196143619Y-66286142D01*
X196238857Y-66333761D01*
X196381714Y-66333761D01*
X196476952Y-66286142D01*
X196524571Y-66238523D01*
X196572190Y-66143285D01*
X196572190Y-65762333D01*
X196048380Y-66619476D02*
X197048380Y-66952809D01*
X196048380Y-67286142D01*
X197048380Y-68143285D02*
X197048380Y-67571857D01*
X197048380Y-67857571D02*
X196048380Y-67857571D01*
X196191238Y-67762333D01*
X196286476Y-67667095D01*
X196334095Y-67571857D01*
%TO.C,RV2*%
X215590380Y-65952761D02*
X215114190Y-65619428D01*
X215590380Y-65381333D02*
X214590380Y-65381333D01*
X214590380Y-65762285D01*
X214638000Y-65857523D01*
X214685619Y-65905142D01*
X214780857Y-65952761D01*
X214923714Y-65952761D01*
X215018952Y-65905142D01*
X215066571Y-65857523D01*
X215114190Y-65762285D01*
X215114190Y-65381333D01*
X214590380Y-66238476D02*
X215590380Y-66571809D01*
X214590380Y-66905142D01*
X214685619Y-67190857D02*
X214638000Y-67238476D01*
X214590380Y-67333714D01*
X214590380Y-67571809D01*
X214638000Y-67667047D01*
X214685619Y-67714666D01*
X214780857Y-67762285D01*
X214876095Y-67762285D01*
X215018952Y-67714666D01*
X215590380Y-67143238D01*
X215590380Y-67762285D01*
%TO.C,JP1*%
X213558333Y-92035380D02*
X213558333Y-92749666D01*
X213605952Y-92892523D01*
X213701190Y-92987761D01*
X213844047Y-93035380D01*
X213939285Y-93035380D01*
X213082142Y-93035380D02*
X213082142Y-92035380D01*
X212701190Y-92035380D01*
X212605952Y-92083000D01*
X212558333Y-92130619D01*
X212510714Y-92225857D01*
X212510714Y-92368714D01*
X212558333Y-92463952D01*
X212605952Y-92511571D01*
X212701190Y-92559190D01*
X213082142Y-92559190D01*
X211558333Y-93035380D02*
X212129761Y-93035380D01*
X211844047Y-93035380D02*
X211844047Y-92035380D01*
X211939285Y-92178238D01*
X212034523Y-92273476D01*
X212129761Y-92321095D01*
%TD*%
M02*
