M48
; DRILL file {KiCad (5.1.9)-1} date 03/04/21 22:01:55
; FORMAT={-:-/ absolute / metric / decimal}
; #@! TF.CreationDate,2021-03-04T22:01:55+01:00
; #@! TF.GenerationSoftware,Kicad,Pcbnew,(5.1.9)-1
; #@! TF.FileFunction,Plated,1,2,PTH
FMAT,2
METRIC
T1C0.400
T2C0.500
T3C0.700
T4C0.762
T5C0.800
T6C0.900
T7C0.950
T8C1.000
T9C1.300
T10C1.500
T11C1.600
T12C2.000
T13C2.200
T14C2.300
T15C3.200
%
G90
G05
T1
X72.644Y-82.677
X98.298Y-85.344
X101.473Y-113.157
X104.521Y-86.487
X108.688Y-116.448
X113.284Y-59.69
X114.046Y-110.236
X120.523Y-71.12
X120.523Y-94.742
X120.523Y-96.774
X121.666Y-69.088
X123.063Y-70.104
X123.063Y-95.758
X123.063Y-97.79
X124.206Y-68.326
X128.016Y-67.564
X128.143Y-65.913
X128.143Y-98.806
X129.54Y-100.838
X130.683Y-66.802
X130.683Y-93.726
X132.08Y-71.12
X132.461Y-99.822
X133.858Y-69.088
X133.928Y-94.742
X133.928Y-96.774
X136.398Y-70.104
X136.468Y-97.79
X136.906Y-95.758
X137.668Y-68.326
X141.478Y-65.913
X141.478Y-67.564
X141.548Y-98.806
X142.748Y-100.838
X144.018Y-66.802
X144.088Y-93.726
X145.542Y-99.822
X145.796Y-71.12
X147.193Y-94.742
X147.193Y-96.774
X147.193Y-104.998
X147.32Y-69.088
X149.606Y-68.326
X149.733Y-95.758
X149.733Y-97.79
X150.876Y-70.104
X154.139Y-100.849
X154.686Y-67.564
X154.813Y-65.913
X155.956Y-98.806
X157.226Y-66.802
X157.353Y-99.822
X165.836Y-84.318
X185.547Y-108.839
X186.738Y-85.423
X190.246Y-105.156
X196.977Y-106.299
X199.898Y-104.648
T2
X52.878Y-61.708
X52.878Y-133.708
X53.581Y-60.011
X53.581Y-63.405
X53.581Y-132.011
X53.581Y-135.405
X55.278Y-59.308
X55.278Y-64.108
X55.278Y-131.308
X55.278Y-136.108
X56.975Y-60.011
X56.975Y-63.405
X56.975Y-132.011
X56.975Y-135.405
X57.678Y-61.708
X57.678Y-133.708
X220.188Y-61.708
X220.188Y-133.708
X220.891Y-60.011
X220.891Y-63.405
X220.891Y-132.011
X220.891Y-135.405
X222.588Y-59.308
X222.588Y-64.108
X222.588Y-131.308
X222.588Y-136.108
X224.285Y-60.011
X224.285Y-63.405
X224.285Y-132.011
X224.285Y-135.405
X224.988Y-61.708
X224.988Y-133.708
T3
X71.13Y-124.333
X78.75Y-124.333
X84.963Y-76.962
X84.963Y-84.582
X88.646Y-64.77
X96.266Y-64.77
X96.901Y-127.127
X100.457Y-99.314
X102.362Y-102.489
X103.124Y-70.612
X103.124Y-78.232
X104.521Y-127.127
X107.188Y-57.404
X107.188Y-65.024
X108.077Y-99.314
X109.982Y-102.489
X110.236Y-75.819
X110.236Y-83.439
X112.776Y-81.534
X112.776Y-89.154
X119.634Y-122.682
X119.634Y-130.302
X156.718Y-117.19
X164.338Y-117.19
X166.243Y-63.088
X166.243Y-65.628
X166.243Y-68.168
X166.243Y-70.708
X166.243Y-73.248
X166.243Y-75.788
X166.243Y-78.328
X166.243Y-80.868
X168.148Y-117.602
X168.148Y-128.62
X173.863Y-63.088
X173.863Y-65.628
X173.863Y-68.168
X173.863Y-70.708
X173.863Y-73.248
X173.863Y-75.788
X173.863Y-78.328
X173.863Y-80.868
X175.768Y-58.928
X175.768Y-117.602
X175.768Y-128.62
X177.038Y-133.985
X177.038Y-137.033
X183.388Y-58.928
X184.658Y-133.985
X184.658Y-137.033
X187.198Y-120.396
X192.278Y-133.985
X194.818Y-120.396
X198.247Y-123.571
X198.247Y-131.191
X199.517Y-77.343
X199.898Y-133.985
X201.168Y-120.65
X201.168Y-123.952
X202.946Y-59.182
X205.486Y-94.214
X205.486Y-101.834
X207.137Y-77.343
X208.28Y-94.214
X208.28Y-101.834
X208.788Y-120.65
X208.788Y-123.952
X210.566Y-59.182
X213.741Y-129.413
X213.741Y-137.033
X216.408Y-82.296
X216.408Y-89.916
X218.44Y-103.505
X226.06Y-103.505
T4
X148.008Y-118.413
X148.008Y-120.913
X148.008Y-123.413
X148.008Y-125.913
X148.008Y-128.413
T5
X78.78Y-59.69
X81.28Y-59.69
X81.661Y-70.231
X84.161Y-70.231
X85.471Y-59.69
X88.646Y-71.374
X88.646Y-73.914
X88.646Y-76.454
X88.646Y-78.994
X88.646Y-81.534
X88.646Y-84.074
X88.646Y-86.614
X88.646Y-89.154
X89.027Y-97.155
X90.471Y-59.69
X91.567Y-99.695
X94.107Y-97.155
X96.266Y-71.374
X96.266Y-73.914
X96.266Y-76.454
X96.266Y-78.994
X96.266Y-81.534
X96.266Y-84.074
X96.266Y-86.614
X96.266Y-89.154
X98.044Y-112.522
X98.044Y-117.522
X120.523Y-63.088
X120.523Y-78.328
X120.523Y-89.758
X120.523Y-104.998
X123.063Y-63.088
X123.063Y-78.328
X123.063Y-89.758
X123.063Y-104.998
X125.603Y-63.088
X125.603Y-78.328
X125.603Y-89.758
X125.603Y-104.998
X128.143Y-63.088
X128.143Y-78.328
X128.143Y-89.758
X128.143Y-104.998
X130.683Y-63.088
X130.683Y-78.328
X130.683Y-89.758
X130.683Y-104.998
X133.928Y-63.088
X133.928Y-78.328
X133.928Y-89.758
X133.928Y-104.998
X136.468Y-63.088
X136.468Y-78.328
X136.468Y-89.758
X136.468Y-104.998
X139.008Y-63.088
X139.008Y-78.328
X139.008Y-89.758
X139.008Y-104.998
X141.548Y-63.088
X141.548Y-78.328
X141.548Y-89.758
X141.548Y-104.998
X144.088Y-63.088
X144.088Y-78.328
X144.088Y-89.758
X144.088Y-104.998
X147.193Y-63.088
X147.193Y-78.328
X147.193Y-89.758
X147.193Y-104.998
X149.733Y-63.088
X149.733Y-78.328
X149.733Y-89.758
X149.733Y-104.998
X152.273Y-63.088
X152.273Y-78.328
X152.273Y-89.758
X152.273Y-104.998
X154.813Y-63.088
X154.813Y-78.328
X154.813Y-89.758
X154.813Y-104.998
X157.353Y-63.088
X157.353Y-78.328
X157.353Y-89.758
X157.353Y-104.998
X159.084Y-113.538
X162.433Y-88.646
X162.433Y-97.663
X162.941Y-93.218
X164.084Y-113.538
X167.433Y-88.646
X167.433Y-97.663
X167.841Y-93.218
X167.974Y-58.928
X168.148Y-121.0
X168.148Y-124.81
X169.625Y-85.948
X172.974Y-58.928
X173.148Y-121.0
X173.148Y-124.81
X174.625Y-85.948
X177.165Y-63.094
X177.165Y-65.634
X177.165Y-68.174
X177.165Y-70.714
X177.165Y-73.254
X177.165Y-75.794
X177.165Y-78.334
X177.165Y-80.874
X177.165Y-83.414
X177.165Y-85.954
X177.165Y-88.494
X177.165Y-91.034
X177.165Y-93.574
X177.165Y-96.114
X177.165Y-98.654
X177.165Y-101.194
X177.165Y-103.734
X177.165Y-106.274
X177.165Y-108.814
X177.165Y-111.354
X179.578Y-123.444
X179.578Y-131.064
X182.118Y-123.444
X182.118Y-131.064
X184.658Y-123.444
X184.658Y-131.064
X187.198Y-123.444
X187.198Y-131.064
X187.405Y-59.182
X189.738Y-123.444
X189.738Y-131.064
X192.278Y-123.444
X192.278Y-131.064
X192.405Y-59.182
X192.405Y-63.094
X192.405Y-65.634
X192.405Y-68.174
X192.405Y-70.714
X192.405Y-73.254
X192.405Y-75.794
X192.405Y-78.334
X192.405Y-80.874
X192.405Y-83.414
X192.405Y-85.954
X192.405Y-88.494
X192.405Y-91.034
X192.405Y-93.574
X192.405Y-96.114
X192.405Y-98.654
X192.405Y-101.194
X192.405Y-103.734
X192.405Y-106.274
X192.405Y-108.814
X192.405Y-111.354
X194.818Y-123.444
X194.818Y-131.064
X195.072Y-59.182
X196.596Y-91.059
X196.636Y-116.586
X196.977Y-74.168
X198.755Y-64.516
X198.755Y-67.056
X198.755Y-69.596
X199.136Y-116.586
X199.517Y-80.518
X200.072Y-59.182
X201.596Y-91.059
X201.977Y-74.168
X202.057Y-95.631
X202.057Y-100.631
X202.819Y-107.188
X202.819Y-109.728
X202.819Y-112.268
X202.819Y-114.808
X203.2Y-62.611
X203.2Y-65.151
X203.2Y-67.691
X203.2Y-70.231
X204.517Y-80.518
X206.248Y-89.281
X208.748Y-89.281
X210.439Y-107.188
X210.439Y-109.728
X210.439Y-112.268
X210.439Y-114.808
X210.82Y-62.611
X210.82Y-65.151
X210.82Y-67.691
X210.82Y-70.231
X213.106Y-59.055
X215.392Y-112.094
X215.392Y-117.094
X217.17Y-64.516
X217.17Y-67.056
X217.17Y-69.596
X218.106Y-59.055
X218.948Y-94.996
X218.948Y-100.076
X221.488Y-97.536
X222.25Y-68.072
X226.06Y-95.33
X226.06Y-100.33
X227.25Y-68.072
T6
X76.21Y-130.429
X78.75Y-130.429
X101.981Y-65.532
X101.981Y-92.202
X104.521Y-65.532
X104.521Y-92.202
X112.903Y-65.532
X112.903Y-75.819
X112.903Y-92.202
X112.903Y-102.489
X113.03Y-130.429
X115.443Y-65.532
X115.443Y-75.819
X115.443Y-92.202
X115.443Y-102.489
X115.57Y-130.429
X203.454Y-130.429
X205.994Y-130.429
T7
X62.018Y-94.878
X62.018Y-97.378
X62.018Y-118.023
X62.018Y-120.523
X64.018Y-94.878
X64.018Y-97.378
X64.018Y-118.023
X64.018Y-120.523
T8
X59.538Y-72.263
X59.538Y-74.803
X59.538Y-77.343
X59.538Y-79.883
X59.538Y-82.423
X62.078Y-72.263
X62.078Y-74.803
X62.078Y-77.343
X62.078Y-79.883
X62.078Y-82.423
X73.787Y-66.04
X77.47Y-101.6
X78.867Y-66.04
X85.07Y-101.6
X196.596Y-86.741
X201.676Y-86.741
X205.486Y-83.439
X210.566Y-83.439
X212.725Y-94.996
X212.725Y-97.536
X212.725Y-100.076
T9
X68.961Y-97.409
X68.961Y-101.219
X88.265Y-135.636
X89.408Y-124.714
X89.408Y-128.524
X95.765Y-135.636
X103.265Y-135.636
X155.448Y-135.636
X162.948Y-135.636
X171.831Y-131.826
X171.831Y-135.636
X212.09Y-77.978
X214.503Y-105.029
X214.503Y-108.839
X215.9Y-77.978
X223.266Y-77.971
X223.266Y-85.471
X223.266Y-109.69
X223.266Y-117.19
T10
X72.517Y-70.869
X72.517Y-93.469
T11
X63.382Y-59.69
X68.082Y-59.69
X72.782Y-59.69
T12
X131.508Y-115.113
X131.508Y-131.713
X146.508Y-115.113
X146.508Y-131.713
T13
X125.008Y-123.413
T14
X59.158Y-90.128
X59.158Y-102.128
X59.158Y-113.273
X59.158Y-125.273
T15
X55.278Y-61.708
X55.278Y-133.708
X153.008Y-123.413
X222.588Y-61.708
X222.588Y-133.708
T0
M30
