%TF.GenerationSoftware,KiCad,Pcbnew,(5.1.9)-1*%
%TF.CreationDate,2021-03-04T22:01:39+01:00*%
%TF.ProjectId,Solaranlage,536f6c61-7261-46e6-9c61-67652e6b6963,rev?*%
%TF.SameCoordinates,Original*%
%TF.FileFunction,Legend,Top*%
%TF.FilePolarity,Positive*%
%FSLAX46Y46*%
G04 Gerber Fmt 4.6, Leading zero omitted, Abs format (unit mm)*
G04 Created by KiCad (PCBNEW (5.1.9)-1) date 2021-03-04 22:01:39*
%MOMM*%
%LPD*%
G01*
G04 APERTURE LIST*
%ADD10C,0.120000*%
%ADD11C,0.150000*%
G04 APERTURE END LIST*
D10*
%TO.C,C20*%
X219326000Y-57685000D02*
X219326000Y-60425000D01*
X211886000Y-57685000D02*
X211886000Y-60425000D01*
X211886000Y-60425000D02*
X219326000Y-60425000D01*
X211886000Y-57685000D02*
X219326000Y-57685000D01*
%TO.C,C15*%
X203427000Y-101851000D02*
X200687000Y-101851000D01*
X203427000Y-94411000D02*
X200687000Y-94411000D01*
X200687000Y-94411000D02*
X200687000Y-101851000D01*
X203427000Y-94411000D02*
X203427000Y-101851000D01*
%TO.C,C9*%
X157864000Y-114908000D02*
X157864000Y-112168000D01*
X165304000Y-114908000D02*
X165304000Y-112168000D01*
X165304000Y-112168000D02*
X157864000Y-112168000D01*
X165304000Y-114908000D02*
X157864000Y-114908000D01*
%TO.C,C8*%
X174368000Y-119630000D02*
X174368000Y-122370000D01*
X166928000Y-119630000D02*
X166928000Y-122370000D01*
X166928000Y-122370000D02*
X174368000Y-122370000D01*
X166928000Y-119630000D02*
X174368000Y-119630000D01*
%TO.C,C6*%
X174368000Y-123440000D02*
X174368000Y-126180000D01*
X166928000Y-123440000D02*
X166928000Y-126180000D01*
X166928000Y-126180000D02*
X174368000Y-126180000D01*
X166928000Y-123440000D02*
X174368000Y-123440000D01*
%TO.C,C5*%
X166754000Y-60298000D02*
X166754000Y-57558000D01*
X174194000Y-60298000D02*
X174194000Y-57558000D01*
X174194000Y-57558000D02*
X166754000Y-57558000D01*
X174194000Y-60298000D02*
X166754000Y-60298000D01*
%TO.C,C1*%
X214022000Y-110874000D02*
X216762000Y-110874000D01*
X214022000Y-118314000D02*
X216762000Y-118314000D01*
X216762000Y-118314000D02*
X216762000Y-110874000D01*
X214022000Y-118314000D02*
X214022000Y-110874000D01*
%TO.C,C22*%
X99414000Y-111302000D02*
X99414000Y-118742000D01*
X96674000Y-111302000D02*
X96674000Y-118742000D01*
X99414000Y-111302000D02*
X96674000Y-111302000D01*
X99414000Y-118742000D02*
X96674000Y-118742000D01*
%TO.C,C21*%
X198297000Y-79148000D02*
X205737000Y-79148000D01*
X198297000Y-81888000D02*
X205737000Y-81888000D01*
X198297000Y-79148000D02*
X198297000Y-81888000D01*
X205737000Y-79148000D02*
X205737000Y-81888000D01*
%TO.C,C19*%
X195757000Y-72798000D02*
X203197000Y-72798000D01*
X195757000Y-75538000D02*
X203197000Y-75538000D01*
X195757000Y-72798000D02*
X195757000Y-75538000D01*
X203197000Y-72798000D02*
X203197000Y-75538000D01*
%TO.C,C17*%
X193625000Y-60552000D02*
X186185000Y-60552000D01*
X193625000Y-57812000D02*
X186185000Y-57812000D01*
X193625000Y-60552000D02*
X193625000Y-57812000D01*
X186185000Y-60552000D02*
X186185000Y-57812000D01*
%TO.C,C14*%
X175845000Y-87318000D02*
X168405000Y-87318000D01*
X175845000Y-84578000D02*
X168405000Y-84578000D01*
X175845000Y-87318000D02*
X175845000Y-84578000D01*
X168405000Y-87318000D02*
X168405000Y-84578000D01*
%TO.C,C10*%
X193852000Y-57812000D02*
X201292000Y-57812000D01*
X193852000Y-60552000D02*
X201292000Y-60552000D01*
X193852000Y-57812000D02*
X193852000Y-60552000D01*
X201292000Y-57812000D02*
X201292000Y-60552000D01*
%TO.C,C4*%
X224690000Y-101550000D02*
X224690000Y-94110000D01*
X227430000Y-101550000D02*
X227430000Y-94110000D01*
X224690000Y-101550000D02*
X227430000Y-101550000D01*
X224690000Y-94110000D02*
X227430000Y-94110000D01*
%TO.C,C3*%
X221030000Y-66702000D02*
X228470000Y-66702000D01*
X221030000Y-69442000D02*
X228470000Y-69442000D01*
X221030000Y-66702000D02*
X221030000Y-69442000D01*
X228470000Y-66702000D02*
X228470000Y-69442000D01*
%TO.C,C2*%
X195376000Y-89689000D02*
X202816000Y-89689000D01*
X195376000Y-92429000D02*
X202816000Y-92429000D01*
X195376000Y-89689000D02*
X195376000Y-92429000D01*
X202816000Y-89689000D02*
X202816000Y-92429000D01*
%TO.C,Q1*%
X217248000Y-95596000D02*
X217248000Y-99446000D01*
X217835736Y-99838383D02*
G75*
G02*
X217248000Y-99446000I1112264J2302383D01*
G01*
X220037513Y-99872463D02*
G75*
G03*
X221298000Y-98596000I-1089513J2336463D01*
G01*
X220042786Y-95188225D02*
G75*
G02*
X221298000Y-96446000I-1094786J-2347775D01*
G01*
X217825955Y-95213369D02*
G75*
G03*
X217248000Y-95596000I1122045J-2322631D01*
G01*
%TO.C,Q2*%
X93507000Y-95455000D02*
X89657000Y-95455000D01*
X89264617Y-96042736D02*
G75*
G02*
X89657000Y-95455000I2302383J-1112264D01*
G01*
X89230537Y-98244513D02*
G75*
G03*
X90507000Y-99505000I2336463J1089513D01*
G01*
X93914775Y-98249786D02*
G75*
G02*
X92657000Y-99505000I-2347775J1094786D01*
G01*
X93889631Y-96032955D02*
G75*
G03*
X93507000Y-95455000I-2322631J-1122045D01*
G01*
%TO.C,GND2*%
X90536000Y-63850000D02*
X90536000Y-65690000D01*
X90536000Y-65690000D02*
X94376000Y-65690000D01*
X94376000Y-65690000D02*
X94376000Y-63850000D01*
X94376000Y-63850000D02*
X90536000Y-63850000D01*
X89586000Y-64770000D02*
X90536000Y-64770000D01*
X95326000Y-64770000D02*
X94376000Y-64770000D01*
%TO.C,GND1*%
X214661000Y-131303000D02*
X212821000Y-131303000D01*
X212821000Y-131303000D02*
X212821000Y-135143000D01*
X212821000Y-135143000D02*
X214661000Y-135143000D01*
X214661000Y-135143000D02*
X214661000Y-131303000D01*
X213741000Y-130353000D02*
X213741000Y-131303000D01*
X213741000Y-136093000D02*
X213741000Y-135143000D01*
%TO.C,R32*%
X104044000Y-72502000D02*
X102204000Y-72502000D01*
X102204000Y-72502000D02*
X102204000Y-76342000D01*
X102204000Y-76342000D02*
X104044000Y-76342000D01*
X104044000Y-76342000D02*
X104044000Y-72502000D01*
X103124000Y-71552000D02*
X103124000Y-72502000D01*
X103124000Y-77292000D02*
X103124000Y-76342000D01*
%TO.C,R31*%
X106187000Y-100234000D02*
X106187000Y-98394000D01*
X106187000Y-98394000D02*
X102347000Y-98394000D01*
X102347000Y-98394000D02*
X102347000Y-100234000D01*
X102347000Y-100234000D02*
X106187000Y-100234000D01*
X107137000Y-99314000D02*
X106187000Y-99314000D01*
X101397000Y-99314000D02*
X102347000Y-99314000D01*
%TO.C,R28*%
X108092000Y-103409000D02*
X108092000Y-101569000D01*
X108092000Y-101569000D02*
X104252000Y-101569000D01*
X104252000Y-101569000D02*
X104252000Y-103409000D01*
X104252000Y-103409000D02*
X108092000Y-103409000D01*
X109042000Y-102489000D02*
X108092000Y-102489000D01*
X103302000Y-102489000D02*
X104252000Y-102489000D01*
%TO.C,R27*%
X111156000Y-77709000D02*
X109316000Y-77709000D01*
X109316000Y-77709000D02*
X109316000Y-81549000D01*
X109316000Y-81549000D02*
X111156000Y-81549000D01*
X111156000Y-81549000D02*
X111156000Y-77709000D01*
X110236000Y-76759000D02*
X110236000Y-77709000D01*
X110236000Y-82499000D02*
X110236000Y-81549000D01*
%TO.C,R26*%
X111856000Y-87264000D02*
X113696000Y-87264000D01*
X113696000Y-87264000D02*
X113696000Y-83424000D01*
X113696000Y-83424000D02*
X111856000Y-83424000D01*
X111856000Y-83424000D02*
X111856000Y-87264000D01*
X112776000Y-88214000D02*
X112776000Y-87264000D01*
X112776000Y-82474000D02*
X112776000Y-83424000D01*
%TO.C,D13*%
X104811000Y-66768000D02*
X104811000Y-66612000D01*
X104811000Y-64452000D02*
X104811000Y-64296000D01*
X102209870Y-64452163D02*
G75*
G02*
X104291961Y-64452000I1041130J-1079837D01*
G01*
X102209870Y-66611837D02*
G75*
G03*
X104291961Y-66612000I1041130J1079837D01*
G01*
X101578665Y-64453392D02*
G75*
G02*
X104811000Y-64296484I1672335J-1078608D01*
G01*
X101578665Y-66610608D02*
G75*
G03*
X104811000Y-66767516I1672335J1078608D01*
G01*
%TO.C,D12*%
X104811000Y-93438000D02*
X104811000Y-93282000D01*
X104811000Y-91122000D02*
X104811000Y-90966000D01*
X102209870Y-91122163D02*
G75*
G02*
X104291961Y-91122000I1041130J-1079837D01*
G01*
X102209870Y-93281837D02*
G75*
G03*
X104291961Y-93282000I1041130J1079837D01*
G01*
X101578665Y-91123392D02*
G75*
G02*
X104811000Y-90966484I1672335J-1078608D01*
G01*
X101578665Y-93280608D02*
G75*
G03*
X104811000Y-93437516I1672335J1078608D01*
G01*
%TO.C,D7*%
X112613000Y-101253000D02*
X112613000Y-101409000D01*
X112613000Y-103569000D02*
X112613000Y-103725000D01*
X115214130Y-103568837D02*
G75*
G02*
X113132039Y-103569000I-1041130J1079837D01*
G01*
X115214130Y-101409163D02*
G75*
G03*
X113132039Y-101409000I-1041130J-1079837D01*
G01*
X115845335Y-103567608D02*
G75*
G02*
X112613000Y-103724516I-1672335J1078608D01*
G01*
X115845335Y-101410392D02*
G75*
G03*
X112613000Y-101253484I-1672335J-1078608D01*
G01*
%TO.C,D6*%
X112613000Y-74583000D02*
X112613000Y-74739000D01*
X112613000Y-76899000D02*
X112613000Y-77055000D01*
X115214130Y-76898837D02*
G75*
G02*
X113132039Y-76899000I-1041130J1079837D01*
G01*
X115214130Y-74739163D02*
G75*
G03*
X113132039Y-74739000I-1041130J-1079837D01*
G01*
X115845335Y-76897608D02*
G75*
G02*
X112613000Y-77054516I-1672335J1078608D01*
G01*
X115845335Y-74740392D02*
G75*
G03*
X112613000Y-74583484I-1672335J-1078608D01*
G01*
%TO.C,D5*%
X112613000Y-90966000D02*
X112613000Y-91122000D01*
X112613000Y-93282000D02*
X112613000Y-93438000D01*
X115214130Y-93281837D02*
G75*
G02*
X113132039Y-93282000I-1041130J1079837D01*
G01*
X115214130Y-91122163D02*
G75*
G03*
X113132039Y-91122000I-1041130J-1079837D01*
G01*
X115845335Y-93280608D02*
G75*
G02*
X112613000Y-93437516I-1672335J1078608D01*
G01*
X115845335Y-91123392D02*
G75*
G03*
X112613000Y-90966484I-1672335J-1078608D01*
G01*
%TO.C,R35*%
X84043000Y-82692000D02*
X85883000Y-82692000D01*
X85883000Y-82692000D02*
X85883000Y-78852000D01*
X85883000Y-78852000D02*
X84043000Y-78852000D01*
X84043000Y-78852000D02*
X84043000Y-82692000D01*
X84963000Y-83642000D02*
X84963000Y-82692000D01*
X84963000Y-77902000D02*
X84963000Y-78852000D01*
%TO.C,U11*%
X178248000Y-128254000D02*
X178248000Y-129904000D01*
X178248000Y-129904000D02*
X196148000Y-129904000D01*
X196148000Y-129904000D02*
X196148000Y-124604000D01*
X196148000Y-124604000D02*
X178248000Y-124604000D01*
X178248000Y-124604000D02*
X178248000Y-126254000D01*
X178248000Y-126254000D02*
G75*
G02*
X178248000Y-128254000I0J-1000000D01*
G01*
%TO.C,R34*%
X182768000Y-137953000D02*
X182768000Y-136113000D01*
X182768000Y-136113000D02*
X178928000Y-136113000D01*
X178928000Y-136113000D02*
X178928000Y-137953000D01*
X178928000Y-137953000D02*
X182768000Y-137953000D01*
X183718000Y-137033000D02*
X182768000Y-137033000D01*
X177978000Y-137033000D02*
X178928000Y-137033000D01*
%TO.C,R33*%
X98791000Y-126207000D02*
X98791000Y-128047000D01*
X98791000Y-128047000D02*
X102631000Y-128047000D01*
X102631000Y-128047000D02*
X102631000Y-126207000D01*
X102631000Y-126207000D02*
X98791000Y-126207000D01*
X97841000Y-127127000D02*
X98791000Y-127127000D01*
X103581000Y-127127000D02*
X102631000Y-127127000D01*
%TO.C,J4*%
X66068000Y-120023000D02*
X65568000Y-120523000D01*
X66068000Y-121023000D02*
X66068000Y-120023000D01*
X65568000Y-120523000D02*
X66068000Y-121023000D01*
X48748000Y-113163000D02*
X56718000Y-113163000D01*
X48748000Y-125383000D02*
X56718000Y-125383000D01*
X48748000Y-113163000D02*
X48748000Y-125383000D01*
X65368000Y-125383000D02*
X61618000Y-125383000D01*
X65368000Y-113163000D02*
X61618000Y-113163000D01*
X65368000Y-113163000D02*
X65368000Y-125383000D01*
%TO.C,U12*%
X93456000Y-90484000D02*
X95106000Y-90484000D01*
X95106000Y-90484000D02*
X95106000Y-70044000D01*
X95106000Y-70044000D02*
X89806000Y-70044000D01*
X89806000Y-70044000D02*
X89806000Y-90484000D01*
X89806000Y-90484000D02*
X91456000Y-90484000D01*
X91456000Y-90484000D02*
G75*
G02*
X93456000Y-90484000I1000000J0D01*
G01*
%TO.C,R21*%
X189088000Y-119476000D02*
X189088000Y-121316000D01*
X189088000Y-121316000D02*
X192928000Y-121316000D01*
X192928000Y-121316000D02*
X192928000Y-119476000D01*
X192928000Y-119476000D02*
X189088000Y-119476000D01*
X188138000Y-120396000D02*
X189088000Y-120396000D01*
X193878000Y-120396000D02*
X192928000Y-120396000D01*
%TO.C,R19*%
X199167000Y-125461000D02*
X197327000Y-125461000D01*
X197327000Y-125461000D02*
X197327000Y-129301000D01*
X197327000Y-129301000D02*
X199167000Y-129301000D01*
X199167000Y-129301000D02*
X199167000Y-125461000D01*
X198247000Y-124511000D02*
X198247000Y-125461000D01*
X198247000Y-130251000D02*
X198247000Y-129301000D01*
%TO.C,R13*%
X194168000Y-133065000D02*
X194168000Y-134905000D01*
X194168000Y-134905000D02*
X198008000Y-134905000D01*
X198008000Y-134905000D02*
X198008000Y-133065000D01*
X198008000Y-133065000D02*
X194168000Y-133065000D01*
X193218000Y-133985000D02*
X194168000Y-133985000D01*
X198958000Y-133985000D02*
X198008000Y-133985000D01*
%TO.C,R12*%
X182768000Y-134905000D02*
X182768000Y-133065000D01*
X182768000Y-133065000D02*
X178928000Y-133065000D01*
X178928000Y-133065000D02*
X178928000Y-134905000D01*
X178928000Y-134905000D02*
X182768000Y-134905000D01*
X183718000Y-133985000D02*
X182768000Y-133985000D01*
X177978000Y-133985000D02*
X178928000Y-133985000D01*
%TO.C,J3*%
X62078000Y-70933000D02*
X63188000Y-70933000D01*
X63188000Y-70933000D02*
X63188000Y-72263000D01*
X49448000Y-70933000D02*
X49448000Y-83753000D01*
X49448000Y-83753000D02*
X58078000Y-83753000D01*
X58078000Y-70933000D02*
X58078000Y-83753000D01*
X49448000Y-70933000D02*
X58078000Y-70933000D01*
X49448000Y-81153000D02*
X58078000Y-81153000D01*
X49448000Y-78613000D02*
X58078000Y-78613000D01*
X49448000Y-76073000D02*
X58078000Y-76073000D01*
X49448000Y-73533000D02*
X58078000Y-73533000D01*
X60588000Y-82783000D02*
X61028000Y-82783000D01*
X58078000Y-82783000D02*
X58488000Y-82783000D01*
X60588000Y-82063000D02*
X61028000Y-82063000D01*
X58078000Y-82063000D02*
X58488000Y-82063000D01*
X60588000Y-80243000D02*
X61028000Y-80243000D01*
X58078000Y-80243000D02*
X58488000Y-80243000D01*
X60588000Y-79523000D02*
X61028000Y-79523000D01*
X58078000Y-79523000D02*
X58488000Y-79523000D01*
X60588000Y-77703000D02*
X61028000Y-77703000D01*
X58078000Y-77703000D02*
X58488000Y-77703000D01*
X60588000Y-76983000D02*
X61028000Y-76983000D01*
X58078000Y-76983000D02*
X58488000Y-76983000D01*
X60588000Y-75163000D02*
X61028000Y-75163000D01*
X58078000Y-75163000D02*
X58488000Y-75163000D01*
X60588000Y-74443000D02*
X61028000Y-74443000D01*
X58078000Y-74443000D02*
X58488000Y-74443000D01*
X60588000Y-72623000D02*
X60968000Y-72623000D01*
X58078000Y-72623000D02*
X58488000Y-72623000D01*
X60588000Y-71903000D02*
X60968000Y-71903000D01*
X58078000Y-71903000D02*
X58488000Y-71903000D01*
X49448000Y-73414900D02*
X58078000Y-73414900D01*
X49448000Y-73296805D02*
X58078000Y-73296805D01*
X49448000Y-73178710D02*
X58078000Y-73178710D01*
X49448000Y-73060615D02*
X58078000Y-73060615D01*
X49448000Y-72942520D02*
X58078000Y-72942520D01*
X49448000Y-72824425D02*
X58078000Y-72824425D01*
X49448000Y-72706330D02*
X58078000Y-72706330D01*
X49448000Y-72588235D02*
X58078000Y-72588235D01*
X49448000Y-72470140D02*
X58078000Y-72470140D01*
X49448000Y-72352045D02*
X58078000Y-72352045D01*
X49448000Y-72233950D02*
X58078000Y-72233950D01*
X49448000Y-72115855D02*
X58078000Y-72115855D01*
X49448000Y-71997760D02*
X58078000Y-71997760D01*
X49448000Y-71879665D02*
X58078000Y-71879665D01*
X49448000Y-71761570D02*
X58078000Y-71761570D01*
X49448000Y-71643475D02*
X58078000Y-71643475D01*
X49448000Y-71525380D02*
X58078000Y-71525380D01*
X49448000Y-71407285D02*
X58078000Y-71407285D01*
X49448000Y-71289190D02*
X58078000Y-71289190D01*
X49448000Y-71171095D02*
X58078000Y-71171095D01*
X49448000Y-71053000D02*
X58078000Y-71053000D01*
%TO.C,R1*%
X216408000Y-83236000D02*
X216408000Y-84186000D01*
X216408000Y-88976000D02*
X216408000Y-88026000D01*
X215488000Y-84186000D02*
X215488000Y-88026000D01*
X217328000Y-84186000D02*
X215488000Y-84186000D01*
X217328000Y-88026000D02*
X217328000Y-84186000D01*
X215488000Y-88026000D02*
X217328000Y-88026000D01*
%TO.C,R2*%
X225120000Y-103505000D02*
X224170000Y-103505000D01*
X219380000Y-103505000D02*
X220330000Y-103505000D01*
X224170000Y-102585000D02*
X220330000Y-102585000D01*
X224170000Y-104425000D02*
X224170000Y-102585000D01*
X220330000Y-104425000D02*
X224170000Y-104425000D01*
X220330000Y-102585000D02*
X220330000Y-104425000D01*
%TO.C,R3*%
X167183000Y-63088000D02*
X168133000Y-63088000D01*
X172923000Y-63088000D02*
X171973000Y-63088000D01*
X168133000Y-64008000D02*
X171973000Y-64008000D01*
X168133000Y-62168000D02*
X168133000Y-64008000D01*
X171973000Y-62168000D02*
X168133000Y-62168000D01*
X171973000Y-64008000D02*
X171973000Y-62168000D01*
%TO.C,R4*%
X167183000Y-68168000D02*
X168133000Y-68168000D01*
X172923000Y-68168000D02*
X171973000Y-68168000D01*
X168133000Y-69088000D02*
X171973000Y-69088000D01*
X168133000Y-67248000D02*
X168133000Y-69088000D01*
X171973000Y-67248000D02*
X168133000Y-67248000D01*
X171973000Y-69088000D02*
X171973000Y-67248000D01*
%TO.C,R5*%
X167183000Y-73248000D02*
X168133000Y-73248000D01*
X172923000Y-73248000D02*
X171973000Y-73248000D01*
X168133000Y-74168000D02*
X171973000Y-74168000D01*
X168133000Y-72328000D02*
X168133000Y-74168000D01*
X171973000Y-72328000D02*
X168133000Y-72328000D01*
X171973000Y-74168000D02*
X171973000Y-72328000D01*
%TO.C,R6*%
X167183000Y-78328000D02*
X168133000Y-78328000D01*
X172923000Y-78328000D02*
X171973000Y-78328000D01*
X168133000Y-79248000D02*
X171973000Y-79248000D01*
X168133000Y-77408000D02*
X168133000Y-79248000D01*
X171973000Y-77408000D02*
X168133000Y-77408000D01*
X171973000Y-79248000D02*
X171973000Y-77408000D01*
%TO.C,R7*%
X167183000Y-65628000D02*
X168133000Y-65628000D01*
X172923000Y-65628000D02*
X171973000Y-65628000D01*
X168133000Y-66548000D02*
X171973000Y-66548000D01*
X168133000Y-64708000D02*
X168133000Y-66548000D01*
X171973000Y-64708000D02*
X168133000Y-64708000D01*
X171973000Y-66548000D02*
X171973000Y-64708000D01*
%TO.C,R8*%
X167183000Y-70708000D02*
X168133000Y-70708000D01*
X172923000Y-70708000D02*
X171973000Y-70708000D01*
X168133000Y-71628000D02*
X171973000Y-71628000D01*
X168133000Y-69788000D02*
X168133000Y-71628000D01*
X171973000Y-69788000D02*
X168133000Y-69788000D01*
X171973000Y-71628000D02*
X171973000Y-69788000D01*
%TO.C,R9*%
X167183000Y-75788000D02*
X168133000Y-75788000D01*
X172923000Y-75788000D02*
X171973000Y-75788000D01*
X168133000Y-76708000D02*
X171973000Y-76708000D01*
X168133000Y-74868000D02*
X168133000Y-76708000D01*
X171973000Y-74868000D02*
X168133000Y-74868000D01*
X171973000Y-76708000D02*
X171973000Y-74868000D01*
%TO.C,R10*%
X167183000Y-80868000D02*
X168133000Y-80868000D01*
X172923000Y-80868000D02*
X171973000Y-80868000D01*
X168133000Y-81788000D02*
X171973000Y-81788000D01*
X168133000Y-79948000D02*
X168133000Y-81788000D01*
X171973000Y-79948000D02*
X168133000Y-79948000D01*
X171973000Y-81788000D02*
X171973000Y-79948000D01*
%TO.C,R11*%
X182448000Y-58928000D02*
X181498000Y-58928000D01*
X176708000Y-58928000D02*
X177658000Y-58928000D01*
X181498000Y-58008000D02*
X177658000Y-58008000D01*
X181498000Y-59848000D02*
X181498000Y-58008000D01*
X177658000Y-59848000D02*
X181498000Y-59848000D01*
X177658000Y-58008000D02*
X177658000Y-59848000D01*
%TO.C,R14*%
X169088000Y-128620000D02*
X170038000Y-128620000D01*
X174828000Y-128620000D02*
X173878000Y-128620000D01*
X170038000Y-129540000D02*
X173878000Y-129540000D01*
X170038000Y-127700000D02*
X170038000Y-129540000D01*
X173878000Y-127700000D02*
X170038000Y-127700000D01*
X173878000Y-129540000D02*
X173878000Y-127700000D01*
%TO.C,R15*%
X169088000Y-117602000D02*
X170038000Y-117602000D01*
X174828000Y-117602000D02*
X173878000Y-117602000D01*
X170038000Y-118522000D02*
X173878000Y-118522000D01*
X170038000Y-116682000D02*
X170038000Y-118522000D01*
X173878000Y-116682000D02*
X170038000Y-116682000D01*
X173878000Y-118522000D02*
X173878000Y-116682000D01*
%TO.C,U1*%
X119193000Y-76423000D02*
X119193000Y-64993000D01*
X132013000Y-76423000D02*
X132013000Y-64993000D01*
X120303000Y-80343000D02*
X131903000Y-80343000D01*
X131903000Y-61073000D02*
X119303000Y-61073000D01*
X122603000Y-65708000D02*
X121603000Y-70708000D01*
X121603000Y-70708000D02*
X120603000Y-75708000D01*
X120603000Y-75708000D02*
X127603000Y-75708000D01*
X127603000Y-75708000D02*
X128603000Y-70708000D01*
X129603000Y-65708000D02*
X128603000Y-70708000D01*
X128603000Y-70708000D02*
X121603000Y-70708000D01*
X122603000Y-65708000D02*
X129603000Y-65708000D01*
X130050214Y-75708000D02*
G75*
G03*
X130050214Y-75708000I-447214J0D01*
G01*
%TO.C,U2*%
X119193000Y-103093000D02*
X119193000Y-91663000D01*
X132013000Y-103093000D02*
X132013000Y-91663000D01*
X120303000Y-107013000D02*
X131903000Y-107013000D01*
X131903000Y-87743000D02*
X119303000Y-87743000D01*
X122603000Y-92378000D02*
X121603000Y-97378000D01*
X121603000Y-97378000D02*
X120603000Y-102378000D01*
X120603000Y-102378000D02*
X127603000Y-102378000D01*
X127603000Y-102378000D02*
X128603000Y-97378000D01*
X129603000Y-92378000D02*
X128603000Y-97378000D01*
X128603000Y-97378000D02*
X121603000Y-97378000D01*
X122603000Y-92378000D02*
X129603000Y-92378000D01*
X130050214Y-102378000D02*
G75*
G03*
X130050214Y-102378000I-447214J0D01*
G01*
%TO.C,U3*%
X132598000Y-76423000D02*
X132598000Y-64993000D01*
X145418000Y-76423000D02*
X145418000Y-64993000D01*
X133708000Y-80343000D02*
X145308000Y-80343000D01*
X145308000Y-61073000D02*
X132708000Y-61073000D01*
X136008000Y-65708000D02*
X135008000Y-70708000D01*
X135008000Y-70708000D02*
X134008000Y-75708000D01*
X134008000Y-75708000D02*
X141008000Y-75708000D01*
X141008000Y-75708000D02*
X142008000Y-70708000D01*
X143008000Y-65708000D02*
X142008000Y-70708000D01*
X142008000Y-70708000D02*
X135008000Y-70708000D01*
X136008000Y-65708000D02*
X143008000Y-65708000D01*
X143455214Y-75708000D02*
G75*
G03*
X143455214Y-75708000I-447214J0D01*
G01*
%TO.C,U4*%
X132598000Y-103093000D02*
X132598000Y-91663000D01*
X145418000Y-103093000D02*
X145418000Y-91663000D01*
X133708000Y-107013000D02*
X145308000Y-107013000D01*
X145308000Y-87743000D02*
X132708000Y-87743000D01*
X136008000Y-92378000D02*
X135008000Y-97378000D01*
X135008000Y-97378000D02*
X134008000Y-102378000D01*
X134008000Y-102378000D02*
X141008000Y-102378000D01*
X141008000Y-102378000D02*
X142008000Y-97378000D01*
X143008000Y-92378000D02*
X142008000Y-97378000D01*
X142008000Y-97378000D02*
X135008000Y-97378000D01*
X136008000Y-92378000D02*
X143008000Y-92378000D01*
X143455214Y-102378000D02*
G75*
G03*
X143455214Y-102378000I-447214J0D01*
G01*
%TO.C,U5*%
X145863000Y-76423000D02*
X145863000Y-64993000D01*
X158683000Y-76423000D02*
X158683000Y-64993000D01*
X146973000Y-80343000D02*
X158573000Y-80343000D01*
X158573000Y-61073000D02*
X145973000Y-61073000D01*
X149273000Y-65708000D02*
X148273000Y-70708000D01*
X148273000Y-70708000D02*
X147273000Y-75708000D01*
X147273000Y-75708000D02*
X154273000Y-75708000D01*
X154273000Y-75708000D02*
X155273000Y-70708000D01*
X156273000Y-65708000D02*
X155273000Y-70708000D01*
X155273000Y-70708000D02*
X148273000Y-70708000D01*
X149273000Y-65708000D02*
X156273000Y-65708000D01*
X156720214Y-75708000D02*
G75*
G03*
X156720214Y-75708000I-447214J0D01*
G01*
%TO.C,U6*%
X145863000Y-103093000D02*
X145863000Y-91663000D01*
X158683000Y-103093000D02*
X158683000Y-91663000D01*
X146973000Y-107013000D02*
X158573000Y-107013000D01*
X158573000Y-87743000D02*
X145973000Y-87743000D01*
X149273000Y-92378000D02*
X148273000Y-97378000D01*
X148273000Y-97378000D02*
X147273000Y-102378000D01*
X147273000Y-102378000D02*
X154273000Y-102378000D01*
X154273000Y-102378000D02*
X155273000Y-97378000D01*
X156273000Y-92378000D02*
X155273000Y-97378000D01*
X155273000Y-97378000D02*
X148273000Y-97378000D01*
X149273000Y-92378000D02*
X156273000Y-92378000D01*
X156720214Y-102378000D02*
G75*
G03*
X156720214Y-102378000I-447214J0D01*
G01*
%TO.C,R16*%
X157658000Y-117190000D02*
X158608000Y-117190000D01*
X163398000Y-117190000D02*
X162448000Y-117190000D01*
X158608000Y-118110000D02*
X162448000Y-118110000D01*
X158608000Y-116270000D02*
X158608000Y-118110000D01*
X162448000Y-116270000D02*
X158608000Y-116270000D01*
X162448000Y-118110000D02*
X162448000Y-116270000D01*
%TO.C,D2*%
X111740000Y-128884000D02*
X111740000Y-131974000D01*
X116800000Y-130429000D02*
G75*
G03*
X116800000Y-130429000I-2500000J0D01*
G01*
X117290000Y-130428538D02*
G75*
G02*
X111740000Y-131973830I-2990000J-462D01*
G01*
X117290000Y-130429462D02*
G75*
G03*
X111740000Y-128884170I-2990000J462D01*
G01*
%TO.C,R18*%
X119634000Y-129362000D02*
X119634000Y-128412000D01*
X119634000Y-123622000D02*
X119634000Y-124572000D01*
X120554000Y-128412000D02*
X120554000Y-124572000D01*
X118714000Y-128412000D02*
X120554000Y-128412000D01*
X118714000Y-124572000D02*
X118714000Y-128412000D01*
X120554000Y-124572000D02*
X118714000Y-124572000D01*
%TO.C,D1*%
X74920000Y-128884000D02*
X74920000Y-131974000D01*
X79980000Y-130429000D02*
G75*
G03*
X79980000Y-130429000I-2500000J0D01*
G01*
X80470000Y-130428538D02*
G75*
G02*
X74920000Y-131973830I-2990000J-462D01*
G01*
X80470000Y-130429462D02*
G75*
G03*
X74920000Y-128884170I-2990000J462D01*
G01*
%TO.C,R17*%
X77810000Y-124333000D02*
X76860000Y-124333000D01*
X72070000Y-124333000D02*
X73020000Y-124333000D01*
X76860000Y-123413000D02*
X73020000Y-123413000D01*
X76860000Y-125253000D02*
X76860000Y-123413000D01*
X73020000Y-125253000D02*
X76860000Y-125253000D01*
X73020000Y-123413000D02*
X73020000Y-125253000D01*
D11*
%TO.C,U8*%
X110063000Y-119498000D02*
X110063000Y-118923000D01*
X104313000Y-119498000D02*
X104313000Y-118848000D01*
X104313000Y-108848000D02*
X104313000Y-109498000D01*
X110063000Y-108848000D02*
X110063000Y-109498000D01*
X110063000Y-119498000D02*
X104313000Y-119498000D01*
X110063000Y-108848000D02*
X104313000Y-108848000D01*
X110063000Y-118923000D02*
X111663000Y-118923000D01*
D10*
%TO.C,J5*%
X66068000Y-96878000D02*
X65568000Y-97378000D01*
X66068000Y-97878000D02*
X66068000Y-96878000D01*
X65568000Y-97378000D02*
X66068000Y-97878000D01*
X48748000Y-90018000D02*
X56718000Y-90018000D01*
X48748000Y-102238000D02*
X56718000Y-102238000D01*
X48748000Y-90018000D02*
X48748000Y-102238000D01*
X65368000Y-102238000D02*
X61618000Y-102238000D01*
X65368000Y-90018000D02*
X61618000Y-90018000D01*
X65368000Y-90018000D02*
X65368000Y-102238000D01*
%TO.C,D3*%
X202164000Y-128884000D02*
X202164000Y-131974000D01*
X207224000Y-130429000D02*
G75*
G03*
X207224000Y-130429000I-2500000J0D01*
G01*
X207714000Y-130428538D02*
G75*
G02*
X202164000Y-131973830I-2990000J-462D01*
G01*
X207714000Y-130429462D02*
G75*
G03*
X202164000Y-128884170I-2990000J462D01*
G01*
%TO.C,R20*%
X207848000Y-123952000D02*
X206898000Y-123952000D01*
X202108000Y-123952000D02*
X203058000Y-123952000D01*
X206898000Y-123032000D02*
X203058000Y-123032000D01*
X206898000Y-124872000D02*
X206898000Y-123032000D01*
X203058000Y-124872000D02*
X206898000Y-124872000D01*
X203058000Y-123032000D02*
X203058000Y-124872000D01*
%TO.C,C12*%
X167403000Y-89701000D02*
X167403000Y-90016000D01*
X167403000Y-87276000D02*
X167403000Y-87591000D01*
X162463000Y-89701000D02*
X162463000Y-90016000D01*
X162463000Y-87276000D02*
X162463000Y-87591000D01*
X162463000Y-90016000D02*
X167403000Y-90016000D01*
X162463000Y-87276000D02*
X167403000Y-87276000D01*
%TO.C,C13*%
X162463000Y-96608000D02*
X162463000Y-96293000D01*
X162463000Y-99033000D02*
X162463000Y-98718000D01*
X167403000Y-96608000D02*
X167403000Y-96293000D01*
X167403000Y-99033000D02*
X167403000Y-98718000D01*
X167403000Y-96293000D02*
X162463000Y-96293000D01*
X167403000Y-99033000D02*
X162463000Y-99033000D01*
%TO.C,R22*%
X204566000Y-99944000D02*
X206406000Y-99944000D01*
X206406000Y-99944000D02*
X206406000Y-96104000D01*
X206406000Y-96104000D02*
X204566000Y-96104000D01*
X204566000Y-96104000D02*
X204566000Y-99944000D01*
X205486000Y-100894000D02*
X205486000Y-99944000D01*
X205486000Y-95154000D02*
X205486000Y-96104000D01*
%TO.C,R23*%
X207360000Y-99944000D02*
X209200000Y-99944000D01*
X209200000Y-99944000D02*
X209200000Y-96104000D01*
X209200000Y-96104000D02*
X207360000Y-96104000D01*
X207360000Y-96104000D02*
X207360000Y-99944000D01*
X208280000Y-100894000D02*
X208280000Y-99944000D01*
X208280000Y-95154000D02*
X208280000Y-96104000D01*
%TO.C,C16*%
X201071241Y-118740000D02*
X201071241Y-118110000D01*
X201386241Y-118425000D02*
X200756241Y-118425000D01*
X194645000Y-116988000D02*
X194645000Y-116184000D01*
X194685000Y-117219000D02*
X194685000Y-115953000D01*
X194725000Y-117388000D02*
X194725000Y-115784000D01*
X194765000Y-117526000D02*
X194765000Y-115646000D01*
X194805000Y-117645000D02*
X194805000Y-115527000D01*
X194845000Y-117751000D02*
X194845000Y-115421000D01*
X194885000Y-117848000D02*
X194885000Y-115324000D01*
X194925000Y-117936000D02*
X194925000Y-115236000D01*
X194965000Y-118018000D02*
X194965000Y-115154000D01*
X195005000Y-118095000D02*
X195005000Y-115077000D01*
X195045000Y-118167000D02*
X195045000Y-115005000D01*
X195085000Y-118236000D02*
X195085000Y-114936000D01*
X195125000Y-118300000D02*
X195125000Y-114872000D01*
X195165000Y-118362000D02*
X195165000Y-114810000D01*
X195205000Y-118420000D02*
X195205000Y-114752000D01*
X195245000Y-118476000D02*
X195245000Y-114696000D01*
X195285000Y-118530000D02*
X195285000Y-114642000D01*
X195325000Y-118581000D02*
X195325000Y-114591000D01*
X195365000Y-118630000D02*
X195365000Y-114542000D01*
X195405000Y-118678000D02*
X195405000Y-114494000D01*
X195445000Y-118723000D02*
X195445000Y-114449000D01*
X195485000Y-118768000D02*
X195485000Y-114404000D01*
X195525000Y-118810000D02*
X195525000Y-114362000D01*
X195565000Y-118851000D02*
X195565000Y-114321000D01*
X195605000Y-115546000D02*
X195605000Y-114281000D01*
X195605000Y-118891000D02*
X195605000Y-117626000D01*
X195645000Y-115546000D02*
X195645000Y-114243000D01*
X195645000Y-118929000D02*
X195645000Y-117626000D01*
X195685000Y-115546000D02*
X195685000Y-114206000D01*
X195685000Y-118966000D02*
X195685000Y-117626000D01*
X195725000Y-115546000D02*
X195725000Y-114170000D01*
X195725000Y-119002000D02*
X195725000Y-117626000D01*
X195765000Y-115546000D02*
X195765000Y-114136000D01*
X195765000Y-119036000D02*
X195765000Y-117626000D01*
X195805000Y-115546000D02*
X195805000Y-114102000D01*
X195805000Y-119070000D02*
X195805000Y-117626000D01*
X195845000Y-115546000D02*
X195845000Y-114070000D01*
X195845000Y-119102000D02*
X195845000Y-117626000D01*
X195885000Y-115546000D02*
X195885000Y-114038000D01*
X195885000Y-119134000D02*
X195885000Y-117626000D01*
X195925000Y-115546000D02*
X195925000Y-114008000D01*
X195925000Y-119164000D02*
X195925000Y-117626000D01*
X195965000Y-115546000D02*
X195965000Y-113979000D01*
X195965000Y-119193000D02*
X195965000Y-117626000D01*
X196005000Y-115546000D02*
X196005000Y-113950000D01*
X196005000Y-119222000D02*
X196005000Y-117626000D01*
X196045000Y-115546000D02*
X196045000Y-113922000D01*
X196045000Y-119250000D02*
X196045000Y-117626000D01*
X196085000Y-115546000D02*
X196085000Y-113896000D01*
X196085000Y-119276000D02*
X196085000Y-117626000D01*
X196125000Y-115546000D02*
X196125000Y-113870000D01*
X196125000Y-119302000D02*
X196125000Y-117626000D01*
X196165000Y-115546000D02*
X196165000Y-113844000D01*
X196165000Y-119328000D02*
X196165000Y-117626000D01*
X196205000Y-115546000D02*
X196205000Y-113820000D01*
X196205000Y-119352000D02*
X196205000Y-117626000D01*
X196245000Y-115546000D02*
X196245000Y-113796000D01*
X196245000Y-119376000D02*
X196245000Y-117626000D01*
X196285000Y-115546000D02*
X196285000Y-113774000D01*
X196285000Y-119398000D02*
X196285000Y-117626000D01*
X196325000Y-115546000D02*
X196325000Y-113752000D01*
X196325000Y-119420000D02*
X196325000Y-117626000D01*
X196365000Y-115546000D02*
X196365000Y-113730000D01*
X196365000Y-119442000D02*
X196365000Y-117626000D01*
X196405000Y-115546000D02*
X196405000Y-113710000D01*
X196405000Y-119462000D02*
X196405000Y-117626000D01*
X196445000Y-115546000D02*
X196445000Y-113690000D01*
X196445000Y-119482000D02*
X196445000Y-117626000D01*
X196485000Y-115546000D02*
X196485000Y-113670000D01*
X196485000Y-119502000D02*
X196485000Y-117626000D01*
X196525000Y-115546000D02*
X196525000Y-113652000D01*
X196525000Y-119520000D02*
X196525000Y-117626000D01*
X196565000Y-115546000D02*
X196565000Y-113634000D01*
X196565000Y-119538000D02*
X196565000Y-117626000D01*
X196605000Y-115546000D02*
X196605000Y-113616000D01*
X196605000Y-119556000D02*
X196605000Y-117626000D01*
X196645000Y-115546000D02*
X196645000Y-113600000D01*
X196645000Y-119572000D02*
X196645000Y-117626000D01*
X196685000Y-115546000D02*
X196685000Y-113584000D01*
X196685000Y-119588000D02*
X196685000Y-117626000D01*
X196725000Y-115546000D02*
X196725000Y-113568000D01*
X196725000Y-119604000D02*
X196725000Y-117626000D01*
X196765000Y-115546000D02*
X196765000Y-113553000D01*
X196765000Y-119619000D02*
X196765000Y-117626000D01*
X196805000Y-115546000D02*
X196805000Y-113539000D01*
X196805000Y-119633000D02*
X196805000Y-117626000D01*
X196845000Y-115546000D02*
X196845000Y-113525000D01*
X196845000Y-119647000D02*
X196845000Y-117626000D01*
X196885000Y-115546000D02*
X196885000Y-113512000D01*
X196885000Y-119660000D02*
X196885000Y-117626000D01*
X196925000Y-115546000D02*
X196925000Y-113500000D01*
X196925000Y-119672000D02*
X196925000Y-117626000D01*
X196965000Y-115546000D02*
X196965000Y-113488000D01*
X196965000Y-119684000D02*
X196965000Y-117626000D01*
X197005000Y-115546000D02*
X197005000Y-113476000D01*
X197005000Y-119696000D02*
X197005000Y-117626000D01*
X197045000Y-115546000D02*
X197045000Y-113465000D01*
X197045000Y-119707000D02*
X197045000Y-117626000D01*
X197085000Y-115546000D02*
X197085000Y-113455000D01*
X197085000Y-119717000D02*
X197085000Y-117626000D01*
X197125000Y-115546000D02*
X197125000Y-113445000D01*
X197125000Y-119727000D02*
X197125000Y-117626000D01*
X197165000Y-115546000D02*
X197165000Y-113436000D01*
X197165000Y-119736000D02*
X197165000Y-117626000D01*
X197206000Y-115546000D02*
X197206000Y-113427000D01*
X197206000Y-119745000D02*
X197206000Y-117626000D01*
X197246000Y-115546000D02*
X197246000Y-113419000D01*
X197246000Y-119753000D02*
X197246000Y-117626000D01*
X197286000Y-115546000D02*
X197286000Y-113411000D01*
X197286000Y-119761000D02*
X197286000Y-117626000D01*
X197326000Y-115546000D02*
X197326000Y-113404000D01*
X197326000Y-119768000D02*
X197326000Y-117626000D01*
X197366000Y-115546000D02*
X197366000Y-113397000D01*
X197366000Y-119775000D02*
X197366000Y-117626000D01*
X197406000Y-115546000D02*
X197406000Y-113391000D01*
X197406000Y-119781000D02*
X197406000Y-117626000D01*
X197446000Y-115546000D02*
X197446000Y-113385000D01*
X197446000Y-119787000D02*
X197446000Y-117626000D01*
X197486000Y-115546000D02*
X197486000Y-113380000D01*
X197486000Y-119792000D02*
X197486000Y-117626000D01*
X197526000Y-115546000D02*
X197526000Y-113375000D01*
X197526000Y-119797000D02*
X197526000Y-117626000D01*
X197566000Y-115546000D02*
X197566000Y-113371000D01*
X197566000Y-119801000D02*
X197566000Y-117626000D01*
X197606000Y-115546000D02*
X197606000Y-113368000D01*
X197606000Y-119804000D02*
X197606000Y-117626000D01*
X197646000Y-115546000D02*
X197646000Y-113364000D01*
X197646000Y-119808000D02*
X197646000Y-117626000D01*
X197686000Y-119810000D02*
X197686000Y-113362000D01*
X197726000Y-119813000D02*
X197726000Y-113359000D01*
X197766000Y-119814000D02*
X197766000Y-113358000D01*
X197806000Y-119816000D02*
X197806000Y-113356000D01*
X197846000Y-119816000D02*
X197846000Y-113356000D01*
X197886000Y-119816000D02*
X197886000Y-113356000D01*
X201156000Y-116586000D02*
G75*
G03*
X201156000Y-116586000I-3270000J0D01*
G01*
%TO.C,R24*%
X207848000Y-120650000D02*
X206898000Y-120650000D01*
X202108000Y-120650000D02*
X203058000Y-120650000D01*
X206898000Y-119730000D02*
X203058000Y-119730000D01*
X206898000Y-121570000D02*
X206898000Y-119730000D01*
X203058000Y-121570000D02*
X206898000Y-121570000D01*
X203058000Y-119730000D02*
X203058000Y-121570000D01*
%TO.C,U10*%
X205629000Y-105858000D02*
X203979000Y-105858000D01*
X203979000Y-105858000D02*
X203979000Y-116138000D01*
X203979000Y-116138000D02*
X209279000Y-116138000D01*
X209279000Y-116138000D02*
X209279000Y-105858000D01*
X209279000Y-105858000D02*
X207629000Y-105858000D01*
X207629000Y-105858000D02*
G75*
G02*
X205629000Y-105858000I-1000000J0D01*
G01*
%TO.C,U7*%
X191245000Y-61763600D02*
X185785000Y-61763600D01*
X191245000Y-112683600D02*
X191245000Y-61763600D01*
X178325000Y-112683600D02*
X191245000Y-112683600D01*
X178325000Y-61763600D02*
X178325000Y-112683600D01*
X183785000Y-61763600D02*
X178325000Y-61763600D01*
X185785000Y-61763600D02*
G75*
G02*
X183785000Y-61763600I-1000000J0D01*
G01*
%TO.C,U9*%
X209260000Y-61281000D02*
X208010000Y-61281000D01*
X209260000Y-71561000D02*
X209260000Y-61281000D01*
X204760000Y-71561000D02*
X209260000Y-71561000D01*
X204760000Y-61281000D02*
X204760000Y-71561000D01*
X206010000Y-61281000D02*
X204760000Y-61281000D01*
X208010000Y-61281000D02*
G75*
G02*
X206010000Y-61281000I-1000000J0D01*
G01*
%TO.C,D4*%
X112613000Y-66612000D02*
X112613000Y-66768000D01*
X112613000Y-64296000D02*
X112613000Y-64452000D01*
X115214130Y-66611837D02*
G75*
G02*
X113132039Y-66612000I-1041130J1079837D01*
G01*
X115214130Y-64452163D02*
G75*
G03*
X113132039Y-64452000I-1041130J-1079837D01*
G01*
X115845335Y-66610608D02*
G75*
G02*
X112613000Y-66767516I-1672335J1078608D01*
G01*
X115845335Y-64453392D02*
G75*
G03*
X112613000Y-64296484I-1672335J-1078608D01*
G01*
%TO.C,R25*%
X107188000Y-58344000D02*
X107188000Y-59294000D01*
X107188000Y-64084000D02*
X107188000Y-63134000D01*
X106268000Y-59294000D02*
X106268000Y-63134000D01*
X108108000Y-59294000D02*
X106268000Y-59294000D01*
X108108000Y-63134000D02*
X108108000Y-59294000D01*
X106268000Y-63134000D02*
X108108000Y-63134000D01*
%TO.C,R29*%
X209626000Y-59182000D02*
X208676000Y-59182000D01*
X203886000Y-59182000D02*
X204836000Y-59182000D01*
X208676000Y-58262000D02*
X204836000Y-58262000D01*
X208676000Y-60102000D02*
X208676000Y-58262000D01*
X204836000Y-60102000D02*
X208676000Y-60102000D01*
X204836000Y-58262000D02*
X204836000Y-60102000D01*
%TO.C,R30*%
X206197000Y-77343000D02*
X205247000Y-77343000D01*
X200457000Y-77343000D02*
X201407000Y-77343000D01*
X205247000Y-76423000D02*
X201407000Y-76423000D01*
X205247000Y-78263000D02*
X205247000Y-76423000D01*
X201407000Y-78263000D02*
X205247000Y-78263000D01*
X201407000Y-76423000D02*
X201407000Y-78263000D01*
%TO.C,SW2*%
X74682000Y-63190000D02*
X74682000Y-56190000D01*
X74682000Y-56190000D02*
X61482000Y-56190000D01*
X61482000Y-56190000D02*
X61482000Y-63190000D01*
X61482000Y-63190000D02*
X74682000Y-63190000D01*
%TO.C,SW1*%
X130758000Y-131913000D02*
X130758000Y-114913000D01*
X130758000Y-114913000D02*
X147258000Y-114913000D01*
X147258000Y-114913000D02*
X147258000Y-131913000D01*
X147258000Y-131913000D02*
X130758000Y-131913000D01*
%TO.C,C20*%
D11*
X214963142Y-59539142D02*
X214915523Y-59586761D01*
X214772666Y-59634380D01*
X214677428Y-59634380D01*
X214534571Y-59586761D01*
X214439333Y-59491523D01*
X214391714Y-59396285D01*
X214344095Y-59205809D01*
X214344095Y-59062952D01*
X214391714Y-58872476D01*
X214439333Y-58777238D01*
X214534571Y-58682000D01*
X214677428Y-58634380D01*
X214772666Y-58634380D01*
X214915523Y-58682000D01*
X214963142Y-58729619D01*
X215344095Y-58729619D02*
X215391714Y-58682000D01*
X215486952Y-58634380D01*
X215725047Y-58634380D01*
X215820285Y-58682000D01*
X215867904Y-58729619D01*
X215915523Y-58824857D01*
X215915523Y-58920095D01*
X215867904Y-59062952D01*
X215296476Y-59634380D01*
X215915523Y-59634380D01*
X216534571Y-58634380D02*
X216629809Y-58634380D01*
X216725047Y-58682000D01*
X216772666Y-58729619D01*
X216820285Y-58824857D01*
X216867904Y-59015333D01*
X216867904Y-59253428D01*
X216820285Y-59443904D01*
X216772666Y-59539142D01*
X216725047Y-59586761D01*
X216629809Y-59634380D01*
X216534571Y-59634380D01*
X216439333Y-59586761D01*
X216391714Y-59539142D01*
X216344095Y-59443904D01*
X216296476Y-59253428D01*
X216296476Y-59015333D01*
X216344095Y-58824857D01*
X216391714Y-58729619D01*
X216439333Y-58682000D01*
X216534571Y-58634380D01*
%TO.C,C15*%
X202414142Y-98773857D02*
X202461761Y-98821476D01*
X202509380Y-98964333D01*
X202509380Y-99059571D01*
X202461761Y-99202428D01*
X202366523Y-99297666D01*
X202271285Y-99345285D01*
X202080809Y-99392904D01*
X201937952Y-99392904D01*
X201747476Y-99345285D01*
X201652238Y-99297666D01*
X201557000Y-99202428D01*
X201509380Y-99059571D01*
X201509380Y-98964333D01*
X201557000Y-98821476D01*
X201604619Y-98773857D01*
X202509380Y-97821476D02*
X202509380Y-98392904D01*
X202509380Y-98107190D02*
X201509380Y-98107190D01*
X201652238Y-98202428D01*
X201747476Y-98297666D01*
X201795095Y-98392904D01*
X201509380Y-96916714D02*
X201509380Y-97392904D01*
X201985571Y-97440523D01*
X201937952Y-97392904D01*
X201890333Y-97297666D01*
X201890333Y-97059571D01*
X201937952Y-96964333D01*
X201985571Y-96916714D01*
X202080809Y-96869095D01*
X202318904Y-96869095D01*
X202414142Y-96916714D01*
X202461761Y-96964333D01*
X202509380Y-97059571D01*
X202509380Y-97297666D01*
X202461761Y-97392904D01*
X202414142Y-97440523D01*
%TO.C,C9*%
X161417333Y-113895142D02*
X161369714Y-113942761D01*
X161226857Y-113990380D01*
X161131619Y-113990380D01*
X160988761Y-113942761D01*
X160893523Y-113847523D01*
X160845904Y-113752285D01*
X160798285Y-113561809D01*
X160798285Y-113418952D01*
X160845904Y-113228476D01*
X160893523Y-113133238D01*
X160988761Y-113038000D01*
X161131619Y-112990380D01*
X161226857Y-112990380D01*
X161369714Y-113038000D01*
X161417333Y-113085619D01*
X161893523Y-113990380D02*
X162084000Y-113990380D01*
X162179238Y-113942761D01*
X162226857Y-113895142D01*
X162322095Y-113752285D01*
X162369714Y-113561809D01*
X162369714Y-113180857D01*
X162322095Y-113085619D01*
X162274476Y-113038000D01*
X162179238Y-112990380D01*
X161988761Y-112990380D01*
X161893523Y-113038000D01*
X161845904Y-113085619D01*
X161798285Y-113180857D01*
X161798285Y-113418952D01*
X161845904Y-113514190D01*
X161893523Y-113561809D01*
X161988761Y-113609428D01*
X162179238Y-113609428D01*
X162274476Y-113561809D01*
X162322095Y-113514190D01*
X162369714Y-113418952D01*
%TO.C,C8*%
X170521333Y-121515142D02*
X170473714Y-121562761D01*
X170330857Y-121610380D01*
X170235619Y-121610380D01*
X170092761Y-121562761D01*
X169997523Y-121467523D01*
X169949904Y-121372285D01*
X169902285Y-121181809D01*
X169902285Y-121038952D01*
X169949904Y-120848476D01*
X169997523Y-120753238D01*
X170092761Y-120658000D01*
X170235619Y-120610380D01*
X170330857Y-120610380D01*
X170473714Y-120658000D01*
X170521333Y-120705619D01*
X171092761Y-121038952D02*
X170997523Y-120991333D01*
X170949904Y-120943714D01*
X170902285Y-120848476D01*
X170902285Y-120800857D01*
X170949904Y-120705619D01*
X170997523Y-120658000D01*
X171092761Y-120610380D01*
X171283238Y-120610380D01*
X171378476Y-120658000D01*
X171426095Y-120705619D01*
X171473714Y-120800857D01*
X171473714Y-120848476D01*
X171426095Y-120943714D01*
X171378476Y-120991333D01*
X171283238Y-121038952D01*
X171092761Y-121038952D01*
X170997523Y-121086571D01*
X170949904Y-121134190D01*
X170902285Y-121229428D01*
X170902285Y-121419904D01*
X170949904Y-121515142D01*
X170997523Y-121562761D01*
X171092761Y-121610380D01*
X171283238Y-121610380D01*
X171378476Y-121562761D01*
X171426095Y-121515142D01*
X171473714Y-121419904D01*
X171473714Y-121229428D01*
X171426095Y-121134190D01*
X171378476Y-121086571D01*
X171283238Y-121038952D01*
%TO.C,C6*%
X170481333Y-125198142D02*
X170433714Y-125245761D01*
X170290857Y-125293380D01*
X170195619Y-125293380D01*
X170052761Y-125245761D01*
X169957523Y-125150523D01*
X169909904Y-125055285D01*
X169862285Y-124864809D01*
X169862285Y-124721952D01*
X169909904Y-124531476D01*
X169957523Y-124436238D01*
X170052761Y-124341000D01*
X170195619Y-124293380D01*
X170290857Y-124293380D01*
X170433714Y-124341000D01*
X170481333Y-124388619D01*
X171338476Y-124293380D02*
X171148000Y-124293380D01*
X171052761Y-124341000D01*
X171005142Y-124388619D01*
X170909904Y-124531476D01*
X170862285Y-124721952D01*
X170862285Y-125102904D01*
X170909904Y-125198142D01*
X170957523Y-125245761D01*
X171052761Y-125293380D01*
X171243238Y-125293380D01*
X171338476Y-125245761D01*
X171386095Y-125198142D01*
X171433714Y-125102904D01*
X171433714Y-124864809D01*
X171386095Y-124769571D01*
X171338476Y-124721952D01*
X171243238Y-124674333D01*
X171052761Y-124674333D01*
X170957523Y-124721952D01*
X170909904Y-124769571D01*
X170862285Y-124864809D01*
%TO.C,C5*%
X170307333Y-61785142D02*
X170259714Y-61832761D01*
X170116857Y-61880380D01*
X170021619Y-61880380D01*
X169878761Y-61832761D01*
X169783523Y-61737523D01*
X169735904Y-61642285D01*
X169688285Y-61451809D01*
X169688285Y-61308952D01*
X169735904Y-61118476D01*
X169783523Y-61023238D01*
X169878761Y-60928000D01*
X170021619Y-60880380D01*
X170116857Y-60880380D01*
X170259714Y-60928000D01*
X170307333Y-60975619D01*
X171212095Y-60880380D02*
X170735904Y-60880380D01*
X170688285Y-61356571D01*
X170735904Y-61308952D01*
X170831142Y-61261333D01*
X171069238Y-61261333D01*
X171164476Y-61308952D01*
X171212095Y-61356571D01*
X171259714Y-61451809D01*
X171259714Y-61689904D01*
X171212095Y-61785142D01*
X171164476Y-61832761D01*
X171069238Y-61880380D01*
X170831142Y-61880380D01*
X170735904Y-61832761D01*
X170688285Y-61785142D01*
%TO.C,C1*%
X215749142Y-114720666D02*
X215796761Y-114768285D01*
X215844380Y-114911142D01*
X215844380Y-115006380D01*
X215796761Y-115149238D01*
X215701523Y-115244476D01*
X215606285Y-115292095D01*
X215415809Y-115339714D01*
X215272952Y-115339714D01*
X215082476Y-115292095D01*
X214987238Y-115244476D01*
X214892000Y-115149238D01*
X214844380Y-115006380D01*
X214844380Y-114911142D01*
X214892000Y-114768285D01*
X214939619Y-114720666D01*
X215844380Y-113768285D02*
X215844380Y-114339714D01*
X215844380Y-114054000D02*
X214844380Y-114054000D01*
X214987238Y-114149238D01*
X215082476Y-114244476D01*
X215130095Y-114339714D01*
%TO.C,C22*%
X100901142Y-115664857D02*
X100948761Y-115712476D01*
X100996380Y-115855333D01*
X100996380Y-115950571D01*
X100948761Y-116093428D01*
X100853523Y-116188666D01*
X100758285Y-116236285D01*
X100567809Y-116283904D01*
X100424952Y-116283904D01*
X100234476Y-116236285D01*
X100139238Y-116188666D01*
X100044000Y-116093428D01*
X99996380Y-115950571D01*
X99996380Y-115855333D01*
X100044000Y-115712476D01*
X100091619Y-115664857D01*
X100091619Y-115283904D02*
X100044000Y-115236285D01*
X99996380Y-115141047D01*
X99996380Y-114902952D01*
X100044000Y-114807714D01*
X100091619Y-114760095D01*
X100186857Y-114712476D01*
X100282095Y-114712476D01*
X100424952Y-114760095D01*
X100996380Y-115331523D01*
X100996380Y-114712476D01*
X100091619Y-114331523D02*
X100044000Y-114283904D01*
X99996380Y-114188666D01*
X99996380Y-113950571D01*
X100044000Y-113855333D01*
X100091619Y-113807714D01*
X100186857Y-113760095D01*
X100282095Y-113760095D01*
X100424952Y-113807714D01*
X100996380Y-114379142D01*
X100996380Y-113760095D01*
%TO.C,C21*%
X201414142Y-80875142D02*
X201366523Y-80922761D01*
X201223666Y-80970380D01*
X201128428Y-80970380D01*
X200985571Y-80922761D01*
X200890333Y-80827523D01*
X200842714Y-80732285D01*
X200795095Y-80541809D01*
X200795095Y-80398952D01*
X200842714Y-80208476D01*
X200890333Y-80113238D01*
X200985571Y-80018000D01*
X201128428Y-79970380D01*
X201223666Y-79970380D01*
X201366523Y-80018000D01*
X201414142Y-80065619D01*
X201795095Y-80065619D02*
X201842714Y-80018000D01*
X201937952Y-79970380D01*
X202176047Y-79970380D01*
X202271285Y-80018000D01*
X202318904Y-80065619D01*
X202366523Y-80160857D01*
X202366523Y-80256095D01*
X202318904Y-80398952D01*
X201747476Y-80970380D01*
X202366523Y-80970380D01*
X203318904Y-80970380D02*
X202747476Y-80970380D01*
X203033190Y-80970380D02*
X203033190Y-79970380D01*
X202937952Y-80113238D01*
X202842714Y-80208476D01*
X202747476Y-80256095D01*
%TO.C,C19*%
X198834142Y-74525142D02*
X198786523Y-74572761D01*
X198643666Y-74620380D01*
X198548428Y-74620380D01*
X198405571Y-74572761D01*
X198310333Y-74477523D01*
X198262714Y-74382285D01*
X198215095Y-74191809D01*
X198215095Y-74048952D01*
X198262714Y-73858476D01*
X198310333Y-73763238D01*
X198405571Y-73668000D01*
X198548428Y-73620380D01*
X198643666Y-73620380D01*
X198786523Y-73668000D01*
X198834142Y-73715619D01*
X199786523Y-74620380D02*
X199215095Y-74620380D01*
X199500809Y-74620380D02*
X199500809Y-73620380D01*
X199405571Y-73763238D01*
X199310333Y-73858476D01*
X199215095Y-73906095D01*
X200262714Y-74620380D02*
X200453190Y-74620380D01*
X200548428Y-74572761D01*
X200596047Y-74525142D01*
X200691285Y-74382285D01*
X200738904Y-74191809D01*
X200738904Y-73810857D01*
X200691285Y-73715619D01*
X200643666Y-73668000D01*
X200548428Y-73620380D01*
X200357952Y-73620380D01*
X200262714Y-73668000D01*
X200215095Y-73715619D01*
X200167476Y-73810857D01*
X200167476Y-74048952D01*
X200215095Y-74144190D01*
X200262714Y-74191809D01*
X200357952Y-74239428D01*
X200548428Y-74239428D01*
X200643666Y-74191809D01*
X200691285Y-74144190D01*
X200738904Y-74048952D01*
%TO.C,C17*%
X189262142Y-59666142D02*
X189214523Y-59713761D01*
X189071666Y-59761380D01*
X188976428Y-59761380D01*
X188833571Y-59713761D01*
X188738333Y-59618523D01*
X188690714Y-59523285D01*
X188643095Y-59332809D01*
X188643095Y-59189952D01*
X188690714Y-58999476D01*
X188738333Y-58904238D01*
X188833571Y-58809000D01*
X188976428Y-58761380D01*
X189071666Y-58761380D01*
X189214523Y-58809000D01*
X189262142Y-58856619D01*
X190214523Y-59761380D02*
X189643095Y-59761380D01*
X189928809Y-59761380D02*
X189928809Y-58761380D01*
X189833571Y-58904238D01*
X189738333Y-58999476D01*
X189643095Y-59047095D01*
X190547857Y-58761380D02*
X191214523Y-58761380D01*
X190785952Y-59761380D01*
%TO.C,C14*%
X171482142Y-88805142D02*
X171434523Y-88852761D01*
X171291666Y-88900380D01*
X171196428Y-88900380D01*
X171053571Y-88852761D01*
X170958333Y-88757523D01*
X170910714Y-88662285D01*
X170863095Y-88471809D01*
X170863095Y-88328952D01*
X170910714Y-88138476D01*
X170958333Y-88043238D01*
X171053571Y-87948000D01*
X171196428Y-87900380D01*
X171291666Y-87900380D01*
X171434523Y-87948000D01*
X171482142Y-87995619D01*
X172434523Y-88900380D02*
X171863095Y-88900380D01*
X172148809Y-88900380D02*
X172148809Y-87900380D01*
X172053571Y-88043238D01*
X171958333Y-88138476D01*
X171863095Y-88186095D01*
X173291666Y-88233714D02*
X173291666Y-88900380D01*
X173053571Y-87852761D02*
X172815476Y-88567047D01*
X173434523Y-88567047D01*
%TO.C,C10*%
X196842142Y-59666142D02*
X196794523Y-59713761D01*
X196651666Y-59761380D01*
X196556428Y-59761380D01*
X196413571Y-59713761D01*
X196318333Y-59618523D01*
X196270714Y-59523285D01*
X196223095Y-59332809D01*
X196223095Y-59189952D01*
X196270714Y-58999476D01*
X196318333Y-58904238D01*
X196413571Y-58809000D01*
X196556428Y-58761380D01*
X196651666Y-58761380D01*
X196794523Y-58809000D01*
X196842142Y-58856619D01*
X197794523Y-59761380D02*
X197223095Y-59761380D01*
X197508809Y-59761380D02*
X197508809Y-58761380D01*
X197413571Y-58904238D01*
X197318333Y-58999476D01*
X197223095Y-59047095D01*
X198413571Y-58761380D02*
X198508809Y-58761380D01*
X198604047Y-58809000D01*
X198651666Y-58856619D01*
X198699285Y-58951857D01*
X198746904Y-59142333D01*
X198746904Y-59380428D01*
X198699285Y-59570904D01*
X198651666Y-59666142D01*
X198604047Y-59713761D01*
X198508809Y-59761380D01*
X198413571Y-59761380D01*
X198318333Y-59713761D01*
X198270714Y-59666142D01*
X198223095Y-59570904D01*
X198175476Y-59380428D01*
X198175476Y-59142333D01*
X198223095Y-58951857D01*
X198270714Y-58856619D01*
X198318333Y-58809000D01*
X198413571Y-58761380D01*
%TO.C,C4*%
X226417142Y-98083666D02*
X226464761Y-98131285D01*
X226512380Y-98274142D01*
X226512380Y-98369380D01*
X226464761Y-98512238D01*
X226369523Y-98607476D01*
X226274285Y-98655095D01*
X226083809Y-98702714D01*
X225940952Y-98702714D01*
X225750476Y-98655095D01*
X225655238Y-98607476D01*
X225560000Y-98512238D01*
X225512380Y-98369380D01*
X225512380Y-98274142D01*
X225560000Y-98131285D01*
X225607619Y-98083666D01*
X225845714Y-97226523D02*
X226512380Y-97226523D01*
X225464761Y-97464619D02*
X226179047Y-97702714D01*
X226179047Y-97083666D01*
%TO.C,C3*%
X224623333Y-68556142D02*
X224575714Y-68603761D01*
X224432857Y-68651380D01*
X224337619Y-68651380D01*
X224194761Y-68603761D01*
X224099523Y-68508523D01*
X224051904Y-68413285D01*
X224004285Y-68222809D01*
X224004285Y-68079952D01*
X224051904Y-67889476D01*
X224099523Y-67794238D01*
X224194761Y-67699000D01*
X224337619Y-67651380D01*
X224432857Y-67651380D01*
X224575714Y-67699000D01*
X224623333Y-67746619D01*
X224956666Y-67651380D02*
X225575714Y-67651380D01*
X225242380Y-68032333D01*
X225385238Y-68032333D01*
X225480476Y-68079952D01*
X225528095Y-68127571D01*
X225575714Y-68222809D01*
X225575714Y-68460904D01*
X225528095Y-68556142D01*
X225480476Y-68603761D01*
X225385238Y-68651380D01*
X225099523Y-68651380D01*
X225004285Y-68603761D01*
X224956666Y-68556142D01*
%TO.C,C2*%
X198969333Y-91416142D02*
X198921714Y-91463761D01*
X198778857Y-91511380D01*
X198683619Y-91511380D01*
X198540761Y-91463761D01*
X198445523Y-91368523D01*
X198397904Y-91273285D01*
X198350285Y-91082809D01*
X198350285Y-90939952D01*
X198397904Y-90749476D01*
X198445523Y-90654238D01*
X198540761Y-90559000D01*
X198683619Y-90511380D01*
X198778857Y-90511380D01*
X198921714Y-90559000D01*
X198969333Y-90606619D01*
X199350285Y-90606619D02*
X199397904Y-90559000D01*
X199493142Y-90511380D01*
X199731238Y-90511380D01*
X199826476Y-90559000D01*
X199874095Y-90606619D01*
X199921714Y-90701857D01*
X199921714Y-90797095D01*
X199874095Y-90939952D01*
X199302666Y-91511380D01*
X199921714Y-91511380D01*
%TO.C,Q1*%
X219106761Y-98083619D02*
X219011523Y-98036000D01*
X218916285Y-97940761D01*
X218773428Y-97797904D01*
X218678190Y-97750285D01*
X218582952Y-97750285D01*
X218630571Y-97988380D02*
X218535333Y-97940761D01*
X218440095Y-97845523D01*
X218392476Y-97655047D01*
X218392476Y-97321714D01*
X218440095Y-97131238D01*
X218535333Y-97036000D01*
X218630571Y-96988380D01*
X218821047Y-96988380D01*
X218916285Y-97036000D01*
X219011523Y-97131238D01*
X219059142Y-97321714D01*
X219059142Y-97655047D01*
X219011523Y-97845523D01*
X218916285Y-97940761D01*
X218821047Y-97988380D01*
X218630571Y-97988380D01*
X220011523Y-97988380D02*
X219440095Y-97988380D01*
X219725809Y-97988380D02*
X219725809Y-96988380D01*
X219630571Y-97131238D01*
X219535333Y-97226476D01*
X219440095Y-97274095D01*
%TO.C,Q2*%
X91461761Y-97956619D02*
X91366523Y-97909000D01*
X91271285Y-97813761D01*
X91128428Y-97670904D01*
X91033190Y-97623285D01*
X90937952Y-97623285D01*
X90985571Y-97861380D02*
X90890333Y-97813761D01*
X90795095Y-97718523D01*
X90747476Y-97528047D01*
X90747476Y-97194714D01*
X90795095Y-97004238D01*
X90890333Y-96909000D01*
X90985571Y-96861380D01*
X91176047Y-96861380D01*
X91271285Y-96909000D01*
X91366523Y-97004238D01*
X91414142Y-97194714D01*
X91414142Y-97528047D01*
X91366523Y-97718523D01*
X91271285Y-97813761D01*
X91176047Y-97861380D01*
X90985571Y-97861380D01*
X91795095Y-96956619D02*
X91842714Y-96909000D01*
X91937952Y-96861380D01*
X92176047Y-96861380D01*
X92271285Y-96909000D01*
X92318904Y-96956619D01*
X92366523Y-97051857D01*
X92366523Y-97147095D01*
X92318904Y-97289952D01*
X91747476Y-97861380D01*
X92366523Y-97861380D01*
%TO.C,GND2*%
X91217904Y-64270000D02*
X91122666Y-64222380D01*
X90979809Y-64222380D01*
X90836952Y-64270000D01*
X90741714Y-64365238D01*
X90694095Y-64460476D01*
X90646476Y-64650952D01*
X90646476Y-64793809D01*
X90694095Y-64984285D01*
X90741714Y-65079523D01*
X90836952Y-65174761D01*
X90979809Y-65222380D01*
X91075047Y-65222380D01*
X91217904Y-65174761D01*
X91265523Y-65127142D01*
X91265523Y-64793809D01*
X91075047Y-64793809D01*
X91694095Y-65222380D02*
X91694095Y-64222380D01*
X92265523Y-65222380D01*
X92265523Y-64222380D01*
X92741714Y-65222380D02*
X92741714Y-64222380D01*
X92979809Y-64222380D01*
X93122666Y-64270000D01*
X93217904Y-64365238D01*
X93265523Y-64460476D01*
X93313142Y-64650952D01*
X93313142Y-64793809D01*
X93265523Y-64984285D01*
X93217904Y-65079523D01*
X93122666Y-65174761D01*
X92979809Y-65222380D01*
X92741714Y-65222380D01*
X93694095Y-64317619D02*
X93741714Y-64270000D01*
X93836952Y-64222380D01*
X94075047Y-64222380D01*
X94170285Y-64270000D01*
X94217904Y-64317619D01*
X94265523Y-64412857D01*
X94265523Y-64508095D01*
X94217904Y-64650952D01*
X93646476Y-65222380D01*
X94265523Y-65222380D01*
%TO.C,GND1*%
X213241000Y-134334095D02*
X213193380Y-134429333D01*
X213193380Y-134572190D01*
X213241000Y-134715047D01*
X213336238Y-134810285D01*
X213431476Y-134857904D01*
X213621952Y-134905523D01*
X213764809Y-134905523D01*
X213955285Y-134857904D01*
X214050523Y-134810285D01*
X214145761Y-134715047D01*
X214193380Y-134572190D01*
X214193380Y-134476952D01*
X214145761Y-134334095D01*
X214098142Y-134286476D01*
X213764809Y-134286476D01*
X213764809Y-134476952D01*
X214193380Y-133857904D02*
X213193380Y-133857904D01*
X214193380Y-133286476D01*
X213193380Y-133286476D01*
X214193380Y-132810285D02*
X213193380Y-132810285D01*
X213193380Y-132572190D01*
X213241000Y-132429333D01*
X213336238Y-132334095D01*
X213431476Y-132286476D01*
X213621952Y-132238857D01*
X213764809Y-132238857D01*
X213955285Y-132286476D01*
X214050523Y-132334095D01*
X214145761Y-132429333D01*
X214193380Y-132572190D01*
X214193380Y-132810285D01*
X214193380Y-131286476D02*
X214193380Y-131857904D01*
X214193380Y-131572190D02*
X213193380Y-131572190D01*
X213336238Y-131667428D01*
X213431476Y-131762666D01*
X213479095Y-131857904D01*
%TO.C,R32*%
X103576380Y-75064857D02*
X103100190Y-75398190D01*
X103576380Y-75636285D02*
X102576380Y-75636285D01*
X102576380Y-75255333D01*
X102624000Y-75160095D01*
X102671619Y-75112476D01*
X102766857Y-75064857D01*
X102909714Y-75064857D01*
X103004952Y-75112476D01*
X103052571Y-75160095D01*
X103100190Y-75255333D01*
X103100190Y-75636285D01*
X102576380Y-74731523D02*
X102576380Y-74112476D01*
X102957333Y-74445809D01*
X102957333Y-74302952D01*
X103004952Y-74207714D01*
X103052571Y-74160095D01*
X103147809Y-74112476D01*
X103385904Y-74112476D01*
X103481142Y-74160095D01*
X103528761Y-74207714D01*
X103576380Y-74302952D01*
X103576380Y-74588666D01*
X103528761Y-74683904D01*
X103481142Y-74731523D01*
X102671619Y-73731523D02*
X102624000Y-73683904D01*
X102576380Y-73588666D01*
X102576380Y-73350571D01*
X102624000Y-73255333D01*
X102671619Y-73207714D01*
X102766857Y-73160095D01*
X102862095Y-73160095D01*
X103004952Y-73207714D01*
X103576380Y-73779142D01*
X103576380Y-73160095D01*
%TO.C,R31*%
X103624142Y-99766380D02*
X103290809Y-99290190D01*
X103052714Y-99766380D02*
X103052714Y-98766380D01*
X103433666Y-98766380D01*
X103528904Y-98814000D01*
X103576523Y-98861619D01*
X103624142Y-98956857D01*
X103624142Y-99099714D01*
X103576523Y-99194952D01*
X103528904Y-99242571D01*
X103433666Y-99290190D01*
X103052714Y-99290190D01*
X103957476Y-98766380D02*
X104576523Y-98766380D01*
X104243190Y-99147333D01*
X104386047Y-99147333D01*
X104481285Y-99194952D01*
X104528904Y-99242571D01*
X104576523Y-99337809D01*
X104576523Y-99575904D01*
X104528904Y-99671142D01*
X104481285Y-99718761D01*
X104386047Y-99766380D01*
X104100333Y-99766380D01*
X104005095Y-99718761D01*
X103957476Y-99671142D01*
X105528904Y-99766380D02*
X104957476Y-99766380D01*
X105243190Y-99766380D02*
X105243190Y-98766380D01*
X105147952Y-98909238D01*
X105052714Y-99004476D01*
X104957476Y-99052095D01*
%TO.C,R28*%
X105529142Y-102941380D02*
X105195809Y-102465190D01*
X104957714Y-102941380D02*
X104957714Y-101941380D01*
X105338666Y-101941380D01*
X105433904Y-101989000D01*
X105481523Y-102036619D01*
X105529142Y-102131857D01*
X105529142Y-102274714D01*
X105481523Y-102369952D01*
X105433904Y-102417571D01*
X105338666Y-102465190D01*
X104957714Y-102465190D01*
X105910095Y-102036619D02*
X105957714Y-101989000D01*
X106052952Y-101941380D01*
X106291047Y-101941380D01*
X106386285Y-101989000D01*
X106433904Y-102036619D01*
X106481523Y-102131857D01*
X106481523Y-102227095D01*
X106433904Y-102369952D01*
X105862476Y-102941380D01*
X106481523Y-102941380D01*
X107052952Y-102369952D02*
X106957714Y-102322333D01*
X106910095Y-102274714D01*
X106862476Y-102179476D01*
X106862476Y-102131857D01*
X106910095Y-102036619D01*
X106957714Y-101989000D01*
X107052952Y-101941380D01*
X107243428Y-101941380D01*
X107338666Y-101989000D01*
X107386285Y-102036619D01*
X107433904Y-102131857D01*
X107433904Y-102179476D01*
X107386285Y-102274714D01*
X107338666Y-102322333D01*
X107243428Y-102369952D01*
X107052952Y-102369952D01*
X106957714Y-102417571D01*
X106910095Y-102465190D01*
X106862476Y-102560428D01*
X106862476Y-102750904D01*
X106910095Y-102846142D01*
X106957714Y-102893761D01*
X107052952Y-102941380D01*
X107243428Y-102941380D01*
X107338666Y-102893761D01*
X107386285Y-102846142D01*
X107433904Y-102750904D01*
X107433904Y-102560428D01*
X107386285Y-102465190D01*
X107338666Y-102417571D01*
X107243428Y-102369952D01*
%TO.C,R27*%
X110815380Y-80144857D02*
X110339190Y-80478190D01*
X110815380Y-80716285D02*
X109815380Y-80716285D01*
X109815380Y-80335333D01*
X109863000Y-80240095D01*
X109910619Y-80192476D01*
X110005857Y-80144857D01*
X110148714Y-80144857D01*
X110243952Y-80192476D01*
X110291571Y-80240095D01*
X110339190Y-80335333D01*
X110339190Y-80716285D01*
X109910619Y-79763904D02*
X109863000Y-79716285D01*
X109815380Y-79621047D01*
X109815380Y-79382952D01*
X109863000Y-79287714D01*
X109910619Y-79240095D01*
X110005857Y-79192476D01*
X110101095Y-79192476D01*
X110243952Y-79240095D01*
X110815380Y-79811523D01*
X110815380Y-79192476D01*
X109815380Y-78859142D02*
X109815380Y-78192476D01*
X110815380Y-78621047D01*
%TO.C,R26*%
X113228380Y-85986857D02*
X112752190Y-86320190D01*
X113228380Y-86558285D02*
X112228380Y-86558285D01*
X112228380Y-86177333D01*
X112276000Y-86082095D01*
X112323619Y-86034476D01*
X112418857Y-85986857D01*
X112561714Y-85986857D01*
X112656952Y-86034476D01*
X112704571Y-86082095D01*
X112752190Y-86177333D01*
X112752190Y-86558285D01*
X112323619Y-85605904D02*
X112276000Y-85558285D01*
X112228380Y-85463047D01*
X112228380Y-85224952D01*
X112276000Y-85129714D01*
X112323619Y-85082095D01*
X112418857Y-85034476D01*
X112514095Y-85034476D01*
X112656952Y-85082095D01*
X113228380Y-85653523D01*
X113228380Y-85034476D01*
X112228380Y-84177333D02*
X112228380Y-84367809D01*
X112276000Y-84463047D01*
X112323619Y-84510666D01*
X112466476Y-84605904D01*
X112656952Y-84653523D01*
X113037904Y-84653523D01*
X113133142Y-84605904D01*
X113180761Y-84558285D01*
X113228380Y-84463047D01*
X113228380Y-84272571D01*
X113180761Y-84177333D01*
X113133142Y-84129714D01*
X113037904Y-84082095D01*
X112799809Y-84082095D01*
X112704571Y-84129714D01*
X112656952Y-84177333D01*
X112609333Y-84272571D01*
X112609333Y-84463047D01*
X112656952Y-84558285D01*
X112704571Y-84605904D01*
X112799809Y-84653523D01*
%TO.C,D13*%
X102036714Y-68944380D02*
X102036714Y-67944380D01*
X102274809Y-67944380D01*
X102417666Y-67992000D01*
X102512904Y-68087238D01*
X102560523Y-68182476D01*
X102608142Y-68372952D01*
X102608142Y-68515809D01*
X102560523Y-68706285D01*
X102512904Y-68801523D01*
X102417666Y-68896761D01*
X102274809Y-68944380D01*
X102036714Y-68944380D01*
X103560523Y-68944380D02*
X102989095Y-68944380D01*
X103274809Y-68944380D02*
X103274809Y-67944380D01*
X103179571Y-68087238D01*
X103084333Y-68182476D01*
X102989095Y-68230095D01*
X103893857Y-67944380D02*
X104512904Y-67944380D01*
X104179571Y-68325333D01*
X104322428Y-68325333D01*
X104417666Y-68372952D01*
X104465285Y-68420571D01*
X104512904Y-68515809D01*
X104512904Y-68753904D01*
X104465285Y-68849142D01*
X104417666Y-68896761D01*
X104322428Y-68944380D01*
X104036714Y-68944380D01*
X103941476Y-68896761D01*
X103893857Y-68849142D01*
%TO.C,D12*%
X102036714Y-95614380D02*
X102036714Y-94614380D01*
X102274809Y-94614380D01*
X102417666Y-94662000D01*
X102512904Y-94757238D01*
X102560523Y-94852476D01*
X102608142Y-95042952D01*
X102608142Y-95185809D01*
X102560523Y-95376285D01*
X102512904Y-95471523D01*
X102417666Y-95566761D01*
X102274809Y-95614380D01*
X102036714Y-95614380D01*
X103560523Y-95614380D02*
X102989095Y-95614380D01*
X103274809Y-95614380D02*
X103274809Y-94614380D01*
X103179571Y-94757238D01*
X103084333Y-94852476D01*
X102989095Y-94900095D01*
X103941476Y-94709619D02*
X103989095Y-94662000D01*
X104084333Y-94614380D01*
X104322428Y-94614380D01*
X104417666Y-94662000D01*
X104465285Y-94709619D01*
X104512904Y-94804857D01*
X104512904Y-94900095D01*
X104465285Y-95042952D01*
X103893857Y-95614380D01*
X104512904Y-95614380D01*
%TO.C,D7*%
X113434904Y-99981380D02*
X113434904Y-98981380D01*
X113673000Y-98981380D01*
X113815857Y-99029000D01*
X113911095Y-99124238D01*
X113958714Y-99219476D01*
X114006333Y-99409952D01*
X114006333Y-99552809D01*
X113958714Y-99743285D01*
X113911095Y-99838523D01*
X113815857Y-99933761D01*
X113673000Y-99981380D01*
X113434904Y-99981380D01*
X114339666Y-98981380D02*
X115006333Y-98981380D01*
X114577761Y-99981380D01*
%TO.C,D6*%
X113434904Y-73311380D02*
X113434904Y-72311380D01*
X113673000Y-72311380D01*
X113815857Y-72359000D01*
X113911095Y-72454238D01*
X113958714Y-72549476D01*
X114006333Y-72739952D01*
X114006333Y-72882809D01*
X113958714Y-73073285D01*
X113911095Y-73168523D01*
X113815857Y-73263761D01*
X113673000Y-73311380D01*
X113434904Y-73311380D01*
X114863476Y-72311380D02*
X114673000Y-72311380D01*
X114577761Y-72359000D01*
X114530142Y-72406619D01*
X114434904Y-72549476D01*
X114387285Y-72739952D01*
X114387285Y-73120904D01*
X114434904Y-73216142D01*
X114482523Y-73263761D01*
X114577761Y-73311380D01*
X114768238Y-73311380D01*
X114863476Y-73263761D01*
X114911095Y-73216142D01*
X114958714Y-73120904D01*
X114958714Y-72882809D01*
X114911095Y-72787571D01*
X114863476Y-72739952D01*
X114768238Y-72692333D01*
X114577761Y-72692333D01*
X114482523Y-72739952D01*
X114434904Y-72787571D01*
X114387285Y-72882809D01*
%TO.C,D5*%
X113434904Y-89694380D02*
X113434904Y-88694380D01*
X113673000Y-88694380D01*
X113815857Y-88742000D01*
X113911095Y-88837238D01*
X113958714Y-88932476D01*
X114006333Y-89122952D01*
X114006333Y-89265809D01*
X113958714Y-89456285D01*
X113911095Y-89551523D01*
X113815857Y-89646761D01*
X113673000Y-89694380D01*
X113434904Y-89694380D01*
X114911095Y-88694380D02*
X114434904Y-88694380D01*
X114387285Y-89170571D01*
X114434904Y-89122952D01*
X114530142Y-89075333D01*
X114768238Y-89075333D01*
X114863476Y-89122952D01*
X114911095Y-89170571D01*
X114958714Y-89265809D01*
X114958714Y-89503904D01*
X114911095Y-89599142D01*
X114863476Y-89646761D01*
X114768238Y-89694380D01*
X114530142Y-89694380D01*
X114434904Y-89646761D01*
X114387285Y-89599142D01*
%TO.C,R35*%
X85415380Y-81287857D02*
X84939190Y-81621190D01*
X85415380Y-81859285D02*
X84415380Y-81859285D01*
X84415380Y-81478333D01*
X84463000Y-81383095D01*
X84510619Y-81335476D01*
X84605857Y-81287857D01*
X84748714Y-81287857D01*
X84843952Y-81335476D01*
X84891571Y-81383095D01*
X84939190Y-81478333D01*
X84939190Y-81859285D01*
X84415380Y-80954523D02*
X84415380Y-80335476D01*
X84796333Y-80668809D01*
X84796333Y-80525952D01*
X84843952Y-80430714D01*
X84891571Y-80383095D01*
X84986809Y-80335476D01*
X85224904Y-80335476D01*
X85320142Y-80383095D01*
X85367761Y-80430714D01*
X85415380Y-80525952D01*
X85415380Y-80811666D01*
X85367761Y-80906904D01*
X85320142Y-80954523D01*
X84415380Y-79430714D02*
X84415380Y-79906904D01*
X84891571Y-79954523D01*
X84843952Y-79906904D01*
X84796333Y-79811666D01*
X84796333Y-79573571D01*
X84843952Y-79478333D01*
X84891571Y-79430714D01*
X84986809Y-79383095D01*
X85224904Y-79383095D01*
X85320142Y-79430714D01*
X85367761Y-79478333D01*
X85415380Y-79573571D01*
X85415380Y-79811666D01*
X85367761Y-79906904D01*
X85320142Y-79954523D01*
%TO.C,U11*%
X185832904Y-126960380D02*
X185832904Y-127769904D01*
X185880523Y-127865142D01*
X185928142Y-127912761D01*
X186023380Y-127960380D01*
X186213857Y-127960380D01*
X186309095Y-127912761D01*
X186356714Y-127865142D01*
X186404333Y-127769904D01*
X186404333Y-126960380D01*
X187404333Y-127960380D02*
X186832904Y-127960380D01*
X187118619Y-127960380D02*
X187118619Y-126960380D01*
X187023380Y-127103238D01*
X186928142Y-127198476D01*
X186832904Y-127246095D01*
X188356714Y-127960380D02*
X187785285Y-127960380D01*
X188071000Y-127960380D02*
X188071000Y-126960380D01*
X187975761Y-127103238D01*
X187880523Y-127198476D01*
X187785285Y-127246095D01*
%TO.C,R34*%
X180205142Y-137485380D02*
X179871809Y-137009190D01*
X179633714Y-137485380D02*
X179633714Y-136485380D01*
X180014666Y-136485380D01*
X180109904Y-136533000D01*
X180157523Y-136580619D01*
X180205142Y-136675857D01*
X180205142Y-136818714D01*
X180157523Y-136913952D01*
X180109904Y-136961571D01*
X180014666Y-137009190D01*
X179633714Y-137009190D01*
X180538476Y-136485380D02*
X181157523Y-136485380D01*
X180824190Y-136866333D01*
X180967047Y-136866333D01*
X181062285Y-136913952D01*
X181109904Y-136961571D01*
X181157523Y-137056809D01*
X181157523Y-137294904D01*
X181109904Y-137390142D01*
X181062285Y-137437761D01*
X180967047Y-137485380D01*
X180681333Y-137485380D01*
X180586095Y-137437761D01*
X180538476Y-137390142D01*
X182014666Y-136818714D02*
X182014666Y-137485380D01*
X181776571Y-136437761D02*
X181538476Y-137152047D01*
X182157523Y-137152047D01*
%TO.C,R33*%
X100068142Y-127579380D02*
X99734809Y-127103190D01*
X99496714Y-127579380D02*
X99496714Y-126579380D01*
X99877666Y-126579380D01*
X99972904Y-126627000D01*
X100020523Y-126674619D01*
X100068142Y-126769857D01*
X100068142Y-126912714D01*
X100020523Y-127007952D01*
X99972904Y-127055571D01*
X99877666Y-127103190D01*
X99496714Y-127103190D01*
X100401476Y-126579380D02*
X101020523Y-126579380D01*
X100687190Y-126960333D01*
X100830047Y-126960333D01*
X100925285Y-127007952D01*
X100972904Y-127055571D01*
X101020523Y-127150809D01*
X101020523Y-127388904D01*
X100972904Y-127484142D01*
X100925285Y-127531761D01*
X100830047Y-127579380D01*
X100544333Y-127579380D01*
X100449095Y-127531761D01*
X100401476Y-127484142D01*
X101353857Y-126579380D02*
X101972904Y-126579380D01*
X101639571Y-126960333D01*
X101782428Y-126960333D01*
X101877666Y-127007952D01*
X101925285Y-127055571D01*
X101972904Y-127150809D01*
X101972904Y-127388904D01*
X101925285Y-127484142D01*
X101877666Y-127531761D01*
X101782428Y-127579380D01*
X101496714Y-127579380D01*
X101401476Y-127531761D01*
X101353857Y-127484142D01*
%TO.C,J4*%
X54911666Y-118959380D02*
X54911666Y-119673666D01*
X54864047Y-119816523D01*
X54768809Y-119911761D01*
X54625952Y-119959380D01*
X54530714Y-119959380D01*
X55816428Y-119292714D02*
X55816428Y-119959380D01*
X55578333Y-118911761D02*
X55340238Y-119626047D01*
X55959285Y-119626047D01*
%TO.C,U12*%
X91908380Y-82391095D02*
X92717904Y-82391095D01*
X92813142Y-82343476D01*
X92860761Y-82295857D01*
X92908380Y-82200619D01*
X92908380Y-82010142D01*
X92860761Y-81914904D01*
X92813142Y-81867285D01*
X92717904Y-81819666D01*
X91908380Y-81819666D01*
X92908380Y-80819666D02*
X92908380Y-81391095D01*
X92908380Y-81105380D02*
X91908380Y-81105380D01*
X92051238Y-81200619D01*
X92146476Y-81295857D01*
X92194095Y-81391095D01*
X92003619Y-80438714D02*
X91956000Y-80391095D01*
X91908380Y-80295857D01*
X91908380Y-80057761D01*
X91956000Y-79962523D01*
X92003619Y-79914904D01*
X92098857Y-79867285D01*
X92194095Y-79867285D01*
X92336952Y-79914904D01*
X92908380Y-80486333D01*
X92908380Y-79867285D01*
%TO.C,R21*%
X190365142Y-120848380D02*
X190031809Y-120372190D01*
X189793714Y-120848380D02*
X189793714Y-119848380D01*
X190174666Y-119848380D01*
X190269904Y-119896000D01*
X190317523Y-119943619D01*
X190365142Y-120038857D01*
X190365142Y-120181714D01*
X190317523Y-120276952D01*
X190269904Y-120324571D01*
X190174666Y-120372190D01*
X189793714Y-120372190D01*
X190746095Y-119943619D02*
X190793714Y-119896000D01*
X190888952Y-119848380D01*
X191127047Y-119848380D01*
X191222285Y-119896000D01*
X191269904Y-119943619D01*
X191317523Y-120038857D01*
X191317523Y-120134095D01*
X191269904Y-120276952D01*
X190698476Y-120848380D01*
X191317523Y-120848380D01*
X192269904Y-120848380D02*
X191698476Y-120848380D01*
X191984190Y-120848380D02*
X191984190Y-119848380D01*
X191888952Y-119991238D01*
X191793714Y-120086476D01*
X191698476Y-120134095D01*
%TO.C,R19*%
X198699380Y-128023857D02*
X198223190Y-128357190D01*
X198699380Y-128595285D02*
X197699380Y-128595285D01*
X197699380Y-128214333D01*
X197747000Y-128119095D01*
X197794619Y-128071476D01*
X197889857Y-128023857D01*
X198032714Y-128023857D01*
X198127952Y-128071476D01*
X198175571Y-128119095D01*
X198223190Y-128214333D01*
X198223190Y-128595285D01*
X198699380Y-127071476D02*
X198699380Y-127642904D01*
X198699380Y-127357190D02*
X197699380Y-127357190D01*
X197842238Y-127452428D01*
X197937476Y-127547666D01*
X197985095Y-127642904D01*
X198699380Y-126595285D02*
X198699380Y-126404809D01*
X198651761Y-126309571D01*
X198604142Y-126261952D01*
X198461285Y-126166714D01*
X198270809Y-126119095D01*
X197889857Y-126119095D01*
X197794619Y-126166714D01*
X197747000Y-126214333D01*
X197699380Y-126309571D01*
X197699380Y-126500047D01*
X197747000Y-126595285D01*
X197794619Y-126642904D01*
X197889857Y-126690523D01*
X198127952Y-126690523D01*
X198223190Y-126642904D01*
X198270809Y-126595285D01*
X198318428Y-126500047D01*
X198318428Y-126309571D01*
X198270809Y-126214333D01*
X198223190Y-126166714D01*
X198127952Y-126119095D01*
%TO.C,R13*%
X195445142Y-134437380D02*
X195111809Y-133961190D01*
X194873714Y-134437380D02*
X194873714Y-133437380D01*
X195254666Y-133437380D01*
X195349904Y-133485000D01*
X195397523Y-133532619D01*
X195445142Y-133627857D01*
X195445142Y-133770714D01*
X195397523Y-133865952D01*
X195349904Y-133913571D01*
X195254666Y-133961190D01*
X194873714Y-133961190D01*
X196397523Y-134437380D02*
X195826095Y-134437380D01*
X196111809Y-134437380D02*
X196111809Y-133437380D01*
X196016571Y-133580238D01*
X195921333Y-133675476D01*
X195826095Y-133723095D01*
X196730857Y-133437380D02*
X197349904Y-133437380D01*
X197016571Y-133818333D01*
X197159428Y-133818333D01*
X197254666Y-133865952D01*
X197302285Y-133913571D01*
X197349904Y-134008809D01*
X197349904Y-134246904D01*
X197302285Y-134342142D01*
X197254666Y-134389761D01*
X197159428Y-134437380D01*
X196873714Y-134437380D01*
X196778476Y-134389761D01*
X196730857Y-134342142D01*
%TO.C,R12*%
X180078142Y-134437380D02*
X179744809Y-133961190D01*
X179506714Y-134437380D02*
X179506714Y-133437380D01*
X179887666Y-133437380D01*
X179982904Y-133485000D01*
X180030523Y-133532619D01*
X180078142Y-133627857D01*
X180078142Y-133770714D01*
X180030523Y-133865952D01*
X179982904Y-133913571D01*
X179887666Y-133961190D01*
X179506714Y-133961190D01*
X181030523Y-134437380D02*
X180459095Y-134437380D01*
X180744809Y-134437380D02*
X180744809Y-133437380D01*
X180649571Y-133580238D01*
X180554333Y-133675476D01*
X180459095Y-133723095D01*
X181411476Y-133532619D02*
X181459095Y-133485000D01*
X181554333Y-133437380D01*
X181792428Y-133437380D01*
X181887666Y-133485000D01*
X181935285Y-133532619D01*
X181982904Y-133627857D01*
X181982904Y-133723095D01*
X181935285Y-133865952D01*
X181363857Y-134437380D01*
X181982904Y-134437380D01*
%TO.C,J3*%
X53260666Y-76953380D02*
X53260666Y-77667666D01*
X53213047Y-77810523D01*
X53117809Y-77905761D01*
X52974952Y-77953380D01*
X52879714Y-77953380D01*
X53641619Y-76953380D02*
X54260666Y-76953380D01*
X53927333Y-77334333D01*
X54070190Y-77334333D01*
X54165428Y-77381952D01*
X54213047Y-77429571D01*
X54260666Y-77524809D01*
X54260666Y-77762904D01*
X54213047Y-77858142D01*
X54165428Y-77905761D01*
X54070190Y-77953380D01*
X53784476Y-77953380D01*
X53689238Y-77905761D01*
X53641619Y-77858142D01*
%TO.C,R1*%
X216860380Y-86272666D02*
X216384190Y-86606000D01*
X216860380Y-86844095D02*
X215860380Y-86844095D01*
X215860380Y-86463142D01*
X215908000Y-86367904D01*
X215955619Y-86320285D01*
X216050857Y-86272666D01*
X216193714Y-86272666D01*
X216288952Y-86320285D01*
X216336571Y-86367904D01*
X216384190Y-86463142D01*
X216384190Y-86844095D01*
X216860380Y-85320285D02*
X216860380Y-85891714D01*
X216860380Y-85606000D02*
X215860380Y-85606000D01*
X216003238Y-85701238D01*
X216098476Y-85796476D01*
X216146095Y-85891714D01*
%TO.C,R2*%
X222083333Y-103957380D02*
X221750000Y-103481190D01*
X221511904Y-103957380D02*
X221511904Y-102957380D01*
X221892857Y-102957380D01*
X221988095Y-103005000D01*
X222035714Y-103052619D01*
X222083333Y-103147857D01*
X222083333Y-103290714D01*
X222035714Y-103385952D01*
X221988095Y-103433571D01*
X221892857Y-103481190D01*
X221511904Y-103481190D01*
X222464285Y-103052619D02*
X222511904Y-103005000D01*
X222607142Y-102957380D01*
X222845238Y-102957380D01*
X222940476Y-103005000D01*
X222988095Y-103052619D01*
X223035714Y-103147857D01*
X223035714Y-103243095D01*
X222988095Y-103385952D01*
X222416666Y-103957380D01*
X223035714Y-103957380D01*
%TO.C,R3*%
X169759333Y-63571380D02*
X169426000Y-63095190D01*
X169187904Y-63571380D02*
X169187904Y-62571380D01*
X169568857Y-62571380D01*
X169664095Y-62619000D01*
X169711714Y-62666619D01*
X169759333Y-62761857D01*
X169759333Y-62904714D01*
X169711714Y-62999952D01*
X169664095Y-63047571D01*
X169568857Y-63095190D01*
X169187904Y-63095190D01*
X170092666Y-62571380D02*
X170711714Y-62571380D01*
X170378380Y-62952333D01*
X170521238Y-62952333D01*
X170616476Y-62999952D01*
X170664095Y-63047571D01*
X170711714Y-63142809D01*
X170711714Y-63380904D01*
X170664095Y-63476142D01*
X170616476Y-63523761D01*
X170521238Y-63571380D01*
X170235523Y-63571380D01*
X170140285Y-63523761D01*
X170092666Y-63476142D01*
%TO.C,R4*%
X169886333Y-68651380D02*
X169553000Y-68175190D01*
X169314904Y-68651380D02*
X169314904Y-67651380D01*
X169695857Y-67651380D01*
X169791095Y-67699000D01*
X169838714Y-67746619D01*
X169886333Y-67841857D01*
X169886333Y-67984714D01*
X169838714Y-68079952D01*
X169791095Y-68127571D01*
X169695857Y-68175190D01*
X169314904Y-68175190D01*
X170743476Y-67984714D02*
X170743476Y-68651380D01*
X170505380Y-67603761D02*
X170267285Y-68318047D01*
X170886333Y-68318047D01*
%TO.C,R5*%
X169886333Y-73731380D02*
X169553000Y-73255190D01*
X169314904Y-73731380D02*
X169314904Y-72731380D01*
X169695857Y-72731380D01*
X169791095Y-72779000D01*
X169838714Y-72826619D01*
X169886333Y-72921857D01*
X169886333Y-73064714D01*
X169838714Y-73159952D01*
X169791095Y-73207571D01*
X169695857Y-73255190D01*
X169314904Y-73255190D01*
X170791095Y-72731380D02*
X170314904Y-72731380D01*
X170267285Y-73207571D01*
X170314904Y-73159952D01*
X170410142Y-73112333D01*
X170648238Y-73112333D01*
X170743476Y-73159952D01*
X170791095Y-73207571D01*
X170838714Y-73302809D01*
X170838714Y-73540904D01*
X170791095Y-73636142D01*
X170743476Y-73683761D01*
X170648238Y-73731380D01*
X170410142Y-73731380D01*
X170314904Y-73683761D01*
X170267285Y-73636142D01*
%TO.C,R6*%
X169886333Y-78811380D02*
X169553000Y-78335190D01*
X169314904Y-78811380D02*
X169314904Y-77811380D01*
X169695857Y-77811380D01*
X169791095Y-77859000D01*
X169838714Y-77906619D01*
X169886333Y-78001857D01*
X169886333Y-78144714D01*
X169838714Y-78239952D01*
X169791095Y-78287571D01*
X169695857Y-78335190D01*
X169314904Y-78335190D01*
X170743476Y-77811380D02*
X170553000Y-77811380D01*
X170457761Y-77859000D01*
X170410142Y-77906619D01*
X170314904Y-78049476D01*
X170267285Y-78239952D01*
X170267285Y-78620904D01*
X170314904Y-78716142D01*
X170362523Y-78763761D01*
X170457761Y-78811380D01*
X170648238Y-78811380D01*
X170743476Y-78763761D01*
X170791095Y-78716142D01*
X170838714Y-78620904D01*
X170838714Y-78382809D01*
X170791095Y-78287571D01*
X170743476Y-78239952D01*
X170648238Y-78192333D01*
X170457761Y-78192333D01*
X170362523Y-78239952D01*
X170314904Y-78287571D01*
X170267285Y-78382809D01*
%TO.C,R7*%
X169759333Y-66111380D02*
X169426000Y-65635190D01*
X169187904Y-66111380D02*
X169187904Y-65111380D01*
X169568857Y-65111380D01*
X169664095Y-65159000D01*
X169711714Y-65206619D01*
X169759333Y-65301857D01*
X169759333Y-65444714D01*
X169711714Y-65539952D01*
X169664095Y-65587571D01*
X169568857Y-65635190D01*
X169187904Y-65635190D01*
X170092666Y-65111380D02*
X170759333Y-65111380D01*
X170330761Y-66111380D01*
%TO.C,R8*%
X169886333Y-71191380D02*
X169553000Y-70715190D01*
X169314904Y-71191380D02*
X169314904Y-70191380D01*
X169695857Y-70191380D01*
X169791095Y-70239000D01*
X169838714Y-70286619D01*
X169886333Y-70381857D01*
X169886333Y-70524714D01*
X169838714Y-70619952D01*
X169791095Y-70667571D01*
X169695857Y-70715190D01*
X169314904Y-70715190D01*
X170457761Y-70619952D02*
X170362523Y-70572333D01*
X170314904Y-70524714D01*
X170267285Y-70429476D01*
X170267285Y-70381857D01*
X170314904Y-70286619D01*
X170362523Y-70239000D01*
X170457761Y-70191380D01*
X170648238Y-70191380D01*
X170743476Y-70239000D01*
X170791095Y-70286619D01*
X170838714Y-70381857D01*
X170838714Y-70429476D01*
X170791095Y-70524714D01*
X170743476Y-70572333D01*
X170648238Y-70619952D01*
X170457761Y-70619952D01*
X170362523Y-70667571D01*
X170314904Y-70715190D01*
X170267285Y-70810428D01*
X170267285Y-71000904D01*
X170314904Y-71096142D01*
X170362523Y-71143761D01*
X170457761Y-71191380D01*
X170648238Y-71191380D01*
X170743476Y-71143761D01*
X170791095Y-71096142D01*
X170838714Y-71000904D01*
X170838714Y-70810428D01*
X170791095Y-70715190D01*
X170743476Y-70667571D01*
X170648238Y-70619952D01*
%TO.C,R9*%
X169886333Y-76398380D02*
X169553000Y-75922190D01*
X169314904Y-76398380D02*
X169314904Y-75398380D01*
X169695857Y-75398380D01*
X169791095Y-75446000D01*
X169838714Y-75493619D01*
X169886333Y-75588857D01*
X169886333Y-75731714D01*
X169838714Y-75826952D01*
X169791095Y-75874571D01*
X169695857Y-75922190D01*
X169314904Y-75922190D01*
X170362523Y-76398380D02*
X170553000Y-76398380D01*
X170648238Y-76350761D01*
X170695857Y-76303142D01*
X170791095Y-76160285D01*
X170838714Y-75969809D01*
X170838714Y-75588857D01*
X170791095Y-75493619D01*
X170743476Y-75446000D01*
X170648238Y-75398380D01*
X170457761Y-75398380D01*
X170362523Y-75446000D01*
X170314904Y-75493619D01*
X170267285Y-75588857D01*
X170267285Y-75826952D01*
X170314904Y-75922190D01*
X170362523Y-75969809D01*
X170457761Y-76017428D01*
X170648238Y-76017428D01*
X170743476Y-75969809D01*
X170791095Y-75922190D01*
X170838714Y-75826952D01*
%TO.C,R10*%
X169410142Y-81351380D02*
X169076809Y-80875190D01*
X168838714Y-81351380D02*
X168838714Y-80351380D01*
X169219666Y-80351380D01*
X169314904Y-80399000D01*
X169362523Y-80446619D01*
X169410142Y-80541857D01*
X169410142Y-80684714D01*
X169362523Y-80779952D01*
X169314904Y-80827571D01*
X169219666Y-80875190D01*
X168838714Y-80875190D01*
X170362523Y-81351380D02*
X169791095Y-81351380D01*
X170076809Y-81351380D02*
X170076809Y-80351380D01*
X169981571Y-80494238D01*
X169886333Y-80589476D01*
X169791095Y-80637095D01*
X170981571Y-80351380D02*
X171076809Y-80351380D01*
X171172047Y-80399000D01*
X171219666Y-80446619D01*
X171267285Y-80541857D01*
X171314904Y-80732333D01*
X171314904Y-80970428D01*
X171267285Y-81160904D01*
X171219666Y-81256142D01*
X171172047Y-81303761D01*
X171076809Y-81351380D01*
X170981571Y-81351380D01*
X170886333Y-81303761D01*
X170838714Y-81256142D01*
X170791095Y-81160904D01*
X170743476Y-80970428D01*
X170743476Y-80732333D01*
X170791095Y-80541857D01*
X170838714Y-80446619D01*
X170886333Y-80399000D01*
X170981571Y-80351380D01*
%TO.C,R11*%
X178935142Y-59380380D02*
X178601809Y-58904190D01*
X178363714Y-59380380D02*
X178363714Y-58380380D01*
X178744666Y-58380380D01*
X178839904Y-58428000D01*
X178887523Y-58475619D01*
X178935142Y-58570857D01*
X178935142Y-58713714D01*
X178887523Y-58808952D01*
X178839904Y-58856571D01*
X178744666Y-58904190D01*
X178363714Y-58904190D01*
X179887523Y-59380380D02*
X179316095Y-59380380D01*
X179601809Y-59380380D02*
X179601809Y-58380380D01*
X179506571Y-58523238D01*
X179411333Y-58618476D01*
X179316095Y-58666095D01*
X180839904Y-59380380D02*
X180268476Y-59380380D01*
X180554190Y-59380380D02*
X180554190Y-58380380D01*
X180458952Y-58523238D01*
X180363714Y-58618476D01*
X180268476Y-58666095D01*
%TO.C,R14*%
X171315142Y-129103380D02*
X170981809Y-128627190D01*
X170743714Y-129103380D02*
X170743714Y-128103380D01*
X171124666Y-128103380D01*
X171219904Y-128151000D01*
X171267523Y-128198619D01*
X171315142Y-128293857D01*
X171315142Y-128436714D01*
X171267523Y-128531952D01*
X171219904Y-128579571D01*
X171124666Y-128627190D01*
X170743714Y-128627190D01*
X172267523Y-129103380D02*
X171696095Y-129103380D01*
X171981809Y-129103380D02*
X171981809Y-128103380D01*
X171886571Y-128246238D01*
X171791333Y-128341476D01*
X171696095Y-128389095D01*
X173124666Y-128436714D02*
X173124666Y-129103380D01*
X172886571Y-128055761D02*
X172648476Y-128770047D01*
X173267523Y-128770047D01*
%TO.C,R15*%
X171442142Y-118054380D02*
X171108809Y-117578190D01*
X170870714Y-118054380D02*
X170870714Y-117054380D01*
X171251666Y-117054380D01*
X171346904Y-117102000D01*
X171394523Y-117149619D01*
X171442142Y-117244857D01*
X171442142Y-117387714D01*
X171394523Y-117482952D01*
X171346904Y-117530571D01*
X171251666Y-117578190D01*
X170870714Y-117578190D01*
X172394523Y-118054380D02*
X171823095Y-118054380D01*
X172108809Y-118054380D02*
X172108809Y-117054380D01*
X172013571Y-117197238D01*
X171918333Y-117292476D01*
X171823095Y-117340095D01*
X173299285Y-117054380D02*
X172823095Y-117054380D01*
X172775476Y-117530571D01*
X172823095Y-117482952D01*
X172918333Y-117435333D01*
X173156428Y-117435333D01*
X173251666Y-117482952D01*
X173299285Y-117530571D01*
X173346904Y-117625809D01*
X173346904Y-117863904D01*
X173299285Y-117959142D01*
X173251666Y-118006761D01*
X173156428Y-118054380D01*
X172918333Y-118054380D01*
X172823095Y-118006761D01*
X172775476Y-117959142D01*
%TO.C,U1*%
X119380095Y-59142380D02*
X119380095Y-59951904D01*
X119427714Y-60047142D01*
X119475333Y-60094761D01*
X119570571Y-60142380D01*
X119761047Y-60142380D01*
X119856285Y-60094761D01*
X119903904Y-60047142D01*
X119951523Y-59951904D01*
X119951523Y-59142380D01*
X120951523Y-60142380D02*
X120380095Y-60142380D01*
X120665809Y-60142380D02*
X120665809Y-59142380D01*
X120570571Y-59285238D01*
X120475333Y-59380476D01*
X120380095Y-59428095D01*
%TO.C,U2*%
X119380095Y-85812380D02*
X119380095Y-86621904D01*
X119427714Y-86717142D01*
X119475333Y-86764761D01*
X119570571Y-86812380D01*
X119761047Y-86812380D01*
X119856285Y-86764761D01*
X119903904Y-86717142D01*
X119951523Y-86621904D01*
X119951523Y-85812380D01*
X120380095Y-85907619D02*
X120427714Y-85860000D01*
X120522952Y-85812380D01*
X120761047Y-85812380D01*
X120856285Y-85860000D01*
X120903904Y-85907619D01*
X120951523Y-86002857D01*
X120951523Y-86098095D01*
X120903904Y-86240952D01*
X120332476Y-86812380D01*
X120951523Y-86812380D01*
%TO.C,U3*%
X132588095Y-59396380D02*
X132588095Y-60205904D01*
X132635714Y-60301142D01*
X132683333Y-60348761D01*
X132778571Y-60396380D01*
X132969047Y-60396380D01*
X133064285Y-60348761D01*
X133111904Y-60301142D01*
X133159523Y-60205904D01*
X133159523Y-59396380D01*
X133540476Y-59396380D02*
X134159523Y-59396380D01*
X133826190Y-59777333D01*
X133969047Y-59777333D01*
X134064285Y-59824952D01*
X134111904Y-59872571D01*
X134159523Y-59967809D01*
X134159523Y-60205904D01*
X134111904Y-60301142D01*
X134064285Y-60348761D01*
X133969047Y-60396380D01*
X133683333Y-60396380D01*
X133588095Y-60348761D01*
X133540476Y-60301142D01*
%TO.C,U4*%
X132842095Y-86066380D02*
X132842095Y-86875904D01*
X132889714Y-86971142D01*
X132937333Y-87018761D01*
X133032571Y-87066380D01*
X133223047Y-87066380D01*
X133318285Y-87018761D01*
X133365904Y-86971142D01*
X133413523Y-86875904D01*
X133413523Y-86066380D01*
X134318285Y-86399714D02*
X134318285Y-87066380D01*
X134080190Y-86018761D02*
X133842095Y-86733047D01*
X134461142Y-86733047D01*
%TO.C,U5*%
X146050095Y-59142380D02*
X146050095Y-59951904D01*
X146097714Y-60047142D01*
X146145333Y-60094761D01*
X146240571Y-60142380D01*
X146431047Y-60142380D01*
X146526285Y-60094761D01*
X146573904Y-60047142D01*
X146621523Y-59951904D01*
X146621523Y-59142380D01*
X147573904Y-59142380D02*
X147097714Y-59142380D01*
X147050095Y-59618571D01*
X147097714Y-59570952D01*
X147192952Y-59523333D01*
X147431047Y-59523333D01*
X147526285Y-59570952D01*
X147573904Y-59618571D01*
X147621523Y-59713809D01*
X147621523Y-59951904D01*
X147573904Y-60047142D01*
X147526285Y-60094761D01*
X147431047Y-60142380D01*
X147192952Y-60142380D01*
X147097714Y-60094761D01*
X147050095Y-60047142D01*
%TO.C,U6*%
X146050095Y-86066380D02*
X146050095Y-86875904D01*
X146097714Y-86971142D01*
X146145333Y-87018761D01*
X146240571Y-87066380D01*
X146431047Y-87066380D01*
X146526285Y-87018761D01*
X146573904Y-86971142D01*
X146621523Y-86875904D01*
X146621523Y-86066380D01*
X147526285Y-86066380D02*
X147335809Y-86066380D01*
X147240571Y-86114000D01*
X147192952Y-86161619D01*
X147097714Y-86304476D01*
X147050095Y-86494952D01*
X147050095Y-86875904D01*
X147097714Y-86971142D01*
X147145333Y-87018761D01*
X147240571Y-87066380D01*
X147431047Y-87066380D01*
X147526285Y-87018761D01*
X147573904Y-86971142D01*
X147621523Y-86875904D01*
X147621523Y-86637809D01*
X147573904Y-86542571D01*
X147526285Y-86494952D01*
X147431047Y-86447333D01*
X147240571Y-86447333D01*
X147145333Y-86494952D01*
X147097714Y-86542571D01*
X147050095Y-86637809D01*
%TO.C,R16*%
X160139142Y-117673380D02*
X159805809Y-117197190D01*
X159567714Y-117673380D02*
X159567714Y-116673380D01*
X159948666Y-116673380D01*
X160043904Y-116721000D01*
X160091523Y-116768619D01*
X160139142Y-116863857D01*
X160139142Y-117006714D01*
X160091523Y-117101952D01*
X160043904Y-117149571D01*
X159948666Y-117197190D01*
X159567714Y-117197190D01*
X161091523Y-117673380D02*
X160520095Y-117673380D01*
X160805809Y-117673380D02*
X160805809Y-116673380D01*
X160710571Y-116816238D01*
X160615333Y-116911476D01*
X160520095Y-116959095D01*
X161948666Y-116673380D02*
X161758190Y-116673380D01*
X161662952Y-116721000D01*
X161615333Y-116768619D01*
X161520095Y-116911476D01*
X161472476Y-117101952D01*
X161472476Y-117482904D01*
X161520095Y-117578142D01*
X161567714Y-117625761D01*
X161662952Y-117673380D01*
X161853428Y-117673380D01*
X161948666Y-117625761D01*
X161996285Y-117578142D01*
X162043904Y-117482904D01*
X162043904Y-117244809D01*
X161996285Y-117149571D01*
X161948666Y-117101952D01*
X161853428Y-117054333D01*
X161662952Y-117054333D01*
X161567714Y-117101952D01*
X161520095Y-117149571D01*
X161472476Y-117244809D01*
%TO.C,D2*%
X109243904Y-130754380D02*
X109243904Y-129754380D01*
X109482000Y-129754380D01*
X109624857Y-129802000D01*
X109720095Y-129897238D01*
X109767714Y-129992476D01*
X109815333Y-130182952D01*
X109815333Y-130325809D01*
X109767714Y-130516285D01*
X109720095Y-130611523D01*
X109624857Y-130706761D01*
X109482000Y-130754380D01*
X109243904Y-130754380D01*
X110196285Y-129849619D02*
X110243904Y-129802000D01*
X110339142Y-129754380D01*
X110577238Y-129754380D01*
X110672476Y-129802000D01*
X110720095Y-129849619D01*
X110767714Y-129944857D01*
X110767714Y-130040095D01*
X110720095Y-130182952D01*
X110148666Y-130754380D01*
X110767714Y-130754380D01*
%TO.C,R18*%
X120213380Y-127134857D02*
X119737190Y-127468190D01*
X120213380Y-127706285D02*
X119213380Y-127706285D01*
X119213380Y-127325333D01*
X119261000Y-127230095D01*
X119308619Y-127182476D01*
X119403857Y-127134857D01*
X119546714Y-127134857D01*
X119641952Y-127182476D01*
X119689571Y-127230095D01*
X119737190Y-127325333D01*
X119737190Y-127706285D01*
X120213380Y-126182476D02*
X120213380Y-126753904D01*
X120213380Y-126468190D02*
X119213380Y-126468190D01*
X119356238Y-126563428D01*
X119451476Y-126658666D01*
X119499095Y-126753904D01*
X119641952Y-125611047D02*
X119594333Y-125706285D01*
X119546714Y-125753904D01*
X119451476Y-125801523D01*
X119403857Y-125801523D01*
X119308619Y-125753904D01*
X119261000Y-125706285D01*
X119213380Y-125611047D01*
X119213380Y-125420571D01*
X119261000Y-125325333D01*
X119308619Y-125277714D01*
X119403857Y-125230095D01*
X119451476Y-125230095D01*
X119546714Y-125277714D01*
X119594333Y-125325333D01*
X119641952Y-125420571D01*
X119641952Y-125611047D01*
X119689571Y-125706285D01*
X119737190Y-125753904D01*
X119832428Y-125801523D01*
X120022904Y-125801523D01*
X120118142Y-125753904D01*
X120165761Y-125706285D01*
X120213380Y-125611047D01*
X120213380Y-125420571D01*
X120165761Y-125325333D01*
X120118142Y-125277714D01*
X120022904Y-125230095D01*
X119832428Y-125230095D01*
X119737190Y-125277714D01*
X119689571Y-125325333D01*
X119641952Y-125420571D01*
%TO.C,D1*%
X72423904Y-131008380D02*
X72423904Y-130008380D01*
X72662000Y-130008380D01*
X72804857Y-130056000D01*
X72900095Y-130151238D01*
X72947714Y-130246476D01*
X72995333Y-130436952D01*
X72995333Y-130579809D01*
X72947714Y-130770285D01*
X72900095Y-130865523D01*
X72804857Y-130960761D01*
X72662000Y-131008380D01*
X72423904Y-131008380D01*
X73947714Y-131008380D02*
X73376285Y-131008380D01*
X73662000Y-131008380D02*
X73662000Y-130008380D01*
X73566761Y-130151238D01*
X73471523Y-130246476D01*
X73376285Y-130294095D01*
%TO.C,R17*%
X74297142Y-124785380D02*
X73963809Y-124309190D01*
X73725714Y-124785380D02*
X73725714Y-123785380D01*
X74106666Y-123785380D01*
X74201904Y-123833000D01*
X74249523Y-123880619D01*
X74297142Y-123975857D01*
X74297142Y-124118714D01*
X74249523Y-124213952D01*
X74201904Y-124261571D01*
X74106666Y-124309190D01*
X73725714Y-124309190D01*
X75249523Y-124785380D02*
X74678095Y-124785380D01*
X74963809Y-124785380D02*
X74963809Y-123785380D01*
X74868571Y-123928238D01*
X74773333Y-124023476D01*
X74678095Y-124071095D01*
X75582857Y-123785380D02*
X76249523Y-123785380D01*
X75820952Y-124785380D01*
%TO.C,U8*%
X106426095Y-106640380D02*
X106426095Y-107449904D01*
X106473714Y-107545142D01*
X106521333Y-107592761D01*
X106616571Y-107640380D01*
X106807047Y-107640380D01*
X106902285Y-107592761D01*
X106949904Y-107545142D01*
X106997523Y-107449904D01*
X106997523Y-106640380D01*
X107616571Y-107068952D02*
X107521333Y-107021333D01*
X107473714Y-106973714D01*
X107426095Y-106878476D01*
X107426095Y-106830857D01*
X107473714Y-106735619D01*
X107521333Y-106688000D01*
X107616571Y-106640380D01*
X107807047Y-106640380D01*
X107902285Y-106688000D01*
X107949904Y-106735619D01*
X107997523Y-106830857D01*
X107997523Y-106878476D01*
X107949904Y-106973714D01*
X107902285Y-107021333D01*
X107807047Y-107068952D01*
X107616571Y-107068952D01*
X107521333Y-107116571D01*
X107473714Y-107164190D01*
X107426095Y-107259428D01*
X107426095Y-107449904D01*
X107473714Y-107545142D01*
X107521333Y-107592761D01*
X107616571Y-107640380D01*
X107807047Y-107640380D01*
X107902285Y-107592761D01*
X107949904Y-107545142D01*
X107997523Y-107449904D01*
X107997523Y-107259428D01*
X107949904Y-107164190D01*
X107902285Y-107116571D01*
X107807047Y-107068952D01*
%TO.C,J5*%
X55038666Y-95464380D02*
X55038666Y-96178666D01*
X54991047Y-96321523D01*
X54895809Y-96416761D01*
X54752952Y-96464380D01*
X54657714Y-96464380D01*
X55991047Y-95464380D02*
X55514857Y-95464380D01*
X55467238Y-95940571D01*
X55514857Y-95892952D01*
X55610095Y-95845333D01*
X55848190Y-95845333D01*
X55943428Y-95892952D01*
X55991047Y-95940571D01*
X56038666Y-96035809D01*
X56038666Y-96273904D01*
X55991047Y-96369142D01*
X55943428Y-96416761D01*
X55848190Y-96464380D01*
X55610095Y-96464380D01*
X55514857Y-96416761D01*
X55467238Y-96369142D01*
%TO.C,D3*%
X203985904Y-135072380D02*
X203985904Y-134072380D01*
X204224000Y-134072380D01*
X204366857Y-134120000D01*
X204462095Y-134215238D01*
X204509714Y-134310476D01*
X204557333Y-134500952D01*
X204557333Y-134643809D01*
X204509714Y-134834285D01*
X204462095Y-134929523D01*
X204366857Y-135024761D01*
X204224000Y-135072380D01*
X203985904Y-135072380D01*
X204890666Y-134072380D02*
X205509714Y-134072380D01*
X205176380Y-134453333D01*
X205319238Y-134453333D01*
X205414476Y-134500952D01*
X205462095Y-134548571D01*
X205509714Y-134643809D01*
X205509714Y-134881904D01*
X205462095Y-134977142D01*
X205414476Y-135024761D01*
X205319238Y-135072380D01*
X205033523Y-135072380D01*
X204938285Y-135024761D01*
X204890666Y-134977142D01*
%TO.C,R20*%
X204462142Y-124531380D02*
X204128809Y-124055190D01*
X203890714Y-124531380D02*
X203890714Y-123531380D01*
X204271666Y-123531380D01*
X204366904Y-123579000D01*
X204414523Y-123626619D01*
X204462142Y-123721857D01*
X204462142Y-123864714D01*
X204414523Y-123959952D01*
X204366904Y-124007571D01*
X204271666Y-124055190D01*
X203890714Y-124055190D01*
X204843095Y-123626619D02*
X204890714Y-123579000D01*
X204985952Y-123531380D01*
X205224047Y-123531380D01*
X205319285Y-123579000D01*
X205366904Y-123626619D01*
X205414523Y-123721857D01*
X205414523Y-123817095D01*
X205366904Y-123959952D01*
X204795476Y-124531380D01*
X205414523Y-124531380D01*
X206033571Y-123531380D02*
X206128809Y-123531380D01*
X206224047Y-123579000D01*
X206271666Y-123626619D01*
X206319285Y-123721857D01*
X206366904Y-123912333D01*
X206366904Y-124150428D01*
X206319285Y-124340904D01*
X206271666Y-124436142D01*
X206224047Y-124483761D01*
X206128809Y-124531380D01*
X206033571Y-124531380D01*
X205938333Y-124483761D01*
X205890714Y-124436142D01*
X205843095Y-124340904D01*
X205795476Y-124150428D01*
X205795476Y-123912333D01*
X205843095Y-123721857D01*
X205890714Y-123626619D01*
X205938333Y-123579000D01*
X206033571Y-123531380D01*
%TO.C,C12*%
X164330142Y-89003142D02*
X164282523Y-89050761D01*
X164139666Y-89098380D01*
X164044428Y-89098380D01*
X163901571Y-89050761D01*
X163806333Y-88955523D01*
X163758714Y-88860285D01*
X163711095Y-88669809D01*
X163711095Y-88526952D01*
X163758714Y-88336476D01*
X163806333Y-88241238D01*
X163901571Y-88146000D01*
X164044428Y-88098380D01*
X164139666Y-88098380D01*
X164282523Y-88146000D01*
X164330142Y-88193619D01*
X165282523Y-89098380D02*
X164711095Y-89098380D01*
X164996809Y-89098380D02*
X164996809Y-88098380D01*
X164901571Y-88241238D01*
X164806333Y-88336476D01*
X164711095Y-88384095D01*
X165663476Y-88193619D02*
X165711095Y-88146000D01*
X165806333Y-88098380D01*
X166044428Y-88098380D01*
X166139666Y-88146000D01*
X166187285Y-88193619D01*
X166234904Y-88288857D01*
X166234904Y-88384095D01*
X166187285Y-88526952D01*
X165615857Y-89098380D01*
X166234904Y-89098380D01*
%TO.C,C13*%
X164330142Y-98020142D02*
X164282523Y-98067761D01*
X164139666Y-98115380D01*
X164044428Y-98115380D01*
X163901571Y-98067761D01*
X163806333Y-97972523D01*
X163758714Y-97877285D01*
X163711095Y-97686809D01*
X163711095Y-97543952D01*
X163758714Y-97353476D01*
X163806333Y-97258238D01*
X163901571Y-97163000D01*
X164044428Y-97115380D01*
X164139666Y-97115380D01*
X164282523Y-97163000D01*
X164330142Y-97210619D01*
X165282523Y-98115380D02*
X164711095Y-98115380D01*
X164996809Y-98115380D02*
X164996809Y-97115380D01*
X164901571Y-97258238D01*
X164806333Y-97353476D01*
X164711095Y-97401095D01*
X165615857Y-97115380D02*
X166234904Y-97115380D01*
X165901571Y-97496333D01*
X166044428Y-97496333D01*
X166139666Y-97543952D01*
X166187285Y-97591571D01*
X166234904Y-97686809D01*
X166234904Y-97924904D01*
X166187285Y-98020142D01*
X166139666Y-98067761D01*
X166044428Y-98115380D01*
X165758714Y-98115380D01*
X165663476Y-98067761D01*
X165615857Y-98020142D01*
%TO.C,R22*%
X206065380Y-98559857D02*
X205589190Y-98893190D01*
X206065380Y-99131285D02*
X205065380Y-99131285D01*
X205065380Y-98750333D01*
X205113000Y-98655095D01*
X205160619Y-98607476D01*
X205255857Y-98559857D01*
X205398714Y-98559857D01*
X205493952Y-98607476D01*
X205541571Y-98655095D01*
X205589190Y-98750333D01*
X205589190Y-99131285D01*
X205160619Y-98178904D02*
X205113000Y-98131285D01*
X205065380Y-98036047D01*
X205065380Y-97797952D01*
X205113000Y-97702714D01*
X205160619Y-97655095D01*
X205255857Y-97607476D01*
X205351095Y-97607476D01*
X205493952Y-97655095D01*
X206065380Y-98226523D01*
X206065380Y-97607476D01*
X205160619Y-97226523D02*
X205113000Y-97178904D01*
X205065380Y-97083666D01*
X205065380Y-96845571D01*
X205113000Y-96750333D01*
X205160619Y-96702714D01*
X205255857Y-96655095D01*
X205351095Y-96655095D01*
X205493952Y-96702714D01*
X206065380Y-97274142D01*
X206065380Y-96655095D01*
%TO.C,R23*%
X208859380Y-98686857D02*
X208383190Y-99020190D01*
X208859380Y-99258285D02*
X207859380Y-99258285D01*
X207859380Y-98877333D01*
X207907000Y-98782095D01*
X207954619Y-98734476D01*
X208049857Y-98686857D01*
X208192714Y-98686857D01*
X208287952Y-98734476D01*
X208335571Y-98782095D01*
X208383190Y-98877333D01*
X208383190Y-99258285D01*
X207954619Y-98305904D02*
X207907000Y-98258285D01*
X207859380Y-98163047D01*
X207859380Y-97924952D01*
X207907000Y-97829714D01*
X207954619Y-97782095D01*
X208049857Y-97734476D01*
X208145095Y-97734476D01*
X208287952Y-97782095D01*
X208859380Y-98353523D01*
X208859380Y-97734476D01*
X207859380Y-97401142D02*
X207859380Y-96782095D01*
X208240333Y-97115428D01*
X208240333Y-96972571D01*
X208287952Y-96877333D01*
X208335571Y-96829714D01*
X208430809Y-96782095D01*
X208668904Y-96782095D01*
X208764142Y-96829714D01*
X208811761Y-96877333D01*
X208859380Y-96972571D01*
X208859380Y-97258285D01*
X208811761Y-97353523D01*
X208764142Y-97401142D01*
%TO.C,C16*%
X197243142Y-112371142D02*
X197195523Y-112418761D01*
X197052666Y-112466380D01*
X196957428Y-112466380D01*
X196814571Y-112418761D01*
X196719333Y-112323523D01*
X196671714Y-112228285D01*
X196624095Y-112037809D01*
X196624095Y-111894952D01*
X196671714Y-111704476D01*
X196719333Y-111609238D01*
X196814571Y-111514000D01*
X196957428Y-111466380D01*
X197052666Y-111466380D01*
X197195523Y-111514000D01*
X197243142Y-111561619D01*
X198195523Y-112466380D02*
X197624095Y-112466380D01*
X197909809Y-112466380D02*
X197909809Y-111466380D01*
X197814571Y-111609238D01*
X197719333Y-111704476D01*
X197624095Y-111752095D01*
X199052666Y-111466380D02*
X198862190Y-111466380D01*
X198766952Y-111514000D01*
X198719333Y-111561619D01*
X198624095Y-111704476D01*
X198576476Y-111894952D01*
X198576476Y-112275904D01*
X198624095Y-112371142D01*
X198671714Y-112418761D01*
X198766952Y-112466380D01*
X198957428Y-112466380D01*
X199052666Y-112418761D01*
X199100285Y-112371142D01*
X199147904Y-112275904D01*
X199147904Y-112037809D01*
X199100285Y-111942571D01*
X199052666Y-111894952D01*
X198957428Y-111847333D01*
X198766952Y-111847333D01*
X198671714Y-111894952D01*
X198624095Y-111942571D01*
X198576476Y-112037809D01*
%TO.C,R24*%
X204462142Y-121102380D02*
X204128809Y-120626190D01*
X203890714Y-121102380D02*
X203890714Y-120102380D01*
X204271666Y-120102380D01*
X204366904Y-120150000D01*
X204414523Y-120197619D01*
X204462142Y-120292857D01*
X204462142Y-120435714D01*
X204414523Y-120530952D01*
X204366904Y-120578571D01*
X204271666Y-120626190D01*
X203890714Y-120626190D01*
X204843095Y-120197619D02*
X204890714Y-120150000D01*
X204985952Y-120102380D01*
X205224047Y-120102380D01*
X205319285Y-120150000D01*
X205366904Y-120197619D01*
X205414523Y-120292857D01*
X205414523Y-120388095D01*
X205366904Y-120530952D01*
X204795476Y-121102380D01*
X205414523Y-121102380D01*
X206271666Y-120435714D02*
X206271666Y-121102380D01*
X206033571Y-120054761D02*
X205795476Y-120769047D01*
X206414523Y-120769047D01*
%TO.C,U10*%
X206335380Y-112363095D02*
X207144904Y-112363095D01*
X207240142Y-112315476D01*
X207287761Y-112267857D01*
X207335380Y-112172619D01*
X207335380Y-111982142D01*
X207287761Y-111886904D01*
X207240142Y-111839285D01*
X207144904Y-111791666D01*
X206335380Y-111791666D01*
X207335380Y-110791666D02*
X207335380Y-111363095D01*
X207335380Y-111077380D02*
X206335380Y-111077380D01*
X206478238Y-111172619D01*
X206573476Y-111267857D01*
X206621095Y-111363095D01*
X206335380Y-110172619D02*
X206335380Y-110077380D01*
X206383000Y-109982142D01*
X206430619Y-109934523D01*
X206525857Y-109886904D01*
X206716333Y-109839285D01*
X206954428Y-109839285D01*
X207144904Y-109886904D01*
X207240142Y-109934523D01*
X207287761Y-109982142D01*
X207335380Y-110077380D01*
X207335380Y-110172619D01*
X207287761Y-110267857D01*
X207240142Y-110315476D01*
X207144904Y-110363095D01*
X206954428Y-110410714D01*
X206716333Y-110410714D01*
X206525857Y-110363095D01*
X206430619Y-110315476D01*
X206383000Y-110267857D01*
X206335380Y-110172619D01*
%TO.C,U7*%
X184023095Y-85431380D02*
X184023095Y-86240904D01*
X184070714Y-86336142D01*
X184118333Y-86383761D01*
X184213571Y-86431380D01*
X184404047Y-86431380D01*
X184499285Y-86383761D01*
X184546904Y-86336142D01*
X184594523Y-86240904D01*
X184594523Y-85431380D01*
X184975476Y-85431380D02*
X185642142Y-85431380D01*
X185213571Y-86431380D01*
%TO.C,U9*%
X206462380Y-67309904D02*
X207271904Y-67309904D01*
X207367142Y-67262285D01*
X207414761Y-67214666D01*
X207462380Y-67119428D01*
X207462380Y-66928952D01*
X207414761Y-66833714D01*
X207367142Y-66786095D01*
X207271904Y-66738476D01*
X206462380Y-66738476D01*
X207462380Y-66214666D02*
X207462380Y-66024190D01*
X207414761Y-65928952D01*
X207367142Y-65881333D01*
X207224285Y-65786095D01*
X207033809Y-65738476D01*
X206652857Y-65738476D01*
X206557619Y-65786095D01*
X206510000Y-65833714D01*
X206462380Y-65928952D01*
X206462380Y-66119428D01*
X206510000Y-66214666D01*
X206557619Y-66262285D01*
X206652857Y-66309904D01*
X206890952Y-66309904D01*
X206986190Y-66262285D01*
X207033809Y-66214666D01*
X207081428Y-66119428D01*
X207081428Y-65928952D01*
X207033809Y-65833714D01*
X206986190Y-65786095D01*
X206890952Y-65738476D01*
%TO.C,D4*%
X113434904Y-63024380D02*
X113434904Y-62024380D01*
X113673000Y-62024380D01*
X113815857Y-62072000D01*
X113911095Y-62167238D01*
X113958714Y-62262476D01*
X114006333Y-62452952D01*
X114006333Y-62595809D01*
X113958714Y-62786285D01*
X113911095Y-62881523D01*
X113815857Y-62976761D01*
X113673000Y-63024380D01*
X113434904Y-63024380D01*
X114863476Y-62357714D02*
X114863476Y-63024380D01*
X114625380Y-61976761D02*
X114387285Y-62691047D01*
X115006333Y-62691047D01*
X108649190Y-68944380D02*
X108173000Y-68944380D01*
X108173000Y-67944380D01*
X108982523Y-68420571D02*
X109315857Y-68420571D01*
X109458714Y-68944380D02*
X108982523Y-68944380D01*
X108982523Y-67944380D01*
X109458714Y-67944380D01*
X109887285Y-68944380D02*
X109887285Y-67944380D01*
X110125380Y-67944380D01*
X110268238Y-67992000D01*
X110363476Y-68087238D01*
X110411095Y-68182476D01*
X110458714Y-68372952D01*
X110458714Y-68515809D01*
X110411095Y-68706285D01*
X110363476Y-68801523D01*
X110268238Y-68896761D01*
X110125380Y-68944380D01*
X109887285Y-68944380D01*
X110649190Y-69039619D02*
X111411095Y-69039619D01*
X111553952Y-68277714D02*
X111792047Y-68944380D01*
X112030142Y-68277714D02*
X111792047Y-68944380D01*
X111696809Y-69182476D01*
X111649190Y-69230095D01*
X111553952Y-69277714D01*
X112792047Y-68896761D02*
X112696809Y-68944380D01*
X112506333Y-68944380D01*
X112411095Y-68896761D01*
X112363476Y-68801523D01*
X112363476Y-68420571D01*
X112411095Y-68325333D01*
X112506333Y-68277714D01*
X112696809Y-68277714D01*
X112792047Y-68325333D01*
X112839666Y-68420571D01*
X112839666Y-68515809D01*
X112363476Y-68611047D01*
X113411095Y-68944380D02*
X113315857Y-68896761D01*
X113268238Y-68801523D01*
X113268238Y-67944380D01*
X113934904Y-68944380D02*
X113839666Y-68896761D01*
X113792047Y-68801523D01*
X113792047Y-67944380D01*
X114458714Y-68944380D02*
X114363476Y-68896761D01*
X114315857Y-68849142D01*
X114268238Y-68753904D01*
X114268238Y-68468190D01*
X114315857Y-68372952D01*
X114363476Y-68325333D01*
X114458714Y-68277714D01*
X114601571Y-68277714D01*
X114696809Y-68325333D01*
X114744428Y-68372952D01*
X114792047Y-68468190D01*
X114792047Y-68753904D01*
X114744428Y-68849142D01*
X114696809Y-68896761D01*
X114601571Y-68944380D01*
X114458714Y-68944380D01*
X115125380Y-68277714D02*
X115315857Y-68944380D01*
X115506333Y-68468190D01*
X115696809Y-68944380D01*
X115887285Y-68277714D01*
X116030142Y-69039619D02*
X116792047Y-69039619D01*
X116934904Y-67944380D02*
X117553952Y-67944380D01*
X117220619Y-68325333D01*
X117363476Y-68325333D01*
X117458714Y-68372952D01*
X117506333Y-68420571D01*
X117553952Y-68515809D01*
X117553952Y-68753904D01*
X117506333Y-68849142D01*
X117458714Y-68896761D01*
X117363476Y-68944380D01*
X117077761Y-68944380D01*
X116982523Y-68896761D01*
X116934904Y-68849142D01*
X117982523Y-68944380D02*
X117982523Y-68277714D01*
X117982523Y-68372952D02*
X118030142Y-68325333D01*
X118125380Y-68277714D01*
X118268238Y-68277714D01*
X118363476Y-68325333D01*
X118411095Y-68420571D01*
X118411095Y-68944380D01*
X118411095Y-68420571D02*
X118458714Y-68325333D01*
X118553952Y-68277714D01*
X118696809Y-68277714D01*
X118792047Y-68325333D01*
X118839666Y-68420571D01*
X118839666Y-68944380D01*
X119315857Y-68944380D02*
X119315857Y-68277714D01*
X119315857Y-68372952D02*
X119363476Y-68325333D01*
X119458714Y-68277714D01*
X119601571Y-68277714D01*
X119696809Y-68325333D01*
X119744428Y-68420571D01*
X119744428Y-68944380D01*
X119744428Y-68420571D02*
X119792047Y-68325333D01*
X119887285Y-68277714D01*
X120030142Y-68277714D01*
X120125380Y-68325333D01*
X120173000Y-68420571D01*
X120173000Y-68944380D01*
%TO.C,R25*%
X107640380Y-61983857D02*
X107164190Y-62317190D01*
X107640380Y-62555285D02*
X106640380Y-62555285D01*
X106640380Y-62174333D01*
X106688000Y-62079095D01*
X106735619Y-62031476D01*
X106830857Y-61983857D01*
X106973714Y-61983857D01*
X107068952Y-62031476D01*
X107116571Y-62079095D01*
X107164190Y-62174333D01*
X107164190Y-62555285D01*
X106735619Y-61602904D02*
X106688000Y-61555285D01*
X106640380Y-61460047D01*
X106640380Y-61221952D01*
X106688000Y-61126714D01*
X106735619Y-61079095D01*
X106830857Y-61031476D01*
X106926095Y-61031476D01*
X107068952Y-61079095D01*
X107640380Y-61650523D01*
X107640380Y-61031476D01*
X106640380Y-60126714D02*
X106640380Y-60602904D01*
X107116571Y-60650523D01*
X107068952Y-60602904D01*
X107021333Y-60507666D01*
X107021333Y-60269571D01*
X107068952Y-60174333D01*
X107116571Y-60126714D01*
X107211809Y-60079095D01*
X107449904Y-60079095D01*
X107545142Y-60126714D01*
X107592761Y-60174333D01*
X107640380Y-60269571D01*
X107640380Y-60507666D01*
X107592761Y-60602904D01*
X107545142Y-60650523D01*
%TO.C,R29*%
X205986142Y-59634380D02*
X205652809Y-59158190D01*
X205414714Y-59634380D02*
X205414714Y-58634380D01*
X205795666Y-58634380D01*
X205890904Y-58682000D01*
X205938523Y-58729619D01*
X205986142Y-58824857D01*
X205986142Y-58967714D01*
X205938523Y-59062952D01*
X205890904Y-59110571D01*
X205795666Y-59158190D01*
X205414714Y-59158190D01*
X206367095Y-58729619D02*
X206414714Y-58682000D01*
X206509952Y-58634380D01*
X206748047Y-58634380D01*
X206843285Y-58682000D01*
X206890904Y-58729619D01*
X206938523Y-58824857D01*
X206938523Y-58920095D01*
X206890904Y-59062952D01*
X206319476Y-59634380D01*
X206938523Y-59634380D01*
X207414714Y-59634380D02*
X207605190Y-59634380D01*
X207700428Y-59586761D01*
X207748047Y-59539142D01*
X207843285Y-59396285D01*
X207890904Y-59205809D01*
X207890904Y-58824857D01*
X207843285Y-58729619D01*
X207795666Y-58682000D01*
X207700428Y-58634380D01*
X207509952Y-58634380D01*
X207414714Y-58682000D01*
X207367095Y-58729619D01*
X207319476Y-58824857D01*
X207319476Y-59062952D01*
X207367095Y-59158190D01*
X207414714Y-59205809D01*
X207509952Y-59253428D01*
X207700428Y-59253428D01*
X207795666Y-59205809D01*
X207843285Y-59158190D01*
X207890904Y-59062952D01*
%TO.C,R30*%
X202684142Y-77795380D02*
X202350809Y-77319190D01*
X202112714Y-77795380D02*
X202112714Y-76795380D01*
X202493666Y-76795380D01*
X202588904Y-76843000D01*
X202636523Y-76890619D01*
X202684142Y-76985857D01*
X202684142Y-77128714D01*
X202636523Y-77223952D01*
X202588904Y-77271571D01*
X202493666Y-77319190D01*
X202112714Y-77319190D01*
X203017476Y-76795380D02*
X203636523Y-76795380D01*
X203303190Y-77176333D01*
X203446047Y-77176333D01*
X203541285Y-77223952D01*
X203588904Y-77271571D01*
X203636523Y-77366809D01*
X203636523Y-77604904D01*
X203588904Y-77700142D01*
X203541285Y-77747761D01*
X203446047Y-77795380D01*
X203160333Y-77795380D01*
X203065095Y-77747761D01*
X203017476Y-77700142D01*
X204255571Y-76795380D02*
X204350809Y-76795380D01*
X204446047Y-76843000D01*
X204493666Y-76890619D01*
X204541285Y-76985857D01*
X204588904Y-77176333D01*
X204588904Y-77414428D01*
X204541285Y-77604904D01*
X204493666Y-77700142D01*
X204446047Y-77747761D01*
X204350809Y-77795380D01*
X204255571Y-77795380D01*
X204160333Y-77747761D01*
X204112714Y-77700142D01*
X204065095Y-77604904D01*
X204017476Y-77414428D01*
X204017476Y-77176333D01*
X204065095Y-76985857D01*
X204112714Y-76890619D01*
X204160333Y-76843000D01*
X204255571Y-76795380D01*
%TO.C,SW2*%
X68907666Y-57554761D02*
X69050523Y-57602380D01*
X69288619Y-57602380D01*
X69383857Y-57554761D01*
X69431476Y-57507142D01*
X69479095Y-57411904D01*
X69479095Y-57316666D01*
X69431476Y-57221428D01*
X69383857Y-57173809D01*
X69288619Y-57126190D01*
X69098142Y-57078571D01*
X69002904Y-57030952D01*
X68955285Y-56983333D01*
X68907666Y-56888095D01*
X68907666Y-56792857D01*
X68955285Y-56697619D01*
X69002904Y-56650000D01*
X69098142Y-56602380D01*
X69336238Y-56602380D01*
X69479095Y-56650000D01*
X69812428Y-56602380D02*
X70050523Y-57602380D01*
X70241000Y-56888095D01*
X70431476Y-57602380D01*
X70669571Y-56602380D01*
X71002904Y-56697619D02*
X71050523Y-56650000D01*
X71145761Y-56602380D01*
X71383857Y-56602380D01*
X71479095Y-56650000D01*
X71526714Y-56697619D01*
X71574333Y-56792857D01*
X71574333Y-56888095D01*
X71526714Y-57030952D01*
X70955285Y-57602380D01*
X71574333Y-57602380D01*
%TO.C,SW1*%
X137604666Y-120673761D02*
X137747523Y-120721380D01*
X137985619Y-120721380D01*
X138080857Y-120673761D01*
X138128476Y-120626142D01*
X138176095Y-120530904D01*
X138176095Y-120435666D01*
X138128476Y-120340428D01*
X138080857Y-120292809D01*
X137985619Y-120245190D01*
X137795142Y-120197571D01*
X137699904Y-120149952D01*
X137652285Y-120102333D01*
X137604666Y-120007095D01*
X137604666Y-119911857D01*
X137652285Y-119816619D01*
X137699904Y-119769000D01*
X137795142Y-119721380D01*
X138033238Y-119721380D01*
X138176095Y-119769000D01*
X138509428Y-119721380D02*
X138747523Y-120721380D01*
X138938000Y-120007095D01*
X139128476Y-120721380D01*
X139366571Y-119721380D01*
X140271333Y-120721380D02*
X139699904Y-120721380D01*
X139985619Y-120721380D02*
X139985619Y-119721380D01*
X139890380Y-119864238D01*
X139795142Y-119959476D01*
X139699904Y-120007095D01*
%TD*%
M02*
