%TF.GenerationSoftware,KiCad,Pcbnew,8.0.1*%
%TF.CreationDate,2024-04-17T00:29:27+02:00*%
%TF.ProjectId,Solaranlage,536f6c61-7261-46e6-9c61-67652e6b6963,rev?*%
%TF.SameCoordinates,Original*%
%TF.FileFunction,Legend,Bot*%
%TF.FilePolarity,Positive*%
%FSLAX46Y46*%
G04 Gerber Fmt 4.6, Leading zero omitted, Abs format (unit mm)*
G04 Created by KiCad (PCBNEW 8.0.1) date 2024-04-17 00:29:27*
%MOMM*%
%LPD*%
G01*
G04 APERTURE LIST*
%ADD10C,0.300000*%
%ADD11C,0.150000*%
%ADD12C,0.120000*%
G04 APERTURE END LIST*
D10*
X225658857Y-91864328D02*
X225658857Y-90364328D01*
X225658857Y-90364328D02*
X225301714Y-90364328D01*
X225301714Y-90364328D02*
X225087428Y-90435757D01*
X225087428Y-90435757D02*
X224944571Y-90578614D01*
X224944571Y-90578614D02*
X224873142Y-90721471D01*
X224873142Y-90721471D02*
X224801714Y-91007185D01*
X224801714Y-91007185D02*
X224801714Y-91221471D01*
X224801714Y-91221471D02*
X224873142Y-91507185D01*
X224873142Y-91507185D02*
X224944571Y-91650042D01*
X224944571Y-91650042D02*
X225087428Y-91792900D01*
X225087428Y-91792900D02*
X225301714Y-91864328D01*
X225301714Y-91864328D02*
X225658857Y-91864328D01*
X223516000Y-91864328D02*
X223516000Y-91078614D01*
X223516000Y-91078614D02*
X223587428Y-90935757D01*
X223587428Y-90935757D02*
X223730285Y-90864328D01*
X223730285Y-90864328D02*
X224016000Y-90864328D01*
X224016000Y-90864328D02*
X224158857Y-90935757D01*
X223516000Y-91792900D02*
X223658857Y-91864328D01*
X223658857Y-91864328D02*
X224016000Y-91864328D01*
X224016000Y-91864328D02*
X224158857Y-91792900D01*
X224158857Y-91792900D02*
X224230285Y-91650042D01*
X224230285Y-91650042D02*
X224230285Y-91507185D01*
X224230285Y-91507185D02*
X224158857Y-91364328D01*
X224158857Y-91364328D02*
X224016000Y-91292900D01*
X224016000Y-91292900D02*
X223658857Y-91292900D01*
X223658857Y-91292900D02*
X223516000Y-91221471D01*
X222158857Y-91792900D02*
X222301714Y-91864328D01*
X222301714Y-91864328D02*
X222587428Y-91864328D01*
X222587428Y-91864328D02*
X222730285Y-91792900D01*
X222730285Y-91792900D02*
X222801714Y-91721471D01*
X222801714Y-91721471D02*
X222873142Y-91578614D01*
X222873142Y-91578614D02*
X222873142Y-91150042D01*
X222873142Y-91150042D02*
X222801714Y-91007185D01*
X222801714Y-91007185D02*
X222730285Y-90935757D01*
X222730285Y-90935757D02*
X222587428Y-90864328D01*
X222587428Y-90864328D02*
X222301714Y-90864328D01*
X222301714Y-90864328D02*
X222158857Y-90935757D01*
X221516000Y-91864328D02*
X221516000Y-90364328D01*
X220873143Y-91864328D02*
X220873143Y-91078614D01*
X220873143Y-91078614D02*
X220944571Y-90935757D01*
X220944571Y-90935757D02*
X221087428Y-90864328D01*
X221087428Y-90864328D02*
X221301714Y-90864328D01*
X221301714Y-90864328D02*
X221444571Y-90935757D01*
X221444571Y-90935757D02*
X221516000Y-91007185D01*
X226551714Y-124376328D02*
X226551714Y-122876328D01*
X225694571Y-124376328D02*
X226337428Y-123519185D01*
X225694571Y-122876328D02*
X226551714Y-123733471D01*
X224480285Y-124304900D02*
X224623142Y-124376328D01*
X224623142Y-124376328D02*
X224908857Y-124376328D01*
X224908857Y-124376328D02*
X225051714Y-124304900D01*
X225051714Y-124304900D02*
X225123142Y-124162042D01*
X225123142Y-124162042D02*
X225123142Y-123590614D01*
X225123142Y-123590614D02*
X225051714Y-123447757D01*
X225051714Y-123447757D02*
X224908857Y-123376328D01*
X224908857Y-123376328D02*
X224623142Y-123376328D01*
X224623142Y-123376328D02*
X224480285Y-123447757D01*
X224480285Y-123447757D02*
X224408857Y-123590614D01*
X224408857Y-123590614D02*
X224408857Y-123733471D01*
X224408857Y-123733471D02*
X225123142Y-123876328D01*
X223837428Y-124304900D02*
X223694571Y-124376328D01*
X223694571Y-124376328D02*
X223408857Y-124376328D01*
X223408857Y-124376328D02*
X223266000Y-124304900D01*
X223266000Y-124304900D02*
X223194571Y-124162042D01*
X223194571Y-124162042D02*
X223194571Y-124090614D01*
X223194571Y-124090614D02*
X223266000Y-123947757D01*
X223266000Y-123947757D02*
X223408857Y-123876328D01*
X223408857Y-123876328D02*
X223623143Y-123876328D01*
X223623143Y-123876328D02*
X223766000Y-123804900D01*
X223766000Y-123804900D02*
X223837428Y-123662042D01*
X223837428Y-123662042D02*
X223837428Y-123590614D01*
X223837428Y-123590614D02*
X223766000Y-123447757D01*
X223766000Y-123447757D02*
X223623143Y-123376328D01*
X223623143Y-123376328D02*
X223408857Y-123376328D01*
X223408857Y-123376328D02*
X223266000Y-123447757D01*
X222623142Y-124304900D02*
X222480285Y-124376328D01*
X222480285Y-124376328D02*
X222194571Y-124376328D01*
X222194571Y-124376328D02*
X222051714Y-124304900D01*
X222051714Y-124304900D02*
X221980285Y-124162042D01*
X221980285Y-124162042D02*
X221980285Y-124090614D01*
X221980285Y-124090614D02*
X222051714Y-123947757D01*
X222051714Y-123947757D02*
X222194571Y-123876328D01*
X222194571Y-123876328D02*
X222408857Y-123876328D01*
X222408857Y-123876328D02*
X222551714Y-123804900D01*
X222551714Y-123804900D02*
X222623142Y-123662042D01*
X222623142Y-123662042D02*
X222623142Y-123590614D01*
X222623142Y-123590614D02*
X222551714Y-123447757D01*
X222551714Y-123447757D02*
X222408857Y-123376328D01*
X222408857Y-123376328D02*
X222194571Y-123376328D01*
X222194571Y-123376328D02*
X222051714Y-123447757D01*
X220765999Y-124304900D02*
X220908856Y-124376328D01*
X220908856Y-124376328D02*
X221194571Y-124376328D01*
X221194571Y-124376328D02*
X221337428Y-124304900D01*
X221337428Y-124304900D02*
X221408856Y-124162042D01*
X221408856Y-124162042D02*
X221408856Y-123590614D01*
X221408856Y-123590614D02*
X221337428Y-123447757D01*
X221337428Y-123447757D02*
X221194571Y-123376328D01*
X221194571Y-123376328D02*
X220908856Y-123376328D01*
X220908856Y-123376328D02*
X220765999Y-123447757D01*
X220765999Y-123447757D02*
X220694571Y-123590614D01*
X220694571Y-123590614D02*
X220694571Y-123733471D01*
X220694571Y-123733471D02*
X221408856Y-123876328D01*
X219837428Y-124376328D02*
X219980285Y-124304900D01*
X219980285Y-124304900D02*
X220051714Y-124162042D01*
X220051714Y-124162042D02*
X220051714Y-122876328D01*
X165626571Y-129456328D02*
X165626571Y-127956328D01*
X165626571Y-127956328D02*
X165055142Y-127956328D01*
X165055142Y-127956328D02*
X164912285Y-128027757D01*
X164912285Y-128027757D02*
X164840856Y-128099185D01*
X164840856Y-128099185D02*
X164769428Y-128242042D01*
X164769428Y-128242042D02*
X164769428Y-128456328D01*
X164769428Y-128456328D02*
X164840856Y-128599185D01*
X164840856Y-128599185D02*
X164912285Y-128670614D01*
X164912285Y-128670614D02*
X165055142Y-128742042D01*
X165055142Y-128742042D02*
X165626571Y-128742042D01*
X163483714Y-128456328D02*
X163483714Y-129456328D01*
X164126571Y-128456328D02*
X164126571Y-129242042D01*
X164126571Y-129242042D02*
X164055142Y-129384900D01*
X164055142Y-129384900D02*
X163912285Y-129456328D01*
X163912285Y-129456328D02*
X163697999Y-129456328D01*
X163697999Y-129456328D02*
X163555142Y-129384900D01*
X163555142Y-129384900D02*
X163483714Y-129313471D01*
X162769428Y-129456328D02*
X162769428Y-128456328D01*
X162769428Y-128599185D02*
X162697999Y-128527757D01*
X162697999Y-128527757D02*
X162555142Y-128456328D01*
X162555142Y-128456328D02*
X162340856Y-128456328D01*
X162340856Y-128456328D02*
X162197999Y-128527757D01*
X162197999Y-128527757D02*
X162126571Y-128670614D01*
X162126571Y-128670614D02*
X162126571Y-129456328D01*
X162126571Y-128670614D02*
X162055142Y-128527757D01*
X162055142Y-128527757D02*
X161912285Y-128456328D01*
X161912285Y-128456328D02*
X161697999Y-128456328D01*
X161697999Y-128456328D02*
X161555142Y-128527757D01*
X161555142Y-128527757D02*
X161483713Y-128670614D01*
X161483713Y-128670614D02*
X161483713Y-129456328D01*
X160769428Y-128456328D02*
X160769428Y-129956328D01*
X160769428Y-128527757D02*
X160626571Y-128456328D01*
X160626571Y-128456328D02*
X160340856Y-128456328D01*
X160340856Y-128456328D02*
X160197999Y-128527757D01*
X160197999Y-128527757D02*
X160126571Y-128599185D01*
X160126571Y-128599185D02*
X160055142Y-128742042D01*
X160055142Y-128742042D02*
X160055142Y-129170614D01*
X160055142Y-129170614D02*
X160126571Y-129313471D01*
X160126571Y-129313471D02*
X160197999Y-129384900D01*
X160197999Y-129384900D02*
X160340856Y-129456328D01*
X160340856Y-129456328D02*
X160626571Y-129456328D01*
X160626571Y-129456328D02*
X160769428Y-129384900D01*
X158840856Y-129384900D02*
X158983713Y-129456328D01*
X158983713Y-129456328D02*
X159269428Y-129456328D01*
X159269428Y-129456328D02*
X159412285Y-129384900D01*
X159412285Y-129384900D02*
X159483713Y-129242042D01*
X159483713Y-129242042D02*
X159483713Y-128670614D01*
X159483713Y-128670614D02*
X159412285Y-128527757D01*
X159412285Y-128527757D02*
X159269428Y-128456328D01*
X159269428Y-128456328D02*
X158983713Y-128456328D01*
X158983713Y-128456328D02*
X158840856Y-128527757D01*
X158840856Y-128527757D02*
X158769428Y-128670614D01*
X158769428Y-128670614D02*
X158769428Y-128813471D01*
X158769428Y-128813471D02*
X159483713Y-128956328D01*
X156983714Y-129456328D02*
X156983714Y-127956328D01*
X156983714Y-127956328D02*
X156412285Y-127956328D01*
X156412285Y-127956328D02*
X156269428Y-128027757D01*
X156269428Y-128027757D02*
X156197999Y-128099185D01*
X156197999Y-128099185D02*
X156126571Y-128242042D01*
X156126571Y-128242042D02*
X156126571Y-128456328D01*
X156126571Y-128456328D02*
X156197999Y-128599185D01*
X156197999Y-128599185D02*
X156269428Y-128670614D01*
X156269428Y-128670614D02*
X156412285Y-128742042D01*
X156412285Y-128742042D02*
X156983714Y-128742042D01*
X155626571Y-127956328D02*
X155269428Y-129456328D01*
X155269428Y-129456328D02*
X154983714Y-128384900D01*
X154983714Y-128384900D02*
X154697999Y-129456328D01*
X154697999Y-129456328D02*
X154340857Y-127956328D01*
X153769428Y-129456328D02*
X153769428Y-127956328D01*
X153769428Y-127956328D02*
X153269428Y-129027757D01*
X153269428Y-129027757D02*
X152769428Y-127956328D01*
X152769428Y-127956328D02*
X152769428Y-129456328D01*
X98586427Y-129456328D02*
X99443570Y-129456328D01*
X99014999Y-129456328D02*
X99014999Y-127956328D01*
X99014999Y-127956328D02*
X99157856Y-128170614D01*
X99157856Y-128170614D02*
X99300713Y-128313471D01*
X99300713Y-128313471D02*
X99443570Y-128384900D01*
X97943571Y-128884900D02*
X96800714Y-128884900D01*
X96229285Y-127956328D02*
X95872142Y-129456328D01*
X95872142Y-129456328D02*
X95586428Y-128384900D01*
X95586428Y-128384900D02*
X95300713Y-129456328D01*
X95300713Y-129456328D02*
X94943571Y-127956328D01*
X94372142Y-129456328D02*
X94372142Y-128456328D01*
X94372142Y-127956328D02*
X94443570Y-128027757D01*
X94443570Y-128027757D02*
X94372142Y-128099185D01*
X94372142Y-128099185D02*
X94300713Y-128027757D01*
X94300713Y-128027757D02*
X94372142Y-127956328D01*
X94372142Y-127956328D02*
X94372142Y-128099185D01*
X93657856Y-129456328D02*
X93657856Y-128456328D01*
X93657856Y-128742042D02*
X93586427Y-128599185D01*
X93586427Y-128599185D02*
X93514999Y-128527757D01*
X93514999Y-128527757D02*
X93372141Y-128456328D01*
X93372141Y-128456328D02*
X93229284Y-128456328D01*
X92157856Y-129384900D02*
X92300713Y-129456328D01*
X92300713Y-129456328D02*
X92586428Y-129456328D01*
X92586428Y-129456328D02*
X92729285Y-129384900D01*
X92729285Y-129384900D02*
X92800713Y-129242042D01*
X92800713Y-129242042D02*
X92800713Y-128670614D01*
X92800713Y-128670614D02*
X92729285Y-128527757D01*
X92729285Y-128527757D02*
X92586428Y-128456328D01*
X92586428Y-128456328D02*
X92300713Y-128456328D01*
X92300713Y-128456328D02*
X92157856Y-128527757D01*
X92157856Y-128527757D02*
X92086428Y-128670614D01*
X92086428Y-128670614D02*
X92086428Y-128813471D01*
X92086428Y-128813471D02*
X92800713Y-128956328D01*
X110426428Y-135361900D02*
X109283571Y-135361900D01*
X109854999Y-135933328D02*
X109854999Y-134790471D01*
X81470428Y-135361900D02*
X80327571Y-135361900D01*
X148589856Y-134765757D02*
X148732714Y-134694328D01*
X148732714Y-134694328D02*
X148946999Y-134694328D01*
X148946999Y-134694328D02*
X149161285Y-134765757D01*
X149161285Y-134765757D02*
X149304142Y-134908614D01*
X149304142Y-134908614D02*
X149375571Y-135051471D01*
X149375571Y-135051471D02*
X149446999Y-135337185D01*
X149446999Y-135337185D02*
X149446999Y-135551471D01*
X149446999Y-135551471D02*
X149375571Y-135837185D01*
X149375571Y-135837185D02*
X149304142Y-135980042D01*
X149304142Y-135980042D02*
X149161285Y-136122900D01*
X149161285Y-136122900D02*
X148946999Y-136194328D01*
X148946999Y-136194328D02*
X148804142Y-136194328D01*
X148804142Y-136194328D02*
X148589856Y-136122900D01*
X148589856Y-136122900D02*
X148518428Y-136051471D01*
X148518428Y-136051471D02*
X148518428Y-135551471D01*
X148518428Y-135551471D02*
X148804142Y-135551471D01*
X147875571Y-136194328D02*
X147875571Y-134694328D01*
X147875571Y-134694328D02*
X147018428Y-136194328D01*
X147018428Y-136194328D02*
X147018428Y-134694328D01*
X146304142Y-136194328D02*
X146304142Y-134694328D01*
X146304142Y-134694328D02*
X145946999Y-134694328D01*
X145946999Y-134694328D02*
X145732713Y-134765757D01*
X145732713Y-134765757D02*
X145589856Y-134908614D01*
X145589856Y-134908614D02*
X145518427Y-135051471D01*
X145518427Y-135051471D02*
X145446999Y-135337185D01*
X145446999Y-135337185D02*
X145446999Y-135551471D01*
X145446999Y-135551471D02*
X145518427Y-135837185D01*
X145518427Y-135837185D02*
X145589856Y-135980042D01*
X145589856Y-135980042D02*
X145732713Y-136122900D01*
X145732713Y-136122900D02*
X145946999Y-136194328D01*
X145946999Y-136194328D02*
X146304142Y-136194328D01*
X78553328Y-78883286D02*
X78553328Y-78169000D01*
X78553328Y-78169000D02*
X79267614Y-78097572D01*
X79267614Y-78097572D02*
X79196185Y-78169000D01*
X79196185Y-78169000D02*
X79124757Y-78311858D01*
X79124757Y-78311858D02*
X79124757Y-78669000D01*
X79124757Y-78669000D02*
X79196185Y-78811858D01*
X79196185Y-78811858D02*
X79267614Y-78883286D01*
X79267614Y-78883286D02*
X79410471Y-78954715D01*
X79410471Y-78954715D02*
X79767614Y-78954715D01*
X79767614Y-78954715D02*
X79910471Y-78883286D01*
X79910471Y-78883286D02*
X79981900Y-78811858D01*
X79981900Y-78811858D02*
X80053328Y-78669000D01*
X80053328Y-78669000D02*
X80053328Y-78311858D01*
X80053328Y-78311858D02*
X79981900Y-78169000D01*
X79981900Y-78169000D02*
X79910471Y-78097572D01*
X78553328Y-79883286D02*
X78553328Y-80026143D01*
X78553328Y-80026143D02*
X78624757Y-80169000D01*
X78624757Y-80169000D02*
X78696185Y-80240429D01*
X78696185Y-80240429D02*
X78839042Y-80311857D01*
X78839042Y-80311857D02*
X79124757Y-80383286D01*
X79124757Y-80383286D02*
X79481900Y-80383286D01*
X79481900Y-80383286D02*
X79767614Y-80311857D01*
X79767614Y-80311857D02*
X79910471Y-80240429D01*
X79910471Y-80240429D02*
X79981900Y-80169000D01*
X79981900Y-80169000D02*
X80053328Y-80026143D01*
X80053328Y-80026143D02*
X80053328Y-79883286D01*
X80053328Y-79883286D02*
X79981900Y-79740429D01*
X79981900Y-79740429D02*
X79910471Y-79669000D01*
X79910471Y-79669000D02*
X79767614Y-79597571D01*
X79767614Y-79597571D02*
X79481900Y-79526143D01*
X79481900Y-79526143D02*
X79124757Y-79526143D01*
X79124757Y-79526143D02*
X78839042Y-79597571D01*
X78839042Y-79597571D02*
X78696185Y-79669000D01*
X78696185Y-79669000D02*
X78624757Y-79740429D01*
X78624757Y-79740429D02*
X78553328Y-79883286D01*
X78553328Y-81311857D02*
X78553328Y-81454714D01*
X78553328Y-81454714D02*
X78624757Y-81597571D01*
X78624757Y-81597571D02*
X78696185Y-81669000D01*
X78696185Y-81669000D02*
X78839042Y-81740428D01*
X78839042Y-81740428D02*
X79124757Y-81811857D01*
X79124757Y-81811857D02*
X79481900Y-81811857D01*
X79481900Y-81811857D02*
X79767614Y-81740428D01*
X79767614Y-81740428D02*
X79910471Y-81669000D01*
X79910471Y-81669000D02*
X79981900Y-81597571D01*
X79981900Y-81597571D02*
X80053328Y-81454714D01*
X80053328Y-81454714D02*
X80053328Y-81311857D01*
X80053328Y-81311857D02*
X79981900Y-81169000D01*
X79981900Y-81169000D02*
X79910471Y-81097571D01*
X79910471Y-81097571D02*
X79767614Y-81026142D01*
X79767614Y-81026142D02*
X79481900Y-80954714D01*
X79481900Y-80954714D02*
X79124757Y-80954714D01*
X79124757Y-80954714D02*
X78839042Y-81026142D01*
X78839042Y-81026142D02*
X78696185Y-81097571D01*
X78696185Y-81097571D02*
X78624757Y-81169000D01*
X78624757Y-81169000D02*
X78553328Y-81311857D01*
X80053328Y-83597570D02*
X79053328Y-83597570D01*
X79196185Y-83597570D02*
X79124757Y-83668999D01*
X79124757Y-83668999D02*
X79053328Y-83811856D01*
X79053328Y-83811856D02*
X79053328Y-84026142D01*
X79053328Y-84026142D02*
X79124757Y-84168999D01*
X79124757Y-84168999D02*
X79267614Y-84240428D01*
X79267614Y-84240428D02*
X80053328Y-84240428D01*
X79267614Y-84240428D02*
X79124757Y-84311856D01*
X79124757Y-84311856D02*
X79053328Y-84454713D01*
X79053328Y-84454713D02*
X79053328Y-84668999D01*
X79053328Y-84668999D02*
X79124757Y-84811856D01*
X79124757Y-84811856D02*
X79267614Y-84883285D01*
X79267614Y-84883285D02*
X80053328Y-84883285D01*
X79624757Y-85526142D02*
X79624757Y-86240428D01*
X80053328Y-85383285D02*
X78553328Y-85883285D01*
X78553328Y-85883285D02*
X80053328Y-86383285D01*
D11*
X216431714Y-95004627D02*
X216574571Y-94933199D01*
X216574571Y-94933199D02*
X216646000Y-94861770D01*
X216646000Y-94861770D02*
X216717428Y-94718913D01*
X216717428Y-94718913D02*
X216717428Y-94290341D01*
X216717428Y-94290341D02*
X216646000Y-94147484D01*
X216646000Y-94147484D02*
X216574571Y-94076056D01*
X216574571Y-94076056D02*
X216431714Y-94004627D01*
X216431714Y-94004627D02*
X216217428Y-94004627D01*
X216217428Y-94004627D02*
X216074571Y-94076056D01*
X216074571Y-94076056D02*
X216003143Y-94147484D01*
X216003143Y-94147484D02*
X215931714Y-94290341D01*
X215931714Y-94290341D02*
X215931714Y-94718913D01*
X215931714Y-94718913D02*
X216003143Y-94861770D01*
X216003143Y-94861770D02*
X216074571Y-94933199D01*
X216074571Y-94933199D02*
X216217428Y-95004627D01*
X216217428Y-95004627D02*
X216431714Y-95004627D01*
X215288857Y-94004627D02*
X215288857Y-95004627D01*
X215288857Y-94147484D02*
X215217428Y-94076056D01*
X215217428Y-94076056D02*
X215074571Y-94004627D01*
X215074571Y-94004627D02*
X214860285Y-94004627D01*
X214860285Y-94004627D02*
X214717428Y-94076056D01*
X214717428Y-94076056D02*
X214646000Y-94218913D01*
X214646000Y-94218913D02*
X214646000Y-95004627D01*
X210466143Y-96654628D02*
X210109000Y-98154628D01*
X210109000Y-98154628D02*
X209823286Y-97083200D01*
X209823286Y-97083200D02*
X209537571Y-98154628D01*
X209537571Y-98154628D02*
X209180429Y-96654628D01*
X207966143Y-98154628D02*
X207966143Y-97368914D01*
X207966143Y-97368914D02*
X208037571Y-97226057D01*
X208037571Y-97226057D02*
X208180428Y-97154628D01*
X208180428Y-97154628D02*
X208466143Y-97154628D01*
X208466143Y-97154628D02*
X208609000Y-97226057D01*
X207966143Y-98083200D02*
X208109000Y-98154628D01*
X208109000Y-98154628D02*
X208466143Y-98154628D01*
X208466143Y-98154628D02*
X208609000Y-98083200D01*
X208609000Y-98083200D02*
X208680428Y-97940342D01*
X208680428Y-97940342D02*
X208680428Y-97797485D01*
X208680428Y-97797485D02*
X208609000Y-97654628D01*
X208609000Y-97654628D02*
X208466143Y-97583200D01*
X208466143Y-97583200D02*
X208109000Y-97583200D01*
X208109000Y-97583200D02*
X207966143Y-97511771D01*
X207466142Y-97154628D02*
X206894714Y-97154628D01*
X207251857Y-96654628D02*
X207251857Y-97940342D01*
X207251857Y-97940342D02*
X207180428Y-98083200D01*
X207180428Y-98083200D02*
X207037571Y-98154628D01*
X207037571Y-98154628D02*
X206894714Y-98154628D01*
X205751857Y-98083200D02*
X205894714Y-98154628D01*
X205894714Y-98154628D02*
X206180428Y-98154628D01*
X206180428Y-98154628D02*
X206323285Y-98083200D01*
X206323285Y-98083200D02*
X206394714Y-98011771D01*
X206394714Y-98011771D02*
X206466142Y-97868914D01*
X206466142Y-97868914D02*
X206466142Y-97440342D01*
X206466142Y-97440342D02*
X206394714Y-97297485D01*
X206394714Y-97297485D02*
X206323285Y-97226057D01*
X206323285Y-97226057D02*
X206180428Y-97154628D01*
X206180428Y-97154628D02*
X205894714Y-97154628D01*
X205894714Y-97154628D02*
X205751857Y-97226057D01*
X205109000Y-98154628D02*
X205109000Y-96654628D01*
X204466143Y-98154628D02*
X204466143Y-97368914D01*
X204466143Y-97368914D02*
X204537571Y-97226057D01*
X204537571Y-97226057D02*
X204680428Y-97154628D01*
X204680428Y-97154628D02*
X204894714Y-97154628D01*
X204894714Y-97154628D02*
X205037571Y-97226057D01*
X205037571Y-97226057D02*
X205109000Y-97297485D01*
X203109000Y-98154628D02*
X203109000Y-96654628D01*
X203109000Y-98083200D02*
X203251857Y-98154628D01*
X203251857Y-98154628D02*
X203537571Y-98154628D01*
X203537571Y-98154628D02*
X203680428Y-98083200D01*
X203680428Y-98083200D02*
X203751857Y-98011771D01*
X203751857Y-98011771D02*
X203823285Y-97868914D01*
X203823285Y-97868914D02*
X203823285Y-97440342D01*
X203823285Y-97440342D02*
X203751857Y-97297485D01*
X203751857Y-97297485D02*
X203680428Y-97226057D01*
X203680428Y-97226057D02*
X203537571Y-97154628D01*
X203537571Y-97154628D02*
X203251857Y-97154628D01*
X203251857Y-97154628D02*
X203109000Y-97226057D01*
X202180428Y-98154628D02*
X202323285Y-98083200D01*
X202323285Y-98083200D02*
X202394714Y-98011771D01*
X202394714Y-98011771D02*
X202466142Y-97868914D01*
X202466142Y-97868914D02*
X202466142Y-97440342D01*
X202466142Y-97440342D02*
X202394714Y-97297485D01*
X202394714Y-97297485D02*
X202323285Y-97226057D01*
X202323285Y-97226057D02*
X202180428Y-97154628D01*
X202180428Y-97154628D02*
X201966142Y-97154628D01*
X201966142Y-97154628D02*
X201823285Y-97226057D01*
X201823285Y-97226057D02*
X201751857Y-97297485D01*
X201751857Y-97297485D02*
X201680428Y-97440342D01*
X201680428Y-97440342D02*
X201680428Y-97868914D01*
X201680428Y-97868914D02*
X201751857Y-98011771D01*
X201751857Y-98011771D02*
X201823285Y-98083200D01*
X201823285Y-98083200D02*
X201966142Y-98154628D01*
X201966142Y-98154628D02*
X202180428Y-98154628D01*
X200394714Y-97154628D02*
X200394714Y-98368914D01*
X200394714Y-98368914D02*
X200466142Y-98511771D01*
X200466142Y-98511771D02*
X200537571Y-98583200D01*
X200537571Y-98583200D02*
X200680428Y-98654628D01*
X200680428Y-98654628D02*
X200894714Y-98654628D01*
X200894714Y-98654628D02*
X201037571Y-98583200D01*
X200394714Y-98083200D02*
X200537571Y-98154628D01*
X200537571Y-98154628D02*
X200823285Y-98154628D01*
X200823285Y-98154628D02*
X200966142Y-98083200D01*
X200966142Y-98083200D02*
X201037571Y-98011771D01*
X201037571Y-98011771D02*
X201108999Y-97868914D01*
X201108999Y-97868914D02*
X201108999Y-97440342D01*
X201108999Y-97440342D02*
X201037571Y-97297485D01*
X201037571Y-97297485D02*
X200966142Y-97226057D01*
X200966142Y-97226057D02*
X200823285Y-97154628D01*
X200823285Y-97154628D02*
X200537571Y-97154628D01*
X200537571Y-97154628D02*
X200394714Y-97226057D01*
X200754857Y-60748152D02*
X200754857Y-61557676D01*
X200754857Y-61557676D02*
X200802476Y-61652914D01*
X200802476Y-61652914D02*
X200850095Y-61700533D01*
X200850095Y-61700533D02*
X200945333Y-61748152D01*
X200945333Y-61748152D02*
X201088190Y-61748152D01*
X201088190Y-61748152D02*
X201183428Y-61700533D01*
X200754857Y-61367200D02*
X200850095Y-61414819D01*
X200850095Y-61414819D02*
X201040571Y-61414819D01*
X201040571Y-61414819D02*
X201135809Y-61367200D01*
X201135809Y-61367200D02*
X201183428Y-61319580D01*
X201183428Y-61319580D02*
X201231047Y-61224342D01*
X201231047Y-61224342D02*
X201231047Y-60938628D01*
X201231047Y-60938628D02*
X201183428Y-60843390D01*
X201183428Y-60843390D02*
X201135809Y-60795771D01*
X201135809Y-60795771D02*
X201040571Y-60748152D01*
X201040571Y-60748152D02*
X200850095Y-60748152D01*
X200850095Y-60748152D02*
X200754857Y-60795771D01*
X199850095Y-61414819D02*
X199850095Y-60891009D01*
X199850095Y-60891009D02*
X199897714Y-60795771D01*
X199897714Y-60795771D02*
X199992952Y-60748152D01*
X199992952Y-60748152D02*
X200183428Y-60748152D01*
X200183428Y-60748152D02*
X200278666Y-60795771D01*
X199850095Y-61367200D02*
X199945333Y-61414819D01*
X199945333Y-61414819D02*
X200183428Y-61414819D01*
X200183428Y-61414819D02*
X200278666Y-61367200D01*
X200278666Y-61367200D02*
X200326285Y-61271961D01*
X200326285Y-61271961D02*
X200326285Y-61176723D01*
X200326285Y-61176723D02*
X200278666Y-61081485D01*
X200278666Y-61081485D02*
X200183428Y-61033866D01*
X200183428Y-61033866D02*
X199945333Y-61033866D01*
X199945333Y-61033866D02*
X199850095Y-60986247D01*
X199373904Y-61414819D02*
X199373904Y-60748152D01*
X199373904Y-60414819D02*
X199421523Y-60462438D01*
X199421523Y-60462438D02*
X199373904Y-60510057D01*
X199373904Y-60510057D02*
X199326285Y-60462438D01*
X199326285Y-60462438D02*
X199373904Y-60414819D01*
X199373904Y-60414819D02*
X199373904Y-60510057D01*
X198897714Y-60748152D02*
X198897714Y-61414819D01*
X198897714Y-60843390D02*
X198850095Y-60795771D01*
X198850095Y-60795771D02*
X198754857Y-60748152D01*
X198754857Y-60748152D02*
X198612000Y-60748152D01*
X198612000Y-60748152D02*
X198516762Y-60795771D01*
X198516762Y-60795771D02*
X198469143Y-60891009D01*
X198469143Y-60891009D02*
X198469143Y-61414819D01*
X197231047Y-61414819D02*
X197231047Y-60414819D01*
X197231047Y-60414819D02*
X196992952Y-60414819D01*
X196992952Y-60414819D02*
X196850095Y-60462438D01*
X196850095Y-60462438D02*
X196754857Y-60557676D01*
X196754857Y-60557676D02*
X196707238Y-60652914D01*
X196707238Y-60652914D02*
X196659619Y-60843390D01*
X196659619Y-60843390D02*
X196659619Y-60986247D01*
X196659619Y-60986247D02*
X196707238Y-61176723D01*
X196707238Y-61176723D02*
X196754857Y-61271961D01*
X196754857Y-61271961D02*
X196850095Y-61367200D01*
X196850095Y-61367200D02*
X196992952Y-61414819D01*
X196992952Y-61414819D02*
X197231047Y-61414819D01*
X195802476Y-61414819D02*
X195802476Y-60891009D01*
X195802476Y-60891009D02*
X195850095Y-60795771D01*
X195850095Y-60795771D02*
X195945333Y-60748152D01*
X195945333Y-60748152D02*
X196135809Y-60748152D01*
X196135809Y-60748152D02*
X196231047Y-60795771D01*
X195802476Y-61367200D02*
X195897714Y-61414819D01*
X195897714Y-61414819D02*
X196135809Y-61414819D01*
X196135809Y-61414819D02*
X196231047Y-61367200D01*
X196231047Y-61367200D02*
X196278666Y-61271961D01*
X196278666Y-61271961D02*
X196278666Y-61176723D01*
X196278666Y-61176723D02*
X196231047Y-61081485D01*
X196231047Y-61081485D02*
X196135809Y-61033866D01*
X196135809Y-61033866D02*
X195897714Y-61033866D01*
X195897714Y-61033866D02*
X195802476Y-60986247D01*
X194897714Y-61367200D02*
X194992952Y-61414819D01*
X194992952Y-61414819D02*
X195183428Y-61414819D01*
X195183428Y-61414819D02*
X195278666Y-61367200D01*
X195278666Y-61367200D02*
X195326285Y-61319580D01*
X195326285Y-61319580D02*
X195373904Y-61224342D01*
X195373904Y-61224342D02*
X195373904Y-60938628D01*
X195373904Y-60938628D02*
X195326285Y-60843390D01*
X195326285Y-60843390D02*
X195278666Y-60795771D01*
X195278666Y-60795771D02*
X195183428Y-60748152D01*
X195183428Y-60748152D02*
X194992952Y-60748152D01*
X194992952Y-60748152D02*
X194897714Y-60795771D01*
X194469142Y-61414819D02*
X194469142Y-60414819D01*
X194040571Y-61414819D02*
X194040571Y-60891009D01*
X194040571Y-60891009D02*
X194088190Y-60795771D01*
X194088190Y-60795771D02*
X194183428Y-60748152D01*
X194183428Y-60748152D02*
X194326285Y-60748152D01*
X194326285Y-60748152D02*
X194421523Y-60795771D01*
X194421523Y-60795771D02*
X194469142Y-60843390D01*
X216788856Y-101304629D02*
X216931713Y-101233201D01*
X216931713Y-101233201D02*
X217003142Y-101161772D01*
X217003142Y-101161772D02*
X217074570Y-101018915D01*
X217074570Y-101018915D02*
X217074570Y-100590343D01*
X217074570Y-100590343D02*
X217003142Y-100447486D01*
X217003142Y-100447486D02*
X216931713Y-100376058D01*
X216931713Y-100376058D02*
X216788856Y-100304629D01*
X216788856Y-100304629D02*
X216574570Y-100304629D01*
X216574570Y-100304629D02*
X216431713Y-100376058D01*
X216431713Y-100376058D02*
X216360285Y-100447486D01*
X216360285Y-100447486D02*
X216288856Y-100590343D01*
X216288856Y-100590343D02*
X216288856Y-101018915D01*
X216288856Y-101018915D02*
X216360285Y-101161772D01*
X216360285Y-101161772D02*
X216431713Y-101233201D01*
X216431713Y-101233201D02*
X216574570Y-101304629D01*
X216574570Y-101304629D02*
X216788856Y-101304629D01*
X215860284Y-100304629D02*
X215288856Y-100304629D01*
X215645999Y-101304629D02*
X215645999Y-100018915D01*
X215645999Y-100018915D02*
X215574570Y-99876058D01*
X215574570Y-99876058D02*
X215431713Y-99804629D01*
X215431713Y-99804629D02*
X215288856Y-99804629D01*
X215003141Y-100304629D02*
X214431713Y-100304629D01*
X214788856Y-101304629D02*
X214788856Y-100018915D01*
X214788856Y-100018915D02*
X214717427Y-99876058D01*
X214717427Y-99876058D02*
X214574570Y-99804629D01*
X214574570Y-99804629D02*
X214431713Y-99804629D01*
D10*
X160222283Y-58645900D02*
X160007998Y-58717328D01*
X160007998Y-58717328D02*
X159650855Y-58717328D01*
X159650855Y-58717328D02*
X159507998Y-58645900D01*
X159507998Y-58645900D02*
X159436569Y-58574471D01*
X159436569Y-58574471D02*
X159365140Y-58431614D01*
X159365140Y-58431614D02*
X159365140Y-58288757D01*
X159365140Y-58288757D02*
X159436569Y-58145900D01*
X159436569Y-58145900D02*
X159507998Y-58074471D01*
X159507998Y-58074471D02*
X159650855Y-58003042D01*
X159650855Y-58003042D02*
X159936569Y-57931614D01*
X159936569Y-57931614D02*
X160079426Y-57860185D01*
X160079426Y-57860185D02*
X160150855Y-57788757D01*
X160150855Y-57788757D02*
X160222283Y-57645900D01*
X160222283Y-57645900D02*
X160222283Y-57503042D01*
X160222283Y-57503042D02*
X160150855Y-57360185D01*
X160150855Y-57360185D02*
X160079426Y-57288757D01*
X160079426Y-57288757D02*
X159936569Y-57217328D01*
X159936569Y-57217328D02*
X159579426Y-57217328D01*
X159579426Y-57217328D02*
X159365140Y-57288757D01*
X158936569Y-57717328D02*
X158365141Y-57717328D01*
X158722284Y-57217328D02*
X158722284Y-58503042D01*
X158722284Y-58503042D02*
X158650855Y-58645900D01*
X158650855Y-58645900D02*
X158507998Y-58717328D01*
X158507998Y-58717328D02*
X158365141Y-58717328D01*
X157293712Y-58645900D02*
X157436569Y-58717328D01*
X157436569Y-58717328D02*
X157722284Y-58717328D01*
X157722284Y-58717328D02*
X157865141Y-58645900D01*
X157865141Y-58645900D02*
X157936569Y-58503042D01*
X157936569Y-58503042D02*
X157936569Y-57931614D01*
X157936569Y-57931614D02*
X157865141Y-57788757D01*
X157865141Y-57788757D02*
X157722284Y-57717328D01*
X157722284Y-57717328D02*
X157436569Y-57717328D01*
X157436569Y-57717328D02*
X157293712Y-57788757D01*
X157293712Y-57788757D02*
X157222284Y-57931614D01*
X157222284Y-57931614D02*
X157222284Y-58074471D01*
X157222284Y-58074471D02*
X157936569Y-58217328D01*
X155936570Y-57717328D02*
X155936570Y-58717328D01*
X156579427Y-57717328D02*
X156579427Y-58503042D01*
X156579427Y-58503042D02*
X156507998Y-58645900D01*
X156507998Y-58645900D02*
X156365141Y-58717328D01*
X156365141Y-58717328D02*
X156150855Y-58717328D01*
X156150855Y-58717328D02*
X156007998Y-58645900D01*
X156007998Y-58645900D02*
X155936570Y-58574471D01*
X154650855Y-58645900D02*
X154793712Y-58717328D01*
X154793712Y-58717328D02*
X155079427Y-58717328D01*
X155079427Y-58717328D02*
X155222284Y-58645900D01*
X155222284Y-58645900D02*
X155293712Y-58503042D01*
X155293712Y-58503042D02*
X155293712Y-57931614D01*
X155293712Y-57931614D02*
X155222284Y-57788757D01*
X155222284Y-57788757D02*
X155079427Y-57717328D01*
X155079427Y-57717328D02*
X154793712Y-57717328D01*
X154793712Y-57717328D02*
X154650855Y-57788757D01*
X154650855Y-57788757D02*
X154579427Y-57931614D01*
X154579427Y-57931614D02*
X154579427Y-58074471D01*
X154579427Y-58074471D02*
X155293712Y-58217328D01*
X153936570Y-58717328D02*
X153936570Y-57717328D01*
X153936570Y-58003042D02*
X153865141Y-57860185D01*
X153865141Y-57860185D02*
X153793713Y-57788757D01*
X153793713Y-57788757D02*
X153650855Y-57717328D01*
X153650855Y-57717328D02*
X153507998Y-57717328D01*
X152365142Y-57717328D02*
X152365142Y-58717328D01*
X153007999Y-57717328D02*
X153007999Y-58503042D01*
X153007999Y-58503042D02*
X152936570Y-58645900D01*
X152936570Y-58645900D02*
X152793713Y-58717328D01*
X152793713Y-58717328D02*
X152579427Y-58717328D01*
X152579427Y-58717328D02*
X152436570Y-58645900D01*
X152436570Y-58645900D02*
X152365142Y-58574471D01*
X151650856Y-57717328D02*
X151650856Y-58717328D01*
X151650856Y-57860185D02*
X151579427Y-57788757D01*
X151579427Y-57788757D02*
X151436570Y-57717328D01*
X151436570Y-57717328D02*
X151222284Y-57717328D01*
X151222284Y-57717328D02*
X151079427Y-57788757D01*
X151079427Y-57788757D02*
X151007999Y-57931614D01*
X151007999Y-57931614D02*
X151007999Y-58717328D01*
X149650856Y-57717328D02*
X149650856Y-58931614D01*
X149650856Y-58931614D02*
X149722284Y-59074471D01*
X149722284Y-59074471D02*
X149793713Y-59145900D01*
X149793713Y-59145900D02*
X149936570Y-59217328D01*
X149936570Y-59217328D02*
X150150856Y-59217328D01*
X150150856Y-59217328D02*
X150293713Y-59145900D01*
X149650856Y-58645900D02*
X149793713Y-58717328D01*
X149793713Y-58717328D02*
X150079427Y-58717328D01*
X150079427Y-58717328D02*
X150222284Y-58645900D01*
X150222284Y-58645900D02*
X150293713Y-58574471D01*
X150293713Y-58574471D02*
X150365141Y-58431614D01*
X150365141Y-58431614D02*
X150365141Y-58003042D01*
X150365141Y-58003042D02*
X150293713Y-57860185D01*
X150293713Y-57860185D02*
X150222284Y-57788757D01*
X150222284Y-57788757D02*
X150079427Y-57717328D01*
X150079427Y-57717328D02*
X149793713Y-57717328D01*
X149793713Y-57717328D02*
X149650856Y-57788757D01*
X147865141Y-58645900D02*
X147650856Y-58717328D01*
X147650856Y-58717328D02*
X147293713Y-58717328D01*
X147293713Y-58717328D02*
X147150856Y-58645900D01*
X147150856Y-58645900D02*
X147079427Y-58574471D01*
X147079427Y-58574471D02*
X147007998Y-58431614D01*
X147007998Y-58431614D02*
X147007998Y-58288757D01*
X147007998Y-58288757D02*
X147079427Y-58145900D01*
X147079427Y-58145900D02*
X147150856Y-58074471D01*
X147150856Y-58074471D02*
X147293713Y-58003042D01*
X147293713Y-58003042D02*
X147579427Y-57931614D01*
X147579427Y-57931614D02*
X147722284Y-57860185D01*
X147722284Y-57860185D02*
X147793713Y-57788757D01*
X147793713Y-57788757D02*
X147865141Y-57645900D01*
X147865141Y-57645900D02*
X147865141Y-57503042D01*
X147865141Y-57503042D02*
X147793713Y-57360185D01*
X147793713Y-57360185D02*
X147722284Y-57288757D01*
X147722284Y-57288757D02*
X147579427Y-57217328D01*
X147579427Y-57217328D02*
X147222284Y-57217328D01*
X147222284Y-57217328D02*
X147007998Y-57288757D01*
X146150856Y-58717328D02*
X146293713Y-58645900D01*
X146293713Y-58645900D02*
X146365142Y-58574471D01*
X146365142Y-58574471D02*
X146436570Y-58431614D01*
X146436570Y-58431614D02*
X146436570Y-58003042D01*
X146436570Y-58003042D02*
X146365142Y-57860185D01*
X146365142Y-57860185D02*
X146293713Y-57788757D01*
X146293713Y-57788757D02*
X146150856Y-57717328D01*
X146150856Y-57717328D02*
X145936570Y-57717328D01*
X145936570Y-57717328D02*
X145793713Y-57788757D01*
X145793713Y-57788757D02*
X145722285Y-57860185D01*
X145722285Y-57860185D02*
X145650856Y-58003042D01*
X145650856Y-58003042D02*
X145650856Y-58431614D01*
X145650856Y-58431614D02*
X145722285Y-58574471D01*
X145722285Y-58574471D02*
X145793713Y-58645900D01*
X145793713Y-58645900D02*
X145936570Y-58717328D01*
X145936570Y-58717328D02*
X146150856Y-58717328D01*
X144793713Y-58717328D02*
X144936570Y-58645900D01*
X144936570Y-58645900D02*
X145007999Y-58503042D01*
X145007999Y-58503042D02*
X145007999Y-57217328D01*
X143579428Y-58717328D02*
X143579428Y-57931614D01*
X143579428Y-57931614D02*
X143650856Y-57788757D01*
X143650856Y-57788757D02*
X143793713Y-57717328D01*
X143793713Y-57717328D02*
X144079428Y-57717328D01*
X144079428Y-57717328D02*
X144222285Y-57788757D01*
X143579428Y-58645900D02*
X143722285Y-58717328D01*
X143722285Y-58717328D02*
X144079428Y-58717328D01*
X144079428Y-58717328D02*
X144222285Y-58645900D01*
X144222285Y-58645900D02*
X144293713Y-58503042D01*
X144293713Y-58503042D02*
X144293713Y-58360185D01*
X144293713Y-58360185D02*
X144222285Y-58217328D01*
X144222285Y-58217328D02*
X144079428Y-58145900D01*
X144079428Y-58145900D02*
X143722285Y-58145900D01*
X143722285Y-58145900D02*
X143579428Y-58074471D01*
X142865142Y-58717328D02*
X142865142Y-57717328D01*
X142865142Y-58003042D02*
X142793713Y-57860185D01*
X142793713Y-57860185D02*
X142722285Y-57788757D01*
X142722285Y-57788757D02*
X142579427Y-57717328D01*
X142579427Y-57717328D02*
X142436570Y-57717328D01*
X141293714Y-58717328D02*
X141293714Y-57931614D01*
X141293714Y-57931614D02*
X141365142Y-57788757D01*
X141365142Y-57788757D02*
X141507999Y-57717328D01*
X141507999Y-57717328D02*
X141793714Y-57717328D01*
X141793714Y-57717328D02*
X141936571Y-57788757D01*
X141293714Y-58645900D02*
X141436571Y-58717328D01*
X141436571Y-58717328D02*
X141793714Y-58717328D01*
X141793714Y-58717328D02*
X141936571Y-58645900D01*
X141936571Y-58645900D02*
X142007999Y-58503042D01*
X142007999Y-58503042D02*
X142007999Y-58360185D01*
X142007999Y-58360185D02*
X141936571Y-58217328D01*
X141936571Y-58217328D02*
X141793714Y-58145900D01*
X141793714Y-58145900D02*
X141436571Y-58145900D01*
X141436571Y-58145900D02*
X141293714Y-58074471D01*
X140579428Y-57717328D02*
X140579428Y-58717328D01*
X140579428Y-57860185D02*
X140507999Y-57788757D01*
X140507999Y-57788757D02*
X140365142Y-57717328D01*
X140365142Y-57717328D02*
X140150856Y-57717328D01*
X140150856Y-57717328D02*
X140007999Y-57788757D01*
X140007999Y-57788757D02*
X139936571Y-57931614D01*
X139936571Y-57931614D02*
X139936571Y-58717328D01*
X139007999Y-58717328D02*
X139150856Y-58645900D01*
X139150856Y-58645900D02*
X139222285Y-58503042D01*
X139222285Y-58503042D02*
X139222285Y-57217328D01*
X137793714Y-58717328D02*
X137793714Y-57931614D01*
X137793714Y-57931614D02*
X137865142Y-57788757D01*
X137865142Y-57788757D02*
X138007999Y-57717328D01*
X138007999Y-57717328D02*
X138293714Y-57717328D01*
X138293714Y-57717328D02*
X138436571Y-57788757D01*
X137793714Y-58645900D02*
X137936571Y-58717328D01*
X137936571Y-58717328D02*
X138293714Y-58717328D01*
X138293714Y-58717328D02*
X138436571Y-58645900D01*
X138436571Y-58645900D02*
X138507999Y-58503042D01*
X138507999Y-58503042D02*
X138507999Y-58360185D01*
X138507999Y-58360185D02*
X138436571Y-58217328D01*
X138436571Y-58217328D02*
X138293714Y-58145900D01*
X138293714Y-58145900D02*
X137936571Y-58145900D01*
X137936571Y-58145900D02*
X137793714Y-58074471D01*
X136436571Y-57717328D02*
X136436571Y-58931614D01*
X136436571Y-58931614D02*
X136507999Y-59074471D01*
X136507999Y-59074471D02*
X136579428Y-59145900D01*
X136579428Y-59145900D02*
X136722285Y-59217328D01*
X136722285Y-59217328D02*
X136936571Y-59217328D01*
X136936571Y-59217328D02*
X137079428Y-59145900D01*
X136436571Y-58645900D02*
X136579428Y-58717328D01*
X136579428Y-58717328D02*
X136865142Y-58717328D01*
X136865142Y-58717328D02*
X137007999Y-58645900D01*
X137007999Y-58645900D02*
X137079428Y-58574471D01*
X137079428Y-58574471D02*
X137150856Y-58431614D01*
X137150856Y-58431614D02*
X137150856Y-58003042D01*
X137150856Y-58003042D02*
X137079428Y-57860185D01*
X137079428Y-57860185D02*
X137007999Y-57788757D01*
X137007999Y-57788757D02*
X136865142Y-57717328D01*
X136865142Y-57717328D02*
X136579428Y-57717328D01*
X136579428Y-57717328D02*
X136436571Y-57788757D01*
X135150856Y-58645900D02*
X135293713Y-58717328D01*
X135293713Y-58717328D02*
X135579428Y-58717328D01*
X135579428Y-58717328D02*
X135722285Y-58645900D01*
X135722285Y-58645900D02*
X135793713Y-58503042D01*
X135793713Y-58503042D02*
X135793713Y-57931614D01*
X135793713Y-57931614D02*
X135722285Y-57788757D01*
X135722285Y-57788757D02*
X135579428Y-57717328D01*
X135579428Y-57717328D02*
X135293713Y-57717328D01*
X135293713Y-57717328D02*
X135150856Y-57788757D01*
X135150856Y-57788757D02*
X135079428Y-57931614D01*
X135079428Y-57931614D02*
X135079428Y-58074471D01*
X135079428Y-58074471D02*
X135793713Y-58217328D01*
X132436571Y-58717328D02*
X132936571Y-58003042D01*
X133293714Y-58717328D02*
X133293714Y-57217328D01*
X133293714Y-57217328D02*
X132722285Y-57217328D01*
X132722285Y-57217328D02*
X132579428Y-57288757D01*
X132579428Y-57288757D02*
X132507999Y-57360185D01*
X132507999Y-57360185D02*
X132436571Y-57503042D01*
X132436571Y-57503042D02*
X132436571Y-57717328D01*
X132436571Y-57717328D02*
X132507999Y-57860185D01*
X132507999Y-57860185D02*
X132579428Y-57931614D01*
X132579428Y-57931614D02*
X132722285Y-58003042D01*
X132722285Y-58003042D02*
X133293714Y-58003042D01*
X131222285Y-58645900D02*
X131365142Y-58717328D01*
X131365142Y-58717328D02*
X131650857Y-58717328D01*
X131650857Y-58717328D02*
X131793714Y-58645900D01*
X131793714Y-58645900D02*
X131865142Y-58503042D01*
X131865142Y-58503042D02*
X131865142Y-57931614D01*
X131865142Y-57931614D02*
X131793714Y-57788757D01*
X131793714Y-57788757D02*
X131650857Y-57717328D01*
X131650857Y-57717328D02*
X131365142Y-57717328D01*
X131365142Y-57717328D02*
X131222285Y-57788757D01*
X131222285Y-57788757D02*
X131150857Y-57931614D01*
X131150857Y-57931614D02*
X131150857Y-58074471D01*
X131150857Y-58074471D02*
X131865142Y-58217328D01*
X130650857Y-57717328D02*
X130293714Y-58717328D01*
X130293714Y-58717328D02*
X129936571Y-57717328D01*
X129365143Y-58574471D02*
X129293714Y-58645900D01*
X129293714Y-58645900D02*
X129365143Y-58717328D01*
X129365143Y-58717328D02*
X129436571Y-58645900D01*
X129436571Y-58645900D02*
X129365143Y-58574471D01*
X129365143Y-58574471D02*
X129365143Y-58717328D01*
X127008000Y-57931614D02*
X126793714Y-58003042D01*
X126793714Y-58003042D02*
X126722285Y-58074471D01*
X126722285Y-58074471D02*
X126650857Y-58217328D01*
X126650857Y-58217328D02*
X126650857Y-58431614D01*
X126650857Y-58431614D02*
X126722285Y-58574471D01*
X126722285Y-58574471D02*
X126793714Y-58645900D01*
X126793714Y-58645900D02*
X126936571Y-58717328D01*
X126936571Y-58717328D02*
X127508000Y-58717328D01*
X127508000Y-58717328D02*
X127508000Y-57217328D01*
X127508000Y-57217328D02*
X127008000Y-57217328D01*
X127008000Y-57217328D02*
X126865143Y-57288757D01*
X126865143Y-57288757D02*
X126793714Y-57360185D01*
X126793714Y-57360185D02*
X126722285Y-57503042D01*
X126722285Y-57503042D02*
X126722285Y-57645900D01*
X126722285Y-57645900D02*
X126793714Y-57788757D01*
X126793714Y-57788757D02*
X126865143Y-57860185D01*
X126865143Y-57860185D02*
X127008000Y-57931614D01*
X127008000Y-57931614D02*
X127508000Y-57931614D01*
X124436571Y-59288757D02*
X124508000Y-59217328D01*
X124508000Y-59217328D02*
X124650857Y-59003042D01*
X124650857Y-59003042D02*
X124722286Y-58860185D01*
X124722286Y-58860185D02*
X124793714Y-58645900D01*
X124793714Y-58645900D02*
X124865143Y-58288757D01*
X124865143Y-58288757D02*
X124865143Y-58003042D01*
X124865143Y-58003042D02*
X124793714Y-57645900D01*
X124793714Y-57645900D02*
X124722286Y-57431614D01*
X124722286Y-57431614D02*
X124650857Y-57288757D01*
X124650857Y-57288757D02*
X124508000Y-57074471D01*
X124508000Y-57074471D02*
X124436571Y-57003042D01*
X123936571Y-57360185D02*
X123865143Y-57288757D01*
X123865143Y-57288757D02*
X123722286Y-57217328D01*
X123722286Y-57217328D02*
X123365143Y-57217328D01*
X123365143Y-57217328D02*
X123222286Y-57288757D01*
X123222286Y-57288757D02*
X123150857Y-57360185D01*
X123150857Y-57360185D02*
X123079428Y-57503042D01*
X123079428Y-57503042D02*
X123079428Y-57645900D01*
X123079428Y-57645900D02*
X123150857Y-57860185D01*
X123150857Y-57860185D02*
X124008000Y-58717328D01*
X124008000Y-58717328D02*
X123079428Y-58717328D01*
X122150857Y-57217328D02*
X122008000Y-57217328D01*
X122008000Y-57217328D02*
X121865143Y-57288757D01*
X121865143Y-57288757D02*
X121793715Y-57360185D01*
X121793715Y-57360185D02*
X121722286Y-57503042D01*
X121722286Y-57503042D02*
X121650857Y-57788757D01*
X121650857Y-57788757D02*
X121650857Y-58145900D01*
X121650857Y-58145900D02*
X121722286Y-58431614D01*
X121722286Y-58431614D02*
X121793715Y-58574471D01*
X121793715Y-58574471D02*
X121865143Y-58645900D01*
X121865143Y-58645900D02*
X122008000Y-58717328D01*
X122008000Y-58717328D02*
X122150857Y-58717328D01*
X122150857Y-58717328D02*
X122293715Y-58645900D01*
X122293715Y-58645900D02*
X122365143Y-58574471D01*
X122365143Y-58574471D02*
X122436572Y-58431614D01*
X122436572Y-58431614D02*
X122508000Y-58145900D01*
X122508000Y-58145900D02*
X122508000Y-57788757D01*
X122508000Y-57788757D02*
X122436572Y-57503042D01*
X122436572Y-57503042D02*
X122365143Y-57360185D01*
X122365143Y-57360185D02*
X122293715Y-57288757D01*
X122293715Y-57288757D02*
X122150857Y-57217328D01*
X121079429Y-57360185D02*
X121008001Y-57288757D01*
X121008001Y-57288757D02*
X120865144Y-57217328D01*
X120865144Y-57217328D02*
X120508001Y-57217328D01*
X120508001Y-57217328D02*
X120365144Y-57288757D01*
X120365144Y-57288757D02*
X120293715Y-57360185D01*
X120293715Y-57360185D02*
X120222286Y-57503042D01*
X120222286Y-57503042D02*
X120222286Y-57645900D01*
X120222286Y-57645900D02*
X120293715Y-57860185D01*
X120293715Y-57860185D02*
X121150858Y-58717328D01*
X121150858Y-58717328D02*
X120222286Y-58717328D01*
X118793715Y-58717328D02*
X119650858Y-58717328D01*
X119222287Y-58717328D02*
X119222287Y-57217328D01*
X119222287Y-57217328D02*
X119365144Y-57431614D01*
X119365144Y-57431614D02*
X119508001Y-57574471D01*
X119508001Y-57574471D02*
X119650858Y-57645900D01*
X118293716Y-59288757D02*
X118222287Y-59217328D01*
X118222287Y-59217328D02*
X118079430Y-59003042D01*
X118079430Y-59003042D02*
X118008002Y-58860185D01*
X118008002Y-58860185D02*
X117936573Y-58645900D01*
X117936573Y-58645900D02*
X117865144Y-58288757D01*
X117865144Y-58288757D02*
X117865144Y-58003042D01*
X117865144Y-58003042D02*
X117936573Y-57645900D01*
X117936573Y-57645900D02*
X118008002Y-57431614D01*
X118008002Y-57431614D02*
X118079430Y-57288757D01*
X118079430Y-57288757D02*
X118222287Y-57074471D01*
X118222287Y-57074471D02*
X118293716Y-57003042D01*
D11*
X219003095Y-72686152D02*
X219003095Y-73495676D01*
X219003095Y-73495676D02*
X219050714Y-73590914D01*
X219050714Y-73590914D02*
X219098333Y-73638533D01*
X219098333Y-73638533D02*
X219193571Y-73686152D01*
X219193571Y-73686152D02*
X219336428Y-73686152D01*
X219336428Y-73686152D02*
X219431666Y-73638533D01*
X219003095Y-73305200D02*
X219098333Y-73352819D01*
X219098333Y-73352819D02*
X219288809Y-73352819D01*
X219288809Y-73352819D02*
X219384047Y-73305200D01*
X219384047Y-73305200D02*
X219431666Y-73257580D01*
X219431666Y-73257580D02*
X219479285Y-73162342D01*
X219479285Y-73162342D02*
X219479285Y-72876628D01*
X219479285Y-72876628D02*
X219431666Y-72781390D01*
X219431666Y-72781390D02*
X219384047Y-72733771D01*
X219384047Y-72733771D02*
X219288809Y-72686152D01*
X219288809Y-72686152D02*
X219098333Y-72686152D01*
X219098333Y-72686152D02*
X219003095Y-72733771D01*
X218098333Y-73352819D02*
X218098333Y-72829009D01*
X218098333Y-72829009D02*
X218145952Y-72733771D01*
X218145952Y-72733771D02*
X218241190Y-72686152D01*
X218241190Y-72686152D02*
X218431666Y-72686152D01*
X218431666Y-72686152D02*
X218526904Y-72733771D01*
X218098333Y-73305200D02*
X218193571Y-73352819D01*
X218193571Y-73352819D02*
X218431666Y-73352819D01*
X218431666Y-73352819D02*
X218526904Y-73305200D01*
X218526904Y-73305200D02*
X218574523Y-73209961D01*
X218574523Y-73209961D02*
X218574523Y-73114723D01*
X218574523Y-73114723D02*
X218526904Y-73019485D01*
X218526904Y-73019485D02*
X218431666Y-72971866D01*
X218431666Y-72971866D02*
X218193571Y-72971866D01*
X218193571Y-72971866D02*
X218098333Y-72924247D01*
X217622142Y-73352819D02*
X217622142Y-72686152D01*
X217622142Y-72352819D02*
X217669761Y-72400438D01*
X217669761Y-72400438D02*
X217622142Y-72448057D01*
X217622142Y-72448057D02*
X217574523Y-72400438D01*
X217574523Y-72400438D02*
X217622142Y-72352819D01*
X217622142Y-72352819D02*
X217622142Y-72448057D01*
X217145952Y-72686152D02*
X217145952Y-73352819D01*
X217145952Y-72781390D02*
X217098333Y-72733771D01*
X217098333Y-72733771D02*
X217003095Y-72686152D01*
X217003095Y-72686152D02*
X216860238Y-72686152D01*
X216860238Y-72686152D02*
X216765000Y-72733771D01*
X216765000Y-72733771D02*
X216717381Y-72829009D01*
X216717381Y-72829009D02*
X216717381Y-73352819D01*
X215479285Y-73352819D02*
X215479285Y-72352819D01*
X214907857Y-73352819D02*
X215336428Y-72781390D01*
X214907857Y-72352819D02*
X215479285Y-72924247D01*
X214098333Y-73305200D02*
X214193571Y-73352819D01*
X214193571Y-73352819D02*
X214384047Y-73352819D01*
X214384047Y-73352819D02*
X214479285Y-73305200D01*
X214479285Y-73305200D02*
X214526904Y-73209961D01*
X214526904Y-73209961D02*
X214526904Y-72829009D01*
X214526904Y-72829009D02*
X214479285Y-72733771D01*
X214479285Y-72733771D02*
X214384047Y-72686152D01*
X214384047Y-72686152D02*
X214193571Y-72686152D01*
X214193571Y-72686152D02*
X214098333Y-72733771D01*
X214098333Y-72733771D02*
X214050714Y-72829009D01*
X214050714Y-72829009D02*
X214050714Y-72924247D01*
X214050714Y-72924247D02*
X214526904Y-73019485D01*
X213669761Y-73305200D02*
X213574523Y-73352819D01*
X213574523Y-73352819D02*
X213384047Y-73352819D01*
X213384047Y-73352819D02*
X213288809Y-73305200D01*
X213288809Y-73305200D02*
X213241190Y-73209961D01*
X213241190Y-73209961D02*
X213241190Y-73162342D01*
X213241190Y-73162342D02*
X213288809Y-73067104D01*
X213288809Y-73067104D02*
X213384047Y-73019485D01*
X213384047Y-73019485D02*
X213526904Y-73019485D01*
X213526904Y-73019485D02*
X213622142Y-72971866D01*
X213622142Y-72971866D02*
X213669761Y-72876628D01*
X213669761Y-72876628D02*
X213669761Y-72829009D01*
X213669761Y-72829009D02*
X213622142Y-72733771D01*
X213622142Y-72733771D02*
X213526904Y-72686152D01*
X213526904Y-72686152D02*
X213384047Y-72686152D01*
X213384047Y-72686152D02*
X213288809Y-72733771D01*
X212860237Y-73305200D02*
X212764999Y-73352819D01*
X212764999Y-73352819D02*
X212574523Y-73352819D01*
X212574523Y-73352819D02*
X212479285Y-73305200D01*
X212479285Y-73305200D02*
X212431666Y-73209961D01*
X212431666Y-73209961D02*
X212431666Y-73162342D01*
X212431666Y-73162342D02*
X212479285Y-73067104D01*
X212479285Y-73067104D02*
X212574523Y-73019485D01*
X212574523Y-73019485D02*
X212717380Y-73019485D01*
X212717380Y-73019485D02*
X212812618Y-72971866D01*
X212812618Y-72971866D02*
X212860237Y-72876628D01*
X212860237Y-72876628D02*
X212860237Y-72829009D01*
X212860237Y-72829009D02*
X212812618Y-72733771D01*
X212812618Y-72733771D02*
X212717380Y-72686152D01*
X212717380Y-72686152D02*
X212574523Y-72686152D01*
X212574523Y-72686152D02*
X212479285Y-72733771D01*
X211622142Y-73305200D02*
X211717380Y-73352819D01*
X211717380Y-73352819D02*
X211907856Y-73352819D01*
X211907856Y-73352819D02*
X212003094Y-73305200D01*
X212003094Y-73305200D02*
X212050713Y-73209961D01*
X212050713Y-73209961D02*
X212050713Y-72829009D01*
X212050713Y-72829009D02*
X212003094Y-72733771D01*
X212003094Y-72733771D02*
X211907856Y-72686152D01*
X211907856Y-72686152D02*
X211717380Y-72686152D01*
X211717380Y-72686152D02*
X211622142Y-72733771D01*
X211622142Y-72733771D02*
X211574523Y-72829009D01*
X211574523Y-72829009D02*
X211574523Y-72924247D01*
X211574523Y-72924247D02*
X212050713Y-73019485D01*
X211003094Y-73352819D02*
X211098332Y-73305200D01*
X211098332Y-73305200D02*
X211145951Y-73209961D01*
X211145951Y-73209961D02*
X211145951Y-72352819D01*
X223472333Y-80861819D02*
X223472333Y-81576104D01*
X223472333Y-81576104D02*
X223519952Y-81718961D01*
X223519952Y-81718961D02*
X223615190Y-81814200D01*
X223615190Y-81814200D02*
X223758047Y-81861819D01*
X223758047Y-81861819D02*
X223853285Y-81861819D01*
X222472333Y-81861819D02*
X223043761Y-81861819D01*
X222758047Y-81861819D02*
X222758047Y-80861819D01*
X222758047Y-80861819D02*
X222853285Y-81004676D01*
X222853285Y-81004676D02*
X222948523Y-81099914D01*
X222948523Y-81099914D02*
X223043761Y-81147533D01*
X223726333Y-112738819D02*
X223726333Y-113453104D01*
X223726333Y-113453104D02*
X223773952Y-113595961D01*
X223773952Y-113595961D02*
X223869190Y-113691200D01*
X223869190Y-113691200D02*
X224012047Y-113738819D01*
X224012047Y-113738819D02*
X224107285Y-113738819D01*
X223297761Y-112834057D02*
X223250142Y-112786438D01*
X223250142Y-112786438D02*
X223154904Y-112738819D01*
X223154904Y-112738819D02*
X222916809Y-112738819D01*
X222916809Y-112738819D02*
X222821571Y-112786438D01*
X222821571Y-112786438D02*
X222773952Y-112834057D01*
X222773952Y-112834057D02*
X222726333Y-112929295D01*
X222726333Y-112929295D02*
X222726333Y-113024533D01*
X222726333Y-113024533D02*
X222773952Y-113167390D01*
X222773952Y-113167390D02*
X223345380Y-113738819D01*
X223345380Y-113738819D02*
X222726333Y-113738819D01*
X197050819Y-66333761D02*
X196574628Y-66000428D01*
X197050819Y-65762333D02*
X196050819Y-65762333D01*
X196050819Y-65762333D02*
X196050819Y-66143285D01*
X196050819Y-66143285D02*
X196098438Y-66238523D01*
X196098438Y-66238523D02*
X196146057Y-66286142D01*
X196146057Y-66286142D02*
X196241295Y-66333761D01*
X196241295Y-66333761D02*
X196384152Y-66333761D01*
X196384152Y-66333761D02*
X196479390Y-66286142D01*
X196479390Y-66286142D02*
X196527009Y-66238523D01*
X196527009Y-66238523D02*
X196574628Y-66143285D01*
X196574628Y-66143285D02*
X196574628Y-65762333D01*
X196050819Y-66619476D02*
X197050819Y-66952809D01*
X197050819Y-66952809D02*
X196050819Y-67286142D01*
X197050819Y-68143285D02*
X197050819Y-67571857D01*
X197050819Y-67857571D02*
X196050819Y-67857571D01*
X196050819Y-67857571D02*
X196193676Y-67762333D01*
X196193676Y-67762333D02*
X196288914Y-67667095D01*
X196288914Y-67667095D02*
X196336533Y-67571857D01*
X215592819Y-65952761D02*
X215116628Y-65619428D01*
X215592819Y-65381333D02*
X214592819Y-65381333D01*
X214592819Y-65381333D02*
X214592819Y-65762285D01*
X214592819Y-65762285D02*
X214640438Y-65857523D01*
X214640438Y-65857523D02*
X214688057Y-65905142D01*
X214688057Y-65905142D02*
X214783295Y-65952761D01*
X214783295Y-65952761D02*
X214926152Y-65952761D01*
X214926152Y-65952761D02*
X215021390Y-65905142D01*
X215021390Y-65905142D02*
X215069009Y-65857523D01*
X215069009Y-65857523D02*
X215116628Y-65762285D01*
X215116628Y-65762285D02*
X215116628Y-65381333D01*
X214592819Y-66238476D02*
X215592819Y-66571809D01*
X215592819Y-66571809D02*
X214592819Y-66905142D01*
X214688057Y-67190857D02*
X214640438Y-67238476D01*
X214640438Y-67238476D02*
X214592819Y-67333714D01*
X214592819Y-67333714D02*
X214592819Y-67571809D01*
X214592819Y-67571809D02*
X214640438Y-67667047D01*
X214640438Y-67667047D02*
X214688057Y-67714666D01*
X214688057Y-67714666D02*
X214783295Y-67762285D01*
X214783295Y-67762285D02*
X214878533Y-67762285D01*
X214878533Y-67762285D02*
X215021390Y-67714666D01*
X215021390Y-67714666D02*
X215592819Y-67143238D01*
X215592819Y-67143238D02*
X215592819Y-67762285D01*
X166084190Y-93196628D02*
X166084190Y-93672819D01*
X166417523Y-92672819D02*
X166084190Y-93196628D01*
X166084190Y-93196628D02*
X165750857Y-92672819D01*
X164893714Y-93672819D02*
X165465142Y-93672819D01*
X165179428Y-93672819D02*
X165179428Y-92672819D01*
X165179428Y-92672819D02*
X165274666Y-92815676D01*
X165274666Y-92815676D02*
X165369904Y-92910914D01*
X165369904Y-92910914D02*
X165465142Y-92958533D01*
X213558333Y-92037819D02*
X213558333Y-92752104D01*
X213558333Y-92752104D02*
X213605952Y-92894961D01*
X213605952Y-92894961D02*
X213701190Y-92990200D01*
X213701190Y-92990200D02*
X213844047Y-93037819D01*
X213844047Y-93037819D02*
X213939285Y-93037819D01*
X213082142Y-93037819D02*
X213082142Y-92037819D01*
X213082142Y-92037819D02*
X212701190Y-92037819D01*
X212701190Y-92037819D02*
X212605952Y-92085438D01*
X212605952Y-92085438D02*
X212558333Y-92133057D01*
X212558333Y-92133057D02*
X212510714Y-92228295D01*
X212510714Y-92228295D02*
X212510714Y-92371152D01*
X212510714Y-92371152D02*
X212558333Y-92466390D01*
X212558333Y-92466390D02*
X212605952Y-92514009D01*
X212605952Y-92514009D02*
X212701190Y-92561628D01*
X212701190Y-92561628D02*
X213082142Y-92561628D01*
X211558333Y-93037819D02*
X212129761Y-93037819D01*
X211844047Y-93037819D02*
X211844047Y-92037819D01*
X211844047Y-92037819D02*
X211939285Y-92180676D01*
X211939285Y-92180676D02*
X212034523Y-92275914D01*
X212034523Y-92275914D02*
X212129761Y-92323533D01*
X88137666Y-62549580D02*
X88185285Y-62597200D01*
X88185285Y-62597200D02*
X88328142Y-62644819D01*
X88328142Y-62644819D02*
X88423380Y-62644819D01*
X88423380Y-62644819D02*
X88566237Y-62597200D01*
X88566237Y-62597200D02*
X88661475Y-62501961D01*
X88661475Y-62501961D02*
X88709094Y-62406723D01*
X88709094Y-62406723D02*
X88756713Y-62216247D01*
X88756713Y-62216247D02*
X88756713Y-62073390D01*
X88756713Y-62073390D02*
X88709094Y-61882914D01*
X88709094Y-61882914D02*
X88661475Y-61787676D01*
X88661475Y-61787676D02*
X88566237Y-61692438D01*
X88566237Y-61692438D02*
X88423380Y-61644819D01*
X88423380Y-61644819D02*
X88328142Y-61644819D01*
X88328142Y-61644819D02*
X88185285Y-61692438D01*
X88185285Y-61692438D02*
X88137666Y-61740057D01*
X87804332Y-61644819D02*
X87137666Y-61644819D01*
X87137666Y-61644819D02*
X87566237Y-62644819D01*
X199302666Y-84075819D02*
X199778856Y-84075819D01*
X199778856Y-84075819D02*
X199778856Y-83075819D01*
X198445523Y-84075819D02*
X199016951Y-84075819D01*
X198731237Y-84075819D02*
X198731237Y-83075819D01*
X198731237Y-83075819D02*
X198826475Y-83218676D01*
X198826475Y-83218676D02*
X198921713Y-83313914D01*
X198921713Y-83313914D02*
X199016951Y-83361533D01*
X208192666Y-80773819D02*
X208668856Y-80773819D01*
X208668856Y-80773819D02*
X208668856Y-79773819D01*
X207906951Y-79869057D02*
X207859332Y-79821438D01*
X207859332Y-79821438D02*
X207764094Y-79773819D01*
X207764094Y-79773819D02*
X207525999Y-79773819D01*
X207525999Y-79773819D02*
X207430761Y-79821438D01*
X207430761Y-79821438D02*
X207383142Y-79869057D01*
X207383142Y-79869057D02*
X207335523Y-79964295D01*
X207335523Y-79964295D02*
X207335523Y-80059533D01*
X207335523Y-80059533D02*
X207383142Y-80202390D01*
X207383142Y-80202390D02*
X207954570Y-80773819D01*
X207954570Y-80773819D02*
X207335523Y-80773819D01*
X212986857Y-88243580D02*
X213034476Y-88291200D01*
X213034476Y-88291200D02*
X213177333Y-88338819D01*
X213177333Y-88338819D02*
X213272571Y-88338819D01*
X213272571Y-88338819D02*
X213415428Y-88291200D01*
X213415428Y-88291200D02*
X213510666Y-88195961D01*
X213510666Y-88195961D02*
X213558285Y-88100723D01*
X213558285Y-88100723D02*
X213605904Y-87910247D01*
X213605904Y-87910247D02*
X213605904Y-87767390D01*
X213605904Y-87767390D02*
X213558285Y-87576914D01*
X213558285Y-87576914D02*
X213510666Y-87481676D01*
X213510666Y-87481676D02*
X213415428Y-87386438D01*
X213415428Y-87386438D02*
X213272571Y-87338819D01*
X213272571Y-87338819D02*
X213177333Y-87338819D01*
X213177333Y-87338819D02*
X213034476Y-87386438D01*
X213034476Y-87386438D02*
X212986857Y-87434057D01*
X212034476Y-88338819D02*
X212605904Y-88338819D01*
X212320190Y-88338819D02*
X212320190Y-87338819D01*
X212320190Y-87338819D02*
X212415428Y-87481676D01*
X212415428Y-87481676D02*
X212510666Y-87576914D01*
X212510666Y-87576914D02*
X212605904Y-87624533D01*
X211082095Y-88338819D02*
X211653523Y-88338819D01*
X211367809Y-88338819D02*
X211367809Y-87338819D01*
X211367809Y-87338819D02*
X211463047Y-87481676D01*
X211463047Y-87481676D02*
X211558285Y-87576914D01*
X211558285Y-87576914D02*
X211653523Y-87624533D01*
X209780094Y-75892819D02*
X209780094Y-74892819D01*
X209780094Y-74892819D02*
X209541999Y-74892819D01*
X209541999Y-74892819D02*
X209399142Y-74940438D01*
X209399142Y-74940438D02*
X209303904Y-75035676D01*
X209303904Y-75035676D02*
X209256285Y-75130914D01*
X209256285Y-75130914D02*
X209208666Y-75321390D01*
X209208666Y-75321390D02*
X209208666Y-75464247D01*
X209208666Y-75464247D02*
X209256285Y-75654723D01*
X209256285Y-75654723D02*
X209303904Y-75749961D01*
X209303904Y-75749961D02*
X209399142Y-75845200D01*
X209399142Y-75845200D02*
X209541999Y-75892819D01*
X209541999Y-75892819D02*
X209780094Y-75892819D01*
X208637237Y-75321390D02*
X208732475Y-75273771D01*
X208732475Y-75273771D02*
X208780094Y-75226152D01*
X208780094Y-75226152D02*
X208827713Y-75130914D01*
X208827713Y-75130914D02*
X208827713Y-75083295D01*
X208827713Y-75083295D02*
X208780094Y-74988057D01*
X208780094Y-74988057D02*
X208732475Y-74940438D01*
X208732475Y-74940438D02*
X208637237Y-74892819D01*
X208637237Y-74892819D02*
X208446761Y-74892819D01*
X208446761Y-74892819D02*
X208351523Y-74940438D01*
X208351523Y-74940438D02*
X208303904Y-74988057D01*
X208303904Y-74988057D02*
X208256285Y-75083295D01*
X208256285Y-75083295D02*
X208256285Y-75130914D01*
X208256285Y-75130914D02*
X208303904Y-75226152D01*
X208303904Y-75226152D02*
X208351523Y-75273771D01*
X208351523Y-75273771D02*
X208446761Y-75321390D01*
X208446761Y-75321390D02*
X208637237Y-75321390D01*
X208637237Y-75321390D02*
X208732475Y-75369009D01*
X208732475Y-75369009D02*
X208780094Y-75416628D01*
X208780094Y-75416628D02*
X208827713Y-75511866D01*
X208827713Y-75511866D02*
X208827713Y-75702342D01*
X208827713Y-75702342D02*
X208780094Y-75797580D01*
X208780094Y-75797580D02*
X208732475Y-75845200D01*
X208732475Y-75845200D02*
X208637237Y-75892819D01*
X208637237Y-75892819D02*
X208446761Y-75892819D01*
X208446761Y-75892819D02*
X208351523Y-75845200D01*
X208351523Y-75845200D02*
X208303904Y-75797580D01*
X208303904Y-75797580D02*
X208256285Y-75702342D01*
X208256285Y-75702342D02*
X208256285Y-75511866D01*
X208256285Y-75511866D02*
X208303904Y-75416628D01*
X208303904Y-75416628D02*
X208351523Y-75369009D01*
X208351523Y-75369009D02*
X208446761Y-75321390D01*
X214256904Y-81480819D02*
X214256904Y-80480819D01*
X213685476Y-81480819D02*
X214114047Y-80909390D01*
X213685476Y-80480819D02*
X214256904Y-81052247D01*
X211304094Y-103959819D02*
X211304094Y-102959819D01*
X211304094Y-102959819D02*
X211065999Y-102959819D01*
X211065999Y-102959819D02*
X210923142Y-103007438D01*
X210923142Y-103007438D02*
X210827904Y-103102676D01*
X210827904Y-103102676D02*
X210780285Y-103197914D01*
X210780285Y-103197914D02*
X210732666Y-103388390D01*
X210732666Y-103388390D02*
X210732666Y-103531247D01*
X210732666Y-103531247D02*
X210780285Y-103721723D01*
X210780285Y-103721723D02*
X210827904Y-103816961D01*
X210827904Y-103816961D02*
X210923142Y-103912200D01*
X210923142Y-103912200D02*
X211065999Y-103959819D01*
X211065999Y-103959819D02*
X211304094Y-103959819D01*
X210256475Y-103959819D02*
X210065999Y-103959819D01*
X210065999Y-103959819D02*
X209970761Y-103912200D01*
X209970761Y-103912200D02*
X209923142Y-103864580D01*
X209923142Y-103864580D02*
X209827904Y-103721723D01*
X209827904Y-103721723D02*
X209780285Y-103531247D01*
X209780285Y-103531247D02*
X209780285Y-103150295D01*
X209780285Y-103150295D02*
X209827904Y-103055057D01*
X209827904Y-103055057D02*
X209875523Y-103007438D01*
X209875523Y-103007438D02*
X209970761Y-102959819D01*
X209970761Y-102959819D02*
X210161237Y-102959819D01*
X210161237Y-102959819D02*
X210256475Y-103007438D01*
X210256475Y-103007438D02*
X210304094Y-103055057D01*
X210304094Y-103055057D02*
X210351713Y-103150295D01*
X210351713Y-103150295D02*
X210351713Y-103388390D01*
X210351713Y-103388390D02*
X210304094Y-103483628D01*
X210304094Y-103483628D02*
X210256475Y-103531247D01*
X210256475Y-103531247D02*
X210161237Y-103578866D01*
X210161237Y-103578866D02*
X209970761Y-103578866D01*
X209970761Y-103578866D02*
X209875523Y-103531247D01*
X209875523Y-103531247D02*
X209827904Y-103483628D01*
X209827904Y-103483628D02*
X209780285Y-103388390D01*
X217050904Y-109293819D02*
X217050904Y-108293819D01*
X216479476Y-109293819D02*
X216908047Y-108722390D01*
X216479476Y-108293819D02*
X217050904Y-108865247D01*
X70175285Y-105610819D02*
X70175285Y-104610819D01*
X70175285Y-104610819D02*
X69937190Y-104610819D01*
X69937190Y-104610819D02*
X69794333Y-104658438D01*
X69794333Y-104658438D02*
X69699095Y-104753676D01*
X69699095Y-104753676D02*
X69651476Y-104848914D01*
X69651476Y-104848914D02*
X69603857Y-105039390D01*
X69603857Y-105039390D02*
X69603857Y-105182247D01*
X69603857Y-105182247D02*
X69651476Y-105372723D01*
X69651476Y-105372723D02*
X69699095Y-105467961D01*
X69699095Y-105467961D02*
X69794333Y-105563200D01*
X69794333Y-105563200D02*
X69937190Y-105610819D01*
X69937190Y-105610819D02*
X70175285Y-105610819D01*
X68651476Y-105610819D02*
X69222904Y-105610819D01*
X68937190Y-105610819D02*
X68937190Y-104610819D01*
X68937190Y-104610819D02*
X69032428Y-104753676D01*
X69032428Y-104753676D02*
X69127666Y-104848914D01*
X69127666Y-104848914D02*
X69222904Y-104896533D01*
X68032428Y-104610819D02*
X67937190Y-104610819D01*
X67937190Y-104610819D02*
X67841952Y-104658438D01*
X67841952Y-104658438D02*
X67794333Y-104706057D01*
X67794333Y-104706057D02*
X67746714Y-104801295D01*
X67746714Y-104801295D02*
X67699095Y-104991771D01*
X67699095Y-104991771D02*
X67699095Y-105229866D01*
X67699095Y-105229866D02*
X67746714Y-105420342D01*
X67746714Y-105420342D02*
X67794333Y-105515580D01*
X67794333Y-105515580D02*
X67841952Y-105563200D01*
X67841952Y-105563200D02*
X67937190Y-105610819D01*
X67937190Y-105610819D02*
X68032428Y-105610819D01*
X68032428Y-105610819D02*
X68127666Y-105563200D01*
X68127666Y-105563200D02*
X68175285Y-105515580D01*
X68175285Y-105515580D02*
X68222904Y-105420342D01*
X68222904Y-105420342D02*
X68270523Y-105229866D01*
X68270523Y-105229866D02*
X68270523Y-104991771D01*
X68270523Y-104991771D02*
X68222904Y-104801295D01*
X68222904Y-104801295D02*
X68175285Y-104706057D01*
X68175285Y-104706057D02*
X68127666Y-104658438D01*
X68127666Y-104658438D02*
X68032428Y-104610819D01*
X71889904Y-99133819D02*
X71889904Y-98133819D01*
X71318476Y-99133819D02*
X71747047Y-98562390D01*
X71318476Y-98133819D02*
X71889904Y-98705247D01*
X172918285Y-128470819D02*
X172918285Y-127470819D01*
X172918285Y-127470819D02*
X172680190Y-127470819D01*
X172680190Y-127470819D02*
X172537333Y-127518438D01*
X172537333Y-127518438D02*
X172442095Y-127613676D01*
X172442095Y-127613676D02*
X172394476Y-127708914D01*
X172394476Y-127708914D02*
X172346857Y-127899390D01*
X172346857Y-127899390D02*
X172346857Y-128042247D01*
X172346857Y-128042247D02*
X172394476Y-128232723D01*
X172394476Y-128232723D02*
X172442095Y-128327961D01*
X172442095Y-128327961D02*
X172537333Y-128423200D01*
X172537333Y-128423200D02*
X172680190Y-128470819D01*
X172680190Y-128470819D02*
X172918285Y-128470819D01*
X171394476Y-128470819D02*
X171965904Y-128470819D01*
X171680190Y-128470819D02*
X171680190Y-127470819D01*
X171680190Y-127470819D02*
X171775428Y-127613676D01*
X171775428Y-127613676D02*
X171870666Y-127708914D01*
X171870666Y-127708914D02*
X171965904Y-127756533D01*
X170442095Y-128470819D02*
X171013523Y-128470819D01*
X170727809Y-128470819D02*
X170727809Y-127470819D01*
X170727809Y-127470819D02*
X170823047Y-127613676D01*
X170823047Y-127613676D02*
X170918285Y-127708914D01*
X170918285Y-127708914D02*
X171013523Y-127756533D01*
X169171904Y-134820819D02*
X169171904Y-133820819D01*
X168600476Y-134820819D02*
X169029047Y-134249390D01*
X168600476Y-133820819D02*
X169171904Y-134392247D01*
X159845333Y-135090819D02*
X159845333Y-135805104D01*
X159845333Y-135805104D02*
X159892952Y-135947961D01*
X159892952Y-135947961D02*
X159988190Y-136043200D01*
X159988190Y-136043200D02*
X160131047Y-136090819D01*
X160131047Y-136090819D02*
X160226285Y-136090819D01*
X158940571Y-135090819D02*
X159131047Y-135090819D01*
X159131047Y-135090819D02*
X159226285Y-135138438D01*
X159226285Y-135138438D02*
X159273904Y-135186057D01*
X159273904Y-135186057D02*
X159369142Y-135328914D01*
X159369142Y-135328914D02*
X159416761Y-135519390D01*
X159416761Y-135519390D02*
X159416761Y-135900342D01*
X159416761Y-135900342D02*
X159369142Y-135995580D01*
X159369142Y-135995580D02*
X159321523Y-136043200D01*
X159321523Y-136043200D02*
X159226285Y-136090819D01*
X159226285Y-136090819D02*
X159035809Y-136090819D01*
X159035809Y-136090819D02*
X158940571Y-136043200D01*
X158940571Y-136043200D02*
X158892952Y-135995580D01*
X158892952Y-135995580D02*
X158845333Y-135900342D01*
X158845333Y-135900342D02*
X158845333Y-135662247D01*
X158845333Y-135662247D02*
X158892952Y-135567009D01*
X158892952Y-135567009D02*
X158940571Y-135519390D01*
X158940571Y-135519390D02*
X159035809Y-135471771D01*
X159035809Y-135471771D02*
X159226285Y-135471771D01*
X159226285Y-135471771D02*
X159321523Y-135519390D01*
X159321523Y-135519390D02*
X159369142Y-135567009D01*
X159369142Y-135567009D02*
X159416761Y-135662247D01*
X76493666Y-69614819D02*
X76969856Y-69614819D01*
X76969856Y-69614819D02*
X76969856Y-68614819D01*
X76255570Y-68614819D02*
X75636523Y-68614819D01*
X75636523Y-68614819D02*
X75969856Y-68995771D01*
X75969856Y-68995771D02*
X75826999Y-68995771D01*
X75826999Y-68995771D02*
X75731761Y-69043390D01*
X75731761Y-69043390D02*
X75684142Y-69091009D01*
X75684142Y-69091009D02*
X75636523Y-69186247D01*
X75636523Y-69186247D02*
X75636523Y-69424342D01*
X75636523Y-69424342D02*
X75684142Y-69519580D01*
X75684142Y-69519580D02*
X75731761Y-69567200D01*
X75731761Y-69567200D02*
X75826999Y-69614819D01*
X75826999Y-69614819D02*
X76112713Y-69614819D01*
X76112713Y-69614819D02*
X76207951Y-69567200D01*
X76207951Y-69567200D02*
X76255570Y-69519580D01*
X92154333Y-135090819D02*
X92154333Y-135805104D01*
X92154333Y-135805104D02*
X92201952Y-135947961D01*
X92201952Y-135947961D02*
X92297190Y-136043200D01*
X92297190Y-136043200D02*
X92440047Y-136090819D01*
X92440047Y-136090819D02*
X92535285Y-136090819D01*
X91773380Y-135090819D02*
X91106714Y-135090819D01*
X91106714Y-135090819D02*
X91535285Y-136090819D01*
X86304285Y-123136819D02*
X86304285Y-122136819D01*
X86304285Y-122136819D02*
X86066190Y-122136819D01*
X86066190Y-122136819D02*
X85923333Y-122184438D01*
X85923333Y-122184438D02*
X85828095Y-122279676D01*
X85828095Y-122279676D02*
X85780476Y-122374914D01*
X85780476Y-122374914D02*
X85732857Y-122565390D01*
X85732857Y-122565390D02*
X85732857Y-122708247D01*
X85732857Y-122708247D02*
X85780476Y-122898723D01*
X85780476Y-122898723D02*
X85828095Y-122993961D01*
X85828095Y-122993961D02*
X85923333Y-123089200D01*
X85923333Y-123089200D02*
X86066190Y-123136819D01*
X86066190Y-123136819D02*
X86304285Y-123136819D01*
X84780476Y-123136819D02*
X85351904Y-123136819D01*
X85066190Y-123136819D02*
X85066190Y-122136819D01*
X85066190Y-122136819D02*
X85161428Y-122279676D01*
X85161428Y-122279676D02*
X85256666Y-122374914D01*
X85256666Y-122374914D02*
X85351904Y-122422533D01*
X83923333Y-122470152D02*
X83923333Y-123136819D01*
X84161428Y-122089200D02*
X84399523Y-122803485D01*
X84399523Y-122803485D02*
X83780476Y-122803485D01*
X87129904Y-129232819D02*
X87129904Y-128232819D01*
X86558476Y-129232819D02*
X86987047Y-128661390D01*
X86558476Y-128232819D02*
X87129904Y-128804247D01*
X82150952Y-108731009D02*
X82008095Y-108778628D01*
X82008095Y-108778628D02*
X81960476Y-108826247D01*
X81960476Y-108826247D02*
X81912857Y-108921485D01*
X81912857Y-108921485D02*
X81912857Y-109064342D01*
X81912857Y-109064342D02*
X81960476Y-109159580D01*
X81960476Y-109159580D02*
X82008095Y-109207200D01*
X82008095Y-109207200D02*
X82103333Y-109254819D01*
X82103333Y-109254819D02*
X82484285Y-109254819D01*
X82484285Y-109254819D02*
X82484285Y-108254819D01*
X82484285Y-108254819D02*
X82150952Y-108254819D01*
X82150952Y-108254819D02*
X82055714Y-108302438D01*
X82055714Y-108302438D02*
X82008095Y-108350057D01*
X82008095Y-108350057D02*
X81960476Y-108445295D01*
X81960476Y-108445295D02*
X81960476Y-108540533D01*
X81960476Y-108540533D02*
X82008095Y-108635771D01*
X82008095Y-108635771D02*
X82055714Y-108683390D01*
X82055714Y-108683390D02*
X82150952Y-108731009D01*
X82150952Y-108731009D02*
X82484285Y-108731009D01*
X81579523Y-108254819D02*
X80912857Y-108254819D01*
X80912857Y-108254819D02*
X81579523Y-109254819D01*
X81579523Y-109254819D02*
X80912857Y-109254819D01*
X80008095Y-109254819D02*
X80579523Y-109254819D01*
X80293809Y-109254819D02*
X80293809Y-108254819D01*
X80293809Y-108254819D02*
X80389047Y-108397676D01*
X80389047Y-108397676D02*
X80484285Y-108492914D01*
X80484285Y-108492914D02*
X80579523Y-108540533D01*
X77840951Y-104213866D02*
X77079047Y-104213866D01*
X77459999Y-104594819D02*
X77459999Y-103832914D01*
X72321009Y-81581666D02*
X72321009Y-81248333D01*
X72844819Y-81248333D02*
X71844819Y-81248333D01*
X71844819Y-81248333D02*
X71844819Y-81724523D01*
X72844819Y-82629285D02*
X72844819Y-82057857D01*
X72844819Y-82343571D02*
X71844819Y-82343571D01*
X71844819Y-82343571D02*
X71987676Y-82248333D01*
X71987676Y-82248333D02*
X72082914Y-82153095D01*
X72082914Y-82153095D02*
X72130533Y-82057857D01*
X83553857Y-74990580D02*
X83601476Y-75038200D01*
X83601476Y-75038200D02*
X83744333Y-75085819D01*
X83744333Y-75085819D02*
X83839571Y-75085819D01*
X83839571Y-75085819D02*
X83982428Y-75038200D01*
X83982428Y-75038200D02*
X84077666Y-74942961D01*
X84077666Y-74942961D02*
X84125285Y-74847723D01*
X84125285Y-74847723D02*
X84172904Y-74657247D01*
X84172904Y-74657247D02*
X84172904Y-74514390D01*
X84172904Y-74514390D02*
X84125285Y-74323914D01*
X84125285Y-74323914D02*
X84077666Y-74228676D01*
X84077666Y-74228676D02*
X83982428Y-74133438D01*
X83982428Y-74133438D02*
X83839571Y-74085819D01*
X83839571Y-74085819D02*
X83744333Y-74085819D01*
X83744333Y-74085819D02*
X83601476Y-74133438D01*
X83601476Y-74133438D02*
X83553857Y-74181057D01*
X83172904Y-74181057D02*
X83125285Y-74133438D01*
X83125285Y-74133438D02*
X83030047Y-74085819D01*
X83030047Y-74085819D02*
X82791952Y-74085819D01*
X82791952Y-74085819D02*
X82696714Y-74133438D01*
X82696714Y-74133438D02*
X82649095Y-74181057D01*
X82649095Y-74181057D02*
X82601476Y-74276295D01*
X82601476Y-74276295D02*
X82601476Y-74371533D01*
X82601476Y-74371533D02*
X82649095Y-74514390D01*
X82649095Y-74514390D02*
X83220523Y-75085819D01*
X83220523Y-75085819D02*
X82601476Y-75085819D01*
X82268142Y-74085819D02*
X81649095Y-74085819D01*
X81649095Y-74085819D02*
X81982428Y-74466771D01*
X81982428Y-74466771D02*
X81839571Y-74466771D01*
X81839571Y-74466771D02*
X81744333Y-74514390D01*
X81744333Y-74514390D02*
X81696714Y-74562009D01*
X81696714Y-74562009D02*
X81649095Y-74657247D01*
X81649095Y-74657247D02*
X81649095Y-74895342D01*
X81649095Y-74895342D02*
X81696714Y-74990580D01*
X81696714Y-74990580D02*
X81744333Y-75038200D01*
X81744333Y-75038200D02*
X81839571Y-75085819D01*
X81839571Y-75085819D02*
X82125285Y-75085819D01*
X82125285Y-75085819D02*
X82220523Y-75038200D01*
X82220523Y-75038200D02*
X82268142Y-74990580D01*
X77096857Y-56874580D02*
X77144476Y-56922200D01*
X77144476Y-56922200D02*
X77287333Y-56969819D01*
X77287333Y-56969819D02*
X77382571Y-56969819D01*
X77382571Y-56969819D02*
X77525428Y-56922200D01*
X77525428Y-56922200D02*
X77620666Y-56826961D01*
X77620666Y-56826961D02*
X77668285Y-56731723D01*
X77668285Y-56731723D02*
X77715904Y-56541247D01*
X77715904Y-56541247D02*
X77715904Y-56398390D01*
X77715904Y-56398390D02*
X77668285Y-56207914D01*
X77668285Y-56207914D02*
X77620666Y-56112676D01*
X77620666Y-56112676D02*
X77525428Y-56017438D01*
X77525428Y-56017438D02*
X77382571Y-55969819D01*
X77382571Y-55969819D02*
X77287333Y-55969819D01*
X77287333Y-55969819D02*
X77144476Y-56017438D01*
X77144476Y-56017438D02*
X77096857Y-56065057D01*
X76144476Y-56969819D02*
X76715904Y-56969819D01*
X76430190Y-56969819D02*
X76430190Y-55969819D01*
X76430190Y-55969819D02*
X76525428Y-56112676D01*
X76525428Y-56112676D02*
X76620666Y-56207914D01*
X76620666Y-56207914D02*
X76715904Y-56255533D01*
X75573047Y-56398390D02*
X75668285Y-56350771D01*
X75668285Y-56350771D02*
X75715904Y-56303152D01*
X75715904Y-56303152D02*
X75763523Y-56207914D01*
X75763523Y-56207914D02*
X75763523Y-56160295D01*
X75763523Y-56160295D02*
X75715904Y-56065057D01*
X75715904Y-56065057D02*
X75668285Y-56017438D01*
X75668285Y-56017438D02*
X75573047Y-55969819D01*
X75573047Y-55969819D02*
X75382571Y-55969819D01*
X75382571Y-55969819D02*
X75287333Y-56017438D01*
X75287333Y-56017438D02*
X75239714Y-56065057D01*
X75239714Y-56065057D02*
X75192095Y-56160295D01*
X75192095Y-56160295D02*
X75192095Y-56207914D01*
X75192095Y-56207914D02*
X75239714Y-56303152D01*
X75239714Y-56303152D02*
X75287333Y-56350771D01*
X75287333Y-56350771D02*
X75382571Y-56398390D01*
X75382571Y-56398390D02*
X75573047Y-56398390D01*
X75573047Y-56398390D02*
X75668285Y-56446009D01*
X75668285Y-56446009D02*
X75715904Y-56493628D01*
X75715904Y-56493628D02*
X75763523Y-56588866D01*
X75763523Y-56588866D02*
X75763523Y-56779342D01*
X75763523Y-56779342D02*
X75715904Y-56874580D01*
X75715904Y-56874580D02*
X75668285Y-56922200D01*
X75668285Y-56922200D02*
X75573047Y-56969819D01*
X75573047Y-56969819D02*
X75382571Y-56969819D01*
X75382571Y-56969819D02*
X75287333Y-56922200D01*
X75287333Y-56922200D02*
X75239714Y-56874580D01*
X75239714Y-56874580D02*
X75192095Y-56779342D01*
X75192095Y-56779342D02*
X75192095Y-56588866D01*
X75192095Y-56588866D02*
X75239714Y-56493628D01*
X75239714Y-56493628D02*
X75287333Y-56446009D01*
X75287333Y-56446009D02*
X75382571Y-56398390D01*
D12*
%TO.C,J1*%
X218466000Y-89521000D02*
X218466000Y-87521000D01*
X218706000Y-89281000D02*
X218706000Y-74161000D01*
X220706000Y-89521000D02*
X218466000Y-89521000D01*
X220766000Y-89281000D02*
X220766000Y-74161000D01*
X222050000Y-78981000D02*
X221992000Y-79040000D01*
X222290000Y-79151000D02*
X222197000Y-79245000D01*
X224335000Y-76696000D02*
X224242000Y-76790000D01*
X224541000Y-76901000D02*
X224482000Y-76960000D01*
X225766000Y-89281000D02*
X225766000Y-74161000D01*
X227826000Y-74161000D02*
X218706000Y-74161000D01*
X227826000Y-89281000D02*
X218706000Y-89281000D01*
X227826000Y-89281000D02*
X227826000Y-74161000D01*
X221586000Y-85471000D02*
G75*
G02*
X221782648Y-84682288I1680000J0D01*
G01*
X221782001Y-86260000D02*
G75*
G02*
X221585551Y-85441617I1483994J788998D01*
G01*
X222477000Y-83987001D02*
G75*
G02*
X224055088Y-83987048I789000J-1484003D01*
G01*
X224055000Y-86955000D02*
G75*
G02*
X222476911Y-86954952I-789000J1484000D01*
G01*
X224749999Y-84682000D02*
G75*
G02*
X224749952Y-86260088I-1484003J-789000D01*
G01*
X224946000Y-77971000D02*
G75*
G02*
X221586000Y-77971000I-1680000J0D01*
G01*
X221586000Y-77971000D02*
G75*
G02*
X224946000Y-77971000I1680000J0D01*
G01*
%TO.C,J2*%
X218466000Y-121240000D02*
X218466000Y-119240000D01*
X218706000Y-121000000D02*
X218706000Y-105880000D01*
X220706000Y-121240000D02*
X218466000Y-121240000D01*
X220766000Y-121000000D02*
X220766000Y-105880000D01*
X222050000Y-110700000D02*
X221992000Y-110759000D01*
X222290000Y-110870000D02*
X222197000Y-110964000D01*
X224335000Y-108415000D02*
X224242000Y-108509000D01*
X224541000Y-108620000D02*
X224482000Y-108679000D01*
X225766000Y-121000000D02*
X225766000Y-105880000D01*
X227826000Y-105880000D02*
X218706000Y-105880000D01*
X227826000Y-121000000D02*
X218706000Y-121000000D01*
X227826000Y-121000000D02*
X227826000Y-105880000D01*
X221586000Y-117190000D02*
G75*
G02*
X221782648Y-116401288I1680000J0D01*
G01*
X221782001Y-117979000D02*
G75*
G02*
X221585551Y-117160617I1483994J788998D01*
G01*
X222477000Y-115706001D02*
G75*
G02*
X224055088Y-115706048I789000J-1484003D01*
G01*
X224055000Y-118674000D02*
G75*
G02*
X222476911Y-118673952I-789000J1484000D01*
G01*
X224749999Y-116401000D02*
G75*
G02*
X224749952Y-117979088I-1484003J-789000D01*
G01*
X224946000Y-109690000D02*
G75*
G02*
X221586000Y-109690000I-1680000J0D01*
G01*
X221586000Y-109690000D02*
G75*
G02*
X224946000Y-109690000I1680000J0D01*
G01*
%TO.C,RV1*%
X194445000Y-71941000D02*
X194445000Y-62171000D01*
X200785000Y-62171000D02*
X194445000Y-62171000D01*
X200785000Y-71941000D02*
X194445000Y-71941000D01*
X200785000Y-71941000D02*
X200785000Y-62171000D01*
%TO.C,RV2*%
X212860000Y-71941000D02*
X212860000Y-62171000D01*
X219200000Y-62171000D02*
X212860000Y-62171000D01*
X219200000Y-71941000D02*
X212860000Y-71941000D01*
X219200000Y-71941000D02*
X219200000Y-62171000D01*
%TO.C,Y1*%
X162266000Y-90693000D02*
X168516000Y-90693000D01*
X162266000Y-95743000D02*
X168516000Y-95743000D01*
X162266000Y-95743000D02*
G75*
G02*
X162266000Y-90693000I0J2525000D01*
G01*
X168516000Y-90693000D02*
G75*
G02*
X168516000Y-95743000I0J-2525000D01*
G01*
%TO.C,JP1*%
X211395000Y-93666000D02*
X214055000Y-93666000D01*
X211395000Y-98806000D02*
X211395000Y-93666000D01*
X211395000Y-98806000D02*
X214055000Y-98806000D01*
X211395000Y-100076000D02*
X211395000Y-101406000D01*
X211395000Y-101406000D02*
X212725000Y-101406000D01*
X214055000Y-98806000D02*
X214055000Y-93666000D01*
%TO.C,C7*%
X84251000Y-58320000D02*
X91691000Y-58320000D01*
X84251000Y-61060000D02*
X84251000Y-58320000D01*
X84251000Y-61060000D02*
X91691000Y-61060000D01*
X91691000Y-61060000D02*
X91691000Y-58320000D01*
%TO.C,L1*%
X199556000Y-86741000D02*
X197896000Y-86741000D01*
X203796000Y-86741000D02*
G75*
G02*
X199556000Y-86741000I-2120000J0D01*
G01*
X199556000Y-86741000D02*
G75*
G02*
X203796000Y-86741000I2120000J0D01*
G01*
%TO.C,L2*%
X208446000Y-83439000D02*
X206786000Y-83439000D01*
X212686000Y-83439000D02*
G75*
G02*
X208446000Y-83439000I-2120000J0D01*
G01*
X208446000Y-83439000D02*
G75*
G02*
X212686000Y-83439000I2120000J0D01*
G01*
%TO.C,C11*%
X203997759Y-91120000D02*
X204627759Y-91120000D01*
X204312759Y-91435000D02*
X204312759Y-90805000D01*
X207498000Y-92511000D02*
X207498000Y-86051000D01*
X207538000Y-92511000D02*
X207538000Y-86051000D01*
X207578000Y-92511000D02*
X207578000Y-86051000D01*
X207618000Y-92509000D02*
X207618000Y-86053000D01*
X207658000Y-92508000D02*
X207658000Y-86054000D01*
X207698000Y-92505000D02*
X207698000Y-86057000D01*
X207738000Y-88241000D02*
X207738000Y-86059000D01*
X207738000Y-92503000D02*
X207738000Y-90321000D01*
X207778000Y-88241000D02*
X207778000Y-86063000D01*
X207778000Y-92499000D02*
X207778000Y-90321000D01*
X207818000Y-88241000D02*
X207818000Y-86066000D01*
X207818000Y-92496000D02*
X207818000Y-90321000D01*
X207858000Y-88241000D02*
X207858000Y-86070000D01*
X207858000Y-92492000D02*
X207858000Y-90321000D01*
X207898000Y-88241000D02*
X207898000Y-86075000D01*
X207898000Y-92487000D02*
X207898000Y-90321000D01*
X207938000Y-88241000D02*
X207938000Y-86080000D01*
X207938000Y-92482000D02*
X207938000Y-90321000D01*
X207978000Y-88241000D02*
X207978000Y-86086000D01*
X207978000Y-92476000D02*
X207978000Y-90321000D01*
X208018000Y-88241000D02*
X208018000Y-86092000D01*
X208018000Y-92470000D02*
X208018000Y-90321000D01*
X208058000Y-88241000D02*
X208058000Y-86099000D01*
X208058000Y-92463000D02*
X208058000Y-90321000D01*
X208098000Y-88241000D02*
X208098000Y-86106000D01*
X208098000Y-92456000D02*
X208098000Y-90321000D01*
X208138000Y-88241000D02*
X208138000Y-86114000D01*
X208138000Y-92448000D02*
X208138000Y-90321000D01*
X208178000Y-88241000D02*
X208178000Y-86122000D01*
X208178000Y-92440000D02*
X208178000Y-90321000D01*
X208219000Y-88241000D02*
X208219000Y-86131000D01*
X208219000Y-92431000D02*
X208219000Y-90321000D01*
X208259000Y-88241000D02*
X208259000Y-86140000D01*
X208259000Y-92422000D02*
X208259000Y-90321000D01*
X208299000Y-88241000D02*
X208299000Y-86150000D01*
X208299000Y-92412000D02*
X208299000Y-90321000D01*
X208339000Y-88241000D02*
X208339000Y-86160000D01*
X208339000Y-92402000D02*
X208339000Y-90321000D01*
X208379000Y-88241000D02*
X208379000Y-86171000D01*
X208379000Y-92391000D02*
X208379000Y-90321000D01*
X208419000Y-88241000D02*
X208419000Y-86183000D01*
X208419000Y-92379000D02*
X208419000Y-90321000D01*
X208459000Y-88241000D02*
X208459000Y-86195000D01*
X208459000Y-92367000D02*
X208459000Y-90321000D01*
X208499000Y-88241000D02*
X208499000Y-86207000D01*
X208499000Y-92355000D02*
X208499000Y-90321000D01*
X208539000Y-88241000D02*
X208539000Y-86220000D01*
X208539000Y-92342000D02*
X208539000Y-90321000D01*
X208579000Y-88241000D02*
X208579000Y-86234000D01*
X208579000Y-92328000D02*
X208579000Y-90321000D01*
X208619000Y-88241000D02*
X208619000Y-86248000D01*
X208619000Y-92314000D02*
X208619000Y-90321000D01*
X208659000Y-88241000D02*
X208659000Y-86263000D01*
X208659000Y-92299000D02*
X208659000Y-90321000D01*
X208699000Y-88241000D02*
X208699000Y-86279000D01*
X208699000Y-92283000D02*
X208699000Y-90321000D01*
X208739000Y-88241000D02*
X208739000Y-86295000D01*
X208739000Y-92267000D02*
X208739000Y-90321000D01*
X208779000Y-88241000D02*
X208779000Y-86311000D01*
X208779000Y-92251000D02*
X208779000Y-90321000D01*
X208819000Y-88241000D02*
X208819000Y-86329000D01*
X208819000Y-92233000D02*
X208819000Y-90321000D01*
X208859000Y-88241000D02*
X208859000Y-86347000D01*
X208859000Y-92215000D02*
X208859000Y-90321000D01*
X208899000Y-88241000D02*
X208899000Y-86365000D01*
X208899000Y-92197000D02*
X208899000Y-90321000D01*
X208939000Y-88241000D02*
X208939000Y-86385000D01*
X208939000Y-92177000D02*
X208939000Y-90321000D01*
X208979000Y-88241000D02*
X208979000Y-86405000D01*
X208979000Y-92157000D02*
X208979000Y-90321000D01*
X209019000Y-88241000D02*
X209019000Y-86425000D01*
X209019000Y-92137000D02*
X209019000Y-90321000D01*
X209059000Y-88241000D02*
X209059000Y-86447000D01*
X209059000Y-92115000D02*
X209059000Y-90321000D01*
X209099000Y-88241000D02*
X209099000Y-86469000D01*
X209099000Y-92093000D02*
X209099000Y-90321000D01*
X209139000Y-88241000D02*
X209139000Y-86491000D01*
X209139000Y-92071000D02*
X209139000Y-90321000D01*
X209179000Y-88241000D02*
X209179000Y-86515000D01*
X209179000Y-92047000D02*
X209179000Y-90321000D01*
X209219000Y-88241000D02*
X209219000Y-86539000D01*
X209219000Y-92023000D02*
X209219000Y-90321000D01*
X209259000Y-88241000D02*
X209259000Y-86565000D01*
X209259000Y-91997000D02*
X209259000Y-90321000D01*
X209299000Y-88241000D02*
X209299000Y-86591000D01*
X209299000Y-91971000D02*
X209299000Y-90321000D01*
X209339000Y-88241000D02*
X209339000Y-86617000D01*
X209339000Y-91945000D02*
X209339000Y-90321000D01*
X209379000Y-88241000D02*
X209379000Y-86645000D01*
X209379000Y-91917000D02*
X209379000Y-90321000D01*
X209419000Y-88241000D02*
X209419000Y-86674000D01*
X209419000Y-91888000D02*
X209419000Y-90321000D01*
X209459000Y-88241000D02*
X209459000Y-86703000D01*
X209459000Y-91859000D02*
X209459000Y-90321000D01*
X209499000Y-88241000D02*
X209499000Y-86733000D01*
X209499000Y-91829000D02*
X209499000Y-90321000D01*
X209539000Y-88241000D02*
X209539000Y-86765000D01*
X209539000Y-91797000D02*
X209539000Y-90321000D01*
X209579000Y-88241000D02*
X209579000Y-86797000D01*
X209579000Y-91765000D02*
X209579000Y-90321000D01*
X209619000Y-88241000D02*
X209619000Y-86831000D01*
X209619000Y-91731000D02*
X209619000Y-90321000D01*
X209659000Y-88241000D02*
X209659000Y-86865000D01*
X209659000Y-91697000D02*
X209659000Y-90321000D01*
X209699000Y-88241000D02*
X209699000Y-86901000D01*
X209699000Y-91661000D02*
X209699000Y-90321000D01*
X209739000Y-88241000D02*
X209739000Y-86938000D01*
X209739000Y-91624000D02*
X209739000Y-90321000D01*
X209779000Y-88241000D02*
X209779000Y-86976000D01*
X209779000Y-91586000D02*
X209779000Y-90321000D01*
X209819000Y-91546000D02*
X209819000Y-87016000D01*
X209859000Y-91505000D02*
X209859000Y-87057000D01*
X209899000Y-91463000D02*
X209899000Y-87099000D01*
X209939000Y-91418000D02*
X209939000Y-87144000D01*
X209979000Y-91373000D02*
X209979000Y-87189000D01*
X210019000Y-91325000D02*
X210019000Y-87237000D01*
X210059000Y-91276000D02*
X210059000Y-87286000D01*
X210099000Y-91225000D02*
X210099000Y-87337000D01*
X210139000Y-91171000D02*
X210139000Y-87391000D01*
X210179000Y-91115000D02*
X210179000Y-87447000D01*
X210219000Y-91057000D02*
X210219000Y-87505000D01*
X210259000Y-90995000D02*
X210259000Y-87567000D01*
X210299000Y-90931000D02*
X210299000Y-87631000D01*
X210339000Y-90862000D02*
X210339000Y-87700000D01*
X210379000Y-90790000D02*
X210379000Y-87772000D01*
X210419000Y-90713000D02*
X210419000Y-87849000D01*
X210459000Y-90631000D02*
X210459000Y-87931000D01*
X210499000Y-90543000D02*
X210499000Y-88019000D01*
X210539000Y-90446000D02*
X210539000Y-88116000D01*
X210579000Y-90340000D02*
X210579000Y-88222000D01*
X210619000Y-90221000D02*
X210619000Y-88341000D01*
X210659000Y-90083000D02*
X210659000Y-88479000D01*
X210699000Y-89914000D02*
X210699000Y-88648000D01*
X210739000Y-89683000D02*
X210739000Y-88879000D01*
X210768000Y-89281000D02*
G75*
G02*
X204228000Y-89281000I-3270000J0D01*
G01*
X204228000Y-89281000D02*
G75*
G02*
X210768000Y-89281000I3270000J0D01*
G01*
%TO.C,D8*%
X214399420Y-79368181D02*
G75*
G02*
X214451360Y-76678000I-2309420J1390181D01*
G01*
%TO.C,D9*%
X213112819Y-107338420D02*
G75*
G02*
X215803000Y-107390360I1390181J2309420D01*
G01*
%TO.C,D10*%
X70351181Y-98909580D02*
G75*
G02*
X67661000Y-98857640I-1390181J-2309420D01*
G01*
%TO.C,D11*%
X170440819Y-134135420D02*
G75*
G02*
X173131000Y-134187360I1390181J2309420D01*
G01*
%TO.C,J6*%
X151398000Y-130836000D02*
X153398000Y-130836000D01*
X151398000Y-133076000D02*
X151398000Y-130836000D01*
X151638000Y-131076000D02*
X166758000Y-131076000D01*
X151638000Y-133136000D02*
X166758000Y-133136000D01*
X151638000Y-138136000D02*
X166758000Y-138136000D01*
X151638000Y-140196000D02*
X151638000Y-131076000D01*
X151638000Y-140196000D02*
X166758000Y-140196000D01*
X161768000Y-134660000D02*
X161674000Y-134567000D01*
X161938000Y-134420000D02*
X161879000Y-134362000D01*
X164018000Y-136911000D02*
X163959000Y-136852000D01*
X164223000Y-136705000D02*
X164129000Y-136612000D01*
X166758000Y-140196000D02*
X166758000Y-131076000D01*
X153964000Y-136425000D02*
G75*
G02*
X153964048Y-134846911I1484000J789000D01*
G01*
X154659000Y-134152001D02*
G75*
G02*
X155477383Y-133955551I788998J-1483994D01*
G01*
X155448000Y-133956000D02*
G75*
G02*
X156236712Y-134152648I0J-1680000D01*
G01*
X156237000Y-137119999D02*
G75*
G02*
X154658912Y-137119952I-789000J1484003D01*
G01*
X156931999Y-134847000D02*
G75*
G02*
X156931952Y-136425088I-1484003J-789000D01*
G01*
X164628000Y-135636000D02*
G75*
G02*
X161268000Y-135636000I-1680000J0D01*
G01*
X161268000Y-135636000D02*
G75*
G02*
X164628000Y-135636000I1680000J0D01*
G01*
%TO.C,L3*%
X75907000Y-66040000D02*
X77567000Y-66040000D01*
X75907000Y-66040000D02*
G75*
G02*
X71667000Y-66040000I-2120000J0D01*
G01*
X71667000Y-66040000D02*
G75*
G02*
X75907000Y-66040000I2120000J0D01*
G01*
%TO.C,J7*%
X84215000Y-130836000D02*
X86215000Y-130836000D01*
X84215000Y-133076000D02*
X84215000Y-130836000D01*
X84455000Y-131076000D02*
X107076000Y-131076000D01*
X84455000Y-133136000D02*
X107076000Y-133136000D01*
X84455000Y-138136000D02*
X107076000Y-138136000D01*
X84455000Y-140196000D02*
X84455000Y-131076000D01*
X84455000Y-140196000D02*
X107076000Y-140196000D01*
X94585000Y-134660000D02*
X94491000Y-134567000D01*
X94755000Y-134420000D02*
X94696000Y-134362000D01*
X96835000Y-136911000D02*
X96776000Y-136852000D01*
X97040000Y-136705000D02*
X96946000Y-136612000D01*
X102085000Y-134660000D02*
X101991000Y-134567000D01*
X102255000Y-134420000D02*
X102196000Y-134362000D01*
X104335000Y-136911000D02*
X104276000Y-136852000D01*
X104540000Y-136705000D02*
X104446000Y-136612000D01*
X107076000Y-140196000D02*
X107076000Y-131076000D01*
X86781000Y-136425000D02*
G75*
G02*
X86781048Y-134846911I1484000J789000D01*
G01*
X87476000Y-134152001D02*
G75*
G02*
X88294383Y-133955551I788998J-1483994D01*
G01*
X88265000Y-133956000D02*
G75*
G02*
X89053712Y-134152648I0J-1680000D01*
G01*
X89054000Y-137119999D02*
G75*
G02*
X87475912Y-137119952I-789000J1484003D01*
G01*
X89748999Y-134847000D02*
G75*
G02*
X89748952Y-136425088I-1484003J-789000D01*
G01*
X97445000Y-135636000D02*
G75*
G02*
X94085000Y-135636000I-1680000J0D01*
G01*
X94085000Y-135636000D02*
G75*
G02*
X97445000Y-135636000I1680000J0D01*
G01*
X104945000Y-135636000D02*
G75*
G02*
X101585000Y-135636000I-1680000J0D01*
G01*
X101585000Y-135636000D02*
G75*
G02*
X104945000Y-135636000I1680000J0D01*
G01*
%TO.C,D14*%
X88017819Y-127023420D02*
G75*
G02*
X90708000Y-127075360I1390181J2309420D01*
G01*
%TO.C,BZ1*%
X87370000Y-101600000D02*
G75*
G02*
X75170000Y-101600000I-6100000J0D01*
G01*
X75170000Y-101600000D02*
G75*
G02*
X87370000Y-101600000I6100000J0D01*
G01*
%TO.C,F1*%
X68017000Y-71169000D02*
X77017000Y-71169000D01*
X68017000Y-93169000D02*
X68017000Y-71169000D01*
X77017000Y-71169000D02*
X77017000Y-93169000D01*
X77017000Y-93169000D02*
X68017000Y-93169000D01*
%TO.C,C23*%
X79410759Y-72070000D02*
X80040759Y-72070000D01*
X79725759Y-72385000D02*
X79725759Y-71755000D01*
X82911000Y-73461000D02*
X82911000Y-67001000D01*
X82951000Y-73461000D02*
X82951000Y-67001000D01*
X82991000Y-73461000D02*
X82991000Y-67001000D01*
X83031000Y-73459000D02*
X83031000Y-67003000D01*
X83071000Y-73458000D02*
X83071000Y-67004000D01*
X83111000Y-73455000D02*
X83111000Y-67007000D01*
X83151000Y-69191000D02*
X83151000Y-67009000D01*
X83151000Y-73453000D02*
X83151000Y-71271000D01*
X83191000Y-69191000D02*
X83191000Y-67013000D01*
X83191000Y-73449000D02*
X83191000Y-71271000D01*
X83231000Y-69191000D02*
X83231000Y-67016000D01*
X83231000Y-73446000D02*
X83231000Y-71271000D01*
X83271000Y-69191000D02*
X83271000Y-67020000D01*
X83271000Y-73442000D02*
X83271000Y-71271000D01*
X83311000Y-69191000D02*
X83311000Y-67025000D01*
X83311000Y-73437000D02*
X83311000Y-71271000D01*
X83351000Y-69191000D02*
X83351000Y-67030000D01*
X83351000Y-73432000D02*
X83351000Y-71271000D01*
X83391000Y-69191000D02*
X83391000Y-67036000D01*
X83391000Y-73426000D02*
X83391000Y-71271000D01*
X83431000Y-69191000D02*
X83431000Y-67042000D01*
X83431000Y-73420000D02*
X83431000Y-71271000D01*
X83471000Y-69191000D02*
X83471000Y-67049000D01*
X83471000Y-73413000D02*
X83471000Y-71271000D01*
X83511000Y-69191000D02*
X83511000Y-67056000D01*
X83511000Y-73406000D02*
X83511000Y-71271000D01*
X83551000Y-69191000D02*
X83551000Y-67064000D01*
X83551000Y-73398000D02*
X83551000Y-71271000D01*
X83591000Y-69191000D02*
X83591000Y-67072000D01*
X83591000Y-73390000D02*
X83591000Y-71271000D01*
X83632000Y-69191000D02*
X83632000Y-67081000D01*
X83632000Y-73381000D02*
X83632000Y-71271000D01*
X83672000Y-69191000D02*
X83672000Y-67090000D01*
X83672000Y-73372000D02*
X83672000Y-71271000D01*
X83712000Y-69191000D02*
X83712000Y-67100000D01*
X83712000Y-73362000D02*
X83712000Y-71271000D01*
X83752000Y-69191000D02*
X83752000Y-67110000D01*
X83752000Y-73352000D02*
X83752000Y-71271000D01*
X83792000Y-69191000D02*
X83792000Y-67121000D01*
X83792000Y-73341000D02*
X83792000Y-71271000D01*
X83832000Y-69191000D02*
X83832000Y-67133000D01*
X83832000Y-73329000D02*
X83832000Y-71271000D01*
X83872000Y-69191000D02*
X83872000Y-67145000D01*
X83872000Y-73317000D02*
X83872000Y-71271000D01*
X83912000Y-69191000D02*
X83912000Y-67157000D01*
X83912000Y-73305000D02*
X83912000Y-71271000D01*
X83952000Y-69191000D02*
X83952000Y-67170000D01*
X83952000Y-73292000D02*
X83952000Y-71271000D01*
X83992000Y-69191000D02*
X83992000Y-67184000D01*
X83992000Y-73278000D02*
X83992000Y-71271000D01*
X84032000Y-69191000D02*
X84032000Y-67198000D01*
X84032000Y-73264000D02*
X84032000Y-71271000D01*
X84072000Y-69191000D02*
X84072000Y-67213000D01*
X84072000Y-73249000D02*
X84072000Y-71271000D01*
X84112000Y-69191000D02*
X84112000Y-67229000D01*
X84112000Y-73233000D02*
X84112000Y-71271000D01*
X84152000Y-69191000D02*
X84152000Y-67245000D01*
X84152000Y-73217000D02*
X84152000Y-71271000D01*
X84192000Y-69191000D02*
X84192000Y-67261000D01*
X84192000Y-73201000D02*
X84192000Y-71271000D01*
X84232000Y-69191000D02*
X84232000Y-67279000D01*
X84232000Y-73183000D02*
X84232000Y-71271000D01*
X84272000Y-69191000D02*
X84272000Y-67297000D01*
X84272000Y-73165000D02*
X84272000Y-71271000D01*
X84312000Y-69191000D02*
X84312000Y-67315000D01*
X84312000Y-73147000D02*
X84312000Y-71271000D01*
X84352000Y-69191000D02*
X84352000Y-67335000D01*
X84352000Y-73127000D02*
X84352000Y-71271000D01*
X84392000Y-69191000D02*
X84392000Y-67355000D01*
X84392000Y-73107000D02*
X84392000Y-71271000D01*
X84432000Y-69191000D02*
X84432000Y-67375000D01*
X84432000Y-73087000D02*
X84432000Y-71271000D01*
X84472000Y-69191000D02*
X84472000Y-67397000D01*
X84472000Y-73065000D02*
X84472000Y-71271000D01*
X84512000Y-69191000D02*
X84512000Y-67419000D01*
X84512000Y-73043000D02*
X84512000Y-71271000D01*
X84552000Y-69191000D02*
X84552000Y-67441000D01*
X84552000Y-73021000D02*
X84552000Y-71271000D01*
X84592000Y-69191000D02*
X84592000Y-67465000D01*
X84592000Y-72997000D02*
X84592000Y-71271000D01*
X84632000Y-69191000D02*
X84632000Y-67489000D01*
X84632000Y-72973000D02*
X84632000Y-71271000D01*
X84672000Y-69191000D02*
X84672000Y-67515000D01*
X84672000Y-72947000D02*
X84672000Y-71271000D01*
X84712000Y-69191000D02*
X84712000Y-67541000D01*
X84712000Y-72921000D02*
X84712000Y-71271000D01*
X84752000Y-69191000D02*
X84752000Y-67567000D01*
X84752000Y-72895000D02*
X84752000Y-71271000D01*
X84792000Y-69191000D02*
X84792000Y-67595000D01*
X84792000Y-72867000D02*
X84792000Y-71271000D01*
X84832000Y-69191000D02*
X84832000Y-67624000D01*
X84832000Y-72838000D02*
X84832000Y-71271000D01*
X84872000Y-69191000D02*
X84872000Y-67653000D01*
X84872000Y-72809000D02*
X84872000Y-71271000D01*
X84912000Y-69191000D02*
X84912000Y-67683000D01*
X84912000Y-72779000D02*
X84912000Y-71271000D01*
X84952000Y-69191000D02*
X84952000Y-67715000D01*
X84952000Y-72747000D02*
X84952000Y-71271000D01*
X84992000Y-69191000D02*
X84992000Y-67747000D01*
X84992000Y-72715000D02*
X84992000Y-71271000D01*
X85032000Y-69191000D02*
X85032000Y-67781000D01*
X85032000Y-72681000D02*
X85032000Y-71271000D01*
X85072000Y-69191000D02*
X85072000Y-67815000D01*
X85072000Y-72647000D02*
X85072000Y-71271000D01*
X85112000Y-69191000D02*
X85112000Y-67851000D01*
X85112000Y-72611000D02*
X85112000Y-71271000D01*
X85152000Y-69191000D02*
X85152000Y-67888000D01*
X85152000Y-72574000D02*
X85152000Y-71271000D01*
X85192000Y-69191000D02*
X85192000Y-67926000D01*
X85192000Y-72536000D02*
X85192000Y-71271000D01*
X85232000Y-72496000D02*
X85232000Y-67966000D01*
X85272000Y-72455000D02*
X85272000Y-68007000D01*
X85312000Y-72413000D02*
X85312000Y-68049000D01*
X85352000Y-72368000D02*
X85352000Y-68094000D01*
X85392000Y-72323000D02*
X85392000Y-68139000D01*
X85432000Y-72275000D02*
X85432000Y-68187000D01*
X85472000Y-72226000D02*
X85472000Y-68236000D01*
X85512000Y-72175000D02*
X85512000Y-68287000D01*
X85552000Y-72121000D02*
X85552000Y-68341000D01*
X85592000Y-72065000D02*
X85592000Y-68397000D01*
X85632000Y-72007000D02*
X85632000Y-68455000D01*
X85672000Y-71945000D02*
X85672000Y-68517000D01*
X85712000Y-71881000D02*
X85712000Y-68581000D01*
X85752000Y-71812000D02*
X85752000Y-68650000D01*
X85792000Y-71740000D02*
X85792000Y-68722000D01*
X85832000Y-71663000D02*
X85832000Y-68799000D01*
X85872000Y-71581000D02*
X85872000Y-68881000D01*
X85912000Y-71493000D02*
X85912000Y-68969000D01*
X85952000Y-71396000D02*
X85952000Y-69066000D01*
X85992000Y-71290000D02*
X85992000Y-69172000D01*
X86032000Y-71171000D02*
X86032000Y-69291000D01*
X86072000Y-71033000D02*
X86072000Y-69429000D01*
X86112000Y-70864000D02*
X86112000Y-69598000D01*
X86152000Y-70633000D02*
X86152000Y-69829000D01*
X86181000Y-70231000D02*
G75*
G02*
X79641000Y-70231000I-3270000J0D01*
G01*
X79641000Y-70231000D02*
G75*
G02*
X86181000Y-70231000I3270000J0D01*
G01*
%TO.C,C18*%
X76789000Y-59288000D02*
X76789000Y-60092000D01*
X76829000Y-59057000D02*
X76829000Y-60323000D01*
X76869000Y-58888000D02*
X76869000Y-60492000D01*
X76909000Y-58750000D02*
X76909000Y-60630000D01*
X76949000Y-58631000D02*
X76949000Y-60749000D01*
X76989000Y-58525000D02*
X76989000Y-60855000D01*
X77029000Y-58428000D02*
X77029000Y-60952000D01*
X77069000Y-58340000D02*
X77069000Y-61040000D01*
X77109000Y-58258000D02*
X77109000Y-61122000D01*
X77149000Y-58181000D02*
X77149000Y-61199000D01*
X77189000Y-58109000D02*
X77189000Y-61271000D01*
X77229000Y-58040000D02*
X77229000Y-61340000D01*
X77269000Y-57976000D02*
X77269000Y-61404000D01*
X77309000Y-57914000D02*
X77309000Y-61466000D01*
X77349000Y-57856000D02*
X77349000Y-61524000D01*
X77389000Y-57800000D02*
X77389000Y-61580000D01*
X77429000Y-57746000D02*
X77429000Y-61634000D01*
X77469000Y-57695000D02*
X77469000Y-61685000D01*
X77509000Y-57646000D02*
X77509000Y-61734000D01*
X77549000Y-57598000D02*
X77549000Y-61782000D01*
X77589000Y-57553000D02*
X77589000Y-61827000D01*
X77629000Y-57508000D02*
X77629000Y-61872000D01*
X77669000Y-57466000D02*
X77669000Y-61914000D01*
X77709000Y-57425000D02*
X77709000Y-61955000D01*
X77749000Y-57385000D02*
X77749000Y-58650000D01*
X77749000Y-60730000D02*
X77749000Y-61995000D01*
X77789000Y-57347000D02*
X77789000Y-58650000D01*
X77789000Y-60730000D02*
X77789000Y-62033000D01*
X77829000Y-57310000D02*
X77829000Y-58650000D01*
X77829000Y-60730000D02*
X77829000Y-62070000D01*
X77869000Y-57274000D02*
X77869000Y-58650000D01*
X77869000Y-60730000D02*
X77869000Y-62106000D01*
X77909000Y-57240000D02*
X77909000Y-58650000D01*
X77909000Y-60730000D02*
X77909000Y-62140000D01*
X77949000Y-57206000D02*
X77949000Y-58650000D01*
X77949000Y-60730000D02*
X77949000Y-62174000D01*
X77989000Y-57174000D02*
X77989000Y-58650000D01*
X77989000Y-60730000D02*
X77989000Y-62206000D01*
X78029000Y-57142000D02*
X78029000Y-58650000D01*
X78029000Y-60730000D02*
X78029000Y-62238000D01*
X78069000Y-57112000D02*
X78069000Y-58650000D01*
X78069000Y-60730000D02*
X78069000Y-62268000D01*
X78109000Y-57083000D02*
X78109000Y-58650000D01*
X78109000Y-60730000D02*
X78109000Y-62297000D01*
X78149000Y-57054000D02*
X78149000Y-58650000D01*
X78149000Y-60730000D02*
X78149000Y-62326000D01*
X78189000Y-57026000D02*
X78189000Y-58650000D01*
X78189000Y-60730000D02*
X78189000Y-62354000D01*
X78229000Y-57000000D02*
X78229000Y-58650000D01*
X78229000Y-60730000D02*
X78229000Y-62380000D01*
X78269000Y-56974000D02*
X78269000Y-58650000D01*
X78269000Y-60730000D02*
X78269000Y-62406000D01*
X78309000Y-56948000D02*
X78309000Y-58650000D01*
X78309000Y-60730000D02*
X78309000Y-62432000D01*
X78349000Y-56924000D02*
X78349000Y-58650000D01*
X78349000Y-60730000D02*
X78349000Y-62456000D01*
X78389000Y-56900000D02*
X78389000Y-58650000D01*
X78389000Y-60730000D02*
X78389000Y-62480000D01*
X78429000Y-56878000D02*
X78429000Y-58650000D01*
X78429000Y-60730000D02*
X78429000Y-62502000D01*
X78469000Y-56856000D02*
X78469000Y-58650000D01*
X78469000Y-60730000D02*
X78469000Y-62524000D01*
X78509000Y-56834000D02*
X78509000Y-58650000D01*
X78509000Y-60730000D02*
X78509000Y-62546000D01*
X78549000Y-56814000D02*
X78549000Y-58650000D01*
X78549000Y-60730000D02*
X78549000Y-62566000D01*
X78589000Y-56794000D02*
X78589000Y-58650000D01*
X78589000Y-60730000D02*
X78589000Y-62586000D01*
X78629000Y-56774000D02*
X78629000Y-58650000D01*
X78629000Y-60730000D02*
X78629000Y-62606000D01*
X78669000Y-56756000D02*
X78669000Y-58650000D01*
X78669000Y-60730000D02*
X78669000Y-62624000D01*
X78709000Y-56738000D02*
X78709000Y-58650000D01*
X78709000Y-60730000D02*
X78709000Y-62642000D01*
X78749000Y-56720000D02*
X78749000Y-58650000D01*
X78749000Y-60730000D02*
X78749000Y-62660000D01*
X78789000Y-56704000D02*
X78789000Y-58650000D01*
X78789000Y-60730000D02*
X78789000Y-62676000D01*
X78829000Y-56688000D02*
X78829000Y-58650000D01*
X78829000Y-60730000D02*
X78829000Y-62692000D01*
X78869000Y-56672000D02*
X78869000Y-58650000D01*
X78869000Y-60730000D02*
X78869000Y-62708000D01*
X78909000Y-56657000D02*
X78909000Y-58650000D01*
X78909000Y-60730000D02*
X78909000Y-62723000D01*
X78949000Y-56643000D02*
X78949000Y-58650000D01*
X78949000Y-60730000D02*
X78949000Y-62737000D01*
X78989000Y-56629000D02*
X78989000Y-58650000D01*
X78989000Y-60730000D02*
X78989000Y-62751000D01*
X79029000Y-56616000D02*
X79029000Y-58650000D01*
X79029000Y-60730000D02*
X79029000Y-62764000D01*
X79069000Y-56604000D02*
X79069000Y-58650000D01*
X79069000Y-60730000D02*
X79069000Y-62776000D01*
X79109000Y-56592000D02*
X79109000Y-58650000D01*
X79109000Y-60730000D02*
X79109000Y-62788000D01*
X79149000Y-56580000D02*
X79149000Y-58650000D01*
X79149000Y-60730000D02*
X79149000Y-62800000D01*
X79189000Y-56569000D02*
X79189000Y-58650000D01*
X79189000Y-60730000D02*
X79189000Y-62811000D01*
X79229000Y-56559000D02*
X79229000Y-58650000D01*
X79229000Y-60730000D02*
X79229000Y-62821000D01*
X79269000Y-56549000D02*
X79269000Y-58650000D01*
X79269000Y-60730000D02*
X79269000Y-62831000D01*
X79309000Y-56540000D02*
X79309000Y-58650000D01*
X79309000Y-60730000D02*
X79309000Y-62840000D01*
X79350000Y-56531000D02*
X79350000Y-58650000D01*
X79350000Y-60730000D02*
X79350000Y-62849000D01*
X79390000Y-56523000D02*
X79390000Y-58650000D01*
X79390000Y-60730000D02*
X79390000Y-62857000D01*
X79430000Y-56515000D02*
X79430000Y-58650000D01*
X79430000Y-60730000D02*
X79430000Y-62865000D01*
X79470000Y-56508000D02*
X79470000Y-58650000D01*
X79470000Y-60730000D02*
X79470000Y-62872000D01*
X79510000Y-56501000D02*
X79510000Y-58650000D01*
X79510000Y-60730000D02*
X79510000Y-62879000D01*
X79550000Y-56495000D02*
X79550000Y-58650000D01*
X79550000Y-60730000D02*
X79550000Y-62885000D01*
X79590000Y-56489000D02*
X79590000Y-58650000D01*
X79590000Y-60730000D02*
X79590000Y-62891000D01*
X79630000Y-56484000D02*
X79630000Y-58650000D01*
X79630000Y-60730000D02*
X79630000Y-62896000D01*
X79670000Y-56479000D02*
X79670000Y-58650000D01*
X79670000Y-60730000D02*
X79670000Y-62901000D01*
X79710000Y-56475000D02*
X79710000Y-58650000D01*
X79710000Y-60730000D02*
X79710000Y-62905000D01*
X79750000Y-56472000D02*
X79750000Y-58650000D01*
X79750000Y-60730000D02*
X79750000Y-62908000D01*
X79790000Y-56468000D02*
X79790000Y-58650000D01*
X79790000Y-60730000D02*
X79790000Y-62912000D01*
X79830000Y-56466000D02*
X79830000Y-62914000D01*
X79870000Y-56463000D02*
X79870000Y-62917000D01*
X79910000Y-56462000D02*
X79910000Y-62918000D01*
X79950000Y-56460000D02*
X79950000Y-62920000D01*
X79990000Y-56460000D02*
X79990000Y-62920000D01*
X80030000Y-56460000D02*
X80030000Y-62920000D01*
X83215241Y-57536000D02*
X83215241Y-58166000D01*
X83530241Y-57851000D02*
X82900241Y-57851000D01*
X83300000Y-59690000D02*
G75*
G02*
X76760000Y-59690000I-3270000J0D01*
G01*
X76760000Y-59690000D02*
G75*
G02*
X83300000Y-59690000I3270000J0D01*
G01*
%TD*%
M02*
