%TF.GenerationSoftware,KiCad,Pcbnew,8.0.1*%
%TF.CreationDate,2024-04-17T00:35:38+02:00*%
%TF.ProjectId,Solaranlage,536f6c61-7261-46e6-9c61-67652e6b6963,rev?*%
%TF.SameCoordinates,Original*%
%TF.FileFunction,Plated,1,2,PTH,Drill*%
%TF.FilePolarity,Positive*%
%FSLAX46Y46*%
G04 Gerber Fmt 4.6, Leading zero omitted, Abs format (unit mm)*
G04 Created by KiCad (PCBNEW 8.0.1) date 2024-04-17 00:35:38*
%MOMM*%
%LPD*%
G01*
G04 APERTURE LIST*
%TA.AperFunction,ViaDrill*%
%ADD10C,0.400000*%
%TD*%
%TA.AperFunction,ComponentDrill*%
%ADD11C,0.500000*%
%TD*%
%TA.AperFunction,ComponentDrill*%
%ADD12C,0.700000*%
%TD*%
%TA.AperFunction,ComponentDrill*%
%ADD13C,0.762000*%
%TD*%
%TA.AperFunction,ComponentDrill*%
%ADD14C,0.800000*%
%TD*%
%TA.AperFunction,ComponentDrill*%
%ADD15C,0.900000*%
%TD*%
%TA.AperFunction,ComponentDrill*%
%ADD16C,0.950000*%
%TD*%
%TA.AperFunction,ComponentDrill*%
%ADD17C,1.000000*%
%TD*%
%TA.AperFunction,ComponentDrill*%
%ADD18C,1.300000*%
%TD*%
%TA.AperFunction,ComponentDrill*%
%ADD19C,1.500000*%
%TD*%
%TA.AperFunction,ComponentDrill*%
%ADD20C,1.600000*%
%TD*%
%TA.AperFunction,ComponentDrill*%
%ADD21C,2.000000*%
%TD*%
%TA.AperFunction,ComponentDrill*%
%ADD22C,2.300000*%
%TD*%
%TA.AperFunction,ComponentDrill*%
%ADD23C,3.200000*%
%TD*%
G04 APERTURE END LIST*
D10*
X72644000Y-82677000D03*
X98298000Y-85344000D03*
X101473000Y-113157000D03*
X107000000Y-85471000D03*
X108687783Y-116448000D03*
X113284000Y-59690000D03*
X114046000Y-110236000D03*
X120523000Y-71120000D03*
X120523000Y-94742000D03*
X120523000Y-96774000D03*
X121666000Y-69088000D03*
X123063000Y-70104000D03*
X123063000Y-95758000D03*
X123063000Y-97790000D03*
X124206000Y-68326000D03*
X128016000Y-67564000D03*
X128143000Y-65913000D03*
X128143000Y-98806000D03*
X129540000Y-100838000D03*
X130683000Y-66802000D03*
X130683000Y-93726000D03*
X132080000Y-71120000D03*
X132461000Y-99822000D03*
X133858000Y-69088000D03*
X133928000Y-94742000D03*
X133928000Y-96774000D03*
X136398000Y-70104000D03*
X136468000Y-97790000D03*
X136906000Y-95758000D03*
X137668000Y-68326000D03*
X141478000Y-65913000D03*
X141478000Y-67564000D03*
X141548000Y-98806000D03*
X142748000Y-100838000D03*
X144018000Y-66802000D03*
X144088000Y-93726000D03*
X145542000Y-99822000D03*
X145796000Y-71120000D03*
X147193000Y-94742000D03*
X147193000Y-96774000D03*
X147193000Y-104998000D03*
X147320000Y-69088000D03*
X149606000Y-68326000D03*
X149733000Y-95758000D03*
X149733000Y-97790000D03*
X150876000Y-70104000D03*
X154139160Y-100849238D03*
X154686000Y-67564000D03*
X154813000Y-65913000D03*
X155956000Y-98806000D03*
X157226000Y-66802000D03*
X157353000Y-99822000D03*
X165835583Y-84318024D03*
X185547000Y-108839000D03*
X186738000Y-85423000D03*
X190246000Y-105156000D03*
X196977000Y-106299000D03*
X199898000Y-104648000D03*
D11*
%TO.C,H3*%
X52878000Y-61708000D03*
%TO.C,H1*%
X52878000Y-133708000D03*
%TO.C,H3*%
X53580944Y-60010944D03*
X53580944Y-63405056D03*
%TO.C,H1*%
X53580944Y-132010944D03*
X53580944Y-135405056D03*
%TO.C,H3*%
X55278000Y-59308000D03*
X55278000Y-64108000D03*
%TO.C,H1*%
X55278000Y-131308000D03*
X55278000Y-136108000D03*
%TO.C,H3*%
X56975056Y-60010944D03*
X56975056Y-63405056D03*
%TO.C,H1*%
X56975056Y-132010944D03*
X56975056Y-135405056D03*
%TO.C,H3*%
X57678000Y-61708000D03*
%TO.C,H1*%
X57678000Y-133708000D03*
%TO.C,H2*%
X220188000Y-61708000D03*
%TO.C,H4*%
X220188000Y-133708000D03*
%TO.C,H2*%
X220890944Y-60010944D03*
X220890944Y-63405056D03*
%TO.C,H4*%
X220890944Y-132010944D03*
X220890944Y-135405056D03*
%TO.C,H2*%
X222588000Y-59308000D03*
X222588000Y-64108000D03*
%TO.C,H4*%
X222588000Y-131308000D03*
X222588000Y-136108000D03*
%TO.C,H2*%
X224285056Y-60010944D03*
X224285056Y-63405056D03*
%TO.C,H4*%
X224285056Y-132010944D03*
X224285056Y-135405056D03*
%TO.C,H2*%
X224988000Y-61708000D03*
%TO.C,H4*%
X224988000Y-133708000D03*
D12*
%TO.C,R17*%
X71130000Y-124333000D03*
X78750000Y-124333000D03*
%TO.C,R35*%
X84963000Y-76962000D03*
X84963000Y-84582000D03*
%TO.C,GND2*%
X88646000Y-64770000D03*
X96266000Y-64770000D03*
%TO.C,R33*%
X96901000Y-127127000D03*
%TO.C,R31*%
X100457000Y-99314000D03*
%TO.C,R36*%
X101900000Y-68990000D03*
X101900000Y-76610000D03*
%TO.C,R28*%
X102362000Y-102489000D03*
%TO.C,R32*%
X104500000Y-69000000D03*
X104500000Y-76620000D03*
%TO.C,R33*%
X104521000Y-127127000D03*
%TO.C,R25*%
X107188000Y-57404000D03*
X107188000Y-65024000D03*
%TO.C,R31*%
X108077000Y-99314000D03*
%TO.C,R28*%
X109982000Y-102489000D03*
%TO.C,R27*%
X110700000Y-68190000D03*
X110700000Y-75810000D03*
%TO.C,R26*%
X112776000Y-81534000D03*
X112776000Y-89154000D03*
%TO.C,R18*%
X119634000Y-122682000D03*
X119634000Y-130302000D03*
%TO.C,R16*%
X156718000Y-117190000D03*
X164338000Y-117190000D03*
%TO.C,R3*%
X166243000Y-63088000D03*
%TO.C,R7*%
X166243000Y-65628000D03*
%TO.C,R4*%
X166243000Y-68168000D03*
%TO.C,R8*%
X166243000Y-70708000D03*
%TO.C,R5*%
X166243000Y-73248000D03*
%TO.C,R9*%
X166243000Y-75788000D03*
%TO.C,R6*%
X166243000Y-78328000D03*
%TO.C,R10*%
X166243000Y-80868000D03*
%TO.C,R15*%
X168148000Y-117602000D03*
%TO.C,R14*%
X168148000Y-128620000D03*
%TO.C,R3*%
X173863000Y-63088000D03*
%TO.C,R7*%
X173863000Y-65628000D03*
%TO.C,R4*%
X173863000Y-68168000D03*
%TO.C,R8*%
X173863000Y-70708000D03*
%TO.C,R5*%
X173863000Y-73248000D03*
%TO.C,R9*%
X173863000Y-75788000D03*
%TO.C,R6*%
X173863000Y-78328000D03*
%TO.C,R10*%
X173863000Y-80868000D03*
%TO.C,R11*%
X175768000Y-58928000D03*
%TO.C,R15*%
X175768000Y-117602000D03*
%TO.C,R14*%
X175768000Y-128620000D03*
%TO.C,R12*%
X177038000Y-133985000D03*
%TO.C,R34*%
X177038000Y-137033000D03*
%TO.C,R11*%
X183388000Y-58928000D03*
%TO.C,R12*%
X184658000Y-133985000D03*
%TO.C,R34*%
X184658000Y-137033000D03*
%TO.C,R21*%
X187198000Y-120396000D03*
%TO.C,R13*%
X192278000Y-133985000D03*
%TO.C,R21*%
X194818000Y-120396000D03*
%TO.C,R19*%
X198247000Y-123571000D03*
X198247000Y-131191000D03*
%TO.C,R30*%
X199517000Y-77343000D03*
%TO.C,R13*%
X199898000Y-133985000D03*
%TO.C,R24*%
X201168000Y-120650000D03*
%TO.C,R20*%
X201168000Y-123952000D03*
%TO.C,R29*%
X202946000Y-59182000D03*
%TO.C,R22*%
X205486000Y-94214000D03*
X205486000Y-101834000D03*
%TO.C,R30*%
X207137000Y-77343000D03*
%TO.C,R23*%
X208280000Y-94214000D03*
X208280000Y-101834000D03*
%TO.C,R24*%
X208788000Y-120650000D03*
%TO.C,R20*%
X208788000Y-123952000D03*
%TO.C,R29*%
X210566000Y-59182000D03*
%TO.C,GND1*%
X213741000Y-129413000D03*
X213741000Y-137033000D03*
%TO.C,R1*%
X216408000Y-82296000D03*
X216408000Y-89916000D03*
%TO.C,R2*%
X218440000Y-103505000D03*
X226060000Y-103505000D03*
D13*
%TO.C,SW1*%
X148008000Y-118413000D03*
X148008000Y-120913000D03*
X148008000Y-123413000D03*
X148008000Y-125913000D03*
X148008000Y-128413000D03*
D14*
%TO.C,C18*%
X78780000Y-59690000D03*
X81280000Y-59690000D03*
%TO.C,C23*%
X81661000Y-70231000D03*
X84161000Y-70231000D03*
%TO.C,C7*%
X85471000Y-59690000D03*
%TO.C,U12*%
X88646000Y-71374000D03*
X88646000Y-73914000D03*
X88646000Y-76454000D03*
X88646000Y-78994000D03*
X88646000Y-81534000D03*
X88646000Y-84074000D03*
X88646000Y-86614000D03*
X88646000Y-89154000D03*
%TO.C,Q2*%
X89027000Y-97155000D03*
%TO.C,C7*%
X90471000Y-59690000D03*
%TO.C,Q2*%
X91567000Y-99695000D03*
X94107000Y-97155000D03*
%TO.C,U12*%
X96266000Y-71374000D03*
X96266000Y-73914000D03*
X96266000Y-76454000D03*
X96266000Y-78994000D03*
X96266000Y-81534000D03*
X96266000Y-84074000D03*
X96266000Y-86614000D03*
X96266000Y-89154000D03*
%TO.C,C22*%
X98044000Y-112522000D03*
X98044000Y-117522000D03*
%TO.C,U1*%
X120523000Y-63088000D03*
X120523000Y-78328000D03*
%TO.C,U2*%
X120523000Y-89758000D03*
X120523000Y-104998000D03*
%TO.C,U1*%
X123063000Y-63088000D03*
X123063000Y-78328000D03*
%TO.C,U2*%
X123063000Y-89758000D03*
X123063000Y-104998000D03*
%TO.C,U1*%
X125603000Y-63088000D03*
X125603000Y-78328000D03*
%TO.C,U2*%
X125603000Y-89758000D03*
X125603000Y-104998000D03*
%TO.C,U1*%
X128143000Y-63088000D03*
X128143000Y-78328000D03*
%TO.C,U2*%
X128143000Y-89758000D03*
X128143000Y-104998000D03*
%TO.C,U1*%
X130683000Y-63088000D03*
X130683000Y-78328000D03*
%TO.C,U2*%
X130683000Y-89758000D03*
X130683000Y-104998000D03*
%TO.C,U3*%
X133928000Y-63088000D03*
X133928000Y-78328000D03*
%TO.C,U4*%
X133928000Y-89758000D03*
X133928000Y-104998000D03*
%TO.C,U3*%
X136468000Y-63088000D03*
X136468000Y-78328000D03*
%TO.C,U4*%
X136468000Y-89758000D03*
X136468000Y-104998000D03*
%TO.C,U3*%
X139008000Y-63088000D03*
X139008000Y-78328000D03*
%TO.C,U4*%
X139008000Y-89758000D03*
X139008000Y-104998000D03*
%TO.C,U3*%
X141548000Y-63088000D03*
X141548000Y-78328000D03*
%TO.C,U4*%
X141548000Y-89758000D03*
X141548000Y-104998000D03*
%TO.C,U3*%
X144088000Y-63088000D03*
X144088000Y-78328000D03*
%TO.C,U4*%
X144088000Y-89758000D03*
X144088000Y-104998000D03*
%TO.C,U5*%
X147193000Y-63088000D03*
X147193000Y-78328000D03*
%TO.C,U6*%
X147193000Y-89758000D03*
X147193000Y-104998000D03*
%TO.C,U5*%
X149733000Y-63088000D03*
X149733000Y-78328000D03*
%TO.C,U6*%
X149733000Y-89758000D03*
X149733000Y-104998000D03*
%TO.C,U5*%
X152273000Y-63088000D03*
X152273000Y-78328000D03*
%TO.C,U6*%
X152273000Y-89758000D03*
X152273000Y-104998000D03*
%TO.C,U5*%
X154813000Y-63088000D03*
X154813000Y-78328000D03*
%TO.C,U6*%
X154813000Y-89758000D03*
X154813000Y-104998000D03*
%TO.C,U5*%
X157353000Y-63088000D03*
X157353000Y-78328000D03*
%TO.C,U6*%
X157353000Y-89758000D03*
X157353000Y-104998000D03*
%TO.C,C9*%
X159084000Y-113538000D03*
%TO.C,C12*%
X162433000Y-88646000D03*
%TO.C,C13*%
X162433000Y-97663000D03*
%TO.C,Y1*%
X162941000Y-93218000D03*
%TO.C,C9*%
X164084000Y-113538000D03*
%TO.C,C12*%
X167433000Y-88646000D03*
%TO.C,C13*%
X167433000Y-97663000D03*
%TO.C,Y1*%
X167841000Y-93218000D03*
%TO.C,C5*%
X167974000Y-58928000D03*
%TO.C,C8*%
X168148000Y-121000000D03*
%TO.C,C6*%
X168148000Y-124810000D03*
%TO.C,C14*%
X169625000Y-85948000D03*
%TO.C,C5*%
X172974000Y-58928000D03*
%TO.C,C8*%
X173148000Y-121000000D03*
%TO.C,C6*%
X173148000Y-124810000D03*
%TO.C,C14*%
X174625000Y-85948000D03*
%TO.C,U7*%
X177165000Y-63093600D03*
X177165000Y-65633600D03*
X177165000Y-68173600D03*
X177165000Y-70713600D03*
X177165000Y-73253600D03*
X177165000Y-75793600D03*
X177165000Y-78333600D03*
X177165000Y-80873600D03*
X177165000Y-83413600D03*
X177165000Y-85953600D03*
X177165000Y-88493600D03*
X177165000Y-91033600D03*
X177165000Y-93573600D03*
X177165000Y-96113600D03*
X177165000Y-98653600D03*
X177165000Y-101193600D03*
X177165000Y-103733600D03*
X177165000Y-106273600D03*
X177165000Y-108813600D03*
X177165000Y-111353600D03*
%TO.C,U11*%
X179578000Y-123444000D03*
X179578000Y-131064000D03*
X182118000Y-123444000D03*
X182118000Y-131064000D03*
X184658000Y-123444000D03*
X184658000Y-131064000D03*
X187198000Y-123444000D03*
X187198000Y-131064000D03*
%TO.C,C17*%
X187405000Y-59182000D03*
%TO.C,U11*%
X189738000Y-123444000D03*
X189738000Y-131064000D03*
X192278000Y-123444000D03*
X192278000Y-131064000D03*
%TO.C,C17*%
X192405000Y-59182000D03*
%TO.C,U7*%
X192405000Y-63093600D03*
X192405000Y-65633600D03*
X192405000Y-68173600D03*
X192405000Y-70713600D03*
X192405000Y-73253600D03*
X192405000Y-75793600D03*
X192405000Y-78333600D03*
X192405000Y-80873600D03*
X192405000Y-83413600D03*
X192405000Y-85953600D03*
X192405000Y-88493600D03*
X192405000Y-91033600D03*
X192405000Y-93573600D03*
X192405000Y-96113600D03*
X192405000Y-98653600D03*
X192405000Y-101193600D03*
X192405000Y-103733600D03*
X192405000Y-106273600D03*
X192405000Y-108813600D03*
X192405000Y-111353600D03*
%TO.C,U11*%
X194818000Y-123444000D03*
X194818000Y-131064000D03*
%TO.C,C10*%
X195072000Y-59182000D03*
%TO.C,C2*%
X196596000Y-91059000D03*
%TO.C,C16*%
X196636000Y-116586000D03*
%TO.C,C19*%
X196977000Y-74168000D03*
%TO.C,RV1*%
X198755000Y-64516000D03*
X198755000Y-67056000D03*
X198755000Y-69596000D03*
%TO.C,C16*%
X199136000Y-116586000D03*
%TO.C,C21*%
X199517000Y-80518000D03*
%TO.C,C10*%
X200072000Y-59182000D03*
%TO.C,C2*%
X201596000Y-91059000D03*
%TO.C,C19*%
X201977000Y-74168000D03*
%TO.C,C15*%
X202057000Y-95631000D03*
X202057000Y-100631000D03*
%TO.C,U10*%
X202819000Y-107188000D03*
X202819000Y-109728000D03*
X202819000Y-112268000D03*
X202819000Y-114808000D03*
%TO.C,U9*%
X203200000Y-62611000D03*
X203200000Y-65151000D03*
X203200000Y-67691000D03*
X203200000Y-70231000D03*
%TO.C,C21*%
X204517000Y-80518000D03*
%TO.C,C11*%
X206248000Y-89281000D03*
X208748000Y-89281000D03*
%TO.C,U10*%
X210439000Y-107188000D03*
X210439000Y-109728000D03*
X210439000Y-112268000D03*
X210439000Y-114808000D03*
%TO.C,U9*%
X210820000Y-62611000D03*
X210820000Y-65151000D03*
X210820000Y-67691000D03*
X210820000Y-70231000D03*
%TO.C,C20*%
X213106000Y-59055000D03*
%TO.C,C1*%
X215392000Y-112094000D03*
X215392000Y-117094000D03*
%TO.C,RV2*%
X217170000Y-64516000D03*
X217170000Y-67056000D03*
X217170000Y-69596000D03*
%TO.C,C20*%
X218106000Y-59055000D03*
%TO.C,Q1*%
X218948000Y-94996000D03*
X218948000Y-100076000D03*
X221488000Y-97536000D03*
%TO.C,C3*%
X222250000Y-68072000D03*
%TO.C,C4*%
X226060000Y-95330000D03*
X226060000Y-100330000D03*
%TO.C,C3*%
X227250000Y-68072000D03*
D15*
%TO.C,D1*%
X76210000Y-130429000D03*
X78750000Y-130429000D03*
%TO.C,D13*%
X101981000Y-65532000D03*
%TO.C,D15*%
X101981000Y-81280000D03*
%TO.C,D12*%
X101981000Y-92202000D03*
%TO.C,D13*%
X104521000Y-65532000D03*
%TO.C,D15*%
X104521000Y-81280000D03*
%TO.C,D12*%
X104521000Y-92202000D03*
%TO.C,D4*%
X112903000Y-65532000D03*
%TO.C,D6*%
X112903000Y-75819000D03*
%TO.C,D5*%
X112903000Y-92202000D03*
%TO.C,D7*%
X112903000Y-102489000D03*
%TO.C,D2*%
X113030000Y-130429000D03*
%TO.C,D4*%
X115443000Y-65532000D03*
%TO.C,D6*%
X115443000Y-75819000D03*
%TO.C,D5*%
X115443000Y-92202000D03*
%TO.C,D7*%
X115443000Y-102489000D03*
%TO.C,D2*%
X115570000Y-130429000D03*
%TO.C,D3*%
X203454000Y-130429000D03*
X205994000Y-130429000D03*
D16*
%TO.C,J5*%
X62018000Y-94878000D03*
X62018000Y-97378000D03*
%TO.C,J4*%
X62018000Y-118023000D03*
X62018000Y-120523000D03*
%TO.C,J5*%
X64018000Y-94878000D03*
X64018000Y-97378000D03*
%TO.C,J4*%
X64018000Y-118023000D03*
X64018000Y-120523000D03*
D17*
%TO.C,J3*%
X59538000Y-72263000D03*
X59538000Y-74803000D03*
X59538000Y-77343000D03*
X59538000Y-79883000D03*
X59538000Y-82423000D03*
X62078000Y-72263000D03*
X62078000Y-74803000D03*
X62078000Y-77343000D03*
X62078000Y-79883000D03*
X62078000Y-82423000D03*
%TO.C,L3*%
X73787000Y-66040000D03*
%TO.C,BZ1*%
X77470000Y-101600000D03*
%TO.C,L3*%
X78867000Y-66040000D03*
%TO.C,BZ1*%
X85070000Y-101600000D03*
%TO.C,L1*%
X196596000Y-86741000D03*
X201676000Y-86741000D03*
%TO.C,L2*%
X205486000Y-83439000D03*
X210566000Y-83439000D03*
%TO.C,JP1*%
X212725000Y-94996000D03*
X212725000Y-97536000D03*
X212725000Y-100076000D03*
D18*
%TO.C,D10*%
X68961000Y-97409000D03*
X68961000Y-101219000D03*
%TO.C,J7*%
X88265000Y-135636000D03*
%TO.C,D14*%
X89408000Y-124714000D03*
X89408000Y-128524000D03*
%TO.C,J7*%
X95765000Y-135636000D03*
X103265000Y-135636000D03*
%TO.C,J6*%
X155448000Y-135636000D03*
X162948000Y-135636000D03*
%TO.C,D11*%
X171831000Y-131826000D03*
X171831000Y-135636000D03*
%TO.C,D8*%
X212090000Y-77978000D03*
%TO.C,D9*%
X214503000Y-105029000D03*
X214503000Y-108839000D03*
%TO.C,D8*%
X215900000Y-77978000D03*
%TO.C,J1*%
X223266000Y-77971000D03*
X223266000Y-85471000D03*
%TO.C,J2*%
X223266000Y-109690000D03*
X223266000Y-117190000D03*
D19*
%TO.C,F1*%
X72517000Y-70869000D03*
X72517000Y-93469000D03*
D20*
%TO.C,SW2*%
X63382000Y-59690000D03*
X68082000Y-59690000D03*
X72782000Y-59690000D03*
D21*
%TO.C,SW1*%
X131508000Y-115113000D03*
X131508000Y-131713000D03*
X146508000Y-115113000D03*
X146508000Y-131713000D03*
D22*
%TO.C,J5*%
X59158000Y-90128000D03*
X59158000Y-102128000D03*
%TO.C,J4*%
X59158000Y-113273000D03*
X59158000Y-125273000D03*
D23*
%TO.C,H3*%
X55278000Y-61708000D03*
%TO.C,H1*%
X55278000Y-133708000D03*
%TO.C,H6*%
X125008000Y-123413000D03*
%TO.C,H5*%
X153008000Y-123413000D03*
%TO.C,H2*%
X222588000Y-61708000D03*
%TO.C,H4*%
X222588000Y-133708000D03*
M02*
