M48
; DRILL file {KiCad 8.0.1} date 2024-04-17T21:54:03+0200
; FORMAT={3:3/ absolute / metric / keep zeros}
; #@! TF.CreationDate,2024-04-17T21:54:03+02:00
; #@! TF.GenerationSoftware,Kicad,Pcbnew,8.0.1
; #@! TF.FileFunction,Plated,1,2,PTH
FMAT,2
METRIC
; #@! TA.AperFunction,Plated,PTH,ViaDrill
T1C0.400
; #@! TA.AperFunction,Plated,PTH,ComponentDrill
T2C0.500
; #@! TA.AperFunction,Plated,PTH,ComponentDrill
T3C0.700
; #@! TA.AperFunction,Plated,PTH,ComponentDrill
T4C0.762
; #@! TA.AperFunction,Plated,PTH,ComponentDrill
T5C0.800
; #@! TA.AperFunction,Plated,PTH,ComponentDrill
T6C0.900
; #@! TA.AperFunction,Plated,PTH,ComponentDrill
T7C0.950
; #@! TA.AperFunction,Plated,PTH,ComponentDrill
T8C1.000
; #@! TA.AperFunction,Plated,PTH,ComponentDrill
T9C1.300
; #@! TA.AperFunction,Plated,PTH,ComponentDrill
T10C1.500
; #@! TA.AperFunction,Plated,PTH,ComponentDrill
T11C1.600
; #@! TA.AperFunction,Plated,PTH,ComponentDrill
T12C2.000
; #@! TA.AperFunction,Plated,PTH,ComponentDrill
T13C2.300
; #@! TA.AperFunction,Plated,PTH,ComponentDrill
T14C3.200
%
G90
G05
T1
X072644Y-082677
X098298Y-085344
X101473Y-113157
X107000Y-085471
X108688Y-116448
X113284Y-059690
X114046Y-110236
X120523Y-071120
X120523Y-094742
X120523Y-096774
X121666Y-069088
X123063Y-070104
X123063Y-095758
X123063Y-097790
X124206Y-068326
X128016Y-067564
X128143Y-065913
X128143Y-098806
X129540Y-100838
X130683Y-066802
X130683Y-093726
X132080Y-071120
X132461Y-099822
X133858Y-069088
X133928Y-094742
X133928Y-096774
X136398Y-070104
X136468Y-097790
X136906Y-095758
X137668Y-068326
X141478Y-065913
X141478Y-067564
X141548Y-098806
X142748Y-100838
X144018Y-066802
X144088Y-093726
X145542Y-099822
X145796Y-071120
X147193Y-094742
X147193Y-096774
X147193Y-104998
X147320Y-069088
X149606Y-068326
X149733Y-095758
X149733Y-097790
X150876Y-070104
X154139Y-100849
X154686Y-067564
X154813Y-065913
X155956Y-098806
X157226Y-066802
X157353Y-099822
X165836Y-084318
X185547Y-108839
X186738Y-085423
X190246Y-105156
X196977Y-106299
X199898Y-104648
T2
X052878Y-061708
X052878Y-133708
X053581Y-060011
X053581Y-063405
X053581Y-132011
X053581Y-135405
X055278Y-059308
X055278Y-064108
X055278Y-131308
X055278Y-136108
X056975Y-060011
X056975Y-063405
X056975Y-132011
X056975Y-135405
X057678Y-061708
X057678Y-133708
X220188Y-061708
X220188Y-133708
X220891Y-060011
X220891Y-063405
X220891Y-132011
X220891Y-135405
X222588Y-059308
X222588Y-064108
X222588Y-131308
X222588Y-136108
X224285Y-060011
X224285Y-063405
X224285Y-132011
X224285Y-135405
X224988Y-061708
X224988Y-133708
T3
X071130Y-124333
X078750Y-124333
X084963Y-076962
X084963Y-084582
X088646Y-064770
X096266Y-064770
X096901Y-127127
X100457Y-099314
X101900Y-068990
X101900Y-076610
X102362Y-102489
X104500Y-069000
X104500Y-076620
X104521Y-127127
X107188Y-057404
X107188Y-065024
X108077Y-099314
X109982Y-102489
X110700Y-068190
X110700Y-075810
X112776Y-081534
X112776Y-089154
X119634Y-122682
X119634Y-130302
X156718Y-117190
X164338Y-117190
X166243Y-063088
X166243Y-065628
X166243Y-068168
X166243Y-070708
X166243Y-073248
X166243Y-075788
X166243Y-078328
X166243Y-080868
X168148Y-117602
X168148Y-128620
X173863Y-063088
X173863Y-065628
X173863Y-068168
X173863Y-070708
X173863Y-073248
X173863Y-075788
X173863Y-078328
X173863Y-080868
X175768Y-058928
X175768Y-117602
X175768Y-128620
X177038Y-133985
X177038Y-137033
X183388Y-058928
X184658Y-133985
X184658Y-137033
X187198Y-120396
X192278Y-133985
X194818Y-120396
X198247Y-123571
X198247Y-131191
X199517Y-077343
X199898Y-133985
X201168Y-120650
X201168Y-123952
X202946Y-059182
X205486Y-094214
X205486Y-101834
X207137Y-077343
X208280Y-094214
X208280Y-101834
X208788Y-120650
X208788Y-123952
X210566Y-059182
X213741Y-129413
X213741Y-137033
X216408Y-082296
X216408Y-089916
X218440Y-103505
X226060Y-103505
T4
X148008Y-118413
X148008Y-120913
X148008Y-123413
X148008Y-125913
X148008Y-128413
T5
X078780Y-059690
X081280Y-059690
X081661Y-070231
X084161Y-070231
X085471Y-059690
X088646Y-071374
X088646Y-073914
X088646Y-076454
X088646Y-078994
X088646Y-081534
X088646Y-084074
X088646Y-086614
X088646Y-089154
X089027Y-097155
X090471Y-059690
X091567Y-099695
X094107Y-097155
X096266Y-071374
X096266Y-073914
X096266Y-076454
X096266Y-078994
X096266Y-081534
X096266Y-084074
X096266Y-086614
X096266Y-089154
X098044Y-112522
X098044Y-117522
X120523Y-063088
X120523Y-078328
X120523Y-089758
X120523Y-104998
X123063Y-063088
X123063Y-078328
X123063Y-089758
X123063Y-104998
X125603Y-063088
X125603Y-078328
X125603Y-089758
X125603Y-104998
X128143Y-063088
X128143Y-078328
X128143Y-089758
X128143Y-104998
X130683Y-063088
X130683Y-078328
X130683Y-089758
X130683Y-104998
X133928Y-063088
X133928Y-078328
X133928Y-089758
X133928Y-104998
X136468Y-063088
X136468Y-078328
X136468Y-089758
X136468Y-104998
X139008Y-063088
X139008Y-078328
X139008Y-089758
X139008Y-104998
X141548Y-063088
X141548Y-078328
X141548Y-089758
X141548Y-104998
X144088Y-063088
X144088Y-078328
X144088Y-089758
X144088Y-104998
X147193Y-063088
X147193Y-078328
X147193Y-089758
X147193Y-104998
X149733Y-063088
X149733Y-078328
X149733Y-089758
X149733Y-104998
X152273Y-063088
X152273Y-078328
X152273Y-089758
X152273Y-104998
X154813Y-063088
X154813Y-078328
X154813Y-089758
X154813Y-104998
X157353Y-063088
X157353Y-078328
X157353Y-089758
X157353Y-104998
X159084Y-113538
X162433Y-088646
X162433Y-097663
X162941Y-093218
X164084Y-113538
X167433Y-088646
X167433Y-097663
X167841Y-093218
X167974Y-058928
X168148Y-121000
X168148Y-124810
X169625Y-085948
X172974Y-058928
X173148Y-121000
X173148Y-124810
X174625Y-085948
X177165Y-063094
X177165Y-065634
X177165Y-068174
X177165Y-070714
X177165Y-073254
X177165Y-075794
X177165Y-078334
X177165Y-080874
X177165Y-083414
X177165Y-085954
X177165Y-088494
X177165Y-091034
X177165Y-093574
X177165Y-096114
X177165Y-098654
X177165Y-101194
X177165Y-103734
X177165Y-106274
X177165Y-108814
X177165Y-111354
X179578Y-123444
X179578Y-131064
X182118Y-123444
X182118Y-131064
X184658Y-123444
X184658Y-131064
X187198Y-123444
X187198Y-131064
X187405Y-059182
X189738Y-123444
X189738Y-131064
X192278Y-123444
X192278Y-131064
X192405Y-059182
X192405Y-063094
X192405Y-065634
X192405Y-068174
X192405Y-070714
X192405Y-073254
X192405Y-075794
X192405Y-078334
X192405Y-080874
X192405Y-083414
X192405Y-085954
X192405Y-088494
X192405Y-091034
X192405Y-093574
X192405Y-096114
X192405Y-098654
X192405Y-101194
X192405Y-103734
X192405Y-106274
X192405Y-108814
X192405Y-111354
X194818Y-123444
X194818Y-131064
X195072Y-059182
X196596Y-091059
X196636Y-116586
X196977Y-074168
X198755Y-064516
X198755Y-067056
X198755Y-069596
X199136Y-116586
X199517Y-080518
X200072Y-059182
X201596Y-091059
X201977Y-074168
X202057Y-095631
X202057Y-100631
X202819Y-107188
X202819Y-109728
X202819Y-112268
X202819Y-114808
X203200Y-062611
X203200Y-065151
X203200Y-067691
X203200Y-070231
X204517Y-080518
X206248Y-089281
X208748Y-089281
X210439Y-107188
X210439Y-109728
X210439Y-112268
X210439Y-114808
X210820Y-062611
X210820Y-065151
X210820Y-067691
X210820Y-070231
X213106Y-059055
X215392Y-112094
X215392Y-117094
X217170Y-064516
X217170Y-067056
X217170Y-069596
X218106Y-059055
X218948Y-094996
X218948Y-100076
X221488Y-097536
X222250Y-068072
X226060Y-095330
X226060Y-100330
X227250Y-068072
T6
X076210Y-130429
X078750Y-130429
X101981Y-065532
X101981Y-081280
X101981Y-092202
X104521Y-065532
X104521Y-081280
X104521Y-092202
X112903Y-065532
X112903Y-075819
X112903Y-092202
X112903Y-102489
X113030Y-130429
X115443Y-065532
X115443Y-075819
X115443Y-092202
X115443Y-102489
X115570Y-130429
X203454Y-130429
X205994Y-130429
T7
X062018Y-094878
X062018Y-097378
X062018Y-118023
X062018Y-120523
X064018Y-094878
X064018Y-097378
X064018Y-118023
X064018Y-120523
T8
X059538Y-072263
X059538Y-074803
X059538Y-077343
X059538Y-079883
X059538Y-082423
X062078Y-072263
X062078Y-074803
X062078Y-077343
X062078Y-079883
X062078Y-082423
X073787Y-066040
X077470Y-101600
X078867Y-066040
X085070Y-101600
X196596Y-086741
X201676Y-086741
X205486Y-083439
X210566Y-083439
X212725Y-094996
X212725Y-097536
X212725Y-100076
T9
X068961Y-097409
X068961Y-101219
X088265Y-135636
X089408Y-124714
X089408Y-128524
X095765Y-135636
X103265Y-135636
X155448Y-135636
X162948Y-135636
X171831Y-131826
X171831Y-135636
X212090Y-077978
X214503Y-105029
X214503Y-108839
X215900Y-077978
X223266Y-077971
X223266Y-085471
X223266Y-109690
X223266Y-117190
T10
X072517Y-070869
X072517Y-093469
T11
X063382Y-059690
X068082Y-059690
X072782Y-059690
T12
X131508Y-115113
X131508Y-131713
X146508Y-115113
X146508Y-131713
T13
X059158Y-090128
X059158Y-102128
X059158Y-113273
X059158Y-125273
T14
X055278Y-061708
X055278Y-133708
X125008Y-123413
X153008Y-123413
X222588Y-061708
X222588Y-133708
M30
