%TF.GenerationSoftware,KiCad,Pcbnew,8.0.1*%
%TF.CreationDate,2024-04-17T00:36:40+02:00*%
%TF.ProjectId,Solaranlage,536f6c61-7261-46e6-9c61-67652e6b6963,rev?*%
%TF.SameCoordinates,Original*%
%TF.FileFunction,Drillmap*%
%TF.FilePolarity,Positive*%
%FSLAX45Y45*%
G04 Gerber Fmt 4.5, Leading zero omitted, Abs format (unit mm)*
G04 Created by KiCad (PCBNEW 8.0.1) date 2024-04-17 00:36:40*
%MOMM*%
%LPD*%
G01*
G04 APERTURE LIST*
%ADD10C,0.050000*%
%ADD11C,0.200000*%
%ADD12C,0.190000*%
G04 APERTURE END LIST*
D10*
X4877800Y-14020800D02*
X4877800Y-5520800D01*
X22908800Y-5520800D02*
X22908800Y-14020800D01*
X4877800Y-5520800D02*
X22908800Y-5520800D01*
X22908800Y-14020800D02*
X4877800Y-14020800D01*
D11*
D12*
X13805800Y-12246300D02*
X13995800Y-12436300D01*
X13995800Y-12246300D02*
X13805800Y-12436300D01*
D11*
X5136077Y-14334784D02*
X5136077Y-14134784D01*
X5136077Y-14134784D02*
X5183696Y-14134784D01*
X5183696Y-14134784D02*
X5212267Y-14144308D01*
X5212267Y-14144308D02*
X5231315Y-14163355D01*
X5231315Y-14163355D02*
X5240839Y-14182403D01*
X5240839Y-14182403D02*
X5250363Y-14220498D01*
X5250363Y-14220498D02*
X5250363Y-14249069D01*
X5250363Y-14249069D02*
X5240839Y-14287165D01*
X5240839Y-14287165D02*
X5231315Y-14306212D01*
X5231315Y-14306212D02*
X5212267Y-14325260D01*
X5212267Y-14325260D02*
X5183696Y-14334784D01*
X5183696Y-14334784D02*
X5136077Y-14334784D01*
X5336077Y-14334784D02*
X5336077Y-14201450D01*
X5336077Y-14239546D02*
X5345601Y-14220498D01*
X5345601Y-14220498D02*
X5355124Y-14210974D01*
X5355124Y-14210974D02*
X5374172Y-14201450D01*
X5374172Y-14201450D02*
X5393220Y-14201450D01*
X5459886Y-14334784D02*
X5459886Y-14201450D01*
X5459886Y-14134784D02*
X5450363Y-14144308D01*
X5450363Y-14144308D02*
X5459886Y-14153831D01*
X5459886Y-14153831D02*
X5469410Y-14144308D01*
X5469410Y-14144308D02*
X5459886Y-14134784D01*
X5459886Y-14134784D02*
X5459886Y-14153831D01*
X5583696Y-14334784D02*
X5564648Y-14325260D01*
X5564648Y-14325260D02*
X5555124Y-14306212D01*
X5555124Y-14306212D02*
X5555124Y-14134784D01*
X5688458Y-14334784D02*
X5669410Y-14325260D01*
X5669410Y-14325260D02*
X5659886Y-14306212D01*
X5659886Y-14306212D02*
X5659886Y-14134784D01*
X5917029Y-14334784D02*
X5917029Y-14134784D01*
X5917029Y-14134784D02*
X5983696Y-14277641D01*
X5983696Y-14277641D02*
X6050362Y-14134784D01*
X6050362Y-14134784D02*
X6050362Y-14334784D01*
X6231315Y-14334784D02*
X6231315Y-14230022D01*
X6231315Y-14230022D02*
X6221791Y-14210974D01*
X6221791Y-14210974D02*
X6202743Y-14201450D01*
X6202743Y-14201450D02*
X6164648Y-14201450D01*
X6164648Y-14201450D02*
X6145601Y-14210974D01*
X6231315Y-14325260D02*
X6212267Y-14334784D01*
X6212267Y-14334784D02*
X6164648Y-14334784D01*
X6164648Y-14334784D02*
X6145601Y-14325260D01*
X6145601Y-14325260D02*
X6136077Y-14306212D01*
X6136077Y-14306212D02*
X6136077Y-14287165D01*
X6136077Y-14287165D02*
X6145601Y-14268117D01*
X6145601Y-14268117D02*
X6164648Y-14258593D01*
X6164648Y-14258593D02*
X6212267Y-14258593D01*
X6212267Y-14258593D02*
X6231315Y-14249069D01*
X6326553Y-14201450D02*
X6326553Y-14401450D01*
X6326553Y-14210974D02*
X6345601Y-14201450D01*
X6345601Y-14201450D02*
X6383696Y-14201450D01*
X6383696Y-14201450D02*
X6402743Y-14210974D01*
X6402743Y-14210974D02*
X6412267Y-14220498D01*
X6412267Y-14220498D02*
X6421791Y-14239546D01*
X6421791Y-14239546D02*
X6421791Y-14296688D01*
X6421791Y-14296688D02*
X6412267Y-14315736D01*
X6412267Y-14315736D02*
X6402743Y-14325260D01*
X6402743Y-14325260D02*
X6383696Y-14334784D01*
X6383696Y-14334784D02*
X6345601Y-14334784D01*
X6345601Y-14334784D02*
X6326553Y-14325260D01*
X6507505Y-14315736D02*
X6517029Y-14325260D01*
X6517029Y-14325260D02*
X6507505Y-14334784D01*
X6507505Y-14334784D02*
X6497982Y-14325260D01*
X6497982Y-14325260D02*
X6507505Y-14315736D01*
X6507505Y-14315736D02*
X6507505Y-14334784D01*
X6507505Y-14210974D02*
X6517029Y-14220498D01*
X6517029Y-14220498D02*
X6507505Y-14230022D01*
X6507505Y-14230022D02*
X6497982Y-14220498D01*
X6497982Y-14220498D02*
X6507505Y-14210974D01*
X6507505Y-14210974D02*
X6507505Y-14230022D01*
D12*
X4685300Y-14568300D02*
X4875300Y-14758300D01*
X4875300Y-14568300D02*
X4685300Y-14758300D01*
D11*
X5240839Y-14754784D02*
X5126553Y-14754784D01*
X5183696Y-14754784D02*
X5183696Y-14554784D01*
X5183696Y-14554784D02*
X5164648Y-14583355D01*
X5164648Y-14583355D02*
X5145601Y-14602403D01*
X5145601Y-14602403D02*
X5126553Y-14611927D01*
X5326553Y-14735736D02*
X5336077Y-14745260D01*
X5336077Y-14745260D02*
X5326553Y-14754784D01*
X5326553Y-14754784D02*
X5317029Y-14745260D01*
X5317029Y-14745260D02*
X5326553Y-14735736D01*
X5326553Y-14735736D02*
X5326553Y-14754784D01*
X5431315Y-14754784D02*
X5469410Y-14754784D01*
X5469410Y-14754784D02*
X5488458Y-14745260D01*
X5488458Y-14745260D02*
X5497982Y-14735736D01*
X5497982Y-14735736D02*
X5517029Y-14707165D01*
X5517029Y-14707165D02*
X5526553Y-14669069D01*
X5526553Y-14669069D02*
X5526553Y-14592879D01*
X5526553Y-14592879D02*
X5517029Y-14573831D01*
X5517029Y-14573831D02*
X5507505Y-14564308D01*
X5507505Y-14564308D02*
X5488458Y-14554784D01*
X5488458Y-14554784D02*
X5450363Y-14554784D01*
X5450363Y-14554784D02*
X5431315Y-14564308D01*
X5431315Y-14564308D02*
X5421791Y-14573831D01*
X5421791Y-14573831D02*
X5412267Y-14592879D01*
X5412267Y-14592879D02*
X5412267Y-14640498D01*
X5412267Y-14640498D02*
X5421791Y-14659546D01*
X5421791Y-14659546D02*
X5431315Y-14669069D01*
X5431315Y-14669069D02*
X5450363Y-14678593D01*
X5450363Y-14678593D02*
X5488458Y-14678593D01*
X5488458Y-14678593D02*
X5507505Y-14669069D01*
X5507505Y-14669069D02*
X5517029Y-14659546D01*
X5517029Y-14659546D02*
X5526553Y-14640498D01*
X5650362Y-14554784D02*
X5669410Y-14554784D01*
X5669410Y-14554784D02*
X5688458Y-14564308D01*
X5688458Y-14564308D02*
X5697982Y-14573831D01*
X5697982Y-14573831D02*
X5707505Y-14592879D01*
X5707505Y-14592879D02*
X5717029Y-14630974D01*
X5717029Y-14630974D02*
X5717029Y-14678593D01*
X5717029Y-14678593D02*
X5707505Y-14716688D01*
X5707505Y-14716688D02*
X5697982Y-14735736D01*
X5697982Y-14735736D02*
X5688458Y-14745260D01*
X5688458Y-14745260D02*
X5669410Y-14754784D01*
X5669410Y-14754784D02*
X5650362Y-14754784D01*
X5650362Y-14754784D02*
X5631315Y-14745260D01*
X5631315Y-14745260D02*
X5621791Y-14735736D01*
X5621791Y-14735736D02*
X5612267Y-14716688D01*
X5612267Y-14716688D02*
X5602743Y-14678593D01*
X5602743Y-14678593D02*
X5602743Y-14630974D01*
X5602743Y-14630974D02*
X5612267Y-14592879D01*
X5612267Y-14592879D02*
X5621791Y-14573831D01*
X5621791Y-14573831D02*
X5631315Y-14564308D01*
X5631315Y-14564308D02*
X5650362Y-14554784D01*
X5840839Y-14554784D02*
X5859886Y-14554784D01*
X5859886Y-14554784D02*
X5878934Y-14564308D01*
X5878934Y-14564308D02*
X5888458Y-14573831D01*
X5888458Y-14573831D02*
X5897982Y-14592879D01*
X5897982Y-14592879D02*
X5907505Y-14630974D01*
X5907505Y-14630974D02*
X5907505Y-14678593D01*
X5907505Y-14678593D02*
X5897982Y-14716688D01*
X5897982Y-14716688D02*
X5888458Y-14735736D01*
X5888458Y-14735736D02*
X5878934Y-14745260D01*
X5878934Y-14745260D02*
X5859886Y-14754784D01*
X5859886Y-14754784D02*
X5840839Y-14754784D01*
X5840839Y-14754784D02*
X5821791Y-14745260D01*
X5821791Y-14745260D02*
X5812267Y-14735736D01*
X5812267Y-14735736D02*
X5802743Y-14716688D01*
X5802743Y-14716688D02*
X5793220Y-14678593D01*
X5793220Y-14678593D02*
X5793220Y-14630974D01*
X5793220Y-14630974D02*
X5802743Y-14592879D01*
X5802743Y-14592879D02*
X5812267Y-14573831D01*
X5812267Y-14573831D02*
X5821791Y-14564308D01*
X5821791Y-14564308D02*
X5840839Y-14554784D01*
X5993220Y-14754784D02*
X5993220Y-14621450D01*
X5993220Y-14640498D02*
X6002743Y-14630974D01*
X6002743Y-14630974D02*
X6021791Y-14621450D01*
X6021791Y-14621450D02*
X6050363Y-14621450D01*
X6050363Y-14621450D02*
X6069410Y-14630974D01*
X6069410Y-14630974D02*
X6078934Y-14650022D01*
X6078934Y-14650022D02*
X6078934Y-14754784D01*
X6078934Y-14650022D02*
X6088458Y-14630974D01*
X6088458Y-14630974D02*
X6107505Y-14621450D01*
X6107505Y-14621450D02*
X6136077Y-14621450D01*
X6136077Y-14621450D02*
X6155124Y-14630974D01*
X6155124Y-14630974D02*
X6164648Y-14650022D01*
X6164648Y-14650022D02*
X6164648Y-14754784D01*
X6259886Y-14754784D02*
X6259886Y-14621450D01*
X6259886Y-14640498D02*
X6269410Y-14630974D01*
X6269410Y-14630974D02*
X6288458Y-14621450D01*
X6288458Y-14621450D02*
X6317029Y-14621450D01*
X6317029Y-14621450D02*
X6336077Y-14630974D01*
X6336077Y-14630974D02*
X6345601Y-14650022D01*
X6345601Y-14650022D02*
X6345601Y-14754784D01*
X6345601Y-14650022D02*
X6355124Y-14630974D01*
X6355124Y-14630974D02*
X6374172Y-14621450D01*
X6374172Y-14621450D02*
X6402743Y-14621450D01*
X6402743Y-14621450D02*
X6421791Y-14630974D01*
X6421791Y-14630974D02*
X6431315Y-14650022D01*
X6431315Y-14650022D02*
X6431315Y-14754784D01*
X6821791Y-14545260D02*
X6650363Y-14802403D01*
X7078934Y-14554784D02*
X7097982Y-14554784D01*
X7097982Y-14554784D02*
X7117029Y-14564308D01*
X7117029Y-14564308D02*
X7126553Y-14573831D01*
X7126553Y-14573831D02*
X7136077Y-14592879D01*
X7136077Y-14592879D02*
X7145601Y-14630974D01*
X7145601Y-14630974D02*
X7145601Y-14678593D01*
X7145601Y-14678593D02*
X7136077Y-14716688D01*
X7136077Y-14716688D02*
X7126553Y-14735736D01*
X7126553Y-14735736D02*
X7117029Y-14745260D01*
X7117029Y-14745260D02*
X7097982Y-14754784D01*
X7097982Y-14754784D02*
X7078934Y-14754784D01*
X7078934Y-14754784D02*
X7059886Y-14745260D01*
X7059886Y-14745260D02*
X7050363Y-14735736D01*
X7050363Y-14735736D02*
X7040839Y-14716688D01*
X7040839Y-14716688D02*
X7031315Y-14678593D01*
X7031315Y-14678593D02*
X7031315Y-14630974D01*
X7031315Y-14630974D02*
X7040839Y-14592879D01*
X7040839Y-14592879D02*
X7050363Y-14573831D01*
X7050363Y-14573831D02*
X7059886Y-14564308D01*
X7059886Y-14564308D02*
X7078934Y-14554784D01*
X7231315Y-14735736D02*
X7240839Y-14745260D01*
X7240839Y-14745260D02*
X7231315Y-14754784D01*
X7231315Y-14754784D02*
X7221791Y-14745260D01*
X7221791Y-14745260D02*
X7231315Y-14735736D01*
X7231315Y-14735736D02*
X7231315Y-14754784D01*
X7364648Y-14554784D02*
X7383696Y-14554784D01*
X7383696Y-14554784D02*
X7402744Y-14564308D01*
X7402744Y-14564308D02*
X7412267Y-14573831D01*
X7412267Y-14573831D02*
X7421791Y-14592879D01*
X7421791Y-14592879D02*
X7431315Y-14630974D01*
X7431315Y-14630974D02*
X7431315Y-14678593D01*
X7431315Y-14678593D02*
X7421791Y-14716688D01*
X7421791Y-14716688D02*
X7412267Y-14735736D01*
X7412267Y-14735736D02*
X7402744Y-14745260D01*
X7402744Y-14745260D02*
X7383696Y-14754784D01*
X7383696Y-14754784D02*
X7364648Y-14754784D01*
X7364648Y-14754784D02*
X7345601Y-14745260D01*
X7345601Y-14745260D02*
X7336077Y-14735736D01*
X7336077Y-14735736D02*
X7326553Y-14716688D01*
X7326553Y-14716688D02*
X7317029Y-14678593D01*
X7317029Y-14678593D02*
X7317029Y-14630974D01*
X7317029Y-14630974D02*
X7326553Y-14592879D01*
X7326553Y-14592879D02*
X7336077Y-14573831D01*
X7336077Y-14573831D02*
X7345601Y-14564308D01*
X7345601Y-14564308D02*
X7364648Y-14554784D01*
X7497982Y-14554784D02*
X7631315Y-14554784D01*
X7631315Y-14554784D02*
X7545601Y-14754784D01*
X7793220Y-14621450D02*
X7793220Y-14754784D01*
X7745601Y-14545260D02*
X7697982Y-14688117D01*
X7697982Y-14688117D02*
X7821791Y-14688117D01*
X7926553Y-14640498D02*
X7907506Y-14630974D01*
X7907506Y-14630974D02*
X7897982Y-14621450D01*
X7897982Y-14621450D02*
X7888458Y-14602403D01*
X7888458Y-14602403D02*
X7888458Y-14592879D01*
X7888458Y-14592879D02*
X7897982Y-14573831D01*
X7897982Y-14573831D02*
X7907506Y-14564308D01*
X7907506Y-14564308D02*
X7926553Y-14554784D01*
X7926553Y-14554784D02*
X7964648Y-14554784D01*
X7964648Y-14554784D02*
X7983696Y-14564308D01*
X7983696Y-14564308D02*
X7993220Y-14573831D01*
X7993220Y-14573831D02*
X8002744Y-14592879D01*
X8002744Y-14592879D02*
X8002744Y-14602403D01*
X8002744Y-14602403D02*
X7993220Y-14621450D01*
X7993220Y-14621450D02*
X7983696Y-14630974D01*
X7983696Y-14630974D02*
X7964648Y-14640498D01*
X7964648Y-14640498D02*
X7926553Y-14640498D01*
X7926553Y-14640498D02*
X7907506Y-14650022D01*
X7907506Y-14650022D02*
X7897982Y-14659546D01*
X7897982Y-14659546D02*
X7888458Y-14678593D01*
X7888458Y-14678593D02*
X7888458Y-14716688D01*
X7888458Y-14716688D02*
X7897982Y-14735736D01*
X7897982Y-14735736D02*
X7907506Y-14745260D01*
X7907506Y-14745260D02*
X7926553Y-14754784D01*
X7926553Y-14754784D02*
X7964648Y-14754784D01*
X7964648Y-14754784D02*
X7983696Y-14745260D01*
X7983696Y-14745260D02*
X7993220Y-14735736D01*
X7993220Y-14735736D02*
X8002744Y-14716688D01*
X8002744Y-14716688D02*
X8002744Y-14678593D01*
X8002744Y-14678593D02*
X7993220Y-14659546D01*
X7993220Y-14659546D02*
X7983696Y-14650022D01*
X7983696Y-14650022D02*
X7964648Y-14640498D01*
X8078934Y-14554784D02*
X8078934Y-14592879D01*
X8155125Y-14554784D02*
X8155125Y-14592879D01*
X8450363Y-14830974D02*
X8440839Y-14821450D01*
X8440839Y-14821450D02*
X8421791Y-14792879D01*
X8421791Y-14792879D02*
X8412268Y-14773831D01*
X8412268Y-14773831D02*
X8402744Y-14745260D01*
X8402744Y-14745260D02*
X8393220Y-14697641D01*
X8393220Y-14697641D02*
X8393220Y-14659546D01*
X8393220Y-14659546D02*
X8402744Y-14611927D01*
X8402744Y-14611927D02*
X8412268Y-14583355D01*
X8412268Y-14583355D02*
X8421791Y-14564308D01*
X8421791Y-14564308D02*
X8440839Y-14535736D01*
X8440839Y-14535736D02*
X8450363Y-14526212D01*
X8631315Y-14754784D02*
X8517030Y-14754784D01*
X8574172Y-14754784D02*
X8574172Y-14554784D01*
X8574172Y-14554784D02*
X8555125Y-14583355D01*
X8555125Y-14583355D02*
X8536077Y-14602403D01*
X8536077Y-14602403D02*
X8517030Y-14611927D01*
X8869411Y-14754784D02*
X8869411Y-14554784D01*
X8955125Y-14754784D02*
X8955125Y-14650022D01*
X8955125Y-14650022D02*
X8945601Y-14630974D01*
X8945601Y-14630974D02*
X8926553Y-14621450D01*
X8926553Y-14621450D02*
X8897982Y-14621450D01*
X8897982Y-14621450D02*
X8878934Y-14630974D01*
X8878934Y-14630974D02*
X8869411Y-14640498D01*
X9078934Y-14754784D02*
X9059887Y-14745260D01*
X9059887Y-14745260D02*
X9050363Y-14735736D01*
X9050363Y-14735736D02*
X9040839Y-14716688D01*
X9040839Y-14716688D02*
X9040839Y-14659546D01*
X9040839Y-14659546D02*
X9050363Y-14640498D01*
X9050363Y-14640498D02*
X9059887Y-14630974D01*
X9059887Y-14630974D02*
X9078934Y-14621450D01*
X9078934Y-14621450D02*
X9107506Y-14621450D01*
X9107506Y-14621450D02*
X9126553Y-14630974D01*
X9126553Y-14630974D02*
X9136077Y-14640498D01*
X9136077Y-14640498D02*
X9145601Y-14659546D01*
X9145601Y-14659546D02*
X9145601Y-14716688D01*
X9145601Y-14716688D02*
X9136077Y-14735736D01*
X9136077Y-14735736D02*
X9126553Y-14745260D01*
X9126553Y-14745260D02*
X9107506Y-14754784D01*
X9107506Y-14754784D02*
X9078934Y-14754784D01*
X9259887Y-14754784D02*
X9240839Y-14745260D01*
X9240839Y-14745260D02*
X9231315Y-14726212D01*
X9231315Y-14726212D02*
X9231315Y-14554784D01*
X9412268Y-14745260D02*
X9393220Y-14754784D01*
X9393220Y-14754784D02*
X9355125Y-14754784D01*
X9355125Y-14754784D02*
X9336077Y-14745260D01*
X9336077Y-14745260D02*
X9326553Y-14726212D01*
X9326553Y-14726212D02*
X9326553Y-14650022D01*
X9326553Y-14650022D02*
X9336077Y-14630974D01*
X9336077Y-14630974D02*
X9355125Y-14621450D01*
X9355125Y-14621450D02*
X9393220Y-14621450D01*
X9393220Y-14621450D02*
X9412268Y-14630974D01*
X9412268Y-14630974D02*
X9421792Y-14650022D01*
X9421792Y-14650022D02*
X9421792Y-14669069D01*
X9421792Y-14669069D02*
X9326553Y-14688117D01*
X9488458Y-14830974D02*
X9497982Y-14821450D01*
X9497982Y-14821450D02*
X9517030Y-14792879D01*
X9517030Y-14792879D02*
X9526553Y-14773831D01*
X9526553Y-14773831D02*
X9536077Y-14745260D01*
X9536077Y-14745260D02*
X9545601Y-14697641D01*
X9545601Y-14697641D02*
X9545601Y-14659546D01*
X9545601Y-14659546D02*
X9536077Y-14611927D01*
X9536077Y-14611927D02*
X9526553Y-14583355D01*
X9526553Y-14583355D02*
X9517030Y-14564308D01*
X9517030Y-14564308D02*
X9497982Y-14535736D01*
X9497982Y-14535736D02*
X9488458Y-14526212D01*
X9850363Y-14830974D02*
X9840839Y-14821450D01*
X9840839Y-14821450D02*
X9821792Y-14792879D01*
X9821792Y-14792879D02*
X9812268Y-14773831D01*
X9812268Y-14773831D02*
X9802744Y-14745260D01*
X9802744Y-14745260D02*
X9793220Y-14697641D01*
X9793220Y-14697641D02*
X9793220Y-14659546D01*
X9793220Y-14659546D02*
X9802744Y-14611927D01*
X9802744Y-14611927D02*
X9812268Y-14583355D01*
X9812268Y-14583355D02*
X9821792Y-14564308D01*
X9821792Y-14564308D02*
X9840839Y-14535736D01*
X9840839Y-14535736D02*
X9850363Y-14526212D01*
X9926553Y-14621450D02*
X9926553Y-14754784D01*
X9926553Y-14640498D02*
X9936077Y-14630974D01*
X9936077Y-14630974D02*
X9955125Y-14621450D01*
X9955125Y-14621450D02*
X9983696Y-14621450D01*
X9983696Y-14621450D02*
X10002744Y-14630974D01*
X10002744Y-14630974D02*
X10012268Y-14650022D01*
X10012268Y-14650022D02*
X10012268Y-14754784D01*
X10136077Y-14754784D02*
X10117030Y-14745260D01*
X10117030Y-14745260D02*
X10107506Y-14735736D01*
X10107506Y-14735736D02*
X10097982Y-14716688D01*
X10097982Y-14716688D02*
X10097982Y-14659546D01*
X10097982Y-14659546D02*
X10107506Y-14640498D01*
X10107506Y-14640498D02*
X10117030Y-14630974D01*
X10117030Y-14630974D02*
X10136077Y-14621450D01*
X10136077Y-14621450D02*
X10164649Y-14621450D01*
X10164649Y-14621450D02*
X10183696Y-14630974D01*
X10183696Y-14630974D02*
X10193220Y-14640498D01*
X10193220Y-14640498D02*
X10202744Y-14659546D01*
X10202744Y-14659546D02*
X10202744Y-14716688D01*
X10202744Y-14716688D02*
X10193220Y-14735736D01*
X10193220Y-14735736D02*
X10183696Y-14745260D01*
X10183696Y-14745260D02*
X10164649Y-14754784D01*
X10164649Y-14754784D02*
X10136077Y-14754784D01*
X10259887Y-14621450D02*
X10336077Y-14621450D01*
X10288458Y-14554784D02*
X10288458Y-14726212D01*
X10288458Y-14726212D02*
X10297982Y-14745260D01*
X10297982Y-14745260D02*
X10317030Y-14754784D01*
X10317030Y-14754784D02*
X10336077Y-14754784D01*
X10555125Y-14621450D02*
X10555125Y-14821450D01*
X10555125Y-14630974D02*
X10574173Y-14621450D01*
X10574173Y-14621450D02*
X10612268Y-14621450D01*
X10612268Y-14621450D02*
X10631315Y-14630974D01*
X10631315Y-14630974D02*
X10640839Y-14640498D01*
X10640839Y-14640498D02*
X10650363Y-14659546D01*
X10650363Y-14659546D02*
X10650363Y-14716688D01*
X10650363Y-14716688D02*
X10640839Y-14735736D01*
X10640839Y-14735736D02*
X10631315Y-14745260D01*
X10631315Y-14745260D02*
X10612268Y-14754784D01*
X10612268Y-14754784D02*
X10574173Y-14754784D01*
X10574173Y-14754784D02*
X10555125Y-14745260D01*
X10764649Y-14754784D02*
X10745601Y-14745260D01*
X10745601Y-14745260D02*
X10736077Y-14726212D01*
X10736077Y-14726212D02*
X10736077Y-14554784D01*
X10926554Y-14754784D02*
X10926554Y-14650022D01*
X10926554Y-14650022D02*
X10917030Y-14630974D01*
X10917030Y-14630974D02*
X10897982Y-14621450D01*
X10897982Y-14621450D02*
X10859887Y-14621450D01*
X10859887Y-14621450D02*
X10840839Y-14630974D01*
X10926554Y-14745260D02*
X10907506Y-14754784D01*
X10907506Y-14754784D02*
X10859887Y-14754784D01*
X10859887Y-14754784D02*
X10840839Y-14745260D01*
X10840839Y-14745260D02*
X10831315Y-14726212D01*
X10831315Y-14726212D02*
X10831315Y-14707165D01*
X10831315Y-14707165D02*
X10840839Y-14688117D01*
X10840839Y-14688117D02*
X10859887Y-14678593D01*
X10859887Y-14678593D02*
X10907506Y-14678593D01*
X10907506Y-14678593D02*
X10926554Y-14669069D01*
X10993220Y-14621450D02*
X11069411Y-14621450D01*
X11021792Y-14554784D02*
X11021792Y-14726212D01*
X11021792Y-14726212D02*
X11031315Y-14745260D01*
X11031315Y-14745260D02*
X11050363Y-14754784D01*
X11050363Y-14754784D02*
X11069411Y-14754784D01*
X11212268Y-14745260D02*
X11193220Y-14754784D01*
X11193220Y-14754784D02*
X11155125Y-14754784D01*
X11155125Y-14754784D02*
X11136077Y-14745260D01*
X11136077Y-14745260D02*
X11126554Y-14726212D01*
X11126554Y-14726212D02*
X11126554Y-14650022D01*
X11126554Y-14650022D02*
X11136077Y-14630974D01*
X11136077Y-14630974D02*
X11155125Y-14621450D01*
X11155125Y-14621450D02*
X11193220Y-14621450D01*
X11193220Y-14621450D02*
X11212268Y-14630974D01*
X11212268Y-14630974D02*
X11221792Y-14650022D01*
X11221792Y-14650022D02*
X11221792Y-14669069D01*
X11221792Y-14669069D02*
X11126554Y-14688117D01*
X11393220Y-14754784D02*
X11393220Y-14554784D01*
X11393220Y-14745260D02*
X11374173Y-14754784D01*
X11374173Y-14754784D02*
X11336077Y-14754784D01*
X11336077Y-14754784D02*
X11317030Y-14745260D01*
X11317030Y-14745260D02*
X11307506Y-14735736D01*
X11307506Y-14735736D02*
X11297982Y-14716688D01*
X11297982Y-14716688D02*
X11297982Y-14659546D01*
X11297982Y-14659546D02*
X11307506Y-14640498D01*
X11307506Y-14640498D02*
X11317030Y-14630974D01*
X11317030Y-14630974D02*
X11336077Y-14621450D01*
X11336077Y-14621450D02*
X11374173Y-14621450D01*
X11374173Y-14621450D02*
X11393220Y-14630974D01*
X11469411Y-14830974D02*
X11478934Y-14821450D01*
X11478934Y-14821450D02*
X11497982Y-14792879D01*
X11497982Y-14792879D02*
X11507506Y-14773831D01*
X11507506Y-14773831D02*
X11517030Y-14745260D01*
X11517030Y-14745260D02*
X11526553Y-14697641D01*
X11526553Y-14697641D02*
X11526553Y-14659546D01*
X11526553Y-14659546D02*
X11517030Y-14611927D01*
X11517030Y-14611927D02*
X11507506Y-14583355D01*
X11507506Y-14583355D02*
X11497982Y-14564308D01*
X11497982Y-14564308D02*
X11478934Y-14535736D01*
X11478934Y-14535736D02*
X11469411Y-14526212D01*
M02*
