M48
; DRILL file {KiCad (5.1.6)-1} date 10/11/20 17:18:08
; FORMAT={-:-/ absolute / metric / decimal}
; #@! TF.CreationDate,2020-10-11T17:18:08+02:00
; #@! TF.GenerationSoftware,Kicad,Pcbnew,(5.1.6)-1
; #@! TF.FileFunction,Plated,1,2,PTH
FMAT,2
METRIC
T1C0.400
T2C0.500
T3C0.700
T4C0.750
T5C0.762
T6C0.800
T7C0.900
T8C0.950
T9C1.000
T10C1.300
T11C1.600
T12C2.000
T13C2.200
T14C2.300
T15C3.200
%
G90
G05
T1
X86.302Y-79.537
X101.473Y-113.157
X108.688Y-116.448
X120.523Y-71.12
X120.523Y-94.742
X120.523Y-96.774
X121.666Y-69.088
X123.063Y-70.104
X123.063Y-95.758
X123.063Y-97.79
X124.206Y-68.326
X128.016Y-67.564
X128.143Y-65.913
X128.143Y-98.806
X129.54Y-100.838
X130.683Y-66.802
X130.683Y-93.726
X132.08Y-71.12
X132.461Y-99.822
X133.858Y-69.088
X133.928Y-94.742
X133.928Y-96.774
X136.398Y-70.104
X136.468Y-97.79
X136.906Y-95.758
X137.668Y-68.326
X141.478Y-65.913
X141.478Y-67.564
X141.548Y-98.806
X142.748Y-100.838
X144.018Y-66.802
X144.088Y-93.726
X145.542Y-99.822
X145.796Y-71.12
X147.193Y-94.742
X147.193Y-96.774
X147.193Y-104.998
X147.32Y-69.088
X149.606Y-68.326
X149.733Y-95.758
X149.733Y-97.79
X150.876Y-70.104
X154.139Y-100.849
X154.686Y-67.564
X154.813Y-65.913
X155.956Y-98.806
X157.226Y-66.802
X157.353Y-99.822
X165.836Y-84.318
X167.474Y-84.132
X185.166Y-84.328
X185.928Y-89.662
X191.652Y-103.718
X192.72Y-98.676
T2
X73.188Y-133.708
X73.891Y-132.011
X73.891Y-135.405
X75.588Y-131.308
X75.588Y-136.108
X77.285Y-132.011
X77.285Y-135.405
X77.988Y-133.708
X220.188Y-133.708
X220.891Y-132.011
X220.891Y-135.405
X222.588Y-131.308
X222.588Y-136.108
X224.285Y-132.011
X224.285Y-135.405
X224.988Y-133.708
X220.188Y-61.708
X220.891Y-60.011
X220.891Y-63.405
X222.588Y-59.308
X222.588Y-64.108
X224.285Y-60.011
X224.285Y-63.405
X224.988Y-61.708
X73.188Y-61.708
X73.891Y-60.011
X73.891Y-63.405
X75.588Y-59.308
X75.588Y-64.108
X77.285Y-60.011
X77.285Y-63.405
X77.988Y-61.708
T3
X91.44Y-124.333
X99.06Y-124.333
X168.148Y-129.636
X175.768Y-129.636
X175.768Y-58.928
X183.388Y-58.928
X218.313Y-102.585
X225.933Y-102.585
X208.28Y-94.976
X208.28Y-102.596
X201.168Y-120.65
X208.788Y-120.65
X89.408Y-108.808
X97.028Y-108.808
X169.418Y-63.088
X177.038Y-63.088
X156.718Y-117.19
X164.338Y-117.19
X169.418Y-65.628
X177.038Y-65.628
X190.373Y-123.952
X197.993Y-123.952
X169.418Y-75.788
X177.038Y-75.788
X119.634Y-122.682
X119.634Y-130.302
X169.418Y-70.708
X177.038Y-70.708
X201.168Y-123.952
X208.788Y-123.952
X169.418Y-68.168
X177.038Y-68.168
X205.486Y-94.976
X205.486Y-102.596
X169.418Y-73.248
X177.038Y-73.248
X89.408Y-111.348
X97.028Y-111.348
X219.456Y-71.374
X227.076Y-71.374
X168.148Y-117.19
X175.768Y-117.19
X169.418Y-80.868
X177.038Y-80.868
X163.322Y-93.726
X163.322Y-101.346
X169.418Y-78.328
X177.038Y-78.328
T4
X212.344Y-94.742
X212.344Y-96.012
X212.344Y-97.282
T5
X148.008Y-118.413
X148.008Y-120.913
X148.008Y-123.413
X148.008Y-125.913
X148.008Y-128.413
T6
X159.084Y-113.538
X164.084Y-113.538
X215.646Y-107.308
X215.646Y-114.808
X161.624Y-90.424
X166.624Y-90.424
X120.523Y-63.088
X120.523Y-78.328
X123.063Y-63.088
X123.063Y-78.328
X125.603Y-63.088
X125.603Y-78.328
X128.143Y-63.088
X128.143Y-78.328
X130.683Y-63.088
X130.683Y-78.328
X168.148Y-125.826
X173.148Y-125.826
X120.523Y-89.758
X120.523Y-104.998
X123.063Y-89.758
X123.063Y-104.998
X125.603Y-89.758
X125.603Y-104.998
X128.143Y-89.758
X128.143Y-104.998
X130.683Y-89.758
X130.683Y-104.998
X147.193Y-63.088
X147.193Y-78.328
X149.733Y-63.088
X149.733Y-78.328
X152.273Y-63.088
X152.273Y-78.328
X154.813Y-63.088
X154.813Y-78.328
X157.353Y-63.088
X157.353Y-78.328
X204.724Y-107.188
X204.724Y-109.728
X204.724Y-112.268
X204.724Y-114.808
X212.344Y-107.188
X212.344Y-109.728
X212.344Y-112.268
X212.344Y-114.808
X168.148Y-121.0
X173.148Y-121.0
X201.422Y-107.308
X201.422Y-114.808
X182.753Y-63.088
X182.753Y-65.628
X182.753Y-68.168
X182.753Y-70.708
X182.753Y-73.248
X182.753Y-75.788
X182.753Y-78.328
X182.753Y-80.868
X182.753Y-83.408
X182.753Y-85.948
X182.753Y-88.488
X182.753Y-91.028
X182.753Y-93.568
X182.753Y-96.108
X182.753Y-98.648
X182.753Y-101.188
X182.753Y-103.728
X182.753Y-106.268
X182.753Y-108.808
X182.753Y-111.348
X197.993Y-63.088
X197.993Y-65.628
X197.993Y-68.168
X197.993Y-70.708
X197.993Y-73.248
X197.993Y-75.788
X197.993Y-78.328
X197.993Y-80.868
X197.993Y-83.408
X197.993Y-85.948
X197.993Y-88.488
X197.993Y-91.028
X197.993Y-93.568
X197.993Y-96.108
X197.993Y-98.648
X197.993Y-101.188
X197.993Y-103.728
X197.993Y-106.268
X197.993Y-108.808
X197.993Y-111.348
X208.026Y-76.28
X208.026Y-81.28
X219.456Y-67.564
X224.456Y-67.564
X171.938Y-85.948
X176.938Y-85.948
X201.93Y-94.996
X201.93Y-102.496
X220.833Y-99.06
X225.833Y-99.06
X147.193Y-89.758
X147.193Y-104.998
X149.733Y-89.758
X149.733Y-104.998
X152.273Y-89.758
X152.273Y-104.998
X154.813Y-89.758
X154.813Y-104.998
X157.353Y-89.758
X157.353Y-104.998
X204.216Y-76.28
X204.216Y-81.28
X168.148Y-94.996
X168.148Y-99.896
X103.378Y-62.61
X108.378Y-62.61
X197.993Y-115.523
X197.993Y-120.523
X212.598Y-120.65
X215.098Y-120.65
X133.928Y-63.088
X133.928Y-78.328
X136.468Y-63.088
X136.468Y-78.328
X139.008Y-63.088
X139.008Y-78.328
X141.548Y-63.088
X141.548Y-78.328
X144.088Y-63.088
X144.088Y-78.328
X161.624Y-105.664
X166.624Y-105.664
X133.928Y-89.758
X133.928Y-104.998
X136.468Y-89.758
X136.468Y-104.998
X139.008Y-89.758
X139.008Y-104.998
X141.548Y-89.758
X141.548Y-104.998
X144.088Y-89.758
X144.088Y-104.998
X86.186Y-62.61
X91.186Y-62.61
X185.928Y-58.928
X190.928Y-58.928
T7
X113.03Y-130.429
X115.57Y-130.429
X96.52Y-130.429
X99.06Y-130.429
X203.454Y-130.429
X205.994Y-130.429
T8
X82.328Y-94.878
X82.328Y-97.378
X84.328Y-94.878
X84.328Y-97.378
X82.328Y-118.023
X82.328Y-120.523
X84.328Y-118.023
X84.328Y-120.523
T9
X203.708Y-69.088
X79.248Y-69.438
X79.248Y-71.978
X79.248Y-74.518
X79.248Y-77.058
X79.248Y-79.598
X81.788Y-69.438
X81.788Y-71.978
X81.788Y-74.518
X81.788Y-77.058
X81.788Y-79.598
X203.708Y-59.227
X203.708Y-61.767
X213.868Y-58.928
X213.868Y-61.468
X213.868Y-69.088
T10
X223.266Y-77.971
X223.266Y-85.471
X188.468Y-131.445
X195.968Y-131.445
X204.296Y-88.392
X209.296Y-88.392
X223.266Y-109.69
X223.266Y-117.19
T11
X97.795Y-62.61
X97.795Y-67.31
X97.795Y-72.01
T12
X131.508Y-115.113
X131.508Y-131.713
X146.508Y-115.113
X146.508Y-131.713
T13
X153.008Y-123.413
X125.008Y-123.413
T14
X79.468Y-90.128
X79.468Y-102.128
X79.468Y-113.273
X79.468Y-125.273
T15
X222.588Y-133.708
X222.588Y-61.708
X75.588Y-61.708
X75.588Y-133.708
T0
M30
