%TF.GenerationSoftware,KiCad,Pcbnew,7.0.9*%
%TF.CreationDate,2024-04-16T23:51:44+02:00*%
%TF.ProjectId,frontplate,66726f6e-7470-46c6-9174-652e6b696361,rev?*%
%TF.SameCoordinates,Original*%
%TF.FileFunction,Profile,NP*%
%FSLAX46Y46*%
G04 Gerber Fmt 4.6, Leading zero omitted, Abs format (unit mm)*
G04 Created by KiCad (PCBNEW 7.0.9) date 2024-04-16 23:51:44*
%MOMM*%
%LPD*%
G01*
G04 APERTURE LIST*
%TA.AperFunction,Profile*%
%ADD10C,0.050000*%
%TD*%
G04 APERTURE END LIST*
D10*
X38933000Y-150208000D02*
X38933000Y-45208000D01*
X238933000Y-45208000D02*
X238933000Y-150208000D01*
X38933000Y-45208000D02*
X238933000Y-45208000D01*
X115796000Y-92202000D02*
G75*
G03*
X115796000Y-92202000I-1750000J0D01*
G01*
X105001000Y-92202000D02*
G75*
G03*
X105001000Y-92202000I-1750000J0D01*
G01*
X115923000Y-75819000D02*
G75*
G03*
X115923000Y-75819000I-1750000J0D01*
G01*
X115923000Y-65532000D02*
G75*
G03*
X115923000Y-65532000I-1750000J0D01*
G01*
X105001000Y-65532000D02*
G75*
G03*
X105001000Y-65532000I-1750000J0D01*
G01*
X207474000Y-130429000D02*
G75*
G03*
X207474000Y-130429000I-2750000J0D01*
G01*
X117050000Y-130429000D02*
G75*
G03*
X117050000Y-130429000I-2750000J0D01*
G01*
X80230000Y-130429000D02*
G75*
G03*
X80230000Y-130429000I-2750000J0D01*
G01*
X71332000Y-59690000D02*
G75*
G03*
X71332000Y-59690000I-3250000J0D01*
G01*
X119126000Y-78391000D02*
X119126000Y-62960000D01*
X119126000Y-105061000D02*
X119126000Y-89630000D01*
X158750000Y-89630000D02*
X158750000Y-105061000D01*
X121126000Y-87630000D02*
X156750000Y-87630000D01*
X156750000Y-107061000D02*
X121126000Y-107061000D01*
X56878000Y-61708000D02*
G75*
G03*
X56878000Y-61708000I-1600000J0D01*
G01*
X56878000Y-133708000D02*
G75*
G03*
X56878000Y-133708000I-1600000J0D01*
G01*
X224188000Y-61708000D02*
G75*
G03*
X224188000Y-61708000I-1600000J0D01*
G01*
X236033000Y-49708000D02*
G75*
G03*
X236033000Y-49708000I-1600000J0D01*
G01*
X154608000Y-123413000D02*
G75*
G03*
X154608000Y-123413000I-1600000J0D01*
G01*
X224188000Y-133708000D02*
G75*
G03*
X224188000Y-133708000I-1600000J0D01*
G01*
X236033000Y-145708000D02*
G75*
G03*
X236033000Y-145708000I-1600000J0D01*
G01*
X56378000Y-111958000D02*
G75*
G03*
X56378000Y-111958000I-1600000J0D01*
G01*
X224688000Y-83458000D02*
G75*
G03*
X224688000Y-83458000I-1600000J0D01*
G01*
X224688000Y-111958000D02*
G75*
G03*
X224688000Y-111958000I-1600000J0D01*
G01*
X238933000Y-150208000D02*
X38933000Y-150208000D01*
X45033000Y-145708000D02*
G75*
G03*
X45033000Y-145708000I-1600000J0D01*
G01*
X45033000Y-49708000D02*
G75*
G03*
X45033000Y-49708000I-1600000J0D01*
G01*
X121126000Y-60960000D02*
G75*
G03*
X119126000Y-62960000I0J-2000000D01*
G01*
X105001000Y-81280000D02*
G75*
G03*
X105001000Y-81280000I-1750000J0D01*
G01*
X56378000Y-83458000D02*
G75*
G03*
X56378000Y-83458000I-1600000J0D01*
G01*
X126608000Y-123413000D02*
G75*
G03*
X126608000Y-123413000I-1600000J0D01*
G01*
X158750000Y-62960000D02*
G75*
G03*
X156750000Y-60960000I-2000000J0D01*
G01*
X121126000Y-60960000D02*
X156750000Y-60960000D01*
X158750000Y-89630000D02*
G75*
G03*
X156750000Y-87630000I-2000000J0D01*
G01*
X145508000Y-123413000D02*
G75*
G03*
X145508000Y-123413000I-6500000J0D01*
G01*
X156750000Y-107061000D02*
G75*
G03*
X158750000Y-105061000I0J2000000D01*
G01*
X121126000Y-87630000D02*
G75*
G03*
X119126000Y-89630000I0J-2000000D01*
G01*
X156750000Y-80391000D02*
G75*
G03*
X158750000Y-78391000I0J2000000D01*
G01*
X119126000Y-78391000D02*
G75*
G03*
X121126000Y-80391000I2000000J0D01*
G01*
X119126000Y-105061000D02*
G75*
G03*
X121126000Y-107061000I2000000J0D01*
G01*
X158750000Y-62960000D02*
X158750000Y-78391000D01*
X156750000Y-80391000D02*
X121126000Y-80391000D01*
X115923000Y-102489000D02*
G75*
G03*
X115923000Y-102489000I-1750000J0D01*
G01*
M02*
