%TF.GenerationSoftware,KiCad,Pcbnew,7.0.9*%
%TF.CreationDate,2024-04-16T23:51:44+02:00*%
%TF.ProjectId,frontplate,66726f6e-7470-46c6-9174-652e6b696361,rev?*%
%TF.SameCoordinates,Original*%
%TF.FileFunction,Copper,L2,Bot*%
%TF.FilePolarity,Positive*%
%FSLAX46Y46*%
G04 Gerber Fmt 4.6, Leading zero omitted, Abs format (unit mm)*
G04 Created by KiCad (PCBNEW 7.0.9) date 2024-04-16 23:51:44*
%MOMM*%
%LPD*%
G01*
G04 APERTURE LIST*
G04 APERTURE END LIST*
%TA.AperFunction,NonConductor*%
G36*
X238849621Y-45253502D02*
G01*
X238896114Y-45307158D01*
X238907500Y-45359500D01*
X238907500Y-150056500D01*
X238887498Y-150124621D01*
X238833842Y-150171114D01*
X238781500Y-150182500D01*
X39084500Y-150182500D01*
X39016379Y-150162498D01*
X38969886Y-150108842D01*
X38958500Y-150056500D01*
X38958500Y-145708000D01*
X41802474Y-145708000D01*
X41822548Y-145963070D01*
X41882277Y-146211857D01*
X41980190Y-146448241D01*
X42113878Y-146666400D01*
X42113879Y-146666402D01*
X42280043Y-146860956D01*
X42474597Y-147027120D01*
X42474601Y-147027123D01*
X42692757Y-147160809D01*
X42929140Y-147258722D01*
X43177930Y-147318452D01*
X43433000Y-147338526D01*
X43688070Y-147318452D01*
X43936860Y-147258722D01*
X44173243Y-147160809D01*
X44391399Y-147027123D01*
X44585956Y-146860956D01*
X44752123Y-146666399D01*
X44885809Y-146448243D01*
X44983722Y-146211860D01*
X45043452Y-145963070D01*
X45063526Y-145708000D01*
X232802474Y-145708000D01*
X232822548Y-145963070D01*
X232882277Y-146211857D01*
X232980190Y-146448241D01*
X233113878Y-146666400D01*
X233113879Y-146666402D01*
X233280043Y-146860956D01*
X233474597Y-147027120D01*
X233474601Y-147027123D01*
X233692757Y-147160809D01*
X233929140Y-147258722D01*
X234177930Y-147318452D01*
X234433000Y-147338526D01*
X234688070Y-147318452D01*
X234936860Y-147258722D01*
X235173243Y-147160809D01*
X235391399Y-147027123D01*
X235585956Y-146860956D01*
X235752123Y-146666399D01*
X235885809Y-146448243D01*
X235983722Y-146211860D01*
X236043452Y-145963070D01*
X236063526Y-145708000D01*
X236043452Y-145452930D01*
X235983722Y-145204140D01*
X235885809Y-144967757D01*
X235752123Y-144749601D01*
X235752120Y-144749597D01*
X235585956Y-144555043D01*
X235391402Y-144388879D01*
X235391400Y-144388878D01*
X235391399Y-144388877D01*
X235173243Y-144255191D01*
X234936860Y-144157278D01*
X234936858Y-144157277D01*
X234936857Y-144157277D01*
X234802969Y-144125133D01*
X234688070Y-144097548D01*
X234688071Y-144097548D01*
X234433000Y-144077474D01*
X234177929Y-144097548D01*
X233929142Y-144157277D01*
X233692758Y-144255190D01*
X233474599Y-144388878D01*
X233474597Y-144388879D01*
X233280043Y-144555043D01*
X233113879Y-144749597D01*
X233113878Y-144749599D01*
X232980190Y-144967758D01*
X232882277Y-145204142D01*
X232822548Y-145452929D01*
X232802474Y-145708000D01*
X45063526Y-145708000D01*
X45043452Y-145452930D01*
X44983722Y-145204140D01*
X44885809Y-144967757D01*
X44752123Y-144749601D01*
X44752120Y-144749597D01*
X44585956Y-144555043D01*
X44391402Y-144388879D01*
X44391400Y-144388878D01*
X44391399Y-144388877D01*
X44173243Y-144255191D01*
X43936860Y-144157278D01*
X43936858Y-144157277D01*
X43936857Y-144157277D01*
X43802969Y-144125133D01*
X43688070Y-144097548D01*
X43688071Y-144097548D01*
X43433000Y-144077474D01*
X43177929Y-144097548D01*
X42929142Y-144157277D01*
X42692758Y-144255190D01*
X42474599Y-144388878D01*
X42474597Y-144388879D01*
X42280043Y-144555043D01*
X42113879Y-144749597D01*
X42113878Y-144749599D01*
X41980190Y-144967758D01*
X41882277Y-145204142D01*
X41822548Y-145452929D01*
X41802474Y-145708000D01*
X38958500Y-145708000D01*
X38958500Y-133708000D01*
X53647474Y-133708000D01*
X53667548Y-133963070D01*
X53727277Y-134211857D01*
X53825190Y-134448241D01*
X53958878Y-134666400D01*
X53958879Y-134666402D01*
X54125043Y-134860956D01*
X54319597Y-135027120D01*
X54319601Y-135027123D01*
X54537757Y-135160809D01*
X54774140Y-135258722D01*
X55022930Y-135318452D01*
X55278000Y-135338526D01*
X55533070Y-135318452D01*
X55781860Y-135258722D01*
X56018243Y-135160809D01*
X56236399Y-135027123D01*
X56430956Y-134860956D01*
X56597123Y-134666399D01*
X56730809Y-134448243D01*
X56828722Y-134211860D01*
X56888452Y-133963070D01*
X56908526Y-133708000D01*
X220957474Y-133708000D01*
X220977548Y-133963070D01*
X221037277Y-134211857D01*
X221135190Y-134448241D01*
X221268878Y-134666400D01*
X221268879Y-134666402D01*
X221435043Y-134860956D01*
X221629597Y-135027120D01*
X221629601Y-135027123D01*
X221847757Y-135160809D01*
X222084140Y-135258722D01*
X222332930Y-135318452D01*
X222588000Y-135338526D01*
X222843070Y-135318452D01*
X223091860Y-135258722D01*
X223328243Y-135160809D01*
X223546399Y-135027123D01*
X223740956Y-134860956D01*
X223907123Y-134666399D01*
X224040809Y-134448243D01*
X224138722Y-134211860D01*
X224198452Y-133963070D01*
X224218526Y-133708000D01*
X224198452Y-133452930D01*
X224138722Y-133204140D01*
X224040809Y-132967757D01*
X223907123Y-132749601D01*
X223879593Y-132717367D01*
X223740956Y-132555043D01*
X223546402Y-132388879D01*
X223546400Y-132388878D01*
X223546399Y-132388877D01*
X223328243Y-132255191D01*
X223281134Y-132235678D01*
X223220499Y-132210562D01*
X223091860Y-132157278D01*
X223091858Y-132157277D01*
X223091857Y-132157277D01*
X222957969Y-132125133D01*
X222843070Y-132097548D01*
X222843071Y-132097548D01*
X222588000Y-132077474D01*
X222332929Y-132097548D01*
X222084142Y-132157277D01*
X221847758Y-132255190D01*
X221629599Y-132388878D01*
X221629597Y-132388879D01*
X221435043Y-132555043D01*
X221268879Y-132749597D01*
X221268878Y-132749599D01*
X221135190Y-132967758D01*
X221037277Y-133204142D01*
X220977548Y-133452929D01*
X220957474Y-133708000D01*
X56908526Y-133708000D01*
X56888452Y-133452930D01*
X56828722Y-133204140D01*
X56730809Y-132967757D01*
X56597123Y-132749601D01*
X56569593Y-132717367D01*
X56430956Y-132555043D01*
X56236402Y-132388879D01*
X56236400Y-132388878D01*
X56236399Y-132388877D01*
X56018243Y-132255191D01*
X55971134Y-132235678D01*
X55910499Y-132210562D01*
X55781860Y-132157278D01*
X55781858Y-132157277D01*
X55781857Y-132157277D01*
X55647969Y-132125133D01*
X55533070Y-132097548D01*
X55533071Y-132097548D01*
X55278000Y-132077474D01*
X55022929Y-132097548D01*
X54774142Y-132157277D01*
X54537758Y-132255190D01*
X54319599Y-132388878D01*
X54319597Y-132388879D01*
X54125043Y-132555043D01*
X53958879Y-132749597D01*
X53958878Y-132749599D01*
X53825190Y-132967758D01*
X53727277Y-133204142D01*
X53667548Y-133452929D01*
X53647474Y-133708000D01*
X38958500Y-133708000D01*
X38958500Y-130429001D01*
X74699427Y-130429001D01*
X74719700Y-130764158D01*
X74719701Y-130764161D01*
X74780224Y-131094432D01*
X74880121Y-131415012D01*
X75017919Y-131721186D01*
X75017922Y-131721192D01*
X75191632Y-132008544D01*
X75398705Y-132272855D01*
X75398717Y-132272868D01*
X75636131Y-132510282D01*
X75636144Y-132510294D01*
X75900455Y-132717367D01*
X76187803Y-132891075D01*
X76187805Y-132891076D01*
X76187807Y-132891077D01*
X76187813Y-132891080D01*
X76493987Y-133028878D01*
X76493991Y-133028879D01*
X76493995Y-133028881D01*
X76814565Y-133128775D01*
X77144839Y-133189299D01*
X77368279Y-133202815D01*
X77479999Y-133209573D01*
X77480000Y-133209573D01*
X77480001Y-133209573D01*
X77569816Y-133204140D01*
X77815161Y-133189299D01*
X78145435Y-133128775D01*
X78466005Y-133028881D01*
X78582498Y-132976452D01*
X78772186Y-132891080D01*
X78772186Y-132891079D01*
X78772197Y-132891075D01*
X79059545Y-132717367D01*
X79323861Y-132510289D01*
X79561289Y-132272861D01*
X79575134Y-132255190D01*
X79670471Y-132133500D01*
X79768367Y-132008545D01*
X79942075Y-131721197D01*
X80079881Y-131415005D01*
X80179775Y-131094435D01*
X80240299Y-130764161D01*
X80260573Y-130429001D01*
X111519427Y-130429001D01*
X111539700Y-130764158D01*
X111539701Y-130764161D01*
X111600224Y-131094432D01*
X111700121Y-131415012D01*
X111837919Y-131721186D01*
X111837922Y-131721192D01*
X112011632Y-132008544D01*
X112218705Y-132272855D01*
X112218717Y-132272868D01*
X112456131Y-132510282D01*
X112456144Y-132510294D01*
X112720455Y-132717367D01*
X113007803Y-132891075D01*
X113007805Y-132891076D01*
X113007807Y-132891077D01*
X113007813Y-132891080D01*
X113313987Y-133028878D01*
X113313991Y-133028879D01*
X113313995Y-133028881D01*
X113634565Y-133128775D01*
X113964839Y-133189299D01*
X114188279Y-133202815D01*
X114299999Y-133209573D01*
X114300000Y-133209573D01*
X114300001Y-133209573D01*
X114389816Y-133204140D01*
X114635161Y-133189299D01*
X114965435Y-133128775D01*
X115286005Y-133028881D01*
X115402498Y-132976452D01*
X115592186Y-132891080D01*
X115592186Y-132891079D01*
X115592197Y-132891075D01*
X115879545Y-132717367D01*
X116143861Y-132510289D01*
X116381289Y-132272861D01*
X116395134Y-132255190D01*
X116490471Y-132133500D01*
X116588367Y-132008545D01*
X116762075Y-131721197D01*
X116899881Y-131415005D01*
X116999775Y-131094435D01*
X117060299Y-130764161D01*
X117080573Y-130429001D01*
X201943427Y-130429001D01*
X201963700Y-130764158D01*
X201963701Y-130764161D01*
X202024224Y-131094432D01*
X202124121Y-131415012D01*
X202261919Y-131721186D01*
X202261922Y-131721192D01*
X202435632Y-132008544D01*
X202642705Y-132272855D01*
X202642717Y-132272868D01*
X202880131Y-132510282D01*
X202880144Y-132510294D01*
X203144455Y-132717367D01*
X203431803Y-132891075D01*
X203431805Y-132891076D01*
X203431807Y-132891077D01*
X203431813Y-132891080D01*
X203737987Y-133028878D01*
X203737991Y-133028879D01*
X203737995Y-133028881D01*
X204058565Y-133128775D01*
X204388839Y-133189299D01*
X204612279Y-133202815D01*
X204723999Y-133209573D01*
X204724000Y-133209573D01*
X204724001Y-133209573D01*
X204813816Y-133204140D01*
X205059161Y-133189299D01*
X205389435Y-133128775D01*
X205710005Y-133028881D01*
X205826498Y-132976452D01*
X206016186Y-132891080D01*
X206016186Y-132891079D01*
X206016197Y-132891075D01*
X206303545Y-132717367D01*
X206567861Y-132510289D01*
X206805289Y-132272861D01*
X206819134Y-132255190D01*
X206914471Y-132133500D01*
X207012367Y-132008545D01*
X207186075Y-131721197D01*
X207323881Y-131415005D01*
X207423775Y-131094435D01*
X207484299Y-130764161D01*
X207504573Y-130429000D01*
X207484299Y-130093839D01*
X207423775Y-129763565D01*
X207323881Y-129442995D01*
X207323879Y-129442991D01*
X207323878Y-129442987D01*
X207186080Y-129136813D01*
X207186077Y-129136807D01*
X207012367Y-128849455D01*
X206805294Y-128585144D01*
X206805282Y-128585131D01*
X206567868Y-128347717D01*
X206567855Y-128347705D01*
X206303544Y-128140632D01*
X206016192Y-127966922D01*
X206016186Y-127966919D01*
X205710012Y-127829121D01*
X205389432Y-127729224D01*
X205059161Y-127668701D01*
X205059158Y-127668700D01*
X204724001Y-127648427D01*
X204723999Y-127648427D01*
X204388841Y-127668700D01*
X204388838Y-127668701D01*
X204058567Y-127729224D01*
X203737987Y-127829121D01*
X203431813Y-127966919D01*
X203431807Y-127966922D01*
X203144455Y-128140632D01*
X202880144Y-128347705D01*
X202880131Y-128347717D01*
X202642717Y-128585131D01*
X202642705Y-128585144D01*
X202435632Y-128849455D01*
X202261922Y-129136807D01*
X202261919Y-129136813D01*
X202124121Y-129442987D01*
X202024224Y-129763567D01*
X201963701Y-130093838D01*
X201963700Y-130093841D01*
X201943427Y-130428998D01*
X201943427Y-130429001D01*
X117080573Y-130429001D01*
X117080573Y-130429000D01*
X117060299Y-130093839D01*
X116999775Y-129763565D01*
X116899881Y-129442995D01*
X116899879Y-129442991D01*
X116899878Y-129442987D01*
X116762080Y-129136813D01*
X116762077Y-129136807D01*
X116588367Y-128849455D01*
X116381294Y-128585144D01*
X116381282Y-128585131D01*
X116143868Y-128347717D01*
X116143855Y-128347705D01*
X115879544Y-128140632D01*
X115592192Y-127966922D01*
X115592186Y-127966919D01*
X115286012Y-127829121D01*
X114965432Y-127729224D01*
X114635161Y-127668701D01*
X114635158Y-127668700D01*
X114300001Y-127648427D01*
X114299999Y-127648427D01*
X113964841Y-127668700D01*
X113964838Y-127668701D01*
X113634567Y-127729224D01*
X113313987Y-127829121D01*
X113007813Y-127966919D01*
X113007807Y-127966922D01*
X112720455Y-128140632D01*
X112456144Y-128347705D01*
X112456131Y-128347717D01*
X112218717Y-128585131D01*
X112218705Y-128585144D01*
X112011632Y-128849455D01*
X111837922Y-129136807D01*
X111837919Y-129136813D01*
X111700121Y-129442987D01*
X111600224Y-129763567D01*
X111539701Y-130093838D01*
X111539700Y-130093841D01*
X111519427Y-130428998D01*
X111519427Y-130429001D01*
X80260573Y-130429001D01*
X80260573Y-130429000D01*
X80240299Y-130093839D01*
X80179775Y-129763565D01*
X80079881Y-129442995D01*
X80079879Y-129442991D01*
X80079878Y-129442987D01*
X79942080Y-129136813D01*
X79942077Y-129136807D01*
X79768367Y-128849455D01*
X79561294Y-128585144D01*
X79561282Y-128585131D01*
X79323868Y-128347717D01*
X79323855Y-128347705D01*
X79059544Y-128140632D01*
X78772192Y-127966922D01*
X78772186Y-127966919D01*
X78466012Y-127829121D01*
X78145432Y-127729224D01*
X77815161Y-127668701D01*
X77815158Y-127668700D01*
X77480001Y-127648427D01*
X77479999Y-127648427D01*
X77144841Y-127668700D01*
X77144838Y-127668701D01*
X76814567Y-127729224D01*
X76493987Y-127829121D01*
X76187813Y-127966919D01*
X76187807Y-127966922D01*
X75900455Y-128140632D01*
X75636144Y-128347705D01*
X75636131Y-128347717D01*
X75398717Y-128585131D01*
X75398705Y-128585144D01*
X75191632Y-128849455D01*
X75017922Y-129136807D01*
X75017919Y-129136813D01*
X74880121Y-129442987D01*
X74780224Y-129763567D01*
X74719701Y-130093838D01*
X74719700Y-130093841D01*
X74699427Y-130428998D01*
X74699427Y-130429001D01*
X38958500Y-130429001D01*
X38958500Y-123413000D01*
X123377474Y-123413000D01*
X123397548Y-123668070D01*
X123457278Y-123916860D01*
X123460804Y-123925372D01*
X123555190Y-124153241D01*
X123688878Y-124371400D01*
X123688879Y-124371402D01*
X123855043Y-124565956D01*
X124049597Y-124732120D01*
X124049601Y-124732123D01*
X124267757Y-124865809D01*
X124504140Y-124963722D01*
X124752930Y-125023452D01*
X125008000Y-125043526D01*
X125263070Y-125023452D01*
X125511860Y-124963722D01*
X125748243Y-124865809D01*
X125966399Y-124732123D01*
X126160956Y-124565956D01*
X126327123Y-124371399D01*
X126460809Y-124153243D01*
X126558722Y-123916860D01*
X126618452Y-123668070D01*
X126638526Y-123413000D01*
X132477465Y-123413000D01*
X132497595Y-123925371D01*
X132497595Y-123925372D01*
X132557867Y-124434603D01*
X132557867Y-124434604D01*
X132576115Y-124526340D01*
X132652516Y-124910438D01*
X132657905Y-124937526D01*
X132792208Y-125413731D01*
X132797092Y-125431046D01*
X132974572Y-125912128D01*
X133189251Y-126377801D01*
X133439804Y-126825195D01*
X133439807Y-126825199D01*
X133439806Y-126825198D01*
X133724686Y-127251553D01*
X134042141Y-127654242D01*
X134042142Y-127654243D01*
X134390214Y-128030786D01*
X134766757Y-128378858D01*
X134766758Y-128378858D01*
X134766758Y-128378859D01*
X135169447Y-128696314D01*
X135595802Y-128981194D01*
X135595805Y-128981196D01*
X136043199Y-129231749D01*
X136508874Y-129446429D01*
X136989953Y-129623908D01*
X137290281Y-129708609D01*
X137483477Y-129763096D01*
X137686285Y-129803436D01*
X137986396Y-129863133D01*
X137986397Y-129863133D01*
X138495628Y-129923405D01*
X138495629Y-129923405D01*
X139008000Y-129943535D01*
X139520371Y-129923405D01*
X139520372Y-129923405D01*
X140029603Y-129863133D01*
X140029604Y-129863133D01*
X140329715Y-129803436D01*
X140532523Y-129763096D01*
X140725719Y-129708609D01*
X141026047Y-129623908D01*
X141507126Y-129446429D01*
X141972801Y-129231749D01*
X142420195Y-128981196D01*
X142420198Y-128981194D01*
X142846553Y-128696314D01*
X143249242Y-128378859D01*
X143249242Y-128378858D01*
X143249243Y-128378858D01*
X143625786Y-128030786D01*
X143973858Y-127654243D01*
X143973859Y-127654242D01*
X144291314Y-127251553D01*
X144576194Y-126825198D01*
X144576193Y-126825199D01*
X144576196Y-126825195D01*
X144826749Y-126377801D01*
X145041428Y-125912128D01*
X145218908Y-125431046D01*
X145223792Y-125413731D01*
X145358095Y-124937526D01*
X145363484Y-124910438D01*
X145439885Y-124526340D01*
X145458133Y-124434604D01*
X145458133Y-124434603D01*
X145518405Y-123925372D01*
X145518405Y-123925371D01*
X145538535Y-123413000D01*
X151377474Y-123413000D01*
X151397548Y-123668070D01*
X151457278Y-123916860D01*
X151460804Y-123925372D01*
X151555190Y-124153241D01*
X151688878Y-124371400D01*
X151688879Y-124371402D01*
X151855043Y-124565956D01*
X152049597Y-124732120D01*
X152049601Y-124732123D01*
X152267757Y-124865809D01*
X152504140Y-124963722D01*
X152752930Y-125023452D01*
X153008000Y-125043526D01*
X153263070Y-125023452D01*
X153511860Y-124963722D01*
X153748243Y-124865809D01*
X153966399Y-124732123D01*
X154160956Y-124565956D01*
X154327123Y-124371399D01*
X154460809Y-124153243D01*
X154558722Y-123916860D01*
X154618452Y-123668070D01*
X154638526Y-123413000D01*
X154618452Y-123157930D01*
X154558722Y-122909140D01*
X154460809Y-122672757D01*
X154327123Y-122454601D01*
X154327120Y-122454597D01*
X154160956Y-122260043D01*
X153966402Y-122093879D01*
X153966400Y-122093878D01*
X153966399Y-122093877D01*
X153748243Y-121960191D01*
X153511860Y-121862278D01*
X153511858Y-121862277D01*
X153511857Y-121862277D01*
X153377969Y-121830133D01*
X153263070Y-121802548D01*
X153263071Y-121802548D01*
X153008000Y-121782474D01*
X152752929Y-121802548D01*
X152504142Y-121862277D01*
X152267758Y-121960190D01*
X152049599Y-122093878D01*
X152049597Y-122093879D01*
X151855043Y-122260043D01*
X151688879Y-122454597D01*
X151688878Y-122454599D01*
X151555190Y-122672758D01*
X151457277Y-122909142D01*
X151453121Y-122926453D01*
X151397548Y-123157930D01*
X151377474Y-123413000D01*
X145538535Y-123413000D01*
X145518405Y-122900629D01*
X145518405Y-122900628D01*
X145458133Y-122391397D01*
X145458133Y-122391396D01*
X145382290Y-122010110D01*
X145358096Y-121888477D01*
X145308954Y-121714233D01*
X145218908Y-121394953D01*
X145041429Y-120913874D01*
X144826749Y-120448199D01*
X144826748Y-120448198D01*
X144592592Y-120030083D01*
X144576196Y-120000805D01*
X144576194Y-120000802D01*
X144291314Y-119574447D01*
X143973859Y-119171758D01*
X143973858Y-119171757D01*
X143625786Y-118795214D01*
X143249243Y-118447142D01*
X143249242Y-118447141D01*
X142846553Y-118129686D01*
X142420198Y-117844806D01*
X142420199Y-117844807D01*
X142420195Y-117844804D01*
X141972801Y-117594251D01*
X141507126Y-117379571D01*
X141026047Y-117202092D01*
X140706766Y-117112045D01*
X140532523Y-117062904D01*
X140307840Y-117018212D01*
X140029604Y-116962867D01*
X140029603Y-116962867D01*
X139520372Y-116902595D01*
X139520371Y-116902595D01*
X139008000Y-116882465D01*
X138495629Y-116902595D01*
X138495628Y-116902595D01*
X137986397Y-116962867D01*
X137986396Y-116962867D01*
X137708160Y-117018212D01*
X137483477Y-117062904D01*
X137309233Y-117112045D01*
X136989953Y-117202092D01*
X136508874Y-117379571D01*
X136043199Y-117594251D01*
X135595805Y-117844804D01*
X135595801Y-117844807D01*
X135595802Y-117844806D01*
X135169447Y-118129686D01*
X134766758Y-118447141D01*
X134766757Y-118447142D01*
X134390214Y-118795214D01*
X134042142Y-119171757D01*
X134042141Y-119171758D01*
X133724686Y-119574447D01*
X133439806Y-120000802D01*
X133439804Y-120000805D01*
X133423408Y-120030083D01*
X133189252Y-120448198D01*
X133189251Y-120448199D01*
X132974571Y-120913874D01*
X132797092Y-121394953D01*
X132707045Y-121714233D01*
X132657904Y-121888477D01*
X132633710Y-122010110D01*
X132557867Y-122391396D01*
X132557867Y-122391397D01*
X132497595Y-122900628D01*
X132497595Y-122900629D01*
X132477465Y-123413000D01*
X126638526Y-123413000D01*
X126618452Y-123157930D01*
X126558722Y-122909140D01*
X126460809Y-122672757D01*
X126327123Y-122454601D01*
X126327120Y-122454597D01*
X126160956Y-122260043D01*
X125966402Y-122093879D01*
X125966400Y-122093878D01*
X125966399Y-122093877D01*
X125748243Y-121960191D01*
X125511860Y-121862278D01*
X125511858Y-121862277D01*
X125511857Y-121862277D01*
X125377969Y-121830133D01*
X125263070Y-121802548D01*
X125263071Y-121802548D01*
X125008000Y-121782474D01*
X124752929Y-121802548D01*
X124504142Y-121862277D01*
X124267758Y-121960190D01*
X124049599Y-122093878D01*
X124049597Y-122093879D01*
X123855043Y-122260043D01*
X123688879Y-122454597D01*
X123688878Y-122454599D01*
X123555190Y-122672758D01*
X123457277Y-122909142D01*
X123453121Y-122926453D01*
X123397548Y-123157930D01*
X123377474Y-123413000D01*
X38958500Y-123413000D01*
X38958500Y-111958000D01*
X53147474Y-111958000D01*
X53167548Y-112213070D01*
X53227277Y-112461857D01*
X53325190Y-112698241D01*
X53458878Y-112916400D01*
X53458879Y-112916402D01*
X53625043Y-113110956D01*
X53819597Y-113277120D01*
X53819601Y-113277123D01*
X54037757Y-113410809D01*
X54274140Y-113508722D01*
X54522930Y-113568452D01*
X54778000Y-113588526D01*
X55033070Y-113568452D01*
X55281860Y-113508722D01*
X55518243Y-113410809D01*
X55736399Y-113277123D01*
X55930956Y-113110956D01*
X56097123Y-112916399D01*
X56230809Y-112698243D01*
X56328722Y-112461860D01*
X56388452Y-112213070D01*
X56408526Y-111958000D01*
X221457474Y-111958000D01*
X221477548Y-112213070D01*
X221537277Y-112461857D01*
X221635190Y-112698241D01*
X221768878Y-112916400D01*
X221768879Y-112916402D01*
X221935043Y-113110956D01*
X222129597Y-113277120D01*
X222129601Y-113277123D01*
X222347757Y-113410809D01*
X222584140Y-113508722D01*
X222832930Y-113568452D01*
X223088000Y-113588526D01*
X223343070Y-113568452D01*
X223591860Y-113508722D01*
X223828243Y-113410809D01*
X224046399Y-113277123D01*
X224240956Y-113110956D01*
X224407123Y-112916399D01*
X224540809Y-112698243D01*
X224638722Y-112461860D01*
X224698452Y-112213070D01*
X224718526Y-111958000D01*
X224698452Y-111702930D01*
X224638722Y-111454140D01*
X224540809Y-111217757D01*
X224407123Y-110999601D01*
X224407120Y-110999597D01*
X224240956Y-110805043D01*
X224046402Y-110638879D01*
X224046400Y-110638878D01*
X224046399Y-110638877D01*
X223828243Y-110505191D01*
X223591860Y-110407278D01*
X223591858Y-110407277D01*
X223591857Y-110407277D01*
X223457969Y-110375133D01*
X223343070Y-110347548D01*
X223343071Y-110347548D01*
X223088000Y-110327474D01*
X222832929Y-110347548D01*
X222584142Y-110407277D01*
X222347758Y-110505190D01*
X222129599Y-110638878D01*
X222129597Y-110638879D01*
X221935043Y-110805043D01*
X221768879Y-110999597D01*
X221768878Y-110999599D01*
X221635190Y-111217758D01*
X221537277Y-111454142D01*
X221477548Y-111702929D01*
X221457474Y-111958000D01*
X56408526Y-111958000D01*
X56388452Y-111702930D01*
X56328722Y-111454140D01*
X56230809Y-111217757D01*
X56097123Y-110999601D01*
X56097120Y-110999597D01*
X55930956Y-110805043D01*
X55736402Y-110638879D01*
X55736400Y-110638878D01*
X55736399Y-110638877D01*
X55518243Y-110505191D01*
X55281860Y-110407278D01*
X55281858Y-110407277D01*
X55281857Y-110407277D01*
X55147969Y-110375133D01*
X55033070Y-110347548D01*
X55033071Y-110347548D01*
X54778000Y-110327474D01*
X54522929Y-110347548D01*
X54274142Y-110407277D01*
X54037758Y-110505190D01*
X53819599Y-110638878D01*
X53819597Y-110638879D01*
X53625043Y-110805043D01*
X53458879Y-110999597D01*
X53458878Y-110999599D01*
X53325190Y-111217758D01*
X53227277Y-111454142D01*
X53167548Y-111702929D01*
X53147474Y-111958000D01*
X38958500Y-111958000D01*
X38958500Y-105193760D01*
X119100500Y-105193760D01*
X119135155Y-105456995D01*
X119135156Y-105457001D01*
X119135157Y-105457003D01*
X119203878Y-105713473D01*
X119305486Y-105958778D01*
X119305487Y-105958779D01*
X119305492Y-105958789D01*
X119438242Y-106188718D01*
X119438247Y-106188725D01*
X119599876Y-106399364D01*
X119599895Y-106399385D01*
X119787614Y-106587104D01*
X119787624Y-106587113D01*
X119787630Y-106587119D01*
X119998278Y-106748755D01*
X120228222Y-106881514D01*
X120473527Y-106983122D01*
X120729997Y-107051843D01*
X120730003Y-107051843D01*
X120730004Y-107051844D01*
X120760210Y-107055820D01*
X120993242Y-107086500D01*
X120993249Y-107086500D01*
X156882751Y-107086500D01*
X156882758Y-107086500D01*
X157146003Y-107051843D01*
X157402473Y-106983122D01*
X157647778Y-106881514D01*
X157877722Y-106748755D01*
X158088370Y-106587119D01*
X158276119Y-106399370D01*
X158437755Y-106188722D01*
X158570514Y-105958778D01*
X158672122Y-105713473D01*
X158740843Y-105457003D01*
X158775500Y-105193758D01*
X158775500Y-105061000D01*
X158775500Y-105052715D01*
X158775500Y-89624928D01*
X158775500Y-89497242D01*
X158740843Y-89233997D01*
X158672122Y-88977527D01*
X158570514Y-88732222D01*
X158437755Y-88502278D01*
X158276119Y-88291630D01*
X158276113Y-88291624D01*
X158276104Y-88291614D01*
X158088385Y-88103895D01*
X158088364Y-88103876D01*
X157877725Y-87942247D01*
X157877718Y-87942242D01*
X157647789Y-87809492D01*
X157647784Y-87809489D01*
X157647778Y-87809486D01*
X157402473Y-87707878D01*
X157146003Y-87639157D01*
X157146001Y-87639156D01*
X157145995Y-87639155D01*
X156882760Y-87604500D01*
X156882758Y-87604500D01*
X156755072Y-87604500D01*
X121134285Y-87604500D01*
X121126000Y-87604500D01*
X120993242Y-87604500D01*
X120993239Y-87604500D01*
X120730004Y-87639155D01*
X120473527Y-87707878D01*
X120228220Y-87809487D01*
X120228210Y-87809492D01*
X119998281Y-87942242D01*
X119998274Y-87942247D01*
X119787635Y-88103876D01*
X119787614Y-88103895D01*
X119599895Y-88291614D01*
X119599876Y-88291635D01*
X119438247Y-88502274D01*
X119438242Y-88502281D01*
X119305492Y-88732210D01*
X119305487Y-88732220D01*
X119203878Y-88977527D01*
X119135155Y-89234004D01*
X119100500Y-89497239D01*
X119100500Y-105193760D01*
X38958500Y-105193760D01*
X38958500Y-102489000D01*
X112392521Y-102489000D01*
X112412407Y-102754369D01*
X112412408Y-102754373D01*
X112471623Y-103013806D01*
X112471624Y-103013808D01*
X112568844Y-103261523D01*
X112701896Y-103491976D01*
X112701902Y-103491984D01*
X112867815Y-103700031D01*
X112867819Y-103700036D01*
X113062883Y-103881029D01*
X113062886Y-103881031D01*
X113062890Y-103881035D01*
X113062896Y-103881039D01*
X113282751Y-104030934D01*
X113282758Y-104030938D01*
X113282761Y-104030940D01*
X113522518Y-104146401D01*
X113724414Y-104208678D01*
X113776799Y-104224837D01*
X113776806Y-104224839D01*
X114039945Y-104264500D01*
X114039949Y-104264500D01*
X114306051Y-104264500D01*
X114306055Y-104264500D01*
X114569194Y-104224839D01*
X114823482Y-104146401D01*
X115063240Y-104030940D01*
X115283110Y-103881035D01*
X115478183Y-103700033D01*
X115644101Y-103491980D01*
X115777156Y-103261521D01*
X115874377Y-103013805D01*
X115933593Y-102754367D01*
X115953479Y-102489000D01*
X115933593Y-102223633D01*
X115874377Y-101964195D01*
X115777156Y-101716479D01*
X115777155Y-101716476D01*
X115644103Y-101486023D01*
X115644097Y-101486015D01*
X115478184Y-101277968D01*
X115478180Y-101277963D01*
X115283116Y-101096970D01*
X115283103Y-101096960D01*
X115063242Y-100947061D01*
X115063234Y-100947056D01*
X114823490Y-100831602D01*
X114823485Y-100831600D01*
X114823482Y-100831599D01*
X114725620Y-100801412D01*
X114569200Y-100753162D01*
X114569195Y-100753161D01*
X114569194Y-100753161D01*
X114306055Y-100713500D01*
X114039945Y-100713500D01*
X113776806Y-100753161D01*
X113776805Y-100753161D01*
X113776799Y-100753162D01*
X113522512Y-100831601D01*
X113282758Y-100947061D01*
X113282751Y-100947065D01*
X113062896Y-101096960D01*
X113062883Y-101096970D01*
X112867819Y-101277963D01*
X112867815Y-101277968D01*
X112701902Y-101486015D01*
X112701896Y-101486023D01*
X112568844Y-101716476D01*
X112471624Y-101964191D01*
X112471623Y-101964193D01*
X112412408Y-102223626D01*
X112412407Y-102223630D01*
X112392521Y-102489000D01*
X38958500Y-102489000D01*
X38958500Y-92202000D01*
X101470521Y-92202000D01*
X101490407Y-92467369D01*
X101490408Y-92467373D01*
X101549623Y-92726806D01*
X101549624Y-92726808D01*
X101646844Y-92974523D01*
X101779896Y-93204976D01*
X101779902Y-93204984D01*
X101945815Y-93413031D01*
X101945819Y-93413036D01*
X102140883Y-93594029D01*
X102140886Y-93594031D01*
X102140890Y-93594035D01*
X102140896Y-93594039D01*
X102360751Y-93743934D01*
X102360758Y-93743938D01*
X102360761Y-93743940D01*
X102600518Y-93859401D01*
X102802414Y-93921678D01*
X102854799Y-93937837D01*
X102854806Y-93937839D01*
X103117945Y-93977500D01*
X103117949Y-93977500D01*
X103384051Y-93977500D01*
X103384055Y-93977500D01*
X103647194Y-93937839D01*
X103901482Y-93859401D01*
X104141240Y-93743940D01*
X104361110Y-93594035D01*
X104556183Y-93413033D01*
X104722101Y-93204980D01*
X104855156Y-92974521D01*
X104952377Y-92726805D01*
X105011593Y-92467367D01*
X105031479Y-92202000D01*
X112265521Y-92202000D01*
X112285407Y-92467369D01*
X112285408Y-92467373D01*
X112344623Y-92726806D01*
X112344624Y-92726808D01*
X112441844Y-92974523D01*
X112574896Y-93204976D01*
X112574902Y-93204984D01*
X112740815Y-93413031D01*
X112740819Y-93413036D01*
X112935883Y-93594029D01*
X112935886Y-93594031D01*
X112935890Y-93594035D01*
X112935896Y-93594039D01*
X113155751Y-93743934D01*
X113155758Y-93743938D01*
X113155761Y-93743940D01*
X113395518Y-93859401D01*
X113597414Y-93921678D01*
X113649799Y-93937837D01*
X113649806Y-93937839D01*
X113912945Y-93977500D01*
X113912949Y-93977500D01*
X114179051Y-93977500D01*
X114179055Y-93977500D01*
X114442194Y-93937839D01*
X114696482Y-93859401D01*
X114936240Y-93743940D01*
X115156110Y-93594035D01*
X115351183Y-93413033D01*
X115517101Y-93204980D01*
X115650156Y-92974521D01*
X115747377Y-92726805D01*
X115806593Y-92467367D01*
X115826479Y-92202000D01*
X115806593Y-91936633D01*
X115747377Y-91677195D01*
X115650156Y-91429479D01*
X115650155Y-91429476D01*
X115517103Y-91199023D01*
X115517097Y-91199015D01*
X115351184Y-90990968D01*
X115351180Y-90990963D01*
X115156116Y-90809970D01*
X115156103Y-90809960D01*
X114936242Y-90660061D01*
X114936234Y-90660056D01*
X114696490Y-90544602D01*
X114696485Y-90544600D01*
X114696482Y-90544599D01*
X114598620Y-90514412D01*
X114442200Y-90466162D01*
X114442195Y-90466161D01*
X114442194Y-90466161D01*
X114179055Y-90426500D01*
X113912945Y-90426500D01*
X113649806Y-90466161D01*
X113649805Y-90466161D01*
X113649799Y-90466162D01*
X113395512Y-90544601D01*
X113155758Y-90660061D01*
X113155751Y-90660065D01*
X112935896Y-90809960D01*
X112935883Y-90809970D01*
X112740819Y-90990963D01*
X112740815Y-90990968D01*
X112574902Y-91199015D01*
X112574896Y-91199023D01*
X112441844Y-91429476D01*
X112344624Y-91677191D01*
X112344623Y-91677193D01*
X112285408Y-91936626D01*
X112285407Y-91936630D01*
X112265521Y-92202000D01*
X105031479Y-92202000D01*
X105011593Y-91936633D01*
X104952377Y-91677195D01*
X104855156Y-91429479D01*
X104855155Y-91429476D01*
X104722103Y-91199023D01*
X104722097Y-91199015D01*
X104556184Y-90990968D01*
X104556180Y-90990963D01*
X104361116Y-90809970D01*
X104361103Y-90809960D01*
X104141242Y-90660061D01*
X104141234Y-90660056D01*
X103901490Y-90544602D01*
X103901485Y-90544600D01*
X103901482Y-90544599D01*
X103803620Y-90514412D01*
X103647200Y-90466162D01*
X103647195Y-90466161D01*
X103647194Y-90466161D01*
X103384055Y-90426500D01*
X103117945Y-90426500D01*
X102854806Y-90466161D01*
X102854805Y-90466161D01*
X102854799Y-90466162D01*
X102600512Y-90544601D01*
X102360758Y-90660061D01*
X102360751Y-90660065D01*
X102140896Y-90809960D01*
X102140883Y-90809970D01*
X101945819Y-90990963D01*
X101945815Y-90990968D01*
X101779902Y-91199015D01*
X101779896Y-91199023D01*
X101646844Y-91429476D01*
X101549624Y-91677191D01*
X101549623Y-91677193D01*
X101490408Y-91936626D01*
X101490407Y-91936630D01*
X101470521Y-92202000D01*
X38958500Y-92202000D01*
X38958500Y-83458000D01*
X53147474Y-83458000D01*
X53167548Y-83713070D01*
X53227277Y-83961857D01*
X53325190Y-84198241D01*
X53458878Y-84416400D01*
X53458879Y-84416402D01*
X53625043Y-84610956D01*
X53819597Y-84777120D01*
X53819601Y-84777123D01*
X54037757Y-84910809D01*
X54274140Y-85008722D01*
X54522930Y-85068452D01*
X54778000Y-85088526D01*
X55033070Y-85068452D01*
X55281860Y-85008722D01*
X55518243Y-84910809D01*
X55736399Y-84777123D01*
X55930956Y-84610956D01*
X56097123Y-84416399D01*
X56230809Y-84198243D01*
X56328722Y-83961860D01*
X56388452Y-83713070D01*
X56408526Y-83458000D01*
X221457474Y-83458000D01*
X221477548Y-83713070D01*
X221537277Y-83961857D01*
X221635190Y-84198241D01*
X221768878Y-84416400D01*
X221768879Y-84416402D01*
X221935043Y-84610956D01*
X222129597Y-84777120D01*
X222129601Y-84777123D01*
X222347757Y-84910809D01*
X222584140Y-85008722D01*
X222832930Y-85068452D01*
X223088000Y-85088526D01*
X223343070Y-85068452D01*
X223591860Y-85008722D01*
X223828243Y-84910809D01*
X224046399Y-84777123D01*
X224240956Y-84610956D01*
X224407123Y-84416399D01*
X224540809Y-84198243D01*
X224638722Y-83961860D01*
X224698452Y-83713070D01*
X224718526Y-83458000D01*
X224698452Y-83202930D01*
X224638722Y-82954140D01*
X224540809Y-82717757D01*
X224407123Y-82499601D01*
X224399808Y-82491036D01*
X224240956Y-82305043D01*
X224046402Y-82138879D01*
X224046400Y-82138878D01*
X224046399Y-82138877D01*
X223828243Y-82005191D01*
X223591860Y-81907278D01*
X223591858Y-81907277D01*
X223591857Y-81907277D01*
X223457969Y-81875133D01*
X223343070Y-81847548D01*
X223343071Y-81847548D01*
X223088000Y-81827474D01*
X222832929Y-81847548D01*
X222584142Y-81907277D01*
X222347758Y-82005190D01*
X222129599Y-82138878D01*
X222129597Y-82138879D01*
X221935043Y-82305043D01*
X221768879Y-82499597D01*
X221768878Y-82499599D01*
X221635190Y-82717758D01*
X221537277Y-82954142D01*
X221477548Y-83202929D01*
X221457474Y-83458000D01*
X56408526Y-83458000D01*
X56388452Y-83202930D01*
X56328722Y-82954140D01*
X56230809Y-82717757D01*
X56097123Y-82499601D01*
X56089808Y-82491036D01*
X55930956Y-82305043D01*
X55736402Y-82138879D01*
X55736400Y-82138878D01*
X55736399Y-82138877D01*
X55518243Y-82005191D01*
X55281860Y-81907278D01*
X55281858Y-81907277D01*
X55281857Y-81907277D01*
X55147969Y-81875133D01*
X55033070Y-81847548D01*
X55033071Y-81847548D01*
X54778000Y-81827474D01*
X54522929Y-81847548D01*
X54274142Y-81907277D01*
X54037758Y-82005190D01*
X53819599Y-82138878D01*
X53819597Y-82138879D01*
X53625043Y-82305043D01*
X53458879Y-82499597D01*
X53458878Y-82499599D01*
X53325190Y-82717758D01*
X53227277Y-82954142D01*
X53167548Y-83202929D01*
X53147474Y-83458000D01*
X38958500Y-83458000D01*
X38958500Y-81280000D01*
X101470521Y-81280000D01*
X101490407Y-81545369D01*
X101490408Y-81545373D01*
X101549623Y-81804806D01*
X101549624Y-81804808D01*
X101646844Y-82052523D01*
X101779896Y-82282976D01*
X101779902Y-82282984D01*
X101945815Y-82491031D01*
X101945819Y-82491036D01*
X102140883Y-82672029D01*
X102140886Y-82672031D01*
X102140890Y-82672035D01*
X102140896Y-82672039D01*
X102360751Y-82821934D01*
X102360758Y-82821938D01*
X102360761Y-82821940D01*
X102600518Y-82937401D01*
X102802414Y-82999678D01*
X102854799Y-83015837D01*
X102854806Y-83015839D01*
X103117945Y-83055500D01*
X103117949Y-83055500D01*
X103384051Y-83055500D01*
X103384055Y-83055500D01*
X103647194Y-83015839D01*
X103901482Y-82937401D01*
X104141240Y-82821940D01*
X104361110Y-82672035D01*
X104556183Y-82491033D01*
X104722101Y-82282980D01*
X104855156Y-82052521D01*
X104952377Y-81804805D01*
X105011593Y-81545367D01*
X105031479Y-81280000D01*
X105011593Y-81014633D01*
X104952377Y-80755195D01*
X104855156Y-80507479D01*
X104855155Y-80507476D01*
X104722103Y-80277023D01*
X104722097Y-80277015D01*
X104556184Y-80068968D01*
X104556180Y-80068963D01*
X104361116Y-79887970D01*
X104361103Y-79887960D01*
X104141242Y-79738061D01*
X104141234Y-79738056D01*
X103901490Y-79622602D01*
X103901485Y-79622600D01*
X103901482Y-79622599D01*
X103803620Y-79592412D01*
X103647200Y-79544162D01*
X103647195Y-79544161D01*
X103647194Y-79544161D01*
X103384055Y-79504500D01*
X103117945Y-79504500D01*
X102854806Y-79544161D01*
X102854805Y-79544161D01*
X102854799Y-79544162D01*
X102600512Y-79622601D01*
X102360758Y-79738061D01*
X102360751Y-79738065D01*
X102140896Y-79887960D01*
X102140883Y-79887970D01*
X101945819Y-80068963D01*
X101945815Y-80068968D01*
X101779902Y-80277015D01*
X101779896Y-80277023D01*
X101646844Y-80507476D01*
X101549624Y-80755191D01*
X101549623Y-80755193D01*
X101490408Y-81014626D01*
X101490407Y-81014630D01*
X101470521Y-81280000D01*
X38958500Y-81280000D01*
X38958500Y-78523760D01*
X119100500Y-78523760D01*
X119135155Y-78786995D01*
X119135156Y-78787001D01*
X119135157Y-78787003D01*
X119203878Y-79043473D01*
X119305486Y-79288778D01*
X119305487Y-79288779D01*
X119305492Y-79288789D01*
X119438242Y-79518718D01*
X119438247Y-79518725D01*
X119599876Y-79729364D01*
X119599895Y-79729385D01*
X119787614Y-79917104D01*
X119787624Y-79917113D01*
X119787630Y-79917119D01*
X119998278Y-80078755D01*
X120228222Y-80211514D01*
X120473527Y-80313122D01*
X120729997Y-80381843D01*
X120730003Y-80381843D01*
X120730004Y-80381844D01*
X120760210Y-80385820D01*
X120993242Y-80416500D01*
X120993249Y-80416500D01*
X156882751Y-80416500D01*
X156882758Y-80416500D01*
X157146003Y-80381843D01*
X157402473Y-80313122D01*
X157647778Y-80211514D01*
X157877722Y-80078755D01*
X158088370Y-79917119D01*
X158276119Y-79729370D01*
X158437755Y-79518722D01*
X158570514Y-79288778D01*
X158672122Y-79043473D01*
X158740843Y-78787003D01*
X158775500Y-78523758D01*
X158775500Y-78391000D01*
X158775500Y-78382715D01*
X158775500Y-62954928D01*
X158775500Y-62827242D01*
X158740843Y-62563997D01*
X158672122Y-62307527D01*
X158570514Y-62062222D01*
X158437755Y-61832278D01*
X158342393Y-61708000D01*
X220957474Y-61708000D01*
X220977548Y-61963070D01*
X221032057Y-62190116D01*
X221037278Y-62211860D01*
X221135191Y-62448243D01*
X221225230Y-62595174D01*
X221268878Y-62666400D01*
X221268879Y-62666402D01*
X221435043Y-62860956D01*
X221629597Y-63027120D01*
X221629601Y-63027123D01*
X221847757Y-63160809D01*
X222084140Y-63258722D01*
X222332930Y-63318452D01*
X222588000Y-63338526D01*
X222843070Y-63318452D01*
X223091860Y-63258722D01*
X223328243Y-63160809D01*
X223546399Y-63027123D01*
X223740956Y-62860956D01*
X223907123Y-62666399D01*
X224040809Y-62448243D01*
X224138722Y-62211860D01*
X224198452Y-61963070D01*
X224218526Y-61708000D01*
X224198452Y-61452930D01*
X224138722Y-61204140D01*
X224040809Y-60967757D01*
X223907123Y-60749601D01*
X223907120Y-60749597D01*
X223740956Y-60555043D01*
X223546402Y-60388879D01*
X223546400Y-60388878D01*
X223546399Y-60388877D01*
X223328243Y-60255191D01*
X223091860Y-60157278D01*
X223091858Y-60157277D01*
X223091857Y-60157277D01*
X222957969Y-60125133D01*
X222843070Y-60097548D01*
X222843071Y-60097548D01*
X222588000Y-60077474D01*
X222332929Y-60097548D01*
X222084142Y-60157277D01*
X221847758Y-60255190D01*
X221629599Y-60388878D01*
X221629597Y-60388879D01*
X221435043Y-60555043D01*
X221268879Y-60749597D01*
X221268878Y-60749599D01*
X221135190Y-60967758D01*
X221037277Y-61204142D01*
X220977548Y-61452929D01*
X220957474Y-61708000D01*
X158342393Y-61708000D01*
X158276123Y-61621635D01*
X158276121Y-61621633D01*
X158276119Y-61621630D01*
X158276113Y-61621624D01*
X158276104Y-61621614D01*
X158088385Y-61433895D01*
X158088364Y-61433876D01*
X157877725Y-61272247D01*
X157877718Y-61272242D01*
X157647789Y-61139492D01*
X157647784Y-61139489D01*
X157647778Y-61139486D01*
X157402473Y-61037878D01*
X157146003Y-60969157D01*
X157146001Y-60969156D01*
X157145995Y-60969155D01*
X156882760Y-60934500D01*
X156882758Y-60934500D01*
X156755072Y-60934500D01*
X121134285Y-60934500D01*
X121126000Y-60934500D01*
X120993242Y-60934500D01*
X120993239Y-60934500D01*
X120730004Y-60969155D01*
X120473527Y-61037878D01*
X120228220Y-61139487D01*
X120228210Y-61139492D01*
X119998281Y-61272242D01*
X119998274Y-61272247D01*
X119787635Y-61433876D01*
X119787614Y-61433895D01*
X119599895Y-61621614D01*
X119599876Y-61621635D01*
X119438247Y-61832274D01*
X119438242Y-61832281D01*
X119305492Y-62062210D01*
X119305487Y-62062220D01*
X119203878Y-62307527D01*
X119135155Y-62564004D01*
X119100500Y-62827239D01*
X119100500Y-78523760D01*
X38958500Y-78523760D01*
X38958500Y-75819000D01*
X112392521Y-75819000D01*
X112412407Y-76084369D01*
X112412408Y-76084373D01*
X112471623Y-76343806D01*
X112471624Y-76343808D01*
X112568844Y-76591523D01*
X112701896Y-76821976D01*
X112701902Y-76821984D01*
X112867815Y-77030031D01*
X112867819Y-77030036D01*
X113062883Y-77211029D01*
X113062886Y-77211031D01*
X113062890Y-77211035D01*
X113062896Y-77211039D01*
X113282751Y-77360934D01*
X113282758Y-77360938D01*
X113282761Y-77360940D01*
X113522518Y-77476401D01*
X113724414Y-77538678D01*
X113776799Y-77554837D01*
X113776806Y-77554839D01*
X114039945Y-77594500D01*
X114039949Y-77594500D01*
X114306051Y-77594500D01*
X114306055Y-77594500D01*
X114569194Y-77554839D01*
X114823482Y-77476401D01*
X115063240Y-77360940D01*
X115283110Y-77211035D01*
X115478183Y-77030033D01*
X115644101Y-76821980D01*
X115777156Y-76591521D01*
X115874377Y-76343805D01*
X115933593Y-76084367D01*
X115953479Y-75819000D01*
X115933593Y-75553633D01*
X115874377Y-75294195D01*
X115777156Y-75046479D01*
X115777155Y-75046476D01*
X115644103Y-74816023D01*
X115644097Y-74816015D01*
X115478184Y-74607968D01*
X115478180Y-74607963D01*
X115283116Y-74426970D01*
X115283103Y-74426960D01*
X115063242Y-74277061D01*
X115063234Y-74277056D01*
X114823490Y-74161602D01*
X114823485Y-74161600D01*
X114823482Y-74161599D01*
X114725620Y-74131412D01*
X114569200Y-74083162D01*
X114569195Y-74083161D01*
X114569194Y-74083161D01*
X114306055Y-74043500D01*
X114039945Y-74043500D01*
X113776806Y-74083161D01*
X113776805Y-74083161D01*
X113776799Y-74083162D01*
X113522512Y-74161601D01*
X113282758Y-74277061D01*
X113282751Y-74277065D01*
X113062896Y-74426960D01*
X113062883Y-74426970D01*
X112867819Y-74607963D01*
X112867815Y-74607968D01*
X112701902Y-74816015D01*
X112701896Y-74816023D01*
X112568844Y-75046476D01*
X112471624Y-75294191D01*
X112471623Y-75294193D01*
X112412408Y-75553626D01*
X112412407Y-75553630D01*
X112392521Y-75819000D01*
X38958500Y-75819000D01*
X38958500Y-65532000D01*
X101470521Y-65532000D01*
X101490407Y-65797369D01*
X101490408Y-65797373D01*
X101549623Y-66056806D01*
X101549624Y-66056808D01*
X101646844Y-66304523D01*
X101779896Y-66534976D01*
X101779902Y-66534984D01*
X101945815Y-66743031D01*
X101945819Y-66743036D01*
X102140883Y-66924029D01*
X102140886Y-66924031D01*
X102140890Y-66924035D01*
X102140896Y-66924039D01*
X102360751Y-67073934D01*
X102360758Y-67073938D01*
X102360761Y-67073940D01*
X102600518Y-67189401D01*
X102802414Y-67251678D01*
X102854799Y-67267837D01*
X102854806Y-67267839D01*
X103117945Y-67307500D01*
X103117949Y-67307500D01*
X103384051Y-67307500D01*
X103384055Y-67307500D01*
X103647194Y-67267839D01*
X103901482Y-67189401D01*
X104141240Y-67073940D01*
X104361110Y-66924035D01*
X104556183Y-66743033D01*
X104722101Y-66534980D01*
X104855156Y-66304521D01*
X104952377Y-66056805D01*
X105011593Y-65797367D01*
X105031479Y-65532000D01*
X112392521Y-65532000D01*
X112412407Y-65797369D01*
X112412408Y-65797373D01*
X112471623Y-66056806D01*
X112471624Y-66056808D01*
X112568844Y-66304523D01*
X112701896Y-66534976D01*
X112701902Y-66534984D01*
X112867815Y-66743031D01*
X112867819Y-66743036D01*
X113062883Y-66924029D01*
X113062886Y-66924031D01*
X113062890Y-66924035D01*
X113062896Y-66924039D01*
X113282751Y-67073934D01*
X113282758Y-67073938D01*
X113282761Y-67073940D01*
X113522518Y-67189401D01*
X113724414Y-67251678D01*
X113776799Y-67267837D01*
X113776806Y-67267839D01*
X114039945Y-67307500D01*
X114039949Y-67307500D01*
X114306051Y-67307500D01*
X114306055Y-67307500D01*
X114569194Y-67267839D01*
X114823482Y-67189401D01*
X115063240Y-67073940D01*
X115283110Y-66924035D01*
X115478183Y-66743033D01*
X115644101Y-66534980D01*
X115777156Y-66304521D01*
X115874377Y-66056805D01*
X115933593Y-65797367D01*
X115953479Y-65532000D01*
X115933593Y-65266633D01*
X115874377Y-65007195D01*
X115777156Y-64759479D01*
X115777155Y-64759476D01*
X115644103Y-64529023D01*
X115644097Y-64529015D01*
X115478184Y-64320968D01*
X115478180Y-64320963D01*
X115283116Y-64139970D01*
X115283103Y-64139960D01*
X115063242Y-63990061D01*
X115063234Y-63990056D01*
X114823490Y-63874602D01*
X114823485Y-63874600D01*
X114823482Y-63874599D01*
X114725620Y-63844412D01*
X114569200Y-63796162D01*
X114569195Y-63796161D01*
X114569194Y-63796161D01*
X114306055Y-63756500D01*
X114039945Y-63756500D01*
X113776806Y-63796161D01*
X113776805Y-63796161D01*
X113776799Y-63796162D01*
X113522512Y-63874601D01*
X113282758Y-63990061D01*
X113282751Y-63990065D01*
X113062896Y-64139960D01*
X113062883Y-64139970D01*
X112867819Y-64320963D01*
X112867815Y-64320968D01*
X112701902Y-64529015D01*
X112701896Y-64529023D01*
X112568844Y-64759476D01*
X112471624Y-65007191D01*
X112471623Y-65007193D01*
X112412408Y-65266626D01*
X112412407Y-65266630D01*
X112392521Y-65532000D01*
X105031479Y-65532000D01*
X105011593Y-65266633D01*
X104952377Y-65007195D01*
X104855156Y-64759479D01*
X104855155Y-64759476D01*
X104722103Y-64529023D01*
X104722097Y-64529015D01*
X104556184Y-64320968D01*
X104556180Y-64320963D01*
X104361116Y-64139970D01*
X104361103Y-64139960D01*
X104141242Y-63990061D01*
X104141234Y-63990056D01*
X103901490Y-63874602D01*
X103901485Y-63874600D01*
X103901482Y-63874599D01*
X103803620Y-63844412D01*
X103647200Y-63796162D01*
X103647195Y-63796161D01*
X103647194Y-63796161D01*
X103384055Y-63756500D01*
X103117945Y-63756500D01*
X102854806Y-63796161D01*
X102854805Y-63796161D01*
X102854799Y-63796162D01*
X102600512Y-63874601D01*
X102360758Y-63990061D01*
X102360751Y-63990065D01*
X102140896Y-64139960D01*
X102140883Y-64139970D01*
X101945819Y-64320963D01*
X101945815Y-64320968D01*
X101779902Y-64529015D01*
X101779896Y-64529023D01*
X101646844Y-64759476D01*
X101549624Y-65007191D01*
X101549623Y-65007193D01*
X101490408Y-65266626D01*
X101490407Y-65266630D01*
X101470521Y-65532000D01*
X38958500Y-65532000D01*
X38958500Y-61708000D01*
X53647474Y-61708000D01*
X53667548Y-61963070D01*
X53722057Y-62190116D01*
X53727278Y-62211860D01*
X53825191Y-62448243D01*
X53915230Y-62595174D01*
X53958878Y-62666400D01*
X53958879Y-62666402D01*
X54125043Y-62860956D01*
X54319597Y-63027120D01*
X54319601Y-63027123D01*
X54537757Y-63160809D01*
X54774140Y-63258722D01*
X55022930Y-63318452D01*
X55278000Y-63338526D01*
X55533070Y-63318452D01*
X55781860Y-63258722D01*
X56018243Y-63160809D01*
X56236399Y-63027123D01*
X56430956Y-62860956D01*
X56597123Y-62666399D01*
X56730809Y-62448243D01*
X56828722Y-62211860D01*
X56888452Y-61963070D01*
X56908526Y-61708000D01*
X56888452Y-61452930D01*
X56828722Y-61204140D01*
X56730809Y-60967757D01*
X56597123Y-60749601D01*
X56597120Y-60749597D01*
X56430956Y-60555043D01*
X56236402Y-60388879D01*
X56236400Y-60388878D01*
X56236399Y-60388877D01*
X56018243Y-60255191D01*
X55781860Y-60157278D01*
X55781858Y-60157277D01*
X55781857Y-60157277D01*
X55647969Y-60125133D01*
X55533070Y-60097548D01*
X55533071Y-60097548D01*
X55278000Y-60077474D01*
X55022929Y-60097548D01*
X54774142Y-60157277D01*
X54537758Y-60255190D01*
X54319599Y-60388878D01*
X54319597Y-60388879D01*
X54125043Y-60555043D01*
X53958879Y-60749597D01*
X53958878Y-60749599D01*
X53825190Y-60967758D01*
X53727277Y-61204142D01*
X53667548Y-61452929D01*
X53647474Y-61708000D01*
X38958500Y-61708000D01*
X38958500Y-59690000D01*
X64801689Y-59690000D01*
X64820918Y-60044664D01*
X64826297Y-60077474D01*
X64877349Y-60388879D01*
X64878381Y-60395170D01*
X64916230Y-60531489D01*
X64973402Y-60737405D01*
X65104865Y-61067356D01*
X65104868Y-61067362D01*
X65104870Y-61067367D01*
X65201714Y-61250033D01*
X65271239Y-61381172D01*
X65271241Y-61381176D01*
X65325834Y-61461694D01*
X65395075Y-61563818D01*
X65470566Y-61675158D01*
X65470565Y-61675158D01*
X65700508Y-61945867D01*
X65958357Y-62190116D01*
X65958372Y-62190129D01*
X66241132Y-62405077D01*
X66545475Y-62588194D01*
X66643333Y-62633468D01*
X66867820Y-62737328D01*
X66867832Y-62737333D01*
X67204424Y-62850744D01*
X67551305Y-62927098D01*
X67904408Y-62965500D01*
X67904416Y-62965500D01*
X68259584Y-62965500D01*
X68259592Y-62965500D01*
X68612695Y-62927098D01*
X68959576Y-62850744D01*
X69296168Y-62737333D01*
X69304341Y-62733552D01*
X69371942Y-62702276D01*
X69618525Y-62588194D01*
X69922868Y-62405077D01*
X70205628Y-62190129D01*
X70463491Y-61945868D01*
X70693433Y-61675160D01*
X70892758Y-61381177D01*
X71059130Y-61067367D01*
X71190597Y-60737408D01*
X71285619Y-60395170D01*
X71343082Y-60044664D01*
X71362311Y-59690000D01*
X71343082Y-59335336D01*
X71285619Y-58984830D01*
X71190597Y-58642592D01*
X71059130Y-58312633D01*
X70892758Y-57998823D01*
X70693433Y-57704840D01*
X70671957Y-57679557D01*
X70463491Y-57434132D01*
X70205642Y-57189883D01*
X70205627Y-57189870D01*
X69922872Y-56974926D01*
X69922866Y-56974922D01*
X69897630Y-56959738D01*
X69618525Y-56791806D01*
X69618519Y-56791803D01*
X69296179Y-56642671D01*
X69296167Y-56642666D01*
X68959585Y-56529259D01*
X68959584Y-56529258D01*
X68959576Y-56529256D01*
X68959571Y-56529254D01*
X68959568Y-56529254D01*
X68612712Y-56452905D01*
X68612683Y-56452900D01*
X68259599Y-56414500D01*
X68259592Y-56414500D01*
X67904408Y-56414500D01*
X67904400Y-56414500D01*
X67551316Y-56452900D01*
X67551287Y-56452905D01*
X67204431Y-56529254D01*
X67204414Y-56529259D01*
X66867832Y-56642666D01*
X66867820Y-56642671D01*
X66545480Y-56791803D01*
X66545473Y-56791807D01*
X66241133Y-56974922D01*
X66241127Y-56974926D01*
X65958372Y-57189870D01*
X65958357Y-57189883D01*
X65700508Y-57434132D01*
X65470566Y-57704841D01*
X65271241Y-57998823D01*
X65271239Y-57998827D01*
X65104869Y-58312635D01*
X65104865Y-58312643D01*
X64973402Y-58642594D01*
X64878380Y-58984833D01*
X64821961Y-59328971D01*
X64820918Y-59335336D01*
X64801689Y-59690000D01*
X38958500Y-59690000D01*
X38958500Y-49708000D01*
X41802474Y-49708000D01*
X41822548Y-49963070D01*
X41882277Y-50211857D01*
X41980190Y-50448241D01*
X42113878Y-50666400D01*
X42113879Y-50666402D01*
X42280043Y-50860956D01*
X42474597Y-51027120D01*
X42474601Y-51027123D01*
X42692757Y-51160809D01*
X42929140Y-51258722D01*
X43177930Y-51318452D01*
X43433000Y-51338526D01*
X43688070Y-51318452D01*
X43936860Y-51258722D01*
X44173243Y-51160809D01*
X44391399Y-51027123D01*
X44585956Y-50860956D01*
X44752123Y-50666399D01*
X44885809Y-50448243D01*
X44983722Y-50211860D01*
X45043452Y-49963070D01*
X45063526Y-49708000D01*
X232802474Y-49708000D01*
X232822548Y-49963070D01*
X232882277Y-50211857D01*
X232980190Y-50448241D01*
X233113878Y-50666400D01*
X233113879Y-50666402D01*
X233280043Y-50860956D01*
X233474597Y-51027120D01*
X233474601Y-51027123D01*
X233692757Y-51160809D01*
X233929140Y-51258722D01*
X234177930Y-51318452D01*
X234433000Y-51338526D01*
X234688070Y-51318452D01*
X234936860Y-51258722D01*
X235173243Y-51160809D01*
X235391399Y-51027123D01*
X235585956Y-50860956D01*
X235752123Y-50666399D01*
X235885809Y-50448243D01*
X235983722Y-50211860D01*
X236043452Y-49963070D01*
X236063526Y-49708000D01*
X236043452Y-49452930D01*
X235983722Y-49204140D01*
X235885809Y-48967757D01*
X235752123Y-48749601D01*
X235752120Y-48749597D01*
X235585956Y-48555043D01*
X235391402Y-48388879D01*
X235391400Y-48388878D01*
X235391399Y-48388877D01*
X235173243Y-48255191D01*
X234936860Y-48157278D01*
X234936858Y-48157277D01*
X234936857Y-48157277D01*
X234802969Y-48125133D01*
X234688070Y-48097548D01*
X234688071Y-48097548D01*
X234433000Y-48077474D01*
X234177929Y-48097548D01*
X233929142Y-48157277D01*
X233692758Y-48255190D01*
X233474599Y-48388878D01*
X233474597Y-48388879D01*
X233280043Y-48555043D01*
X233113879Y-48749597D01*
X233113878Y-48749599D01*
X232980190Y-48967758D01*
X232882277Y-49204142D01*
X232822548Y-49452929D01*
X232802474Y-49708000D01*
X45063526Y-49708000D01*
X45043452Y-49452930D01*
X44983722Y-49204140D01*
X44885809Y-48967757D01*
X44752123Y-48749601D01*
X44752120Y-48749597D01*
X44585956Y-48555043D01*
X44391402Y-48388879D01*
X44391400Y-48388878D01*
X44391399Y-48388877D01*
X44173243Y-48255191D01*
X43936860Y-48157278D01*
X43936858Y-48157277D01*
X43936857Y-48157277D01*
X43802969Y-48125133D01*
X43688070Y-48097548D01*
X43688071Y-48097548D01*
X43433000Y-48077474D01*
X43177929Y-48097548D01*
X42929142Y-48157277D01*
X42692758Y-48255190D01*
X42474599Y-48388878D01*
X42474597Y-48388879D01*
X42280043Y-48555043D01*
X42113879Y-48749597D01*
X42113878Y-48749599D01*
X41980190Y-48967758D01*
X41882277Y-49204142D01*
X41822548Y-49452929D01*
X41802474Y-49708000D01*
X38958500Y-49708000D01*
X38958500Y-45359500D01*
X38978502Y-45291379D01*
X39032158Y-45244886D01*
X39084500Y-45233500D01*
X238781500Y-45233500D01*
X238849621Y-45253502D01*
G37*
%TD.AperFunction*%
M02*
