%TF.GenerationSoftware,KiCad,Pcbnew,(5.1.9)-1*%
%TF.CreationDate,2021-03-04T22:04:08+01:00*%
%TF.ProjectId,frontplate,66726f6e-7470-46c6-9174-652e6b696361,rev?*%
%TF.SameCoordinates,Original*%
%TF.FileFunction,Copper,L1,Top*%
%TF.FilePolarity,Positive*%
%FSLAX46Y46*%
G04 Gerber Fmt 4.6, Leading zero omitted, Abs format (unit mm)*
G04 Created by KiCad (PCBNEW (5.1.9)-1) date 2021-03-04 22:04:08*
%MOMM*%
%LPD*%
G01*
G04 APERTURE LIST*
%TA.AperFunction,NonConductor*%
%ADD10C,0.254000*%
%TD*%
%TA.AperFunction,NonConductor*%
%ADD11C,0.100000*%
%TD*%
G04 APERTURE END LIST*
D10*
X238273001Y-149548000D02*
X39593000Y-149548000D01*
X39593000Y-145484521D01*
X41163979Y-145484521D01*
X41163979Y-145931479D01*
X41251176Y-146369849D01*
X41422220Y-146782785D01*
X41670536Y-147154417D01*
X41986583Y-147470464D01*
X42358215Y-147718780D01*
X42771151Y-147889824D01*
X43209521Y-147977021D01*
X43656479Y-147977021D01*
X44094849Y-147889824D01*
X44507785Y-147718780D01*
X44879417Y-147470464D01*
X45195464Y-147154417D01*
X45443780Y-146782785D01*
X45614824Y-146369849D01*
X45702021Y-145931479D01*
X45702021Y-145484521D01*
X232163979Y-145484521D01*
X232163979Y-145931479D01*
X232251176Y-146369849D01*
X232422220Y-146782785D01*
X232670536Y-147154417D01*
X232986583Y-147470464D01*
X233358215Y-147718780D01*
X233771151Y-147889824D01*
X234209521Y-147977021D01*
X234656479Y-147977021D01*
X235094849Y-147889824D01*
X235507785Y-147718780D01*
X235879417Y-147470464D01*
X236195464Y-147154417D01*
X236443780Y-146782785D01*
X236614824Y-146369849D01*
X236702021Y-145931479D01*
X236702021Y-145484521D01*
X236614824Y-145046151D01*
X236443780Y-144633215D01*
X236195464Y-144261583D01*
X235879417Y-143945536D01*
X235507785Y-143697220D01*
X235094849Y-143526176D01*
X234656479Y-143438979D01*
X234209521Y-143438979D01*
X233771151Y-143526176D01*
X233358215Y-143697220D01*
X232986583Y-143945536D01*
X232670536Y-144261583D01*
X232422220Y-144633215D01*
X232251176Y-145046151D01*
X232163979Y-145484521D01*
X45702021Y-145484521D01*
X45614824Y-145046151D01*
X45443780Y-144633215D01*
X45195464Y-144261583D01*
X44879417Y-143945536D01*
X44507785Y-143697220D01*
X44094849Y-143526176D01*
X43656479Y-143438979D01*
X43209521Y-143438979D01*
X42771151Y-143526176D01*
X42358215Y-143697220D01*
X41986583Y-143945536D01*
X41670536Y-144261583D01*
X41422220Y-144633215D01*
X41251176Y-145046151D01*
X41163979Y-145484521D01*
X39593000Y-145484521D01*
X39593000Y-133484521D01*
X53008979Y-133484521D01*
X53008979Y-133931479D01*
X53096176Y-134369849D01*
X53267220Y-134782785D01*
X53515536Y-135154417D01*
X53831583Y-135470464D01*
X54203215Y-135718780D01*
X54616151Y-135889824D01*
X55054521Y-135977021D01*
X55501479Y-135977021D01*
X55939849Y-135889824D01*
X56352785Y-135718780D01*
X56724417Y-135470464D01*
X57040464Y-135154417D01*
X57288780Y-134782785D01*
X57459824Y-134369849D01*
X57547021Y-133931479D01*
X57547021Y-133484521D01*
X57459824Y-133046151D01*
X57288780Y-132633215D01*
X57040464Y-132261583D01*
X56724417Y-131945536D01*
X56352785Y-131697220D01*
X55939849Y-131526176D01*
X55501479Y-131438979D01*
X55054521Y-131438979D01*
X54616151Y-131526176D01*
X54203215Y-131697220D01*
X53831583Y-131945536D01*
X53515536Y-132261583D01*
X53267220Y-132633215D01*
X53096176Y-133046151D01*
X53008979Y-133484521D01*
X39593000Y-133484521D01*
X39593000Y-130092801D01*
X74066516Y-130092801D01*
X74066516Y-130765199D01*
X74197695Y-131424676D01*
X74455010Y-132045891D01*
X74828574Y-132604969D01*
X75304031Y-133080426D01*
X75863109Y-133453990D01*
X76484324Y-133711305D01*
X77143801Y-133842484D01*
X77816199Y-133842484D01*
X78475676Y-133711305D01*
X79096891Y-133453990D01*
X79655969Y-133080426D01*
X80131426Y-132604969D01*
X80504990Y-132045891D01*
X80762305Y-131424676D01*
X80893484Y-130765199D01*
X80893484Y-130092801D01*
X110886516Y-130092801D01*
X110886516Y-130765199D01*
X111017695Y-131424676D01*
X111275010Y-132045891D01*
X111648574Y-132604969D01*
X112124031Y-133080426D01*
X112683109Y-133453990D01*
X113304324Y-133711305D01*
X113963801Y-133842484D01*
X114636199Y-133842484D01*
X115295676Y-133711305D01*
X115916891Y-133453990D01*
X116475969Y-133080426D01*
X116951426Y-132604969D01*
X117324990Y-132045891D01*
X117582305Y-131424676D01*
X117713484Y-130765199D01*
X117713484Y-130092801D01*
X117582305Y-129433324D01*
X117324990Y-128812109D01*
X116951426Y-128253031D01*
X116475969Y-127777574D01*
X115916891Y-127404010D01*
X115295676Y-127146695D01*
X114636199Y-127015516D01*
X113963801Y-127015516D01*
X113304324Y-127146695D01*
X112683109Y-127404010D01*
X112124031Y-127777574D01*
X111648574Y-128253031D01*
X111275010Y-128812109D01*
X111017695Y-129433324D01*
X110886516Y-130092801D01*
X80893484Y-130092801D01*
X80762305Y-129433324D01*
X80504990Y-128812109D01*
X80131426Y-128253031D01*
X79655969Y-127777574D01*
X79096891Y-127404010D01*
X78475676Y-127146695D01*
X77816199Y-127015516D01*
X77143801Y-127015516D01*
X76484324Y-127146695D01*
X75863109Y-127404010D01*
X75304031Y-127777574D01*
X74828574Y-128253031D01*
X74455010Y-128812109D01*
X74197695Y-129433324D01*
X74066516Y-130092801D01*
X39593000Y-130092801D01*
X39593000Y-123189521D01*
X122738979Y-123189521D01*
X122738979Y-123636479D01*
X122826176Y-124074849D01*
X122997220Y-124487785D01*
X123245536Y-124859417D01*
X123561583Y-125175464D01*
X123933215Y-125423780D01*
X124346151Y-125594824D01*
X124784521Y-125682021D01*
X125231479Y-125682021D01*
X125669849Y-125594824D01*
X126082785Y-125423780D01*
X126454417Y-125175464D01*
X126770464Y-124859417D01*
X127018780Y-124487785D01*
X127189824Y-124074849D01*
X127277021Y-123636479D01*
X127277021Y-123189521D01*
X127207313Y-122839073D01*
X131349475Y-122839073D01*
X131349475Y-123986927D01*
X131520554Y-125121961D01*
X131858890Y-126218819D01*
X132356925Y-127253000D01*
X133003534Y-128201402D01*
X133784273Y-129042838D01*
X134681702Y-129758514D01*
X135675773Y-130332441D01*
X136744280Y-130751799D01*
X137863355Y-131007221D01*
X139008000Y-131093000D01*
X140152645Y-131007221D01*
X141271720Y-130751799D01*
X142340227Y-130332441D01*
X142755295Y-130092801D01*
X201310516Y-130092801D01*
X201310516Y-130765199D01*
X201441695Y-131424676D01*
X201699010Y-132045891D01*
X202072574Y-132604969D01*
X202548031Y-133080426D01*
X203107109Y-133453990D01*
X203728324Y-133711305D01*
X204387801Y-133842484D01*
X205060199Y-133842484D01*
X205719676Y-133711305D01*
X206267182Y-133484521D01*
X220318979Y-133484521D01*
X220318979Y-133931479D01*
X220406176Y-134369849D01*
X220577220Y-134782785D01*
X220825536Y-135154417D01*
X221141583Y-135470464D01*
X221513215Y-135718780D01*
X221926151Y-135889824D01*
X222364521Y-135977021D01*
X222811479Y-135977021D01*
X223249849Y-135889824D01*
X223662785Y-135718780D01*
X224034417Y-135470464D01*
X224350464Y-135154417D01*
X224598780Y-134782785D01*
X224769824Y-134369849D01*
X224857021Y-133931479D01*
X224857021Y-133484521D01*
X224769824Y-133046151D01*
X224598780Y-132633215D01*
X224350464Y-132261583D01*
X224034417Y-131945536D01*
X223662785Y-131697220D01*
X223249849Y-131526176D01*
X222811479Y-131438979D01*
X222364521Y-131438979D01*
X221926151Y-131526176D01*
X221513215Y-131697220D01*
X221141583Y-131945536D01*
X220825536Y-132261583D01*
X220577220Y-132633215D01*
X220406176Y-133046151D01*
X220318979Y-133484521D01*
X206267182Y-133484521D01*
X206340891Y-133453990D01*
X206899969Y-133080426D01*
X207375426Y-132604969D01*
X207748990Y-132045891D01*
X208006305Y-131424676D01*
X208137484Y-130765199D01*
X208137484Y-130092801D01*
X208006305Y-129433324D01*
X207748990Y-128812109D01*
X207375426Y-128253031D01*
X206899969Y-127777574D01*
X206340891Y-127404010D01*
X205719676Y-127146695D01*
X205060199Y-127015516D01*
X204387801Y-127015516D01*
X203728324Y-127146695D01*
X203107109Y-127404010D01*
X202548031Y-127777574D01*
X202072574Y-128253031D01*
X201699010Y-128812109D01*
X201441695Y-129433324D01*
X201310516Y-130092801D01*
X142755295Y-130092801D01*
X143334298Y-129758514D01*
X144231727Y-129042838D01*
X145012466Y-128201402D01*
X145659075Y-127253000D01*
X146157110Y-126218819D01*
X146495446Y-125121961D01*
X146666525Y-123986927D01*
X146666525Y-123189521D01*
X150738979Y-123189521D01*
X150738979Y-123636479D01*
X150826176Y-124074849D01*
X150997220Y-124487785D01*
X151245536Y-124859417D01*
X151561583Y-125175464D01*
X151933215Y-125423780D01*
X152346151Y-125594824D01*
X152784521Y-125682021D01*
X153231479Y-125682021D01*
X153669849Y-125594824D01*
X154082785Y-125423780D01*
X154454417Y-125175464D01*
X154770464Y-124859417D01*
X155018780Y-124487785D01*
X155189824Y-124074849D01*
X155277021Y-123636479D01*
X155277021Y-123189521D01*
X155189824Y-122751151D01*
X155018780Y-122338215D01*
X154770464Y-121966583D01*
X154454417Y-121650536D01*
X154082785Y-121402220D01*
X153669849Y-121231176D01*
X153231479Y-121143979D01*
X152784521Y-121143979D01*
X152346151Y-121231176D01*
X151933215Y-121402220D01*
X151561583Y-121650536D01*
X151245536Y-121966583D01*
X150997220Y-122338215D01*
X150826176Y-122751151D01*
X150738979Y-123189521D01*
X146666525Y-123189521D01*
X146666525Y-122839073D01*
X146495446Y-121704039D01*
X146157110Y-120607181D01*
X145659075Y-119573000D01*
X145012466Y-118624598D01*
X144231727Y-117783162D01*
X143334298Y-117067486D01*
X142340227Y-116493559D01*
X141271720Y-116074201D01*
X140152645Y-115818779D01*
X139008000Y-115733000D01*
X137863355Y-115818779D01*
X136744280Y-116074201D01*
X135675773Y-116493559D01*
X134681702Y-117067486D01*
X133784273Y-117783162D01*
X133003534Y-118624598D01*
X132356925Y-119573000D01*
X131858890Y-120607181D01*
X131520554Y-121704039D01*
X131349475Y-122839073D01*
X127207313Y-122839073D01*
X127189824Y-122751151D01*
X127018780Y-122338215D01*
X126770464Y-121966583D01*
X126454417Y-121650536D01*
X126082785Y-121402220D01*
X125669849Y-121231176D01*
X125231479Y-121143979D01*
X124784521Y-121143979D01*
X124346151Y-121231176D01*
X123933215Y-121402220D01*
X123561583Y-121650536D01*
X123245536Y-121966583D01*
X122997220Y-122338215D01*
X122826176Y-122751151D01*
X122738979Y-123189521D01*
X39593000Y-123189521D01*
X39593000Y-111773728D01*
X52907053Y-111773728D01*
X52907053Y-112142272D01*
X52978952Y-112503735D01*
X53119988Y-112844226D01*
X53324740Y-113150659D01*
X53585341Y-113411260D01*
X53891774Y-113616012D01*
X54232265Y-113757048D01*
X54593728Y-113828947D01*
X54962272Y-113828947D01*
X55323735Y-113757048D01*
X55664226Y-113616012D01*
X55970659Y-113411260D01*
X56231260Y-113150659D01*
X56436012Y-112844226D01*
X56577048Y-112503735D01*
X56648947Y-112142272D01*
X56648947Y-111773728D01*
X221217053Y-111773728D01*
X221217053Y-112142272D01*
X221288952Y-112503735D01*
X221429988Y-112844226D01*
X221634740Y-113150659D01*
X221895341Y-113411260D01*
X222201774Y-113616012D01*
X222542265Y-113757048D01*
X222903728Y-113828947D01*
X223272272Y-113828947D01*
X223633735Y-113757048D01*
X223974226Y-113616012D01*
X224280659Y-113411260D01*
X224541260Y-113150659D01*
X224746012Y-112844226D01*
X224887048Y-112503735D01*
X224958947Y-112142272D01*
X224958947Y-111773728D01*
X224887048Y-111412265D01*
X224746012Y-111071774D01*
X224541260Y-110765341D01*
X224280659Y-110504740D01*
X223974226Y-110299988D01*
X223633735Y-110158952D01*
X223272272Y-110087053D01*
X222903728Y-110087053D01*
X222542265Y-110158952D01*
X222201774Y-110299988D01*
X221895341Y-110504740D01*
X221634740Y-110765341D01*
X221429988Y-111071774D01*
X221288952Y-111412265D01*
X221217053Y-111773728D01*
X56648947Y-111773728D01*
X56577048Y-111412265D01*
X56436012Y-111071774D01*
X56231260Y-110765341D01*
X55970659Y-110504740D01*
X55664226Y-110299988D01*
X55323735Y-110158952D01*
X54962272Y-110087053D01*
X54593728Y-110087053D01*
X54232265Y-110158952D01*
X53891774Y-110299988D01*
X53585341Y-110504740D01*
X53324740Y-110765341D01*
X53119988Y-111071774D01*
X52978952Y-111412265D01*
X52907053Y-111773728D01*
X39593000Y-111773728D01*
X39593000Y-105093418D01*
X118466000Y-105093418D01*
X118468852Y-105122372D01*
X118468765Y-105134781D01*
X118469665Y-105143952D01*
X118510466Y-105532145D01*
X118522487Y-105590708D01*
X118533702Y-105649501D01*
X118536366Y-105658323D01*
X118651790Y-106031198D01*
X118674975Y-106086353D01*
X118697379Y-106141806D01*
X118701706Y-106149943D01*
X118887357Y-106493298D01*
X118920780Y-106542849D01*
X118953562Y-106592946D01*
X118959387Y-106600087D01*
X119208194Y-106900841D01*
X119250629Y-106942981D01*
X119292492Y-106985730D01*
X119299592Y-106991604D01*
X119602077Y-107238305D01*
X119651904Y-107271409D01*
X119701259Y-107305204D01*
X119709365Y-107309587D01*
X120054007Y-107492837D01*
X120109311Y-107515631D01*
X120164295Y-107539198D01*
X120173098Y-107541923D01*
X120546770Y-107654741D01*
X120605458Y-107666361D01*
X120663961Y-107678797D01*
X120673126Y-107679760D01*
X121061595Y-107717850D01*
X121061598Y-107717850D01*
X121093581Y-107721000D01*
X156782419Y-107721000D01*
X156811373Y-107718148D01*
X156823781Y-107718235D01*
X156832952Y-107717335D01*
X157221145Y-107676534D01*
X157279708Y-107664513D01*
X157338501Y-107653298D01*
X157347323Y-107650634D01*
X157720198Y-107535210D01*
X157775353Y-107512025D01*
X157830806Y-107489621D01*
X157838943Y-107485294D01*
X158182298Y-107299643D01*
X158231849Y-107266220D01*
X158281946Y-107233438D01*
X158289087Y-107227613D01*
X158589841Y-106978806D01*
X158631981Y-106936371D01*
X158674730Y-106894508D01*
X158680604Y-106887408D01*
X158927305Y-106584923D01*
X158960409Y-106535096D01*
X158994204Y-106485741D01*
X158998587Y-106477635D01*
X159181837Y-106132993D01*
X159204631Y-106077689D01*
X159228198Y-106022705D01*
X159230923Y-106013902D01*
X159343741Y-105640230D01*
X159355361Y-105581542D01*
X159367797Y-105523039D01*
X159368760Y-105513874D01*
X159406850Y-105125405D01*
X159406850Y-105125402D01*
X159410000Y-105093419D01*
X159410000Y-89597581D01*
X159407148Y-89568627D01*
X159407235Y-89556219D01*
X159406335Y-89547047D01*
X159365534Y-89158855D01*
X159353514Y-89100299D01*
X159342298Y-89041498D01*
X159339634Y-89032677D01*
X159224210Y-88659802D01*
X159201025Y-88604647D01*
X159178621Y-88549194D01*
X159174294Y-88541058D01*
X159174294Y-88541057D01*
X159174291Y-88541053D01*
X158988643Y-88197702D01*
X158955187Y-88148101D01*
X158922437Y-88098054D01*
X158916613Y-88090913D01*
X158667806Y-87790158D01*
X158625371Y-87748019D01*
X158583508Y-87705269D01*
X158576407Y-87699396D01*
X158273923Y-87452695D01*
X158224107Y-87419598D01*
X158174741Y-87385795D01*
X158166635Y-87381413D01*
X157821993Y-87198163D01*
X157766687Y-87175368D01*
X157711704Y-87151802D01*
X157702901Y-87149077D01*
X157329230Y-87036259D01*
X157270542Y-87024639D01*
X157212039Y-87012203D01*
X157202874Y-87011240D01*
X156814405Y-86973150D01*
X156814402Y-86973150D01*
X156782419Y-86970000D01*
X121093581Y-86970000D01*
X121064627Y-86972852D01*
X121052219Y-86972765D01*
X121043047Y-86973665D01*
X120654855Y-87014466D01*
X120596299Y-87026486D01*
X120537498Y-87037702D01*
X120528677Y-87040366D01*
X120155802Y-87155790D01*
X120100647Y-87178975D01*
X120045194Y-87201379D01*
X120037062Y-87205704D01*
X120037057Y-87205706D01*
X120037053Y-87205709D01*
X119693702Y-87391357D01*
X119644101Y-87424813D01*
X119594054Y-87457563D01*
X119586913Y-87463387D01*
X119286158Y-87712194D01*
X119244019Y-87754629D01*
X119201269Y-87796492D01*
X119195396Y-87803593D01*
X118948695Y-88106077D01*
X118915598Y-88155893D01*
X118881795Y-88205259D01*
X118877413Y-88213365D01*
X118694163Y-88558007D01*
X118671368Y-88613313D01*
X118647802Y-88668296D01*
X118645077Y-88677099D01*
X118532259Y-89050770D01*
X118520639Y-89109458D01*
X118508203Y-89167961D01*
X118507240Y-89177126D01*
X118469150Y-89565595D01*
X118469150Y-89565608D01*
X118466001Y-89597581D01*
X118466000Y-105093418D01*
X39593000Y-105093418D01*
X39593000Y-102250818D01*
X111754701Y-102250818D01*
X111754701Y-102727182D01*
X111847635Y-103194392D01*
X112029931Y-103634494D01*
X112294585Y-104030576D01*
X112631424Y-104367415D01*
X113027506Y-104632069D01*
X113467608Y-104814365D01*
X113934818Y-104907299D01*
X114411182Y-104907299D01*
X114878392Y-104814365D01*
X115318494Y-104632069D01*
X115714576Y-104367415D01*
X116051415Y-104030576D01*
X116316069Y-103634494D01*
X116498365Y-103194392D01*
X116591299Y-102727182D01*
X116591299Y-102250818D01*
X116498365Y-101783608D01*
X116316069Y-101343506D01*
X116051415Y-100947424D01*
X115714576Y-100610585D01*
X115318494Y-100345931D01*
X114878392Y-100163635D01*
X114411182Y-100070701D01*
X113934818Y-100070701D01*
X113467608Y-100163635D01*
X113027506Y-100345931D01*
X112631424Y-100610585D01*
X112294585Y-100947424D01*
X112029931Y-101343506D01*
X111847635Y-101783608D01*
X111754701Y-102250818D01*
X39593000Y-102250818D01*
X39593000Y-91963818D01*
X100832701Y-91963818D01*
X100832701Y-92440182D01*
X100925635Y-92907392D01*
X101107931Y-93347494D01*
X101372585Y-93743576D01*
X101709424Y-94080415D01*
X102105506Y-94345069D01*
X102545608Y-94527365D01*
X103012818Y-94620299D01*
X103489182Y-94620299D01*
X103956392Y-94527365D01*
X104396494Y-94345069D01*
X104792576Y-94080415D01*
X105129415Y-93743576D01*
X105394069Y-93347494D01*
X105576365Y-92907392D01*
X105669299Y-92440182D01*
X105669299Y-91963818D01*
X111627701Y-91963818D01*
X111627701Y-92440182D01*
X111720635Y-92907392D01*
X111902931Y-93347494D01*
X112167585Y-93743576D01*
X112504424Y-94080415D01*
X112900506Y-94345069D01*
X113340608Y-94527365D01*
X113807818Y-94620299D01*
X114284182Y-94620299D01*
X114751392Y-94527365D01*
X115191494Y-94345069D01*
X115587576Y-94080415D01*
X115924415Y-93743576D01*
X116189069Y-93347494D01*
X116371365Y-92907392D01*
X116464299Y-92440182D01*
X116464299Y-91963818D01*
X116371365Y-91496608D01*
X116189069Y-91056506D01*
X115924415Y-90660424D01*
X115587576Y-90323585D01*
X115191494Y-90058931D01*
X114751392Y-89876635D01*
X114284182Y-89783701D01*
X113807818Y-89783701D01*
X113340608Y-89876635D01*
X112900506Y-90058931D01*
X112504424Y-90323585D01*
X112167585Y-90660424D01*
X111902931Y-91056506D01*
X111720635Y-91496608D01*
X111627701Y-91963818D01*
X105669299Y-91963818D01*
X105576365Y-91496608D01*
X105394069Y-91056506D01*
X105129415Y-90660424D01*
X104792576Y-90323585D01*
X104396494Y-90058931D01*
X103956392Y-89876635D01*
X103489182Y-89783701D01*
X103012818Y-89783701D01*
X102545608Y-89876635D01*
X102105506Y-90058931D01*
X101709424Y-90323585D01*
X101372585Y-90660424D01*
X101107931Y-91056506D01*
X100925635Y-91496608D01*
X100832701Y-91963818D01*
X39593000Y-91963818D01*
X39593000Y-83273728D01*
X52907053Y-83273728D01*
X52907053Y-83642272D01*
X52978952Y-84003735D01*
X53119988Y-84344226D01*
X53324740Y-84650659D01*
X53585341Y-84911260D01*
X53891774Y-85116012D01*
X54232265Y-85257048D01*
X54593728Y-85328947D01*
X54962272Y-85328947D01*
X55323735Y-85257048D01*
X55664226Y-85116012D01*
X55970659Y-84911260D01*
X56231260Y-84650659D01*
X56436012Y-84344226D01*
X56577048Y-84003735D01*
X56648947Y-83642272D01*
X56648947Y-83273728D01*
X221217053Y-83273728D01*
X221217053Y-83642272D01*
X221288952Y-84003735D01*
X221429988Y-84344226D01*
X221634740Y-84650659D01*
X221895341Y-84911260D01*
X222201774Y-85116012D01*
X222542265Y-85257048D01*
X222903728Y-85328947D01*
X223272272Y-85328947D01*
X223633735Y-85257048D01*
X223974226Y-85116012D01*
X224280659Y-84911260D01*
X224541260Y-84650659D01*
X224746012Y-84344226D01*
X224887048Y-84003735D01*
X224958947Y-83642272D01*
X224958947Y-83273728D01*
X224887048Y-82912265D01*
X224746012Y-82571774D01*
X224541260Y-82265341D01*
X224280659Y-82004740D01*
X223974226Y-81799988D01*
X223633735Y-81658952D01*
X223272272Y-81587053D01*
X222903728Y-81587053D01*
X222542265Y-81658952D01*
X222201774Y-81799988D01*
X221895341Y-82004740D01*
X221634740Y-82265341D01*
X221429988Y-82571774D01*
X221288952Y-82912265D01*
X221217053Y-83273728D01*
X56648947Y-83273728D01*
X56577048Y-82912265D01*
X56436012Y-82571774D01*
X56231260Y-82265341D01*
X55970659Y-82004740D01*
X55664226Y-81799988D01*
X55323735Y-81658952D01*
X54962272Y-81587053D01*
X54593728Y-81587053D01*
X54232265Y-81658952D01*
X53891774Y-81799988D01*
X53585341Y-82004740D01*
X53324740Y-82265341D01*
X53119988Y-82571774D01*
X52978952Y-82912265D01*
X52907053Y-83273728D01*
X39593000Y-83273728D01*
X39593000Y-78423418D01*
X118466000Y-78423418D01*
X118468852Y-78452372D01*
X118468765Y-78464781D01*
X118469665Y-78473952D01*
X118510466Y-78862145D01*
X118522487Y-78920708D01*
X118533702Y-78979501D01*
X118536366Y-78988323D01*
X118651790Y-79361198D01*
X118674975Y-79416353D01*
X118697379Y-79471806D01*
X118701706Y-79479943D01*
X118887357Y-79823298D01*
X118920780Y-79872849D01*
X118953562Y-79922946D01*
X118959387Y-79930087D01*
X119208194Y-80230841D01*
X119250629Y-80272981D01*
X119292492Y-80315730D01*
X119299592Y-80321604D01*
X119602077Y-80568305D01*
X119651904Y-80601409D01*
X119701259Y-80635204D01*
X119709365Y-80639587D01*
X120054007Y-80822837D01*
X120109311Y-80845631D01*
X120164295Y-80869198D01*
X120173098Y-80871923D01*
X120546770Y-80984741D01*
X120605458Y-80996361D01*
X120663961Y-81008797D01*
X120673126Y-81009760D01*
X121061595Y-81047850D01*
X121061598Y-81047850D01*
X121093581Y-81051000D01*
X156782419Y-81051000D01*
X156811373Y-81048148D01*
X156823781Y-81048235D01*
X156832952Y-81047335D01*
X157221145Y-81006534D01*
X157279708Y-80994513D01*
X157338501Y-80983298D01*
X157347323Y-80980634D01*
X157720198Y-80865210D01*
X157775353Y-80842025D01*
X157830806Y-80819621D01*
X157838943Y-80815294D01*
X158182298Y-80629643D01*
X158231849Y-80596220D01*
X158281946Y-80563438D01*
X158289087Y-80557613D01*
X158589841Y-80308806D01*
X158631981Y-80266371D01*
X158674730Y-80224508D01*
X158680604Y-80217408D01*
X158927305Y-79914923D01*
X158960409Y-79865096D01*
X158994204Y-79815741D01*
X158998587Y-79807635D01*
X159181837Y-79462993D01*
X159204631Y-79407689D01*
X159228198Y-79352705D01*
X159230923Y-79343902D01*
X159343741Y-78970230D01*
X159355361Y-78911542D01*
X159367797Y-78853039D01*
X159368760Y-78843874D01*
X159406850Y-78455405D01*
X159406850Y-78455402D01*
X159410000Y-78423419D01*
X159410000Y-62927581D01*
X159407148Y-62898627D01*
X159407235Y-62886219D01*
X159406335Y-62877047D01*
X159365534Y-62488855D01*
X159353514Y-62430299D01*
X159342298Y-62371498D01*
X159339634Y-62362677D01*
X159224210Y-61989802D01*
X159201025Y-61934647D01*
X159178621Y-61879194D01*
X159174294Y-61871058D01*
X159174294Y-61871057D01*
X159174291Y-61871053D01*
X158988643Y-61527702D01*
X158959518Y-61484521D01*
X220318979Y-61484521D01*
X220318979Y-61931479D01*
X220406176Y-62369849D01*
X220577220Y-62782785D01*
X220825536Y-63154417D01*
X221141583Y-63470464D01*
X221513215Y-63718780D01*
X221926151Y-63889824D01*
X222364521Y-63977021D01*
X222811479Y-63977021D01*
X223249849Y-63889824D01*
X223662785Y-63718780D01*
X224034417Y-63470464D01*
X224350464Y-63154417D01*
X224598780Y-62782785D01*
X224769824Y-62369849D01*
X224857021Y-61931479D01*
X224857021Y-61484521D01*
X224769824Y-61046151D01*
X224598780Y-60633215D01*
X224350464Y-60261583D01*
X224034417Y-59945536D01*
X223662785Y-59697220D01*
X223249849Y-59526176D01*
X222811479Y-59438979D01*
X222364521Y-59438979D01*
X221926151Y-59526176D01*
X221513215Y-59697220D01*
X221141583Y-59945536D01*
X220825536Y-60261583D01*
X220577220Y-60633215D01*
X220406176Y-61046151D01*
X220318979Y-61484521D01*
X158959518Y-61484521D01*
X158955187Y-61478101D01*
X158922437Y-61428054D01*
X158916613Y-61420913D01*
X158667806Y-61120158D01*
X158625371Y-61078019D01*
X158583508Y-61035269D01*
X158576407Y-61029396D01*
X158273923Y-60782695D01*
X158224107Y-60749598D01*
X158174741Y-60715795D01*
X158166635Y-60711413D01*
X157821993Y-60528163D01*
X157766687Y-60505368D01*
X157711704Y-60481802D01*
X157702901Y-60479077D01*
X157329230Y-60366259D01*
X157270542Y-60354639D01*
X157212039Y-60342203D01*
X157202874Y-60341240D01*
X156814405Y-60303150D01*
X156814402Y-60303150D01*
X156782419Y-60300000D01*
X121093581Y-60300000D01*
X121064627Y-60302852D01*
X121052219Y-60302765D01*
X121043047Y-60303665D01*
X120654855Y-60344466D01*
X120596299Y-60356486D01*
X120537498Y-60367702D01*
X120528677Y-60370366D01*
X120155802Y-60485790D01*
X120100647Y-60508975D01*
X120045194Y-60531379D01*
X120037062Y-60535704D01*
X120037057Y-60535706D01*
X120037053Y-60535709D01*
X119693702Y-60721357D01*
X119644101Y-60754813D01*
X119594054Y-60787563D01*
X119586913Y-60793387D01*
X119286158Y-61042194D01*
X119244019Y-61084629D01*
X119201269Y-61126492D01*
X119195396Y-61133593D01*
X118948695Y-61436077D01*
X118915598Y-61485893D01*
X118881795Y-61535259D01*
X118877413Y-61543365D01*
X118694163Y-61888007D01*
X118671368Y-61943313D01*
X118647802Y-61998296D01*
X118645077Y-62007099D01*
X118532259Y-62380770D01*
X118520639Y-62439458D01*
X118508203Y-62497961D01*
X118507240Y-62507126D01*
X118469150Y-62895595D01*
X118469150Y-62895608D01*
X118466001Y-62927581D01*
X118466000Y-78423418D01*
X39593000Y-78423418D01*
X39593000Y-75580818D01*
X111754701Y-75580818D01*
X111754701Y-76057182D01*
X111847635Y-76524392D01*
X112029931Y-76964494D01*
X112294585Y-77360576D01*
X112631424Y-77697415D01*
X113027506Y-77962069D01*
X113467608Y-78144365D01*
X113934818Y-78237299D01*
X114411182Y-78237299D01*
X114878392Y-78144365D01*
X115318494Y-77962069D01*
X115714576Y-77697415D01*
X116051415Y-77360576D01*
X116316069Y-76964494D01*
X116498365Y-76524392D01*
X116591299Y-76057182D01*
X116591299Y-75580818D01*
X116498365Y-75113608D01*
X116316069Y-74673506D01*
X116051415Y-74277424D01*
X115714576Y-73940585D01*
X115318494Y-73675931D01*
X114878392Y-73493635D01*
X114411182Y-73400701D01*
X113934818Y-73400701D01*
X113467608Y-73493635D01*
X113027506Y-73675931D01*
X112631424Y-73940585D01*
X112294585Y-74277424D01*
X112029931Y-74673506D01*
X111847635Y-75113608D01*
X111754701Y-75580818D01*
X39593000Y-75580818D01*
X39593000Y-65293818D01*
X100832701Y-65293818D01*
X100832701Y-65770182D01*
X100925635Y-66237392D01*
X101107931Y-66677494D01*
X101372585Y-67073576D01*
X101709424Y-67410415D01*
X102105506Y-67675069D01*
X102545608Y-67857365D01*
X103012818Y-67950299D01*
X103489182Y-67950299D01*
X103956392Y-67857365D01*
X104396494Y-67675069D01*
X104792576Y-67410415D01*
X105129415Y-67073576D01*
X105394069Y-66677494D01*
X105576365Y-66237392D01*
X105669299Y-65770182D01*
X105669299Y-65293818D01*
X111754701Y-65293818D01*
X111754701Y-65770182D01*
X111847635Y-66237392D01*
X112029931Y-66677494D01*
X112294585Y-67073576D01*
X112631424Y-67410415D01*
X113027506Y-67675069D01*
X113467608Y-67857365D01*
X113934818Y-67950299D01*
X114411182Y-67950299D01*
X114878392Y-67857365D01*
X115318494Y-67675069D01*
X115714576Y-67410415D01*
X116051415Y-67073576D01*
X116316069Y-66677494D01*
X116498365Y-66237392D01*
X116591299Y-65770182D01*
X116591299Y-65293818D01*
X116498365Y-64826608D01*
X116316069Y-64386506D01*
X116051415Y-63990424D01*
X115714576Y-63653585D01*
X115318494Y-63388931D01*
X114878392Y-63206635D01*
X114411182Y-63113701D01*
X113934818Y-63113701D01*
X113467608Y-63206635D01*
X113027506Y-63388931D01*
X112631424Y-63653585D01*
X112294585Y-63990424D01*
X112029931Y-64386506D01*
X111847635Y-64826608D01*
X111754701Y-65293818D01*
X105669299Y-65293818D01*
X105576365Y-64826608D01*
X105394069Y-64386506D01*
X105129415Y-63990424D01*
X104792576Y-63653585D01*
X104396494Y-63388931D01*
X103956392Y-63206635D01*
X103489182Y-63113701D01*
X103012818Y-63113701D01*
X102545608Y-63206635D01*
X102105506Y-63388931D01*
X101709424Y-63653585D01*
X101372585Y-63990424D01*
X101107931Y-64386506D01*
X100925635Y-64826608D01*
X100832701Y-65293818D01*
X39593000Y-65293818D01*
X39593000Y-61484521D01*
X53008979Y-61484521D01*
X53008979Y-61931479D01*
X53096176Y-62369849D01*
X53267220Y-62782785D01*
X53515536Y-63154417D01*
X53831583Y-63470464D01*
X54203215Y-63718780D01*
X54616151Y-63889824D01*
X55054521Y-63977021D01*
X55501479Y-63977021D01*
X55939849Y-63889824D01*
X56352785Y-63718780D01*
X56724417Y-63470464D01*
X57040464Y-63154417D01*
X57288780Y-62782785D01*
X57459824Y-62369849D01*
X57547021Y-61931479D01*
X57547021Y-61484521D01*
X57459824Y-61046151D01*
X57288780Y-60633215D01*
X57040464Y-60261583D01*
X56724417Y-59945536D01*
X56352785Y-59697220D01*
X55939849Y-59526176D01*
X55501479Y-59438979D01*
X55054521Y-59438979D01*
X54616151Y-59526176D01*
X54203215Y-59697220D01*
X53831583Y-59945536D01*
X53515536Y-60261583D01*
X53267220Y-60633215D01*
X53096176Y-61046151D01*
X53008979Y-61484521D01*
X39593000Y-61484521D01*
X39593000Y-59304793D01*
X64170924Y-59304793D01*
X64170924Y-60075207D01*
X64321224Y-60830819D01*
X64616049Y-61542589D01*
X65044069Y-62183166D01*
X65588834Y-62727931D01*
X66229411Y-63155951D01*
X66941181Y-63450776D01*
X67696793Y-63601076D01*
X68467207Y-63601076D01*
X69222819Y-63450776D01*
X69934589Y-63155951D01*
X70575166Y-62727931D01*
X71119931Y-62183166D01*
X71547951Y-61542589D01*
X71842776Y-60830819D01*
X71993076Y-60075207D01*
X71993076Y-59304793D01*
X71842776Y-58549181D01*
X71547951Y-57837411D01*
X71119931Y-57196834D01*
X70575166Y-56652069D01*
X69934589Y-56224049D01*
X69222819Y-55929224D01*
X68467207Y-55778924D01*
X67696793Y-55778924D01*
X66941181Y-55929224D01*
X66229411Y-56224049D01*
X65588834Y-56652069D01*
X65044069Y-57196834D01*
X64616049Y-57837411D01*
X64321224Y-58549181D01*
X64170924Y-59304793D01*
X39593000Y-59304793D01*
X39593000Y-49484521D01*
X41163979Y-49484521D01*
X41163979Y-49931479D01*
X41251176Y-50369849D01*
X41422220Y-50782785D01*
X41670536Y-51154417D01*
X41986583Y-51470464D01*
X42358215Y-51718780D01*
X42771151Y-51889824D01*
X43209521Y-51977021D01*
X43656479Y-51977021D01*
X44094849Y-51889824D01*
X44507785Y-51718780D01*
X44879417Y-51470464D01*
X45195464Y-51154417D01*
X45443780Y-50782785D01*
X45614824Y-50369849D01*
X45702021Y-49931479D01*
X45702021Y-49484521D01*
X232163979Y-49484521D01*
X232163979Y-49931479D01*
X232251176Y-50369849D01*
X232422220Y-50782785D01*
X232670536Y-51154417D01*
X232986583Y-51470464D01*
X233358215Y-51718780D01*
X233771151Y-51889824D01*
X234209521Y-51977021D01*
X234656479Y-51977021D01*
X235094849Y-51889824D01*
X235507785Y-51718780D01*
X235879417Y-51470464D01*
X236195464Y-51154417D01*
X236443780Y-50782785D01*
X236614824Y-50369849D01*
X236702021Y-49931479D01*
X236702021Y-49484521D01*
X236614824Y-49046151D01*
X236443780Y-48633215D01*
X236195464Y-48261583D01*
X235879417Y-47945536D01*
X235507785Y-47697220D01*
X235094849Y-47526176D01*
X234656479Y-47438979D01*
X234209521Y-47438979D01*
X233771151Y-47526176D01*
X233358215Y-47697220D01*
X232986583Y-47945536D01*
X232670536Y-48261583D01*
X232422220Y-48633215D01*
X232251176Y-49046151D01*
X232163979Y-49484521D01*
X45702021Y-49484521D01*
X45614824Y-49046151D01*
X45443780Y-48633215D01*
X45195464Y-48261583D01*
X44879417Y-47945536D01*
X44507785Y-47697220D01*
X44094849Y-47526176D01*
X43656479Y-47438979D01*
X43209521Y-47438979D01*
X42771151Y-47526176D01*
X42358215Y-47697220D01*
X41986583Y-47945536D01*
X41670536Y-48261583D01*
X41422220Y-48633215D01*
X41251176Y-49046151D01*
X41163979Y-49484521D01*
X39593000Y-49484521D01*
X39593000Y-45868000D01*
X238273000Y-45868000D01*
X238273001Y-149548000D01*
%TA.AperFunction,NonConductor*%
D11*
G36*
X238273001Y-149548000D02*
G01*
X39593000Y-149548000D01*
X39593000Y-145484521D01*
X41163979Y-145484521D01*
X41163979Y-145931479D01*
X41251176Y-146369849D01*
X41422220Y-146782785D01*
X41670536Y-147154417D01*
X41986583Y-147470464D01*
X42358215Y-147718780D01*
X42771151Y-147889824D01*
X43209521Y-147977021D01*
X43656479Y-147977021D01*
X44094849Y-147889824D01*
X44507785Y-147718780D01*
X44879417Y-147470464D01*
X45195464Y-147154417D01*
X45443780Y-146782785D01*
X45614824Y-146369849D01*
X45702021Y-145931479D01*
X45702021Y-145484521D01*
X232163979Y-145484521D01*
X232163979Y-145931479D01*
X232251176Y-146369849D01*
X232422220Y-146782785D01*
X232670536Y-147154417D01*
X232986583Y-147470464D01*
X233358215Y-147718780D01*
X233771151Y-147889824D01*
X234209521Y-147977021D01*
X234656479Y-147977021D01*
X235094849Y-147889824D01*
X235507785Y-147718780D01*
X235879417Y-147470464D01*
X236195464Y-147154417D01*
X236443780Y-146782785D01*
X236614824Y-146369849D01*
X236702021Y-145931479D01*
X236702021Y-145484521D01*
X236614824Y-145046151D01*
X236443780Y-144633215D01*
X236195464Y-144261583D01*
X235879417Y-143945536D01*
X235507785Y-143697220D01*
X235094849Y-143526176D01*
X234656479Y-143438979D01*
X234209521Y-143438979D01*
X233771151Y-143526176D01*
X233358215Y-143697220D01*
X232986583Y-143945536D01*
X232670536Y-144261583D01*
X232422220Y-144633215D01*
X232251176Y-145046151D01*
X232163979Y-145484521D01*
X45702021Y-145484521D01*
X45614824Y-145046151D01*
X45443780Y-144633215D01*
X45195464Y-144261583D01*
X44879417Y-143945536D01*
X44507785Y-143697220D01*
X44094849Y-143526176D01*
X43656479Y-143438979D01*
X43209521Y-143438979D01*
X42771151Y-143526176D01*
X42358215Y-143697220D01*
X41986583Y-143945536D01*
X41670536Y-144261583D01*
X41422220Y-144633215D01*
X41251176Y-145046151D01*
X41163979Y-145484521D01*
X39593000Y-145484521D01*
X39593000Y-133484521D01*
X53008979Y-133484521D01*
X53008979Y-133931479D01*
X53096176Y-134369849D01*
X53267220Y-134782785D01*
X53515536Y-135154417D01*
X53831583Y-135470464D01*
X54203215Y-135718780D01*
X54616151Y-135889824D01*
X55054521Y-135977021D01*
X55501479Y-135977021D01*
X55939849Y-135889824D01*
X56352785Y-135718780D01*
X56724417Y-135470464D01*
X57040464Y-135154417D01*
X57288780Y-134782785D01*
X57459824Y-134369849D01*
X57547021Y-133931479D01*
X57547021Y-133484521D01*
X57459824Y-133046151D01*
X57288780Y-132633215D01*
X57040464Y-132261583D01*
X56724417Y-131945536D01*
X56352785Y-131697220D01*
X55939849Y-131526176D01*
X55501479Y-131438979D01*
X55054521Y-131438979D01*
X54616151Y-131526176D01*
X54203215Y-131697220D01*
X53831583Y-131945536D01*
X53515536Y-132261583D01*
X53267220Y-132633215D01*
X53096176Y-133046151D01*
X53008979Y-133484521D01*
X39593000Y-133484521D01*
X39593000Y-130092801D01*
X74066516Y-130092801D01*
X74066516Y-130765199D01*
X74197695Y-131424676D01*
X74455010Y-132045891D01*
X74828574Y-132604969D01*
X75304031Y-133080426D01*
X75863109Y-133453990D01*
X76484324Y-133711305D01*
X77143801Y-133842484D01*
X77816199Y-133842484D01*
X78475676Y-133711305D01*
X79096891Y-133453990D01*
X79655969Y-133080426D01*
X80131426Y-132604969D01*
X80504990Y-132045891D01*
X80762305Y-131424676D01*
X80893484Y-130765199D01*
X80893484Y-130092801D01*
X110886516Y-130092801D01*
X110886516Y-130765199D01*
X111017695Y-131424676D01*
X111275010Y-132045891D01*
X111648574Y-132604969D01*
X112124031Y-133080426D01*
X112683109Y-133453990D01*
X113304324Y-133711305D01*
X113963801Y-133842484D01*
X114636199Y-133842484D01*
X115295676Y-133711305D01*
X115916891Y-133453990D01*
X116475969Y-133080426D01*
X116951426Y-132604969D01*
X117324990Y-132045891D01*
X117582305Y-131424676D01*
X117713484Y-130765199D01*
X117713484Y-130092801D01*
X117582305Y-129433324D01*
X117324990Y-128812109D01*
X116951426Y-128253031D01*
X116475969Y-127777574D01*
X115916891Y-127404010D01*
X115295676Y-127146695D01*
X114636199Y-127015516D01*
X113963801Y-127015516D01*
X113304324Y-127146695D01*
X112683109Y-127404010D01*
X112124031Y-127777574D01*
X111648574Y-128253031D01*
X111275010Y-128812109D01*
X111017695Y-129433324D01*
X110886516Y-130092801D01*
X80893484Y-130092801D01*
X80762305Y-129433324D01*
X80504990Y-128812109D01*
X80131426Y-128253031D01*
X79655969Y-127777574D01*
X79096891Y-127404010D01*
X78475676Y-127146695D01*
X77816199Y-127015516D01*
X77143801Y-127015516D01*
X76484324Y-127146695D01*
X75863109Y-127404010D01*
X75304031Y-127777574D01*
X74828574Y-128253031D01*
X74455010Y-128812109D01*
X74197695Y-129433324D01*
X74066516Y-130092801D01*
X39593000Y-130092801D01*
X39593000Y-123189521D01*
X122738979Y-123189521D01*
X122738979Y-123636479D01*
X122826176Y-124074849D01*
X122997220Y-124487785D01*
X123245536Y-124859417D01*
X123561583Y-125175464D01*
X123933215Y-125423780D01*
X124346151Y-125594824D01*
X124784521Y-125682021D01*
X125231479Y-125682021D01*
X125669849Y-125594824D01*
X126082785Y-125423780D01*
X126454417Y-125175464D01*
X126770464Y-124859417D01*
X127018780Y-124487785D01*
X127189824Y-124074849D01*
X127277021Y-123636479D01*
X127277021Y-123189521D01*
X127207313Y-122839073D01*
X131349475Y-122839073D01*
X131349475Y-123986927D01*
X131520554Y-125121961D01*
X131858890Y-126218819D01*
X132356925Y-127253000D01*
X133003534Y-128201402D01*
X133784273Y-129042838D01*
X134681702Y-129758514D01*
X135675773Y-130332441D01*
X136744280Y-130751799D01*
X137863355Y-131007221D01*
X139008000Y-131093000D01*
X140152645Y-131007221D01*
X141271720Y-130751799D01*
X142340227Y-130332441D01*
X142755295Y-130092801D01*
X201310516Y-130092801D01*
X201310516Y-130765199D01*
X201441695Y-131424676D01*
X201699010Y-132045891D01*
X202072574Y-132604969D01*
X202548031Y-133080426D01*
X203107109Y-133453990D01*
X203728324Y-133711305D01*
X204387801Y-133842484D01*
X205060199Y-133842484D01*
X205719676Y-133711305D01*
X206267182Y-133484521D01*
X220318979Y-133484521D01*
X220318979Y-133931479D01*
X220406176Y-134369849D01*
X220577220Y-134782785D01*
X220825536Y-135154417D01*
X221141583Y-135470464D01*
X221513215Y-135718780D01*
X221926151Y-135889824D01*
X222364521Y-135977021D01*
X222811479Y-135977021D01*
X223249849Y-135889824D01*
X223662785Y-135718780D01*
X224034417Y-135470464D01*
X224350464Y-135154417D01*
X224598780Y-134782785D01*
X224769824Y-134369849D01*
X224857021Y-133931479D01*
X224857021Y-133484521D01*
X224769824Y-133046151D01*
X224598780Y-132633215D01*
X224350464Y-132261583D01*
X224034417Y-131945536D01*
X223662785Y-131697220D01*
X223249849Y-131526176D01*
X222811479Y-131438979D01*
X222364521Y-131438979D01*
X221926151Y-131526176D01*
X221513215Y-131697220D01*
X221141583Y-131945536D01*
X220825536Y-132261583D01*
X220577220Y-132633215D01*
X220406176Y-133046151D01*
X220318979Y-133484521D01*
X206267182Y-133484521D01*
X206340891Y-133453990D01*
X206899969Y-133080426D01*
X207375426Y-132604969D01*
X207748990Y-132045891D01*
X208006305Y-131424676D01*
X208137484Y-130765199D01*
X208137484Y-130092801D01*
X208006305Y-129433324D01*
X207748990Y-128812109D01*
X207375426Y-128253031D01*
X206899969Y-127777574D01*
X206340891Y-127404010D01*
X205719676Y-127146695D01*
X205060199Y-127015516D01*
X204387801Y-127015516D01*
X203728324Y-127146695D01*
X203107109Y-127404010D01*
X202548031Y-127777574D01*
X202072574Y-128253031D01*
X201699010Y-128812109D01*
X201441695Y-129433324D01*
X201310516Y-130092801D01*
X142755295Y-130092801D01*
X143334298Y-129758514D01*
X144231727Y-129042838D01*
X145012466Y-128201402D01*
X145659075Y-127253000D01*
X146157110Y-126218819D01*
X146495446Y-125121961D01*
X146666525Y-123986927D01*
X146666525Y-123189521D01*
X150738979Y-123189521D01*
X150738979Y-123636479D01*
X150826176Y-124074849D01*
X150997220Y-124487785D01*
X151245536Y-124859417D01*
X151561583Y-125175464D01*
X151933215Y-125423780D01*
X152346151Y-125594824D01*
X152784521Y-125682021D01*
X153231479Y-125682021D01*
X153669849Y-125594824D01*
X154082785Y-125423780D01*
X154454417Y-125175464D01*
X154770464Y-124859417D01*
X155018780Y-124487785D01*
X155189824Y-124074849D01*
X155277021Y-123636479D01*
X155277021Y-123189521D01*
X155189824Y-122751151D01*
X155018780Y-122338215D01*
X154770464Y-121966583D01*
X154454417Y-121650536D01*
X154082785Y-121402220D01*
X153669849Y-121231176D01*
X153231479Y-121143979D01*
X152784521Y-121143979D01*
X152346151Y-121231176D01*
X151933215Y-121402220D01*
X151561583Y-121650536D01*
X151245536Y-121966583D01*
X150997220Y-122338215D01*
X150826176Y-122751151D01*
X150738979Y-123189521D01*
X146666525Y-123189521D01*
X146666525Y-122839073D01*
X146495446Y-121704039D01*
X146157110Y-120607181D01*
X145659075Y-119573000D01*
X145012466Y-118624598D01*
X144231727Y-117783162D01*
X143334298Y-117067486D01*
X142340227Y-116493559D01*
X141271720Y-116074201D01*
X140152645Y-115818779D01*
X139008000Y-115733000D01*
X137863355Y-115818779D01*
X136744280Y-116074201D01*
X135675773Y-116493559D01*
X134681702Y-117067486D01*
X133784273Y-117783162D01*
X133003534Y-118624598D01*
X132356925Y-119573000D01*
X131858890Y-120607181D01*
X131520554Y-121704039D01*
X131349475Y-122839073D01*
X127207313Y-122839073D01*
X127189824Y-122751151D01*
X127018780Y-122338215D01*
X126770464Y-121966583D01*
X126454417Y-121650536D01*
X126082785Y-121402220D01*
X125669849Y-121231176D01*
X125231479Y-121143979D01*
X124784521Y-121143979D01*
X124346151Y-121231176D01*
X123933215Y-121402220D01*
X123561583Y-121650536D01*
X123245536Y-121966583D01*
X122997220Y-122338215D01*
X122826176Y-122751151D01*
X122738979Y-123189521D01*
X39593000Y-123189521D01*
X39593000Y-111773728D01*
X52907053Y-111773728D01*
X52907053Y-112142272D01*
X52978952Y-112503735D01*
X53119988Y-112844226D01*
X53324740Y-113150659D01*
X53585341Y-113411260D01*
X53891774Y-113616012D01*
X54232265Y-113757048D01*
X54593728Y-113828947D01*
X54962272Y-113828947D01*
X55323735Y-113757048D01*
X55664226Y-113616012D01*
X55970659Y-113411260D01*
X56231260Y-113150659D01*
X56436012Y-112844226D01*
X56577048Y-112503735D01*
X56648947Y-112142272D01*
X56648947Y-111773728D01*
X221217053Y-111773728D01*
X221217053Y-112142272D01*
X221288952Y-112503735D01*
X221429988Y-112844226D01*
X221634740Y-113150659D01*
X221895341Y-113411260D01*
X222201774Y-113616012D01*
X222542265Y-113757048D01*
X222903728Y-113828947D01*
X223272272Y-113828947D01*
X223633735Y-113757048D01*
X223974226Y-113616012D01*
X224280659Y-113411260D01*
X224541260Y-113150659D01*
X224746012Y-112844226D01*
X224887048Y-112503735D01*
X224958947Y-112142272D01*
X224958947Y-111773728D01*
X224887048Y-111412265D01*
X224746012Y-111071774D01*
X224541260Y-110765341D01*
X224280659Y-110504740D01*
X223974226Y-110299988D01*
X223633735Y-110158952D01*
X223272272Y-110087053D01*
X222903728Y-110087053D01*
X222542265Y-110158952D01*
X222201774Y-110299988D01*
X221895341Y-110504740D01*
X221634740Y-110765341D01*
X221429988Y-111071774D01*
X221288952Y-111412265D01*
X221217053Y-111773728D01*
X56648947Y-111773728D01*
X56577048Y-111412265D01*
X56436012Y-111071774D01*
X56231260Y-110765341D01*
X55970659Y-110504740D01*
X55664226Y-110299988D01*
X55323735Y-110158952D01*
X54962272Y-110087053D01*
X54593728Y-110087053D01*
X54232265Y-110158952D01*
X53891774Y-110299988D01*
X53585341Y-110504740D01*
X53324740Y-110765341D01*
X53119988Y-111071774D01*
X52978952Y-111412265D01*
X52907053Y-111773728D01*
X39593000Y-111773728D01*
X39593000Y-105093418D01*
X118466000Y-105093418D01*
X118468852Y-105122372D01*
X118468765Y-105134781D01*
X118469665Y-105143952D01*
X118510466Y-105532145D01*
X118522487Y-105590708D01*
X118533702Y-105649501D01*
X118536366Y-105658323D01*
X118651790Y-106031198D01*
X118674975Y-106086353D01*
X118697379Y-106141806D01*
X118701706Y-106149943D01*
X118887357Y-106493298D01*
X118920780Y-106542849D01*
X118953562Y-106592946D01*
X118959387Y-106600087D01*
X119208194Y-106900841D01*
X119250629Y-106942981D01*
X119292492Y-106985730D01*
X119299592Y-106991604D01*
X119602077Y-107238305D01*
X119651904Y-107271409D01*
X119701259Y-107305204D01*
X119709365Y-107309587D01*
X120054007Y-107492837D01*
X120109311Y-107515631D01*
X120164295Y-107539198D01*
X120173098Y-107541923D01*
X120546770Y-107654741D01*
X120605458Y-107666361D01*
X120663961Y-107678797D01*
X120673126Y-107679760D01*
X121061595Y-107717850D01*
X121061598Y-107717850D01*
X121093581Y-107721000D01*
X156782419Y-107721000D01*
X156811373Y-107718148D01*
X156823781Y-107718235D01*
X156832952Y-107717335D01*
X157221145Y-107676534D01*
X157279708Y-107664513D01*
X157338501Y-107653298D01*
X157347323Y-107650634D01*
X157720198Y-107535210D01*
X157775353Y-107512025D01*
X157830806Y-107489621D01*
X157838943Y-107485294D01*
X158182298Y-107299643D01*
X158231849Y-107266220D01*
X158281946Y-107233438D01*
X158289087Y-107227613D01*
X158589841Y-106978806D01*
X158631981Y-106936371D01*
X158674730Y-106894508D01*
X158680604Y-106887408D01*
X158927305Y-106584923D01*
X158960409Y-106535096D01*
X158994204Y-106485741D01*
X158998587Y-106477635D01*
X159181837Y-106132993D01*
X159204631Y-106077689D01*
X159228198Y-106022705D01*
X159230923Y-106013902D01*
X159343741Y-105640230D01*
X159355361Y-105581542D01*
X159367797Y-105523039D01*
X159368760Y-105513874D01*
X159406850Y-105125405D01*
X159406850Y-105125402D01*
X159410000Y-105093419D01*
X159410000Y-89597581D01*
X159407148Y-89568627D01*
X159407235Y-89556219D01*
X159406335Y-89547047D01*
X159365534Y-89158855D01*
X159353514Y-89100299D01*
X159342298Y-89041498D01*
X159339634Y-89032677D01*
X159224210Y-88659802D01*
X159201025Y-88604647D01*
X159178621Y-88549194D01*
X159174294Y-88541058D01*
X159174294Y-88541057D01*
X159174291Y-88541053D01*
X158988643Y-88197702D01*
X158955187Y-88148101D01*
X158922437Y-88098054D01*
X158916613Y-88090913D01*
X158667806Y-87790158D01*
X158625371Y-87748019D01*
X158583508Y-87705269D01*
X158576407Y-87699396D01*
X158273923Y-87452695D01*
X158224107Y-87419598D01*
X158174741Y-87385795D01*
X158166635Y-87381413D01*
X157821993Y-87198163D01*
X157766687Y-87175368D01*
X157711704Y-87151802D01*
X157702901Y-87149077D01*
X157329230Y-87036259D01*
X157270542Y-87024639D01*
X157212039Y-87012203D01*
X157202874Y-87011240D01*
X156814405Y-86973150D01*
X156814402Y-86973150D01*
X156782419Y-86970000D01*
X121093581Y-86970000D01*
X121064627Y-86972852D01*
X121052219Y-86972765D01*
X121043047Y-86973665D01*
X120654855Y-87014466D01*
X120596299Y-87026486D01*
X120537498Y-87037702D01*
X120528677Y-87040366D01*
X120155802Y-87155790D01*
X120100647Y-87178975D01*
X120045194Y-87201379D01*
X120037062Y-87205704D01*
X120037057Y-87205706D01*
X120037053Y-87205709D01*
X119693702Y-87391357D01*
X119644101Y-87424813D01*
X119594054Y-87457563D01*
X119586913Y-87463387D01*
X119286158Y-87712194D01*
X119244019Y-87754629D01*
X119201269Y-87796492D01*
X119195396Y-87803593D01*
X118948695Y-88106077D01*
X118915598Y-88155893D01*
X118881795Y-88205259D01*
X118877413Y-88213365D01*
X118694163Y-88558007D01*
X118671368Y-88613313D01*
X118647802Y-88668296D01*
X118645077Y-88677099D01*
X118532259Y-89050770D01*
X118520639Y-89109458D01*
X118508203Y-89167961D01*
X118507240Y-89177126D01*
X118469150Y-89565595D01*
X118469150Y-89565608D01*
X118466001Y-89597581D01*
X118466000Y-105093418D01*
X39593000Y-105093418D01*
X39593000Y-102250818D01*
X111754701Y-102250818D01*
X111754701Y-102727182D01*
X111847635Y-103194392D01*
X112029931Y-103634494D01*
X112294585Y-104030576D01*
X112631424Y-104367415D01*
X113027506Y-104632069D01*
X113467608Y-104814365D01*
X113934818Y-104907299D01*
X114411182Y-104907299D01*
X114878392Y-104814365D01*
X115318494Y-104632069D01*
X115714576Y-104367415D01*
X116051415Y-104030576D01*
X116316069Y-103634494D01*
X116498365Y-103194392D01*
X116591299Y-102727182D01*
X116591299Y-102250818D01*
X116498365Y-101783608D01*
X116316069Y-101343506D01*
X116051415Y-100947424D01*
X115714576Y-100610585D01*
X115318494Y-100345931D01*
X114878392Y-100163635D01*
X114411182Y-100070701D01*
X113934818Y-100070701D01*
X113467608Y-100163635D01*
X113027506Y-100345931D01*
X112631424Y-100610585D01*
X112294585Y-100947424D01*
X112029931Y-101343506D01*
X111847635Y-101783608D01*
X111754701Y-102250818D01*
X39593000Y-102250818D01*
X39593000Y-91963818D01*
X100832701Y-91963818D01*
X100832701Y-92440182D01*
X100925635Y-92907392D01*
X101107931Y-93347494D01*
X101372585Y-93743576D01*
X101709424Y-94080415D01*
X102105506Y-94345069D01*
X102545608Y-94527365D01*
X103012818Y-94620299D01*
X103489182Y-94620299D01*
X103956392Y-94527365D01*
X104396494Y-94345069D01*
X104792576Y-94080415D01*
X105129415Y-93743576D01*
X105394069Y-93347494D01*
X105576365Y-92907392D01*
X105669299Y-92440182D01*
X105669299Y-91963818D01*
X111627701Y-91963818D01*
X111627701Y-92440182D01*
X111720635Y-92907392D01*
X111902931Y-93347494D01*
X112167585Y-93743576D01*
X112504424Y-94080415D01*
X112900506Y-94345069D01*
X113340608Y-94527365D01*
X113807818Y-94620299D01*
X114284182Y-94620299D01*
X114751392Y-94527365D01*
X115191494Y-94345069D01*
X115587576Y-94080415D01*
X115924415Y-93743576D01*
X116189069Y-93347494D01*
X116371365Y-92907392D01*
X116464299Y-92440182D01*
X116464299Y-91963818D01*
X116371365Y-91496608D01*
X116189069Y-91056506D01*
X115924415Y-90660424D01*
X115587576Y-90323585D01*
X115191494Y-90058931D01*
X114751392Y-89876635D01*
X114284182Y-89783701D01*
X113807818Y-89783701D01*
X113340608Y-89876635D01*
X112900506Y-90058931D01*
X112504424Y-90323585D01*
X112167585Y-90660424D01*
X111902931Y-91056506D01*
X111720635Y-91496608D01*
X111627701Y-91963818D01*
X105669299Y-91963818D01*
X105576365Y-91496608D01*
X105394069Y-91056506D01*
X105129415Y-90660424D01*
X104792576Y-90323585D01*
X104396494Y-90058931D01*
X103956392Y-89876635D01*
X103489182Y-89783701D01*
X103012818Y-89783701D01*
X102545608Y-89876635D01*
X102105506Y-90058931D01*
X101709424Y-90323585D01*
X101372585Y-90660424D01*
X101107931Y-91056506D01*
X100925635Y-91496608D01*
X100832701Y-91963818D01*
X39593000Y-91963818D01*
X39593000Y-83273728D01*
X52907053Y-83273728D01*
X52907053Y-83642272D01*
X52978952Y-84003735D01*
X53119988Y-84344226D01*
X53324740Y-84650659D01*
X53585341Y-84911260D01*
X53891774Y-85116012D01*
X54232265Y-85257048D01*
X54593728Y-85328947D01*
X54962272Y-85328947D01*
X55323735Y-85257048D01*
X55664226Y-85116012D01*
X55970659Y-84911260D01*
X56231260Y-84650659D01*
X56436012Y-84344226D01*
X56577048Y-84003735D01*
X56648947Y-83642272D01*
X56648947Y-83273728D01*
X221217053Y-83273728D01*
X221217053Y-83642272D01*
X221288952Y-84003735D01*
X221429988Y-84344226D01*
X221634740Y-84650659D01*
X221895341Y-84911260D01*
X222201774Y-85116012D01*
X222542265Y-85257048D01*
X222903728Y-85328947D01*
X223272272Y-85328947D01*
X223633735Y-85257048D01*
X223974226Y-85116012D01*
X224280659Y-84911260D01*
X224541260Y-84650659D01*
X224746012Y-84344226D01*
X224887048Y-84003735D01*
X224958947Y-83642272D01*
X224958947Y-83273728D01*
X224887048Y-82912265D01*
X224746012Y-82571774D01*
X224541260Y-82265341D01*
X224280659Y-82004740D01*
X223974226Y-81799988D01*
X223633735Y-81658952D01*
X223272272Y-81587053D01*
X222903728Y-81587053D01*
X222542265Y-81658952D01*
X222201774Y-81799988D01*
X221895341Y-82004740D01*
X221634740Y-82265341D01*
X221429988Y-82571774D01*
X221288952Y-82912265D01*
X221217053Y-83273728D01*
X56648947Y-83273728D01*
X56577048Y-82912265D01*
X56436012Y-82571774D01*
X56231260Y-82265341D01*
X55970659Y-82004740D01*
X55664226Y-81799988D01*
X55323735Y-81658952D01*
X54962272Y-81587053D01*
X54593728Y-81587053D01*
X54232265Y-81658952D01*
X53891774Y-81799988D01*
X53585341Y-82004740D01*
X53324740Y-82265341D01*
X53119988Y-82571774D01*
X52978952Y-82912265D01*
X52907053Y-83273728D01*
X39593000Y-83273728D01*
X39593000Y-78423418D01*
X118466000Y-78423418D01*
X118468852Y-78452372D01*
X118468765Y-78464781D01*
X118469665Y-78473952D01*
X118510466Y-78862145D01*
X118522487Y-78920708D01*
X118533702Y-78979501D01*
X118536366Y-78988323D01*
X118651790Y-79361198D01*
X118674975Y-79416353D01*
X118697379Y-79471806D01*
X118701706Y-79479943D01*
X118887357Y-79823298D01*
X118920780Y-79872849D01*
X118953562Y-79922946D01*
X118959387Y-79930087D01*
X119208194Y-80230841D01*
X119250629Y-80272981D01*
X119292492Y-80315730D01*
X119299592Y-80321604D01*
X119602077Y-80568305D01*
X119651904Y-80601409D01*
X119701259Y-80635204D01*
X119709365Y-80639587D01*
X120054007Y-80822837D01*
X120109311Y-80845631D01*
X120164295Y-80869198D01*
X120173098Y-80871923D01*
X120546770Y-80984741D01*
X120605458Y-80996361D01*
X120663961Y-81008797D01*
X120673126Y-81009760D01*
X121061595Y-81047850D01*
X121061598Y-81047850D01*
X121093581Y-81051000D01*
X156782419Y-81051000D01*
X156811373Y-81048148D01*
X156823781Y-81048235D01*
X156832952Y-81047335D01*
X157221145Y-81006534D01*
X157279708Y-80994513D01*
X157338501Y-80983298D01*
X157347323Y-80980634D01*
X157720198Y-80865210D01*
X157775353Y-80842025D01*
X157830806Y-80819621D01*
X157838943Y-80815294D01*
X158182298Y-80629643D01*
X158231849Y-80596220D01*
X158281946Y-80563438D01*
X158289087Y-80557613D01*
X158589841Y-80308806D01*
X158631981Y-80266371D01*
X158674730Y-80224508D01*
X158680604Y-80217408D01*
X158927305Y-79914923D01*
X158960409Y-79865096D01*
X158994204Y-79815741D01*
X158998587Y-79807635D01*
X159181837Y-79462993D01*
X159204631Y-79407689D01*
X159228198Y-79352705D01*
X159230923Y-79343902D01*
X159343741Y-78970230D01*
X159355361Y-78911542D01*
X159367797Y-78853039D01*
X159368760Y-78843874D01*
X159406850Y-78455405D01*
X159406850Y-78455402D01*
X159410000Y-78423419D01*
X159410000Y-62927581D01*
X159407148Y-62898627D01*
X159407235Y-62886219D01*
X159406335Y-62877047D01*
X159365534Y-62488855D01*
X159353514Y-62430299D01*
X159342298Y-62371498D01*
X159339634Y-62362677D01*
X159224210Y-61989802D01*
X159201025Y-61934647D01*
X159178621Y-61879194D01*
X159174294Y-61871058D01*
X159174294Y-61871057D01*
X159174291Y-61871053D01*
X158988643Y-61527702D01*
X158959518Y-61484521D01*
X220318979Y-61484521D01*
X220318979Y-61931479D01*
X220406176Y-62369849D01*
X220577220Y-62782785D01*
X220825536Y-63154417D01*
X221141583Y-63470464D01*
X221513215Y-63718780D01*
X221926151Y-63889824D01*
X222364521Y-63977021D01*
X222811479Y-63977021D01*
X223249849Y-63889824D01*
X223662785Y-63718780D01*
X224034417Y-63470464D01*
X224350464Y-63154417D01*
X224598780Y-62782785D01*
X224769824Y-62369849D01*
X224857021Y-61931479D01*
X224857021Y-61484521D01*
X224769824Y-61046151D01*
X224598780Y-60633215D01*
X224350464Y-60261583D01*
X224034417Y-59945536D01*
X223662785Y-59697220D01*
X223249849Y-59526176D01*
X222811479Y-59438979D01*
X222364521Y-59438979D01*
X221926151Y-59526176D01*
X221513215Y-59697220D01*
X221141583Y-59945536D01*
X220825536Y-60261583D01*
X220577220Y-60633215D01*
X220406176Y-61046151D01*
X220318979Y-61484521D01*
X158959518Y-61484521D01*
X158955187Y-61478101D01*
X158922437Y-61428054D01*
X158916613Y-61420913D01*
X158667806Y-61120158D01*
X158625371Y-61078019D01*
X158583508Y-61035269D01*
X158576407Y-61029396D01*
X158273923Y-60782695D01*
X158224107Y-60749598D01*
X158174741Y-60715795D01*
X158166635Y-60711413D01*
X157821993Y-60528163D01*
X157766687Y-60505368D01*
X157711704Y-60481802D01*
X157702901Y-60479077D01*
X157329230Y-60366259D01*
X157270542Y-60354639D01*
X157212039Y-60342203D01*
X157202874Y-60341240D01*
X156814405Y-60303150D01*
X156814402Y-60303150D01*
X156782419Y-60300000D01*
X121093581Y-60300000D01*
X121064627Y-60302852D01*
X121052219Y-60302765D01*
X121043047Y-60303665D01*
X120654855Y-60344466D01*
X120596299Y-60356486D01*
X120537498Y-60367702D01*
X120528677Y-60370366D01*
X120155802Y-60485790D01*
X120100647Y-60508975D01*
X120045194Y-60531379D01*
X120037062Y-60535704D01*
X120037057Y-60535706D01*
X120037053Y-60535709D01*
X119693702Y-60721357D01*
X119644101Y-60754813D01*
X119594054Y-60787563D01*
X119586913Y-60793387D01*
X119286158Y-61042194D01*
X119244019Y-61084629D01*
X119201269Y-61126492D01*
X119195396Y-61133593D01*
X118948695Y-61436077D01*
X118915598Y-61485893D01*
X118881795Y-61535259D01*
X118877413Y-61543365D01*
X118694163Y-61888007D01*
X118671368Y-61943313D01*
X118647802Y-61998296D01*
X118645077Y-62007099D01*
X118532259Y-62380770D01*
X118520639Y-62439458D01*
X118508203Y-62497961D01*
X118507240Y-62507126D01*
X118469150Y-62895595D01*
X118469150Y-62895608D01*
X118466001Y-62927581D01*
X118466000Y-78423418D01*
X39593000Y-78423418D01*
X39593000Y-75580818D01*
X111754701Y-75580818D01*
X111754701Y-76057182D01*
X111847635Y-76524392D01*
X112029931Y-76964494D01*
X112294585Y-77360576D01*
X112631424Y-77697415D01*
X113027506Y-77962069D01*
X113467608Y-78144365D01*
X113934818Y-78237299D01*
X114411182Y-78237299D01*
X114878392Y-78144365D01*
X115318494Y-77962069D01*
X115714576Y-77697415D01*
X116051415Y-77360576D01*
X116316069Y-76964494D01*
X116498365Y-76524392D01*
X116591299Y-76057182D01*
X116591299Y-75580818D01*
X116498365Y-75113608D01*
X116316069Y-74673506D01*
X116051415Y-74277424D01*
X115714576Y-73940585D01*
X115318494Y-73675931D01*
X114878392Y-73493635D01*
X114411182Y-73400701D01*
X113934818Y-73400701D01*
X113467608Y-73493635D01*
X113027506Y-73675931D01*
X112631424Y-73940585D01*
X112294585Y-74277424D01*
X112029931Y-74673506D01*
X111847635Y-75113608D01*
X111754701Y-75580818D01*
X39593000Y-75580818D01*
X39593000Y-65293818D01*
X100832701Y-65293818D01*
X100832701Y-65770182D01*
X100925635Y-66237392D01*
X101107931Y-66677494D01*
X101372585Y-67073576D01*
X101709424Y-67410415D01*
X102105506Y-67675069D01*
X102545608Y-67857365D01*
X103012818Y-67950299D01*
X103489182Y-67950299D01*
X103956392Y-67857365D01*
X104396494Y-67675069D01*
X104792576Y-67410415D01*
X105129415Y-67073576D01*
X105394069Y-66677494D01*
X105576365Y-66237392D01*
X105669299Y-65770182D01*
X105669299Y-65293818D01*
X111754701Y-65293818D01*
X111754701Y-65770182D01*
X111847635Y-66237392D01*
X112029931Y-66677494D01*
X112294585Y-67073576D01*
X112631424Y-67410415D01*
X113027506Y-67675069D01*
X113467608Y-67857365D01*
X113934818Y-67950299D01*
X114411182Y-67950299D01*
X114878392Y-67857365D01*
X115318494Y-67675069D01*
X115714576Y-67410415D01*
X116051415Y-67073576D01*
X116316069Y-66677494D01*
X116498365Y-66237392D01*
X116591299Y-65770182D01*
X116591299Y-65293818D01*
X116498365Y-64826608D01*
X116316069Y-64386506D01*
X116051415Y-63990424D01*
X115714576Y-63653585D01*
X115318494Y-63388931D01*
X114878392Y-63206635D01*
X114411182Y-63113701D01*
X113934818Y-63113701D01*
X113467608Y-63206635D01*
X113027506Y-63388931D01*
X112631424Y-63653585D01*
X112294585Y-63990424D01*
X112029931Y-64386506D01*
X111847635Y-64826608D01*
X111754701Y-65293818D01*
X105669299Y-65293818D01*
X105576365Y-64826608D01*
X105394069Y-64386506D01*
X105129415Y-63990424D01*
X104792576Y-63653585D01*
X104396494Y-63388931D01*
X103956392Y-63206635D01*
X103489182Y-63113701D01*
X103012818Y-63113701D01*
X102545608Y-63206635D01*
X102105506Y-63388931D01*
X101709424Y-63653585D01*
X101372585Y-63990424D01*
X101107931Y-64386506D01*
X100925635Y-64826608D01*
X100832701Y-65293818D01*
X39593000Y-65293818D01*
X39593000Y-61484521D01*
X53008979Y-61484521D01*
X53008979Y-61931479D01*
X53096176Y-62369849D01*
X53267220Y-62782785D01*
X53515536Y-63154417D01*
X53831583Y-63470464D01*
X54203215Y-63718780D01*
X54616151Y-63889824D01*
X55054521Y-63977021D01*
X55501479Y-63977021D01*
X55939849Y-63889824D01*
X56352785Y-63718780D01*
X56724417Y-63470464D01*
X57040464Y-63154417D01*
X57288780Y-62782785D01*
X57459824Y-62369849D01*
X57547021Y-61931479D01*
X57547021Y-61484521D01*
X57459824Y-61046151D01*
X57288780Y-60633215D01*
X57040464Y-60261583D01*
X56724417Y-59945536D01*
X56352785Y-59697220D01*
X55939849Y-59526176D01*
X55501479Y-59438979D01*
X55054521Y-59438979D01*
X54616151Y-59526176D01*
X54203215Y-59697220D01*
X53831583Y-59945536D01*
X53515536Y-60261583D01*
X53267220Y-60633215D01*
X53096176Y-61046151D01*
X53008979Y-61484521D01*
X39593000Y-61484521D01*
X39593000Y-59304793D01*
X64170924Y-59304793D01*
X64170924Y-60075207D01*
X64321224Y-60830819D01*
X64616049Y-61542589D01*
X65044069Y-62183166D01*
X65588834Y-62727931D01*
X66229411Y-63155951D01*
X66941181Y-63450776D01*
X67696793Y-63601076D01*
X68467207Y-63601076D01*
X69222819Y-63450776D01*
X69934589Y-63155951D01*
X70575166Y-62727931D01*
X71119931Y-62183166D01*
X71547951Y-61542589D01*
X71842776Y-60830819D01*
X71993076Y-60075207D01*
X71993076Y-59304793D01*
X71842776Y-58549181D01*
X71547951Y-57837411D01*
X71119931Y-57196834D01*
X70575166Y-56652069D01*
X69934589Y-56224049D01*
X69222819Y-55929224D01*
X68467207Y-55778924D01*
X67696793Y-55778924D01*
X66941181Y-55929224D01*
X66229411Y-56224049D01*
X65588834Y-56652069D01*
X65044069Y-57196834D01*
X64616049Y-57837411D01*
X64321224Y-58549181D01*
X64170924Y-59304793D01*
X39593000Y-59304793D01*
X39593000Y-49484521D01*
X41163979Y-49484521D01*
X41163979Y-49931479D01*
X41251176Y-50369849D01*
X41422220Y-50782785D01*
X41670536Y-51154417D01*
X41986583Y-51470464D01*
X42358215Y-51718780D01*
X42771151Y-51889824D01*
X43209521Y-51977021D01*
X43656479Y-51977021D01*
X44094849Y-51889824D01*
X44507785Y-51718780D01*
X44879417Y-51470464D01*
X45195464Y-51154417D01*
X45443780Y-50782785D01*
X45614824Y-50369849D01*
X45702021Y-49931479D01*
X45702021Y-49484521D01*
X232163979Y-49484521D01*
X232163979Y-49931479D01*
X232251176Y-50369849D01*
X232422220Y-50782785D01*
X232670536Y-51154417D01*
X232986583Y-51470464D01*
X233358215Y-51718780D01*
X233771151Y-51889824D01*
X234209521Y-51977021D01*
X234656479Y-51977021D01*
X235094849Y-51889824D01*
X235507785Y-51718780D01*
X235879417Y-51470464D01*
X236195464Y-51154417D01*
X236443780Y-50782785D01*
X236614824Y-50369849D01*
X236702021Y-49931479D01*
X236702021Y-49484521D01*
X236614824Y-49046151D01*
X236443780Y-48633215D01*
X236195464Y-48261583D01*
X235879417Y-47945536D01*
X235507785Y-47697220D01*
X235094849Y-47526176D01*
X234656479Y-47438979D01*
X234209521Y-47438979D01*
X233771151Y-47526176D01*
X233358215Y-47697220D01*
X232986583Y-47945536D01*
X232670536Y-48261583D01*
X232422220Y-48633215D01*
X232251176Y-49046151D01*
X232163979Y-49484521D01*
X45702021Y-49484521D01*
X45614824Y-49046151D01*
X45443780Y-48633215D01*
X45195464Y-48261583D01*
X44879417Y-47945536D01*
X44507785Y-47697220D01*
X44094849Y-47526176D01*
X43656479Y-47438979D01*
X43209521Y-47438979D01*
X42771151Y-47526176D01*
X42358215Y-47697220D01*
X41986583Y-47945536D01*
X41670536Y-48261583D01*
X41422220Y-48633215D01*
X41251176Y-49046151D01*
X41163979Y-49484521D01*
X39593000Y-49484521D01*
X39593000Y-45868000D01*
X238273000Y-45868000D01*
X238273001Y-149548000D01*
G37*
%TD.AperFunction*%
M02*
